{
	"patcher" : 	{
		"fileversion" : 1,
		"appversion" : 		{
			"major" : 5,
			"minor" : 1,
			"revision" : 9
		}
,
		"rect" : [ 485.0, 173.0, 671.0, 513.0 ],
		"bgcolor" : [ 0.282353, 0.282353, 0.282353, 1.0 ],
		"bglocked" : 0,
		"defrect" : [ 485.0, 173.0, 671.0, 513.0 ],
		"openrect" : [ 0.0, 0.0, 0.0, 0.0 ],
		"openinpresentation" : 0,
		"default_fontsize" : 12.0,
		"default_fontface" : 0,
		"default_fontname" : "Arial",
		"gridonopen" : 0,
		"gridsize" : [ 15.0, 15.0 ],
		"gridsnaponopen" : 0,
		"toolbarvisible" : 0,
		"boxanimatetime" : 200,
		"imprint" : 1,
		"enablehscroll" : 1,
		"enablevscroll" : 1,
		"devicewidth" : 0.0,
		"boxes" : [ 			{
				"box" : 				{
					"maxclass" : "comment",
					"text" : "1/",
					"frgb" : [ 1.0, 1.0, 1.0, 1.0 ],
					"patching_rect" : [ 358.0, 158.0, 19.0, 17.0 ],
					"numinlets" : 1,
					"presentation" : 0,
					"id" : "obj-43",
					"fontname" : "Arial Bold",
					"underline" : 0,
					"textcolor" : [ 1.0, 1.0, 1.0, 1.0 ],
					"bgcolor" : [ 1.0, 1.0, 1.0, 0.0 ],
					"numoutlets" : 0,
					"background" : 0,
					"fontface" : 0,
					"fontsize" : 9.0,
					"ignoreclick" : 1,
					"presentation_rect" : [ 0.0, 0.0, 0.0, 0.0 ],
					"hidden" : 0
				}

			}
, 			{
				"box" : 				{
					"maxclass" : "number",
					"patching_rect" : [ 371.0, 158.0, 35.0, 17.0 ],
					"minimum" : 0,
					"numinlets" : 1,
					"cantchange" : 0,
					"presentation" : 0,
					"id" : "obj-44",
					"fontname" : "Arial Bold",
					"tricolor" : [ 0.666667, 0.698039, 0.717647, 1.0 ],
					"textcolor" : [ 1.0, 1.0, 1.0, 1.0 ],
					"bgcolor" : [ 0.278431, 0.278431, 0.278431, 1.0 ],
					"numoutlets" : 2,
					"format" : 0,
					"background" : 0,
					"htricolor" : [ 0.921569, 0.94902, 0.05098, 1.0 ],
					"mouseup" : 0,
					"triangle" : 1,
					"maximum" : "<none>",
					"outlettype" : [ "int", "bang" ],
					"outputonclick" : 0,
					"fontface" : 0,
					"hbgcolor" : [ 0.094118, 0.113725, 0.137255, 1.0 ],
					"fontsize" : 9.0,
					"ignoreclick" : 0,
					"presentation_rect" : [ 0.0, 0.0, 0.0, 0.0 ],
					"htextcolor" : [ 1.0, 1.0, 1.0, 1.0 ],
					"triscale" : 1.0,
					"hidden" : 0,
					"bordercolor" : [ 0.494118, 0.556863, 0.607843, 1.0 ]
				}

			}
, 			{
				"box" : 				{
					"maxclass" : "comment",
					"text" : "grain",
					"frgb" : [ 1.0, 1.0, 1.0, 1.0 ],
					"patching_rect" : [ 371.0, 137.0, 33.0, 17.0 ],
					"numinlets" : 1,
					"presentation" : 0,
					"id" : "obj-45",
					"fontname" : "Arial Bold",
					"underline" : 0,
					"textcolor" : [ 1.0, 1.0, 1.0, 1.0 ],
					"bgcolor" : [ 1.0, 1.0, 1.0, 0.0 ],
					"numoutlets" : 0,
					"background" : 0,
					"fontface" : 0,
					"fontsize" : 9.0,
					"ignoreclick" : 1,
					"presentation_rect" : [ 0.0, 0.0, 0.0, 0.0 ],
					"hidden" : 0
				}

			}
, 			{
				"box" : 				{
					"maxclass" : "comment",
					"text" : "1/",
					"frgb" : [ 1.0, 1.0, 1.0, 1.0 ],
					"patching_rect" : [ 386.0, 266.0, 19.0, 17.0 ],
					"numinlets" : 1,
					"presentation" : 0,
					"id" : "obj-34",
					"fontname" : "Arial Bold",
					"underline" : 0,
					"textcolor" : [ 1.0, 1.0, 1.0, 1.0 ],
					"bgcolor" : [ 1.0, 1.0, 1.0, 0.0 ],
					"numoutlets" : 0,
					"background" : 0,
					"fontface" : 0,
					"fontsize" : 9.0,
					"ignoreclick" : 1,
					"presentation_rect" : [ 0.0, 0.0, 0.0, 0.0 ],
					"hidden" : 0
				}

			}
, 			{
				"box" : 				{
					"maxclass" : "number",
					"patching_rect" : [ 399.0, 266.0, 35.0, 17.0 ],
					"minimum" : 0,
					"numinlets" : 1,
					"cantchange" : 0,
					"presentation" : 0,
					"id" : "obj-32",
					"fontname" : "Arial Bold",
					"tricolor" : [ 0.666667, 0.698039, 0.717647, 1.0 ],
					"textcolor" : [ 1.0, 1.0, 1.0, 1.0 ],
					"bgcolor" : [ 0.278431, 0.278431, 0.278431, 1.0 ],
					"numoutlets" : 2,
					"format" : 0,
					"background" : 0,
					"htricolor" : [ 0.921569, 0.94902, 0.05098, 1.0 ],
					"mouseup" : 0,
					"triangle" : 1,
					"maximum" : "<none>",
					"outlettype" : [ "int", "bang" ],
					"outputonclick" : 0,
					"fontface" : 0,
					"hbgcolor" : [ 0.094118, 0.113725, 0.137255, 1.0 ],
					"fontsize" : 9.0,
					"ignoreclick" : 0,
					"presentation_rect" : [ 0.0, 0.0, 0.0, 0.0 ],
					"htextcolor" : [ 1.0, 1.0, 1.0, 1.0 ],
					"triscale" : 1.0,
					"hidden" : 0,
					"bordercolor" : [ 0.494118, 0.556863, 0.607843, 1.0 ]
				}

			}
, 			{
				"box" : 				{
					"maxclass" : "comment",
					"text" : "grain",
					"frgb" : [ 1.0, 1.0, 1.0, 1.0 ],
					"patching_rect" : [ 399.0, 245.0, 33.0, 17.0 ],
					"numinlets" : 1,
					"presentation" : 0,
					"id" : "obj-33",
					"fontname" : "Arial Bold",
					"underline" : 0,
					"textcolor" : [ 1.0, 1.0, 1.0, 1.0 ],
					"bgcolor" : [ 1.0, 1.0, 1.0, 0.0 ],
					"numoutlets" : 0,
					"background" : 0,
					"fontface" : 0,
					"fontsize" : 9.0,
					"ignoreclick" : 1,
					"presentation_rect" : [ 0.0, 0.0, 0.0, 0.0 ],
					"hidden" : 0
				}

			}
, 			{
				"box" : 				{
					"maxclass" : "bach.ratnum",
					"text" : "139/2500",
					"autoreduce" : 1,
					"patching_rect" : [ 393.0, 439.0, 75.0, 19.0 ],
					"minimum" : "none",
					"numinlets" : 1,
					"presentation" : 0,
					"id" : "obj-25",
					"fontname" : "Arial",
					"tricolor" : [ 0.75, 0.75, 0.75, 1.0 ],
					"textcolor" : [ 0.0, 0.0, 0.0, 1.0 ],
					"bgcolor" : [ 1.0, 1.0, 1.0, 1.0 ],
					"numoutlets" : 2,
					"background" : 0,
					"out" : "n",
					"htricolor" : [ 0.87, 0.82, 0.24, 1.0 ],
					"triangle" : 1,
					"maximum" : "none",
					"outlettype" : [ "", "bang" ],
					"fontface" : 0,
					"fontsize" : 11.0,
					"ignoreclick" : 0,
					"presentation_rect" : [ 0.0, 0.0, 0.0, 0.0 ],
					"outputmode" : 0,
					"triscale" : 1.0,
					"hidden" : 0,
					"bordercolor" : [ 0.5, 0.5, 0.5, 1.0 ]
				}

			}
, 			{
				"box" : 				{
					"maxclass" : "comment",
					"text" : "grain",
					"frgb" : [ 1.0, 1.0, 1.0, 1.0 ],
					"patching_rect" : [ 448.0, 411.0, 33.0, 17.0 ],
					"numinlets" : 1,
					"presentation" : 0,
					"id" : "obj-27",
					"fontname" : "Arial Bold",
					"underline" : 0,
					"textcolor" : [ 1.0, 1.0, 1.0, 1.0 ],
					"bgcolor" : [ 1.0, 1.0, 1.0, 0.0 ],
					"numoutlets" : 0,
					"background" : 0,
					"fontface" : 0,
					"fontsize" : 9.0,
					"ignoreclick" : 1,
					"presentation_rect" : [ 0.0, 0.0, 0.0, 0.0 ],
					"hidden" : 0
				}

			}
, 			{
				"box" : 				{
					"maxclass" : "flonum",
					"patching_rect" : [ 393.0, 411.0, 55.0, 19.0 ],
					"minimum" : "<none>",
					"numinlets" : 1,
					"cantchange" : 0,
					"presentation" : 0,
					"id" : "obj-31",
					"fontname" : "Arial",
					"tricolor" : [ 0.666667, 0.698039, 0.717647, 1.0 ],
					"textcolor" : [ 0.101961, 0.121569, 0.172549, 1.0 ],
					"bgcolor" : [ 1.0, 1.0, 1.0, 1.0 ],
					"numoutlets" : 2,
					"background" : 0,
					"htricolor" : [ 0.921569, 0.94902, 0.05098, 1.0 ],
					"mouseup" : 0,
					"numdecimalplaces" : 0,
					"triangle" : 1,
					"maximum" : "<none>",
					"outlettype" : [ "float", "bang" ],
					"outputonclick" : 0,
					"fontface" : 0,
					"hbgcolor" : [ 0.094118, 0.113725, 0.137255, 1.0 ],
					"fontsize" : 11.0,
					"ignoreclick" : 0,
					"presentation_rect" : [ 0.0, 0.0, 0.0, 0.0 ],
					"htextcolor" : [ 1.0, 1.0, 1.0, 1.0 ],
					"triscale" : 1.0,
					"hidden" : 0,
					"bordercolor" : [ 0.494118, 0.556863, 0.607843, 1.0 ]
				}

			}
, 			{
				"box" : 				{
					"maxclass" : "bach.ratnum",
					"text" : "6667/10000",
					"autoreduce" : 1,
					"patching_rect" : [ 305.0, 439.0, 75.0, 19.0 ],
					"minimum" : "none",
					"numinlets" : 1,
					"presentation" : 0,
					"id" : "obj-23",
					"fontname" : "Arial",
					"tricolor" : [ 0.75, 0.75, 0.75, 1.0 ],
					"textcolor" : [ 0.0, 0.0, 0.0, 1.0 ],
					"bgcolor" : [ 1.0, 1.0, 1.0, 1.0 ],
					"numoutlets" : 2,
					"background" : 0,
					"out" : "n",
					"htricolor" : [ 0.87, 0.82, 0.24, 1.0 ],
					"triangle" : 1,
					"maximum" : "none",
					"outlettype" : [ "", "bang" ],
					"fontface" : 0,
					"fontsize" : 11.0,
					"ignoreclick" : 0,
					"presentation_rect" : [ 0.0, 0.0, 0.0, 0.0 ],
					"outputmode" : 0,
					"triscale" : 1.0,
					"hidden" : 0,
					"bordercolor" : [ 0.5, 0.5, 0.5, 1.0 ]
				}

			}
, 			{
				"box" : 				{
					"maxclass" : "bach.ratnum",
					"text" : "1667/10000",
					"autoreduce" : 1,
					"patching_rect" : [ 218.0, 439.0, 75.0, 19.0 ],
					"minimum" : "none",
					"numinlets" : 1,
					"presentation" : 0,
					"id" : "obj-5",
					"fontname" : "Arial",
					"tricolor" : [ 0.75, 0.75, 0.75, 1.0 ],
					"textcolor" : [ 0.0, 0.0, 0.0, 1.0 ],
					"bgcolor" : [ 1.0, 1.0, 1.0, 1.0 ],
					"numoutlets" : 2,
					"background" : 0,
					"out" : "n",
					"htricolor" : [ 0.87, 0.82, 0.24, 1.0 ],
					"triangle" : 1,
					"maximum" : "none",
					"outlettype" : [ "", "bang" ],
					"fontface" : 0,
					"fontsize" : 11.0,
					"ignoreclick" : 0,
					"presentation_rect" : [ 0.0, 0.0, 0.0, 0.0 ],
					"outputmode" : 0,
					"triscale" : 1.0,
					"hidden" : 0,
					"bordercolor" : [ 0.5, 0.5, 0.5, 1.0 ]
				}

			}
, 			{
				"box" : 				{
					"maxclass" : "comment",
					"text" : "list >> min(num den) max(num den)",
					"frgb" : [ 1.0, 1.0, 1.0, 1.0 ],
					"patching_rect" : [ 466.0, 197.0, 163.0, 17.0 ],
					"numinlets" : 1,
					"presentation" : 0,
					"id" : "obj-21",
					"fontname" : "Arial Bold",
					"underline" : 0,
					"textcolor" : [ 1.0, 1.0, 1.0, 1.0 ],
					"bgcolor" : [ 1.0, 1.0, 1.0, 0.0 ],
					"numoutlets" : 0,
					"background" : 0,
					"fontface" : 0,
					"fontsize" : 9.0,
					"ignoreclick" : 1,
					"presentation_rect" : [ 0.0, 0.0, 0.0, 0.0 ],
					"hidden" : 0
				}

			}
, 			{
				"box" : 				{
					"maxclass" : "toggle",
					"checkedcolor" : [ 0.301961, 0.337255, 0.403922, 1.0 ],
					"patching_rect" : [ 60.0, 158.0, 20.0, 20.0 ],
					"numinlets" : 1,
					"presentation" : 0,
					"id" : "obj-6",
					"bgcolor" : [ 1.0, 1.0, 1.0, 1.0 ],
					"numoutlets" : 1,
					"background" : 0,
					"outlettype" : [ "int" ],
					"ignoreclick" : 0,
					"presentation_rect" : [ 0.0, 0.0, 0.0, 0.0 ],
					"hidden" : 0,
					"bordercolor" : [ 0.494118, 0.556863, 0.607843, 1.0 ]
				}

			}
, 			{
				"box" : 				{
					"maxclass" : "newobj",
					"text" : "qmetro 200 @active 1",
					"linecount" : 2,
					"patching_rect" : [ 60.0, 187.0, 57.0, 27.0 ],
					"numinlets" : 2,
					"presentation" : 0,
					"id" : "obj-3",
					"fontname" : "Arial",
					"textcolor" : [ 0.101961, 0.121569, 0.172549, 1.0 ],
					"bgcolor" : [ 1.0, 1.0, 1.0, 1.0 ],
					"numoutlets" : 1,
					"background" : 0,
					"color" : [ 0.494118, 0.556863, 0.607843, 1.0 ],
					"outlettype" : [ "bang" ],
					"fontface" : 0,
					"fontsize" : 9.0,
					"ignoreclick" : 0,
					"presentation_rect" : [ 0.0, 0.0, 0.0, 0.0 ],
					"hidden" : 0
				}

			}
, 			{
				"box" : 				{
					"maxclass" : "comment",
					"text" : "@out n  (default) >> bach native",
					"frgb" : [ 1.0, 1.0, 1.0, 1.0 ],
					"patching_rect" : [ 466.0, 230.0, 147.0, 17.0 ],
					"numinlets" : 1,
					"presentation" : 0,
					"id" : "obj-13",
					"fontname" : "Arial Bold",
					"underline" : 0,
					"textcolor" : [ 1.0, 1.0, 1.0, 1.0 ],
					"bgcolor" : [ 1.0, 1.0, 1.0, 0.0 ],
					"numoutlets" : 0,
					"background" : 0,
					"fontface" : 0,
					"fontsize" : 9.0,
					"ignoreclick" : 1,
					"presentation_rect" : [ 0.0, 0.0, 0.0, 0.0 ],
					"hidden" : 0
				}

			}
, 			{
				"box" : 				{
					"maxclass" : "comment",
					"text" : "@out t >> text",
					"frgb" : [ 1.0, 1.0, 1.0, 1.0 ],
					"patching_rect" : [ 466.0, 213.0, 70.0, 17.0 ],
					"numinlets" : 1,
					"presentation" : 0,
					"id" : "obj-12",
					"fontname" : "Arial Bold",
					"underline" : 0,
					"textcolor" : [ 1.0, 1.0, 1.0, 1.0 ],
					"bgcolor" : [ 1.0, 1.0, 1.0, 0.0 ],
					"numoutlets" : 0,
					"background" : 0,
					"fontface" : 0,
					"fontsize" : 9.0,
					"ignoreclick" : 1,
					"presentation_rect" : [ 0.0, 0.0, 0.0, 0.0 ],
					"hidden" : 0
				}

			}
, 			{
				"box" : 				{
					"maxclass" : "comment",
					"text" : "__________",
					"frgb" : [ 1.0, 1.0, 1.0, 1.0 ],
					"patching_rect" : [ 466.0, 179.0, 62.0, 17.0 ],
					"numinlets" : 1,
					"presentation" : 0,
					"id" : "obj-11",
					"fontname" : "Arial Bold",
					"underline" : 0,
					"textcolor" : [ 1.0, 1.0, 1.0, 1.0 ],
					"bgcolor" : [ 1.0, 1.0, 1.0, 0.0 ],
					"numoutlets" : 0,
					"background" : 0,
					"fontface" : 0,
					"fontsize" : 9.0,
					"ignoreclick" : 1,
					"presentation_rect" : [ 0.0, 0.0, 0.0, 0.0 ],
					"hidden" : 0
				}

			}
, 			{
				"box" : 				{
					"maxclass" : "comment",
					"text" : "arguments :",
					"frgb" : [ 1.0, 1.0, 1.0, 1.0 ],
					"patching_rect" : [ 466.0, 178.0, 62.0, 17.0 ],
					"numinlets" : 1,
					"presentation" : 0,
					"id" : "obj-15",
					"fontname" : "Arial Bold",
					"underline" : 0,
					"textcolor" : [ 1.0, 1.0, 1.0, 1.0 ],
					"bgcolor" : [ 1.0, 1.0, 1.0, 0.0 ],
					"numoutlets" : 0,
					"background" : 0,
					"fontface" : 0,
					"fontsize" : 9.0,
					"ignoreclick" : 1,
					"presentation_rect" : [ 0.0, 0.0, 0.0, 0.0 ],
					"hidden" : 0
				}

			}
, 			{
				"box" : 				{
					"maxclass" : "panel",
					"mode" : 0,
					"angle" : 0.0,
					"border" : 0,
					"patching_rect" : [ 461.0, 175.0, 174.0, 77.0 ],
					"numinlets" : 1,
					"presentation" : 0,
					"id" : "obj-29",
					"rounded" : 8,
					"bgcolor" : [ 0.47451, 0.47451, 0.47451, 1.0 ],
					"numoutlets" : 0,
					"grad1" : [ 0.666667, 0.698039, 0.717647, 1.0 ],
					"background" : 0,
					"grad2" : [ 0.301961, 0.337255, 0.403922, 1.0 ],
					"ignoreclick" : 1,
					"presentation_rect" : [ 0.0, 0.0, 0.0, 0.0 ],
					"shadow" : 0,
					"hidden" : 0,
					"bordercolor" : [ 0.415686, 0.454902, 0.52549, 1.0 ]
				}

			}
, 			{
				"box" : 				{
					"maxclass" : "comment",
					"text" : "reset",
					"frgb" : [ 1.0, 1.0, 1.0, 1.0 ],
					"patching_rect" : [ 413.0, 358.0, 32.0, 17.0 ],
					"numinlets" : 1,
					"presentation" : 0,
					"id" : "obj-73",
					"fontname" : "Arial Bold",
					"underline" : 0,
					"textcolor" : [ 1.0, 1.0, 1.0, 1.0 ],
					"bgcolor" : [ 1.0, 1.0, 1.0, 0.0 ],
					"numoutlets" : 0,
					"background" : 0,
					"fontface" : 0,
					"fontsize" : 9.0,
					"ignoreclick" : 1,
					"presentation_rect" : [ 0.0, 0.0, 0.0, 0.0 ],
					"hidden" : 0
				}

			}
, 			{
				"box" : 				{
					"maxclass" : "comment",
					"text" : "max",
					"frgb" : [ 1.0, 1.0, 1.0, 1.0 ],
					"patching_rect" : [ 360.0, 411.0, 29.0, 17.0 ],
					"numinlets" : 1,
					"presentation" : 0,
					"id" : "obj-67",
					"fontname" : "Arial Bold",
					"underline" : 0,
					"textcolor" : [ 1.0, 1.0, 1.0, 1.0 ],
					"bgcolor" : [ 1.0, 1.0, 1.0, 0.0 ],
					"numoutlets" : 0,
					"background" : 0,
					"fontface" : 0,
					"fontsize" : 9.0,
					"ignoreclick" : 1,
					"presentation_rect" : [ 0.0, 0.0, 0.0, 0.0 ],
					"hidden" : 0
				}

			}
, 			{
				"box" : 				{
					"maxclass" : "comment",
					"text" : "min",
					"frgb" : [ 1.0, 1.0, 1.0, 1.0 ],
					"patching_rect" : [ 273.0, 411.0, 27.0, 17.0 ],
					"numinlets" : 1,
					"presentation" : 0,
					"id" : "obj-72",
					"fontname" : "Arial Bold",
					"underline" : 0,
					"textcolor" : [ 1.0, 1.0, 1.0, 1.0 ],
					"bgcolor" : [ 1.0, 1.0, 1.0, 0.0 ],
					"numoutlets" : 0,
					"background" : 0,
					"fontface" : 0,
					"fontsize" : 9.0,
					"ignoreclick" : 1,
					"presentation_rect" : [ 0.0, 0.0, 0.0, 0.0 ],
					"hidden" : 0
				}

			}
, 			{
				"box" : 				{
					"maxclass" : "newobj",
					"text" : "p check_with_floats",
					"patching_rect" : [ 130.0, 385.0, 282.0, 17.0 ],
					"numinlets" : 2,
					"presentation" : 0,
					"id" : "obj-66",
					"fontname" : "Arial",
					"textcolor" : [ 0.101961, 0.121569, 0.172549, 1.0 ],
					"bgcolor" : [ 1.0, 1.0, 1.0, 1.0 ],
					"numoutlets" : 4,
					"background" : 0,
					"color" : [ 0.494118, 0.556863, 0.607843, 1.0 ],
					"outlettype" : [ "", "float", "float", "float" ],
					"fontface" : 0,
					"fontsize" : 9.0,
					"ignoreclick" : 0,
					"presentation_rect" : [ 0.0, 0.0, 0.0, 0.0 ],
					"hidden" : 0,
					"patcher" : 					{
						"fileversion" : 1,
						"appversion" : 						{
							"major" : 5,
							"minor" : 1,
							"revision" : 9
						}
,
						"rect" : [ 321.0, 137.0, 716.0, 344.0 ],
						"bgcolor" : [ 0.666667, 0.698039, 0.717647, 1.0 ],
						"bglocked" : 0,
						"defrect" : [ 321.0, 137.0, 716.0, 344.0 ],
						"openrect" : [ 0.0, 0.0, 0.0, 0.0 ],
						"openinpresentation" : 0,
						"default_fontsize" : 9.0,
						"default_fontface" : 0,
						"default_fontname" : "Arial",
						"gridonopen" : 0,
						"gridsize" : [ 15.0, 15.0 ],
						"gridsnaponopen" : 0,
						"toolbarvisible" : 0,
						"boxanimatetime" : 200,
						"imprint" : 1,
						"enablehscroll" : 1,
						"enablevscroll" : 1,
						"devicewidth" : 0.0,
						"boxes" : [ 							{
								"box" : 								{
									"maxclass" : "newobj",
									"text" : "abs 0.",
									"patching_rect" : [ 410.0, 200.0, 35.0, 17.0 ],
									"numinlets" : 1,
									"presentation" : 0,
									"id" : "obj-12",
									"fontname" : "Arial",
									"textcolor" : [ 0.101961, 0.121569, 0.172549, 1.0 ],
									"bgcolor" : [ 1.0, 1.0, 1.0, 1.0 ],
									"numoutlets" : 1,
									"background" : 0,
									"color" : [ 0.494118, 0.556863, 0.607843, 1.0 ],
									"outlettype" : [ "float" ],
									"fontface" : 0,
									"fontsize" : 9.0,
									"ignoreclick" : 0,
									"presentation_rect" : [ 0.0, 0.0, 0.0, 0.0 ],
									"hidden" : 0
								}

							}
, 							{
								"box" : 								{
									"maxclass" : "newobj",
									"text" : "if $f1 >= 0.000001 then $i1",
									"patching_rect" : [ 410.0, 175.0, 118.0, 17.0 ],
									"numinlets" : 1,
									"presentation" : 0,
									"id" : "obj-11",
									"fontname" : "Arial",
									"textcolor" : [ 0.101961, 0.121569, 0.172549, 1.0 ],
									"bgcolor" : [ 1.0, 1.0, 1.0, 1.0 ],
									"numoutlets" : 1,
									"background" : 0,
									"color" : [ 0.494118, 0.556863, 0.607843, 1.0 ],
									"outlettype" : [ "" ],
									"fontface" : 0,
									"fontsize" : 9.0,
									"ignoreclick" : 0,
									"presentation_rect" : [ 0.0, 0.0, 0.0, 0.0 ],
									"hidden" : 0
								}

							}
, 							{
								"box" : 								{
									"maxclass" : "message",
									"text" : "1",
									"gradient" : 0,
									"patching_rect" : [ 497.0, 55.0, 19.5, 15.0 ],
									"numinlets" : 2,
									"presentation" : 0,
									"id" : "obj-7",
									"fontname" : "Arial",
									"textcolor" : [ 0.101961, 0.121569, 0.172549, 1.0 ],
									"bgcolor" : [ 0.568627, 0.619608, 0.662745, 1.0 ],
									"numoutlets" : 1,
									"background" : 0,
									"bgcolor2" : [ 0.568627, 0.619608, 0.662745, 1.0 ],
									"outlettype" : [ "" ],
									"fontface" : 0,
									"fontsize" : 9.0,
									"ignoreclick" : 0,
									"presentation_rect" : [ 0.0, 0.0, 0.0, 0.0 ],
									"hidden" : 0
								}

							}
, 							{
								"box" : 								{
									"maxclass" : "outlet",
									"patching_rect" : [ 410.0, 297.5, 15.0, 15.0 ],
									"numinlets" : 1,
									"presentation" : 0,
									"id" : "obj-6",
									"numoutlets" : 0,
									"background" : 0,
									"ignoreclick" : 0,
									"presentation_rect" : [ 0.0, 0.0, 0.0, 0.0 ],
									"hidden" : 0,
									"comment" : ""
								}

							}
, 							{
								"box" : 								{
									"maxclass" : "newobj",
									"text" : "float",
									"patching_rect" : [ 483.0, 130.0, 32.5, 17.0 ],
									"numinlets" : 2,
									"presentation" : 0,
									"id" : "obj-5",
									"fontname" : "Arial",
									"textcolor" : [ 0.101961, 0.121569, 0.172549, 1.0 ],
									"bgcolor" : [ 1.0, 1.0, 1.0, 1.0 ],
									"numoutlets" : 1,
									"background" : 0,
									"color" : [ 0.494118, 0.556863, 0.607843, 1.0 ],
									"outlettype" : [ "float" ],
									"fontface" : 0,
									"fontsize" : 9.0,
									"ignoreclick" : 0,
									"presentation_rect" : [ 0.0, 0.0, 0.0, 0.0 ],
									"hidden" : 0
								}

							}
, 							{
								"box" : 								{
									"maxclass" : "newobj",
									"text" : "- 1.",
									"patching_rect" : [ 410.0, 150.0, 91.5, 17.0 ],
									"numinlets" : 2,
									"presentation" : 0,
									"id" : "obj-4",
									"fontname" : "Arial",
									"textcolor" : [ 0.101961, 0.121569, 0.172549, 1.0 ],
									"bgcolor" : [ 1.0, 1.0, 1.0, 1.0 ],
									"numoutlets" : 1,
									"background" : 0,
									"color" : [ 0.494118, 0.556863, 0.607843, 1.0 ],
									"outlettype" : [ "float" ],
									"fontface" : 0,
									"fontsize" : 9.0,
									"ignoreclick" : 0,
									"presentation_rect" : [ 0.0, 0.0, 0.0, 0.0 ],
									"hidden" : 0
								}

							}
, 							{
								"box" : 								{
									"maxclass" : "newobj",
									"text" : "10000.",
									"patching_rect" : [ 556.0, 238.0, 38.0, 17.0 ],
									"numinlets" : 2,
									"presentation" : 0,
									"id" : "obj-2",
									"fontname" : "Arial",
									"textcolor" : [ 0.101961, 0.121569, 0.172549, 1.0 ],
									"bgcolor" : [ 1.0, 1.0, 1.0, 1.0 ],
									"numoutlets" : 1,
									"background" : 0,
									"color" : [ 0.494118, 0.556863, 0.607843, 1.0 ],
									"outlettype" : [ "float" ],
									"fontface" : 0,
									"fontsize" : 9.0,
									"ignoreclick" : 0,
									"presentation_rect" : [ 0.0, 0.0, 0.0, 0.0 ],
									"hidden" : 0
								}

							}
, 							{
								"box" : 								{
									"maxclass" : "newobj",
									"text" : "minimum 10000.",
									"patching_rect" : [ 410.0, 263.0, 165.0, 17.0 ],
									"numinlets" : 2,
									"presentation" : 0,
									"id" : "obj-3",
									"fontname" : "Arial",
									"textcolor" : [ 0.101961, 0.121569, 0.172549, 1.0 ],
									"bgcolor" : [ 1.0, 1.0, 1.0, 1.0 ],
									"numoutlets" : 2,
									"background" : 0,
									"color" : [ 0.494118, 0.556863, 0.607843, 1.0 ],
									"outlettype" : [ "float", "int" ],
									"fontface" : 0,
									"fontsize" : 9.0,
									"ignoreclick" : 0,
									"presentation_rect" : [ 0.0, 0.0, 0.0, 0.0 ],
									"hidden" : 0
								}

							}
, 							{
								"box" : 								{
									"maxclass" : "inlet",
									"patching_rect" : [ 35.0, 19.0, 15.0, 15.0 ],
									"numinlets" : 0,
									"presentation" : 0,
									"id" : "obj-1",
									"numoutlets" : 1,
									"background" : 0,
									"outlettype" : [ "" ],
									"ignoreclick" : 0,
									"presentation_rect" : [ 0.0, 0.0, 0.0, 0.0 ],
									"hidden" : 0,
									"comment" : ""
								}

							}
, 							{
								"box" : 								{
									"maxclass" : "message",
									"text" : "-10000",
									"gradient" : 0,
									"patching_rect" : [ 390.0, 55.0, 39.0, 15.0 ],
									"numinlets" : 2,
									"presentation" : 0,
									"id" : "obj-25",
									"fontname" : "Arial",
									"textcolor" : [ 0.101961, 0.121569, 0.172549, 1.0 ],
									"bgcolor" : [ 0.568627, 0.619608, 0.662745, 1.0 ],
									"numoutlets" : 1,
									"background" : 0,
									"bgcolor2" : [ 0.568627, 0.619608, 0.662745, 1.0 ],
									"outlettype" : [ "" ],
									"fontface" : 0,
									"fontsize" : 9.0,
									"ignoreclick" : 0,
									"presentation_rect" : [ 0.0, 0.0, 0.0, 0.0 ],
									"hidden" : 0
								}

							}
, 							{
								"box" : 								{
									"maxclass" : "newobj",
									"text" : "-10000.",
									"patching_rect" : [ 338.0, 130.0, 41.0, 17.0 ],
									"numinlets" : 2,
									"presentation" : 0,
									"id" : "obj-27",
									"fontname" : "Arial",
									"textcolor" : [ 0.101961, 0.121569, 0.172549, 1.0 ],
									"bgcolor" : [ 1.0, 1.0, 1.0, 1.0 ],
									"numoutlets" : 1,
									"background" : 0,
									"color" : [ 0.494118, 0.556863, 0.607843, 1.0 ],
									"outlettype" : [ "float" ],
									"fontface" : 0,
									"fontsize" : 9.0,
									"ignoreclick" : 0,
									"presentation_rect" : [ 0.0, 0.0, 0.0, 0.0 ],
									"hidden" : 0
								}

							}
, 							{
								"box" : 								{
									"maxclass" : "newobj",
									"text" : "maximum -10000.",
									"patching_rect" : [ 265.0, 150.0, 92.0, 17.0 ],
									"numinlets" : 2,
									"presentation" : 0,
									"id" : "obj-54",
									"fontname" : "Arial",
									"textcolor" : [ 0.101961, 0.121569, 0.172549, 1.0 ],
									"bgcolor" : [ 1.0, 1.0, 1.0, 1.0 ],
									"numoutlets" : 2,
									"background" : 0,
									"color" : [ 0.494118, 0.556863, 0.607843, 1.0 ],
									"outlettype" : [ "float", "int" ],
									"fontface" : 0,
									"fontsize" : 9.0,
									"ignoreclick" : 0,
									"presentation_rect" : [ 0.0, 0.0, 0.0, 0.0 ],
									"hidden" : 0
								}

							}
, 							{
								"box" : 								{
									"maxclass" : "message",
									"text" : "10000",
									"gradient" : 0,
									"patching_rect" : [ 646.0, 55.0, 36.0, 15.0 ],
									"numinlets" : 2,
									"presentation" : 0,
									"id" : "obj-55",
									"fontname" : "Arial",
									"textcolor" : [ 0.101961, 0.121569, 0.172549, 1.0 ],
									"bgcolor" : [ 0.568627, 0.619608, 0.662745, 1.0 ],
									"numoutlets" : 1,
									"background" : 0,
									"bgcolor2" : [ 0.568627, 0.619608, 0.662745, 1.0 ],
									"outlettype" : [ "" ],
									"fontface" : 0,
									"fontsize" : 9.0,
									"ignoreclick" : 0,
									"presentation_rect" : [ 0.0, 0.0, 0.0, 0.0 ],
									"hidden" : 0
								}

							}
, 							{
								"box" : 								{
									"maxclass" : "newobj",
									"text" : "10000.",
									"patching_rect" : [ 193.0, 130.0, 38.0, 17.0 ],
									"numinlets" : 2,
									"presentation" : 0,
									"id" : "obj-21",
									"fontname" : "Arial",
									"textcolor" : [ 0.101961, 0.121569, 0.172549, 1.0 ],
									"bgcolor" : [ 1.0, 1.0, 1.0, 1.0 ],
									"numoutlets" : 1,
									"background" : 0,
									"color" : [ 0.494118, 0.556863, 0.607843, 1.0 ],
									"outlettype" : [ "float" ],
									"fontface" : 0,
									"fontsize" : 9.0,
									"ignoreclick" : 0,
									"presentation_rect" : [ 0.0, 0.0, 0.0, 0.0 ],
									"hidden" : 0
								}

							}
, 							{
								"box" : 								{
									"maxclass" : "newobj",
									"text" : "minimum 10000.",
									"patching_rect" : [ 120.0, 150.0, 92.0, 17.0 ],
									"numinlets" : 2,
									"presentation" : 0,
									"id" : "obj-57",
									"fontname" : "Arial",
									"textcolor" : [ 0.101961, 0.121569, 0.172549, 1.0 ],
									"bgcolor" : [ 1.0, 1.0, 1.0, 1.0 ],
									"numoutlets" : 2,
									"background" : 0,
									"color" : [ 0.494118, 0.556863, 0.607843, 1.0 ],
									"outlettype" : [ "float", "int" ],
									"fontface" : 0,
									"fontsize" : 9.0,
									"ignoreclick" : 0,
									"presentation_rect" : [ 0.0, 0.0, 0.0, 0.0 ],
									"hidden" : 0
								}

							}
, 							{
								"box" : 								{
									"maxclass" : "newobj",
									"text" : "t f b f b f b b",
									"patching_rect" : [ 120.0, 101.0, 454.5, 17.0 ],
									"numinlets" : 1,
									"presentation" : 0,
									"id" : "obj-58",
									"fontname" : "Arial",
									"textcolor" : [ 0.101961, 0.121569, 0.172549, 1.0 ],
									"bgcolor" : [ 1.0, 1.0, 1.0, 1.0 ],
									"numoutlets" : 7,
									"background" : 0,
									"color" : [ 0.494118, 0.556863, 0.607843, 1.0 ],
									"outlettype" : [ "float", "bang", "float", "bang", "float", "bang", "bang" ],
									"fontface" : 0,
									"fontsize" : 9.0,
									"ignoreclick" : 0,
									"presentation_rect" : [ 0.0, 0.0, 0.0, 0.0 ],
									"hidden" : 0
								}

							}
, 							{
								"box" : 								{
									"maxclass" : "newobj",
									"text" : "bach.expr float($r1) @out t",
									"patching_rect" : [ 35.0, 55.0, 118.0, 17.0 ],
									"numinlets" : 1,
									"presentation" : 0,
									"id" : "obj-61",
									"fontname" : "Arial",
									"textcolor" : [ 0.101961, 0.121569, 0.172549, 1.0 ],
									"bgcolor" : [ 1.0, 1.0, 1.0, 1.0 ],
									"numoutlets" : 1,
									"background" : 0,
									"color" : [ 0.494118, 0.556863, 0.607843, 1.0 ],
									"outlettype" : [ "" ],
									"fontface" : 0,
									"fontsize" : 9.0,
									"ignoreclick" : 0,
									"presentation_rect" : [ 0.0, 0.0, 0.0, 0.0 ],
									"hidden" : 0
								}

							}
, 							{
								"box" : 								{
									"maxclass" : "inlet",
									"patching_rect" : [ 390.0, 19.0, 15.0, 15.0 ],
									"numinlets" : 0,
									"presentation" : 0,
									"id" : "obj-62",
									"numoutlets" : 1,
									"background" : 0,
									"outlettype" : [ "bang" ],
									"ignoreclick" : 0,
									"presentation_rect" : [ 0.0, 0.0, 0.0, 0.0 ],
									"hidden" : 0,
									"comment" : ""
								}

							}
, 							{
								"box" : 								{
									"maxclass" : "outlet",
									"patching_rect" : [ 35.0, 297.5, 15.0, 15.0 ],
									"numinlets" : 1,
									"presentation" : 0,
									"id" : "obj-63",
									"numoutlets" : 0,
									"background" : 0,
									"ignoreclick" : 0,
									"presentation_rect" : [ 0.0, 0.0, 0.0, 0.0 ],
									"hidden" : 0,
									"comment" : ""
								}

							}
, 							{
								"box" : 								{
									"maxclass" : "outlet",
									"patching_rect" : [ 120.0, 297.5, 15.0, 15.0 ],
									"numinlets" : 1,
									"presentation" : 0,
									"id" : "obj-64",
									"numoutlets" : 0,
									"background" : 0,
									"ignoreclick" : 0,
									"presentation_rect" : [ 0.0, 0.0, 0.0, 0.0 ],
									"hidden" : 0,
									"comment" : ""
								}

							}
, 							{
								"box" : 								{
									"maxclass" : "outlet",
									"patching_rect" : [ 265.0, 297.5, 15.0, 15.0 ],
									"numinlets" : 1,
									"presentation" : 0,
									"id" : "obj-65",
									"numoutlets" : 0,
									"background" : 0,
									"ignoreclick" : 0,
									"presentation_rect" : [ 0.0, 0.0, 0.0, 0.0 ],
									"hidden" : 0,
									"comment" : ""
								}

							}
 ],
						"lines" : [ 							{
								"patchline" : 								{
									"source" : [ "obj-12", 0 ],
									"destination" : [ "obj-5", 1 ],
									"hidden" : 0,
									"color" : [ 0.101961, 0.121569, 0.172549, 1.0 ],
									"midpoints" : [ 419.5, 226.0, 535.75, 226.0, 535.75, 120.0, 506.0, 120.0 ]
								}

							}
, 							{
								"patchline" : 								{
									"source" : [ "obj-12", 0 ],
									"destination" : [ "obj-3", 0 ],
									"hidden" : 0,
									"color" : [ 0.101961, 0.121569, 0.172549, 1.0 ],
									"midpoints" : [  ]
								}

							}
, 							{
								"patchline" : 								{
									"source" : [ "obj-11", 0 ],
									"destination" : [ "obj-12", 0 ],
									"hidden" : 0,
									"color" : [ 0.101961, 0.121569, 0.172549, 1.0 ],
									"midpoints" : [  ]
								}

							}
, 							{
								"patchline" : 								{
									"source" : [ "obj-4", 0 ],
									"destination" : [ "obj-11", 0 ],
									"hidden" : 0,
									"color" : [ 0.101961, 0.121569, 0.172549, 1.0 ],
									"midpoints" : [  ]
								}

							}
, 							{
								"patchline" : 								{
									"source" : [ "obj-54", 0 ],
									"destination" : [ "obj-65", 0 ],
									"hidden" : 0,
									"color" : [ 0.101961, 0.121569, 0.172549, 1.0 ],
									"midpoints" : [  ]
								}

							}
, 							{
								"patchline" : 								{
									"source" : [ "obj-27", 0 ],
									"destination" : [ "obj-54", 1 ],
									"hidden" : 0,
									"color" : [ 0.101961, 0.121569, 0.172549, 1.0 ],
									"midpoints" : [  ]
								}

							}
, 							{
								"patchline" : 								{
									"source" : [ "obj-54", 0 ],
									"destination" : [ "obj-27", 1 ],
									"hidden" : 0,
									"color" : [ 0.101961, 0.121569, 0.172549, 1.0 ],
									"midpoints" : [ 274.5, 172.0, 388.25, 172.0, 388.25, 119.0, 369.5, 119.0 ]
								}

							}
, 							{
								"patchline" : 								{
									"source" : [ "obj-58", 2 ],
									"destination" : [ "obj-54", 0 ],
									"hidden" : 0,
									"color" : [ 0.101961, 0.121569, 0.172549, 1.0 ],
									"midpoints" : [  ]
								}

							}
, 							{
								"patchline" : 								{
									"source" : [ "obj-57", 0 ],
									"destination" : [ "obj-64", 0 ],
									"hidden" : 0,
									"color" : [ 0.101961, 0.121569, 0.172549, 1.0 ],
									"midpoints" : [  ]
								}

							}
, 							{
								"patchline" : 								{
									"source" : [ "obj-21", 0 ],
									"destination" : [ "obj-57", 1 ],
									"hidden" : 0,
									"color" : [ 0.101961, 0.121569, 0.172549, 1.0 ],
									"midpoints" : [  ]
								}

							}
, 							{
								"patchline" : 								{
									"source" : [ "obj-57", 0 ],
									"destination" : [ "obj-21", 1 ],
									"hidden" : 0,
									"color" : [ 0.101961, 0.121569, 0.172549, 1.0 ],
									"midpoints" : [ 129.5, 173.0, 238.25, 173.0, 238.25, 120.0, 221.5, 120.0 ]
								}

							}
, 							{
								"patchline" : 								{
									"source" : [ "obj-58", 0 ],
									"destination" : [ "obj-57", 0 ],
									"hidden" : 0,
									"color" : [ 0.101961, 0.121569, 0.172549, 1.0 ],
									"midpoints" : [  ]
								}

							}
, 							{
								"patchline" : 								{
									"source" : [ "obj-3", 0 ],
									"destination" : [ "obj-2", 1 ],
									"hidden" : 0,
									"color" : [ 0.101961, 0.121569, 0.172549, 1.0 ],
									"midpoints" : [ 419.5, 290.0, 609.25, 290.0, 609.25, 224.0, 584.5, 224.0 ]
								}

							}
, 							{
								"patchline" : 								{
									"source" : [ "obj-2", 0 ],
									"destination" : [ "obj-3", 1 ],
									"hidden" : 0,
									"color" : [ 0.101961, 0.121569, 0.172549, 1.0 ],
									"midpoints" : [  ]
								}

							}
, 							{
								"patchline" : 								{
									"source" : [ "obj-3", 0 ],
									"destination" : [ "obj-6", 0 ],
									"hidden" : 0,
									"color" : [ 0.101961, 0.121569, 0.172549, 1.0 ],
									"midpoints" : [  ]
								}

							}
, 							{
								"patchline" : 								{
									"source" : [ "obj-58", 5 ],
									"destination" : [ "obj-5", 0 ],
									"hidden" : 0,
									"color" : [ 0.101961, 0.121569, 0.172549, 1.0 ],
									"midpoints" : [  ]
								}

							}
, 							{
								"patchline" : 								{
									"source" : [ "obj-7", 0 ],
									"destination" : [ "obj-5", 1 ],
									"hidden" : 0,
									"color" : [ 0.101961, 0.121569, 0.172549, 1.0 ],
									"midpoints" : [  ]
								}

							}
, 							{
								"patchline" : 								{
									"source" : [ "obj-5", 0 ],
									"destination" : [ "obj-4", 1 ],
									"hidden" : 0,
									"color" : [ 0.101961, 0.121569, 0.172549, 1.0 ],
									"midpoints" : [  ]
								}

							}
, 							{
								"patchline" : 								{
									"source" : [ "obj-58", 4 ],
									"destination" : [ "obj-4", 0 ],
									"hidden" : 0,
									"color" : [ 0.101961, 0.121569, 0.172549, 1.0 ],
									"midpoints" : [  ]
								}

							}
, 							{
								"patchline" : 								{
									"source" : [ "obj-62", 0 ],
									"destination" : [ "obj-7", 0 ],
									"hidden" : 0,
									"color" : [ 0.101961, 0.121569, 0.172549, 1.0 ],
									"midpoints" : [  ]
								}

							}
, 							{
								"patchline" : 								{
									"source" : [ "obj-55", 0 ],
									"destination" : [ "obj-2", 1 ],
									"hidden" : 0,
									"color" : [ 0.0, 0.278431, 1.0, 1.0 ],
									"midpoints" : [  ]
								}

							}
, 							{
								"patchline" : 								{
									"source" : [ "obj-58", 6 ],
									"destination" : [ "obj-2", 0 ],
									"hidden" : 0,
									"color" : [ 0.101961, 0.121569, 0.172549, 1.0 ],
									"midpoints" : [  ]
								}

							}
, 							{
								"patchline" : 								{
									"source" : [ "obj-58", 1 ],
									"destination" : [ "obj-21", 0 ],
									"hidden" : 0,
									"color" : [ 0.101961, 0.121569, 0.172549, 1.0 ],
									"midpoints" : [  ]
								}

							}
, 							{
								"patchline" : 								{
									"source" : [ "obj-61", 0 ],
									"destination" : [ "obj-58", 0 ],
									"hidden" : 0,
									"color" : [ 0.101961, 0.121569, 0.172549, 1.0 ],
									"midpoints" : [  ]
								}

							}
, 							{
								"patchline" : 								{
									"source" : [ "obj-58", 3 ],
									"destination" : [ "obj-27", 0 ],
									"hidden" : 0,
									"color" : [ 0.101961, 0.121569, 0.172549, 1.0 ],
									"midpoints" : [  ]
								}

							}
, 							{
								"patchline" : 								{
									"source" : [ "obj-25", 0 ],
									"destination" : [ "obj-27", 1 ],
									"hidden" : 0,
									"color" : [ 0.101961, 0.121569, 0.172549, 1.0 ],
									"midpoints" : [  ]
								}

							}
, 							{
								"patchline" : 								{
									"source" : [ "obj-55", 0 ],
									"destination" : [ "obj-21", 1 ],
									"hidden" : 0,
									"color" : [ 0.0, 0.278431, 1.0, 1.0 ],
									"midpoints" : [  ]
								}

							}
, 							{
								"patchline" : 								{
									"source" : [ "obj-1", 0 ],
									"destination" : [ "obj-61", 0 ],
									"hidden" : 0,
									"color" : [ 0.101961, 0.121569, 0.172549, 1.0 ],
									"midpoints" : [  ]
								}

							}
, 							{
								"patchline" : 								{
									"source" : [ "obj-62", 0 ],
									"destination" : [ "obj-55", 0 ],
									"hidden" : 0,
									"color" : [ 0.101961, 0.121569, 0.172549, 1.0 ],
									"midpoints" : [  ]
								}

							}
, 							{
								"patchline" : 								{
									"source" : [ "obj-62", 0 ],
									"destination" : [ "obj-25", 0 ],
									"hidden" : 0,
									"color" : [ 0.101961, 0.121569, 0.172549, 1.0 ],
									"midpoints" : [  ]
								}

							}
, 							{
								"patchline" : 								{
									"source" : [ "obj-61", 0 ],
									"destination" : [ "obj-63", 0 ],
									"hidden" : 0,
									"color" : [ 0.101961, 0.121569, 0.172549, 1.0 ],
									"midpoints" : [  ]
								}

							}
 ]
					}
,
					"saved_object_attributes" : 					{
						"default_fontface" : 0,
						"fontname" : "Arial",
						"default_fontname" : "Arial",
						"globalpatchername" : "",
						"default_fontsize" : 9.0,
						"fontface" : 0,
						"fontsize" : 9.0
					}

				}

			}
, 			{
				"box" : 				{
					"maxclass" : "button",
					"patching_rect" : [ 393.0, 357.0, 20.0, 20.0 ],
					"numinlets" : 1,
					"presentation" : 0,
					"id" : "obj-30",
					"fgcolor" : [ 1.0, 1.0, 1.0, 1.0 ],
					"bgcolor" : [ 0.568627, 0.619608, 0.662745, 1.0 ],
					"numoutlets" : 1,
					"background" : 0,
					"outlettype" : [ "bang" ],
					"blinkcolor" : [ 1.0, 0.890196, 0.090196, 1.0 ],
					"ignoreclick" : 0,
					"outlinecolor" : [ 0.494118, 0.556863, 0.607843, 1.0 ],
					"presentation_rect" : [ 0.0, 0.0, 0.0, 0.0 ],
					"hidden" : 0
				}

			}
, 			{
				"box" : 				{
					"maxclass" : "flonum",
					"patching_rect" : [ 305.0, 411.0, 55.0, 19.0 ],
					"minimum" : "<none>",
					"numinlets" : 1,
					"cantchange" : 0,
					"presentation" : 0,
					"id" : "obj-53",
					"fontname" : "Arial",
					"tricolor" : [ 0.666667, 0.698039, 0.717647, 1.0 ],
					"textcolor" : [ 0.101961, 0.121569, 0.172549, 1.0 ],
					"bgcolor" : [ 1.0, 1.0, 1.0, 1.0 ],
					"numoutlets" : 2,
					"background" : 0,
					"htricolor" : [ 0.921569, 0.94902, 0.05098, 1.0 ],
					"mouseup" : 0,
					"numdecimalplaces" : 0,
					"triangle" : 1,
					"maximum" : "<none>",
					"outlettype" : [ "float", "bang" ],
					"outputonclick" : 0,
					"fontface" : 0,
					"hbgcolor" : [ 0.094118, 0.113725, 0.137255, 1.0 ],
					"fontsize" : 11.0,
					"ignoreclick" : 0,
					"presentation_rect" : [ 0.0, 0.0, 0.0, 0.0 ],
					"htextcolor" : [ 1.0, 1.0, 1.0, 1.0 ],
					"triscale" : 1.0,
					"hidden" : 0,
					"bordercolor" : [ 0.494118, 0.556863, 0.607843, 1.0 ]
				}

			}
, 			{
				"box" : 				{
					"maxclass" : "flonum",
					"patching_rect" : [ 218.0, 411.0, 55.0, 19.0 ],
					"minimum" : "<none>",
					"numinlets" : 1,
					"cantchange" : 0,
					"presentation" : 0,
					"id" : "obj-56",
					"fontname" : "Arial",
					"tricolor" : [ 0.666667, 0.698039, 0.717647, 1.0 ],
					"textcolor" : [ 0.101961, 0.121569, 0.172549, 1.0 ],
					"bgcolor" : [ 1.0, 1.0, 1.0, 1.0 ],
					"numoutlets" : 2,
					"background" : 0,
					"htricolor" : [ 0.921569, 0.94902, 0.05098, 1.0 ],
					"mouseup" : 0,
					"numdecimalplaces" : 0,
					"triangle" : 1,
					"maximum" : "<none>",
					"outlettype" : [ "float", "bang" ],
					"outputonclick" : 0,
					"fontface" : 0,
					"hbgcolor" : [ 0.094118, 0.113725, 0.137255, 1.0 ],
					"fontsize" : 11.0,
					"ignoreclick" : 0,
					"presentation_rect" : [ 0.0, 0.0, 0.0, 0.0 ],
					"htextcolor" : [ 1.0, 1.0, 1.0, 1.0 ],
					"triscale" : 1.0,
					"hidden" : 0,
					"bordercolor" : [ 0.494118, 0.556863, 0.607843, 1.0 ]
				}

			}
, 			{
				"box" : 				{
					"maxclass" : "flonum",
					"patching_rect" : [ 130.0, 411.0, 55.0, 19.0 ],
					"minimum" : "<none>",
					"numinlets" : 1,
					"cantchange" : 0,
					"presentation" : 0,
					"id" : "obj-59",
					"fontname" : "Arial",
					"tricolor" : [ 0.666667, 0.698039, 0.717647, 1.0 ],
					"textcolor" : [ 0.101961, 0.121569, 0.172549, 1.0 ],
					"bgcolor" : [ 1.0, 1.0, 1.0, 1.0 ],
					"numoutlets" : 2,
					"background" : 0,
					"htricolor" : [ 0.921569, 0.94902, 0.05098, 1.0 ],
					"mouseup" : 0,
					"numdecimalplaces" : 0,
					"triangle" : 1,
					"maximum" : "<none>",
					"outlettype" : [ "float", "bang" ],
					"outputonclick" : 0,
					"fontface" : 0,
					"hbgcolor" : [ 0.094118, 0.113725, 0.137255, 1.0 ],
					"fontsize" : 11.0,
					"ignoreclick" : 0,
					"presentation_rect" : [ 0.0, 0.0, 0.0, 0.0 ],
					"htextcolor" : [ 1.0, 1.0, 1.0, 1.0 ],
					"triscale" : 1.0,
					"hidden" : 0,
					"bordercolor" : [ 0.494118, 0.556863, 0.607843, 1.0 ]
				}

			}
, 			{
				"box" : 				{
					"maxclass" : "bach.ratnum",
					"text" : "2/9",
					"autoreduce" : 1,
					"patching_rect" : [ 60.0, 411.0, 66.0, 27.0 ],
					"minimum" : "none",
					"numinlets" : 1,
					"presentation" : 0,
					"id" : "obj-52",
					"fontname" : "Arial",
					"tricolor" : [ 0.75, 0.75, 0.75, 1.0 ],
					"textcolor" : [ 0.0, 0.0, 0.0, 1.0 ],
					"bgcolor" : [ 1.0, 1.0, 1.0, 1.0 ],
					"numoutlets" : 2,
					"background" : 0,
					"out" : "n",
					"htricolor" : [ 0.87, 0.82, 0.24, 1.0 ],
					"triangle" : 1,
					"maximum" : "none",
					"outlettype" : [ "", "bang" ],
					"fontface" : 0,
					"fontsize" : 18.0,
					"ignoreclick" : 0,
					"presentation_rect" : [ 0.0, 0.0, 0.0, 0.0 ],
					"outputmode" : 0,
					"triscale" : 1.0,
					"hidden" : 0,
					"bordercolor" : [ 0.5, 0.5, 0.5, 1.0 ]
				}

			}
, 			{
				"box" : 				{
					"maxclass" : "comment",
					"text" : "___________________________________________________",
					"frgb" : [ 1.0, 1.0, 1.0, 1.0 ],
					"patching_rect" : [ 145.0, 126.0, 266.0, 17.0 ],
					"numinlets" : 1,
					"presentation" : 0,
					"id" : "obj-51",
					"fontname" : "Arial Bold",
					"underline" : 0,
					"textcolor" : [ 1.0, 1.0, 1.0, 1.0 ],
					"bgcolor" : [ 1.0, 1.0, 1.0, 0.0 ],
					"numoutlets" : 0,
					"background" : 0,
					"fontface" : 0,
					"fontsize" : 9.0,
					"ignoreclick" : 1,
					"presentation_rect" : [ 0.0, 0.0, 0.0, 0.0 ],
					"hidden" : 0
				}

			}
, 			{
				"box" : 				{
					"maxclass" : "comment",
					"text" : "_________________________________________________________",
					"frgb" : [ 1.0, 1.0, 1.0, 1.0 ],
					"patching_rect" : [ 142.0, 234.0, 296.0, 17.0 ],
					"numinlets" : 1,
					"presentation" : 0,
					"id" : "obj-50",
					"fontname" : "Arial Bold",
					"underline" : 0,
					"textcolor" : [ 1.0, 1.0, 1.0, 1.0 ],
					"bgcolor" : [ 1.0, 1.0, 1.0, 0.0 ],
					"numoutlets" : 0,
					"background" : 0,
					"fontface" : 0,
					"fontsize" : 9.0,
					"ignoreclick" : 1,
					"presentation_rect" : [ 0.0, 0.0, 0.0, 0.0 ],
					"hidden" : 0
				}

			}
, 			{
				"box" : 				{
					"maxclass" : "comment",
					"text" : "OR",
					"frgb" : [ 1.0, 1.0, 1.0, 1.0 ],
					"patching_rect" : [ 388.0, 226.0, 30.0, 21.0 ],
					"numinlets" : 1,
					"presentation" : 0,
					"id" : "obj-41",
					"fontname" : "Arial Bold",
					"underline" : 0,
					"textcolor" : [ 1.0, 1.0, 1.0, 1.0 ],
					"bgcolor" : [ 1.0, 1.0, 1.0, 0.0 ],
					"numoutlets" : 0,
					"background" : 0,
					"fontface" : 0,
					"fontsize" : 13.0,
					"ignoreclick" : 1,
					"presentation_rect" : [ 0.0, 0.0, 0.0, 0.0 ],
					"hidden" : 0
				}

			}
, 			{
				"box" : 				{
					"maxclass" : "comment",
					"text" : "per",
					"frgb" : [ 1.0, 1.0, 1.0, 1.0 ],
					"patching_rect" : [ 297.0, 266.0, 25.0, 17.0 ],
					"numinlets" : 1,
					"presentation" : 0,
					"id" : "obj-10",
					"fontname" : "Arial Bold",
					"underline" : 0,
					"textcolor" : [ 1.0, 1.0, 1.0, 1.0 ],
					"bgcolor" : [ 1.0, 1.0, 1.0, 0.0 ],
					"numoutlets" : 0,
					"background" : 0,
					"fontface" : 0,
					"fontsize" : 9.0,
					"ignoreclick" : 1,
					"presentation_rect" : [ 0.0, 0.0, 0.0, 0.0 ],
					"hidden" : 0
				}

			}
, 			{
				"box" : 				{
					"maxclass" : "number",
					"patching_rect" : [ 263.0, 266.0, 35.0, 17.0 ],
					"minimum" : 0,
					"numinlets" : 1,
					"cantchange" : 0,
					"presentation" : 0,
					"id" : "obj-14",
					"fontname" : "Arial Bold",
					"tricolor" : [ 0.666667, 0.698039, 0.717647, 1.0 ],
					"textcolor" : [ 1.0, 1.0, 1.0, 1.0 ],
					"bgcolor" : [ 0.278431, 0.278431, 0.278431, 1.0 ],
					"numoutlets" : 2,
					"format" : 0,
					"background" : 0,
					"htricolor" : [ 0.921569, 0.94902, 0.05098, 1.0 ],
					"mouseup" : 0,
					"triangle" : 1,
					"maximum" : "<none>",
					"outlettype" : [ "int", "bang" ],
					"outputonclick" : 0,
					"fontface" : 0,
					"hbgcolor" : [ 0.094118, 0.113725, 0.137255, 1.0 ],
					"fontsize" : 9.0,
					"ignoreclick" : 0,
					"presentation_rect" : [ 0.0, 0.0, 0.0, 0.0 ],
					"htextcolor" : [ 1.0, 1.0, 1.0, 1.0 ],
					"triscale" : 1.0,
					"hidden" : 0,
					"bordercolor" : [ 0.494118, 0.556863, 0.607843, 1.0 ]
				}

			}
, 			{
				"box" : 				{
					"maxclass" : "number",
					"patching_rect" : [ 331.0, 266.0, 35.0, 17.0 ],
					"minimum" : 0,
					"numinlets" : 1,
					"cantchange" : 0,
					"presentation" : 0,
					"id" : "obj-16",
					"fontname" : "Arial Bold",
					"tricolor" : [ 0.666667, 0.698039, 0.717647, 1.0 ],
					"textcolor" : [ 1.0, 1.0, 1.0, 1.0 ],
					"bgcolor" : [ 0.278431, 0.278431, 0.278431, 1.0 ],
					"numoutlets" : 2,
					"format" : 0,
					"background" : 0,
					"htricolor" : [ 0.921569, 0.94902, 0.05098, 1.0 ],
					"mouseup" : 0,
					"triangle" : 1,
					"maximum" : "<none>",
					"outlettype" : [ "int", "bang" ],
					"outputonclick" : 0,
					"fontface" : 0,
					"hbgcolor" : [ 0.094118, 0.113725, 0.137255, 1.0 ],
					"fontsize" : 9.0,
					"ignoreclick" : 0,
					"presentation_rect" : [ 0.0, 0.0, 0.0, 0.0 ],
					"htextcolor" : [ 1.0, 1.0, 1.0, 1.0 ],
					"triscale" : 1.0,
					"hidden" : 0,
					"bordercolor" : [ 0.494118, 0.556863, 0.607843, 1.0 ]
				}

			}
, 			{
				"box" : 				{
					"maxclass" : "comment",
					"text" : "max",
					"frgb" : [ 1.0, 1.0, 1.0, 1.0 ],
					"patching_rect" : [ 295.0, 245.0, 29.0, 17.0 ],
					"numinlets" : 1,
					"presentation" : 0,
					"id" : "obj-17",
					"fontname" : "Arial Bold",
					"underline" : 0,
					"textcolor" : [ 1.0, 1.0, 1.0, 1.0 ],
					"bgcolor" : [ 1.0, 1.0, 1.0, 0.0 ],
					"numoutlets" : 0,
					"background" : 0,
					"fontface" : 0,
					"fontsize" : 9.0,
					"ignoreclick" : 1,
					"presentation_rect" : [ 0.0, 0.0, 0.0, 0.0 ],
					"hidden" : 0
				}

			}
, 			{
				"box" : 				{
					"maxclass" : "comment",
					"text" : "per",
					"frgb" : [ 1.0, 1.0, 1.0, 1.0 ],
					"patching_rect" : [ 163.0, 266.0, 25.0, 17.0 ],
					"numinlets" : 1,
					"presentation" : 0,
					"id" : "obj-18",
					"fontname" : "Arial Bold",
					"underline" : 0,
					"textcolor" : [ 1.0, 1.0, 1.0, 1.0 ],
					"bgcolor" : [ 1.0, 1.0, 1.0, 0.0 ],
					"numoutlets" : 0,
					"background" : 0,
					"fontface" : 0,
					"fontsize" : 9.0,
					"ignoreclick" : 1,
					"presentation_rect" : [ 0.0, 0.0, 0.0, 0.0 ],
					"hidden" : 0
				}

			}
, 			{
				"box" : 				{
					"maxclass" : "number",
					"patching_rect" : [ 128.0, 266.0, 35.0, 17.0 ],
					"minimum" : 0,
					"numinlets" : 1,
					"cantchange" : 0,
					"presentation" : 0,
					"id" : "obj-24",
					"fontname" : "Arial Bold",
					"tricolor" : [ 0.666667, 0.698039, 0.717647, 1.0 ],
					"textcolor" : [ 1.0, 1.0, 1.0, 1.0 ],
					"bgcolor" : [ 0.278431, 0.278431, 0.278431, 1.0 ],
					"numoutlets" : 2,
					"format" : 0,
					"background" : 0,
					"htricolor" : [ 0.921569, 0.94902, 0.05098, 1.0 ],
					"mouseup" : 0,
					"triangle" : 1,
					"maximum" : 4,
					"outlettype" : [ "int", "bang" ],
					"outputonclick" : 0,
					"fontface" : 0,
					"hbgcolor" : [ 0.094118, 0.113725, 0.137255, 1.0 ],
					"fontsize" : 9.0,
					"ignoreclick" : 0,
					"presentation_rect" : [ 0.0, 0.0, 0.0, 0.0 ],
					"htextcolor" : [ 1.0, 1.0, 1.0, 1.0 ],
					"triscale" : 1.0,
					"hidden" : 0,
					"bordercolor" : [ 0.494118, 0.556863, 0.607843, 1.0 ]
				}

			}
, 			{
				"box" : 				{
					"maxclass" : "number",
					"patching_rect" : [ 196.0, 266.0, 35.0, 17.0 ],
					"minimum" : 0,
					"numinlets" : 1,
					"cantchange" : 0,
					"presentation" : 0,
					"id" : "obj-28",
					"fontname" : "Arial Bold",
					"tricolor" : [ 0.666667, 0.698039, 0.717647, 1.0 ],
					"textcolor" : [ 1.0, 1.0, 1.0, 1.0 ],
					"bgcolor" : [ 0.278431, 0.278431, 0.278431, 1.0 ],
					"numoutlets" : 2,
					"format" : 0,
					"background" : 0,
					"htricolor" : [ 0.921569, 0.94902, 0.05098, 1.0 ],
					"mouseup" : 0,
					"triangle" : 1,
					"maximum" : "<none>",
					"outlettype" : [ "int", "bang" ],
					"outputonclick" : 0,
					"fontface" : 0,
					"hbgcolor" : [ 0.094118, 0.113725, 0.137255, 1.0 ],
					"fontsize" : 9.0,
					"ignoreclick" : 0,
					"presentation_rect" : [ 0.0, 0.0, 0.0, 0.0 ],
					"htextcolor" : [ 1.0, 1.0, 1.0, 1.0 ],
					"triscale" : 1.0,
					"hidden" : 0,
					"bordercolor" : [ 0.494118, 0.556863, 0.607843, 1.0 ]
				}

			}
, 			{
				"box" : 				{
					"maxclass" : "comment",
					"text" : "min",
					"frgb" : [ 1.0, 1.0, 1.0, 1.0 ],
					"patching_rect" : [ 161.0, 245.0, 27.0, 17.0 ],
					"numinlets" : 1,
					"presentation" : 0,
					"id" : "obj-40",
					"fontname" : "Arial Bold",
					"underline" : 0,
					"textcolor" : [ 1.0, 1.0, 1.0, 1.0 ],
					"bgcolor" : [ 1.0, 1.0, 1.0, 0.0 ],
					"numoutlets" : 0,
					"background" : 0,
					"fontface" : 0,
					"fontsize" : 9.0,
					"ignoreclick" : 1,
					"presentation_rect" : [ 0.0, 0.0, 0.0, 0.0 ],
					"hidden" : 0
				}

			}
, 			{
				"box" : 				{
					"maxclass" : "comment",
					"text" : "per",
					"frgb" : [ 1.0, 1.0, 1.0, 1.0 ],
					"patching_rect" : [ 291.0, 158.0, 27.0, 17.0 ],
					"numinlets" : 1,
					"presentation" : 0,
					"id" : "obj-1",
					"fontname" : "Arial Bold",
					"underline" : 0,
					"textcolor" : [ 1.0, 1.0, 1.0, 1.0 ],
					"bgcolor" : [ 1.0, 1.0, 1.0, 0.0 ],
					"numoutlets" : 0,
					"background" : 0,
					"fontface" : 0,
					"fontsize" : 9.0,
					"ignoreclick" : 1,
					"presentation_rect" : [ 0.0, 0.0, 0.0, 0.0 ],
					"hidden" : 0
				}

			}
, 			{
				"box" : 				{
					"maxclass" : "number",
					"patching_rect" : [ 257.0, 158.0, 35.0, 17.0 ],
					"minimum" : 0,
					"numinlets" : 1,
					"cantchange" : 0,
					"presentation" : 0,
					"id" : "obj-2",
					"fontname" : "Arial Bold",
					"tricolor" : [ 0.666667, 0.698039, 0.717647, 1.0 ],
					"textcolor" : [ 1.0, 1.0, 1.0, 1.0 ],
					"bgcolor" : [ 0.278431, 0.278431, 0.278431, 1.0 ],
					"numoutlets" : 2,
					"format" : 0,
					"background" : 0,
					"htricolor" : [ 0.921569, 0.94902, 0.05098, 1.0 ],
					"mouseup" : 0,
					"triangle" : 1,
					"maximum" : "<none>",
					"outlettype" : [ "int", "bang" ],
					"outputonclick" : 0,
					"fontface" : 0,
					"hbgcolor" : [ 0.094118, 0.113725, 0.137255, 1.0 ],
					"fontsize" : 9.0,
					"ignoreclick" : 0,
					"presentation_rect" : [ 0.0, 0.0, 0.0, 0.0 ],
					"htextcolor" : [ 1.0, 1.0, 1.0, 1.0 ],
					"triscale" : 1.0,
					"hidden" : 0,
					"bordercolor" : [ 0.494118, 0.556863, 0.607843, 1.0 ]
				}

			}
, 			{
				"box" : 				{
					"maxclass" : "number",
					"patching_rect" : [ 314.0, 158.0, 35.0, 17.0 ],
					"minimum" : 0,
					"numinlets" : 1,
					"cantchange" : 0,
					"presentation" : 0,
					"id" : "obj-38",
					"fontname" : "Arial Bold",
					"tricolor" : [ 0.666667, 0.698039, 0.717647, 1.0 ],
					"textcolor" : [ 1.0, 1.0, 1.0, 1.0 ],
					"bgcolor" : [ 0.278431, 0.278431, 0.278431, 1.0 ],
					"numoutlets" : 2,
					"format" : 0,
					"background" : 0,
					"htricolor" : [ 0.921569, 0.94902, 0.05098, 1.0 ],
					"mouseup" : 0,
					"triangle" : 1,
					"maximum" : "<none>",
					"outlettype" : [ "int", "bang" ],
					"outputonclick" : 0,
					"fontface" : 0,
					"hbgcolor" : [ 0.094118, 0.113725, 0.137255, 1.0 ],
					"fontsize" : 9.0,
					"ignoreclick" : 0,
					"presentation_rect" : [ 0.0, 0.0, 0.0, 0.0 ],
					"htextcolor" : [ 1.0, 1.0, 1.0, 1.0 ],
					"triscale" : 1.0,
					"hidden" : 0,
					"bordercolor" : [ 0.494118, 0.556863, 0.607843, 1.0 ]
				}

			}
, 			{
				"box" : 				{
					"maxclass" : "comment",
					"text" : "max",
					"frgb" : [ 1.0, 1.0, 1.0, 1.0 ],
					"patching_rect" : [ 289.0, 137.0, 29.0, 17.0 ],
					"numinlets" : 1,
					"presentation" : 0,
					"id" : "obj-8",
					"fontname" : "Arial Bold",
					"underline" : 0,
					"textcolor" : [ 1.0, 1.0, 1.0, 1.0 ],
					"bgcolor" : [ 1.0, 1.0, 1.0, 0.0 ],
					"numoutlets" : 0,
					"background" : 0,
					"fontface" : 0,
					"fontsize" : 9.0,
					"ignoreclick" : 1,
					"presentation_rect" : [ 0.0, 0.0, 0.0, 0.0 ],
					"hidden" : 0
				}

			}
, 			{
				"box" : 				{
					"maxclass" : "newobj",
					"text" : "pak 0 0 0 0 0",
					"patching_rect" : [ 143.0, 187.0, 247.0, 17.0 ],
					"numinlets" : 5,
					"presentation" : 0,
					"id" : "obj-60",
					"fontname" : "Arial",
					"textcolor" : [ 0.101961, 0.121569, 0.172549, 1.0 ],
					"bgcolor" : [ 1.0, 1.0, 1.0, 1.0 ],
					"numoutlets" : 1,
					"background" : 0,
					"color" : [ 0.494118, 0.556863, 0.607843, 1.0 ],
					"outlettype" : [ "" ],
					"fontface" : 0,
					"fontsize" : 9.0,
					"ignoreclick" : 0,
					"presentation_rect" : [ 0.0, 0.0, 0.0, 0.0 ],
					"hidden" : 0
				}

			}
, 			{
				"box" : 				{
					"maxclass" : "comment",
					"text" : "per",
					"frgb" : [ 1.0, 1.0, 1.0, 1.0 ],
					"patching_rect" : [ 178.0, 158.0, 27.0, 17.0 ],
					"numinlets" : 1,
					"presentation" : 0,
					"id" : "obj-68",
					"fontname" : "Arial Bold",
					"underline" : 0,
					"textcolor" : [ 1.0, 1.0, 1.0, 1.0 ],
					"bgcolor" : [ 1.0, 1.0, 1.0, 0.0 ],
					"numoutlets" : 0,
					"background" : 0,
					"fontface" : 0,
					"fontsize" : 9.0,
					"ignoreclick" : 1,
					"presentation_rect" : [ 0.0, 0.0, 0.0, 0.0 ],
					"hidden" : 0
				}

			}
, 			{
				"box" : 				{
					"maxclass" : "number",
					"patching_rect" : [ 143.0, 158.0, 35.0, 17.0 ],
					"minimum" : 0,
					"numinlets" : 1,
					"cantchange" : 0,
					"presentation" : 0,
					"id" : "obj-69",
					"fontname" : "Arial Bold",
					"tricolor" : [ 0.666667, 0.698039, 0.717647, 1.0 ],
					"textcolor" : [ 1.0, 1.0, 1.0, 1.0 ],
					"bgcolor" : [ 0.278431, 0.278431, 0.278431, 1.0 ],
					"numoutlets" : 2,
					"format" : 0,
					"background" : 0,
					"htricolor" : [ 0.921569, 0.94902, 0.05098, 1.0 ],
					"mouseup" : 0,
					"triangle" : 1,
					"maximum" : 4,
					"outlettype" : [ "int", "bang" ],
					"outputonclick" : 0,
					"fontface" : 0,
					"hbgcolor" : [ 0.094118, 0.113725, 0.137255, 1.0 ],
					"fontsize" : 9.0,
					"ignoreclick" : 0,
					"presentation_rect" : [ 0.0, 0.0, 0.0, 0.0 ],
					"htextcolor" : [ 1.0, 1.0, 1.0, 1.0 ],
					"triscale" : 1.0,
					"hidden" : 0,
					"bordercolor" : [ 0.494118, 0.556863, 0.607843, 1.0 ]
				}

			}
, 			{
				"box" : 				{
					"maxclass" : "number",
					"patching_rect" : [ 200.0, 158.0, 35.0, 17.0 ],
					"minimum" : 0,
					"numinlets" : 1,
					"cantchange" : 0,
					"presentation" : 0,
					"id" : "obj-70",
					"fontname" : "Arial Bold",
					"tricolor" : [ 0.666667, 0.698039, 0.717647, 1.0 ],
					"textcolor" : [ 1.0, 1.0, 1.0, 1.0 ],
					"bgcolor" : [ 0.278431, 0.278431, 0.278431, 1.0 ],
					"numoutlets" : 2,
					"format" : 0,
					"background" : 0,
					"htricolor" : [ 0.921569, 0.94902, 0.05098, 1.0 ],
					"mouseup" : 0,
					"triangle" : 1,
					"maximum" : "<none>",
					"outlettype" : [ "int", "bang" ],
					"outputonclick" : 0,
					"fontface" : 0,
					"hbgcolor" : [ 0.094118, 0.113725, 0.137255, 1.0 ],
					"fontsize" : 9.0,
					"ignoreclick" : 0,
					"presentation_rect" : [ 0.0, 0.0, 0.0, 0.0 ],
					"htextcolor" : [ 1.0, 1.0, 1.0, 1.0 ],
					"triscale" : 1.0,
					"hidden" : 0,
					"bordercolor" : [ 0.494118, 0.556863, 0.607843, 1.0 ]
				}

			}
, 			{
				"box" : 				{
					"maxclass" : "comment",
					"text" : "min",
					"frgb" : [ 1.0, 1.0, 1.0, 1.0 ],
					"patching_rect" : [ 176.0, 137.0, 27.0, 17.0 ],
					"numinlets" : 1,
					"presentation" : 0,
					"id" : "obj-71",
					"fontname" : "Arial Bold",
					"underline" : 0,
					"textcolor" : [ 1.0, 1.0, 1.0, 1.0 ],
					"bgcolor" : [ 1.0, 1.0, 1.0, 0.0 ],
					"numoutlets" : 0,
					"background" : 0,
					"fontface" : 0,
					"fontsize" : 9.0,
					"ignoreclick" : 1,
					"presentation_rect" : [ 0.0, 0.0, 0.0, 0.0 ],
					"hidden" : 0
				}

			}
, 			{
				"box" : 				{
					"maxclass" : "button",
					"patching_rect" : [ 60.0, 242.0, 38.0, 38.0 ],
					"numinlets" : 1,
					"presentation" : 0,
					"id" : "obj-26",
					"fgcolor" : [ 1.0, 1.0, 1.0, 1.0 ],
					"bgcolor" : [ 0.568627, 0.619608, 0.662745, 1.0 ],
					"numoutlets" : 1,
					"background" : 0,
					"outlettype" : [ "bang" ],
					"blinkcolor" : [ 1.0, 0.890196, 0.090196, 1.0 ],
					"ignoreclick" : 0,
					"outlinecolor" : [ 0.494118, 0.556863, 0.607843, 1.0 ],
					"presentation_rect" : [ 0.0, 0.0, 0.0, 0.0 ],
					"hidden" : 0
				}

			}
, 			{
				"box" : 				{
					"maxclass" : "message",
					"text" : ";\rmax launchbrowser http://www.acsu.buffalo.edu/~jtrinker/",
					"linecount" : 2,
					"gradient" : 0,
					"patching_rect" : [ 595.0, 498.0, 238.0, 25.0 ],
					"numinlets" : 2,
					"presentation" : 0,
					"id" : "obj-22",
					"fontname" : "Arial",
					"textcolor" : [ 0.101961, 0.121569, 0.172549, 1.0 ],
					"bgcolor" : [ 0.568627, 0.619608, 0.662745, 1.0 ],
					"numoutlets" : 1,
					"background" : 0,
					"bgcolor2" : [ 0.568627, 0.619608, 0.662745, 1.0 ],
					"outlettype" : [ "" ],
					"fontface" : 0,
					"fontsize" : 9.0,
					"ignoreclick" : 0,
					"presentation_rect" : [ 0.0, 0.0, 0.0, 0.0 ],
					"hidden" : 1
				}

			}
, 			{
				"box" : 				{
					"maxclass" : "comment",
					"text" : "JT Rinker",
					"frgb" : [ 1.0, 1.0, 1.0, 1.0 ],
					"patching_rect" : [ 581.0, 472.0, 61.0, 19.0 ],
					"numinlets" : 1,
					"presentation" : 0,
					"id" : "obj-19",
					"fontname" : "Arial Bold",
					"underline" : 0,
					"textcolor" : [ 1.0, 1.0, 1.0, 1.0 ],
					"bgcolor" : [ 1.0, 1.0, 1.0, 0.0 ],
					"numoutlets" : 0,
					"background" : 0,
					"fontface" : 0,
					"fontsize" : 11.0,
					"ignoreclick" : 1,
					"presentation_rect" : [ 0.0, 0.0, 0.0, 0.0 ],
					"hidden" : 0
				}

			}
, 			{
				"box" : 				{
					"maxclass" : "newobj",
					"text" : "onecopy",
					"patching_rect" : [ 437.0, 498.0, 45.0, 17.0 ],
					"numinlets" : 1,
					"presentation" : 0,
					"id" : "obj-35",
					"fontname" : "Arial",
					"textcolor" : [ 0.101961, 0.121569, 0.172549, 1.0 ],
					"bgcolor" : [ 1.0, 1.0, 1.0, 1.0 ],
					"numoutlets" : 0,
					"background" : 0,
					"color" : [ 0.494118, 0.556863, 0.607843, 1.0 ],
					"fontface" : 0,
					"fontsize" : 9.0,
					"ignoreclick" : 0,
					"presentation_rect" : [ 0.0, 0.0, 0.0, 0.0 ],
					"hidden" : 1
				}

			}
, 			{
				"box" : 				{
					"maxclass" : "message",
					"text" : ";\rmax launchbrowser http://www.opasquet.fr",
					"linecount" : 2,
					"gradient" : 0,
					"patching_rect" : [ 499.0, 498.0, 180.0, 25.0 ],
					"numinlets" : 2,
					"presentation" : 0,
					"id" : "obj-46",
					"fontname" : "Arial",
					"textcolor" : [ 0.101961, 0.121569, 0.172549, 1.0 ],
					"bgcolor" : [ 0.568627, 0.619608, 0.662745, 1.0 ],
					"numoutlets" : 1,
					"background" : 0,
					"bgcolor2" : [ 0.568627, 0.619608, 0.662745, 1.0 ],
					"outlettype" : [ "" ],
					"fontface" : 0,
					"fontsize" : 9.0,
					"ignoreclick" : 0,
					"presentation_rect" : [ 0.0, 0.0, 0.0, 0.0 ],
					"hidden" : 1
				}

			}
, 			{
				"box" : 				{
					"maxclass" : "comment",
					"text" : "2013, Olivier Pasquet,",
					"frgb" : [ 1.0, 1.0, 1.0, 1.0 ],
					"patching_rect" : [ 464.0, 472.0, 124.0, 19.0 ],
					"numinlets" : 1,
					"presentation" : 0,
					"id" : "obj-36",
					"fontname" : "Arial Bold",
					"underline" : 0,
					"textcolor" : [ 1.0, 1.0, 1.0, 1.0 ],
					"bgcolor" : [ 1.0, 1.0, 1.0, 0.0 ],
					"numoutlets" : 0,
					"background" : 0,
					"fontface" : 0,
					"fontsize" : 11.0,
					"ignoreclick" : 1,
					"presentation_rect" : [ 0.0, 0.0, 0.0, 0.0 ],
					"hidden" : 0
				}

			}
, 			{
				"box" : 				{
					"maxclass" : "ubutton",
					"hilite" : 0,
					"hltcolor" : [ 1.0, 1.0, 1.0, 0.501961 ],
					"patching_rect" : [ 581.0, 472.0, 60.0, 18.0 ],
					"numinlets" : 1,
					"presentation" : 0,
					"dragtrack" : 0,
					"id" : "obj-20",
					"toggle" : 0,
					"numoutlets" : 4,
					"stay" : 0,
					"background" : 0,
					"outlettype" : [ "bang", "bang", "", "int" ],
					"handoffdelay" : 250,
					"ignoreclick" : 0,
					"handoff" : "",
					"presentation_rect" : [ 0.0, 0.0, 0.0, 0.0 ],
					"hidden" : 0
				}

			}
, 			{
				"box" : 				{
					"maxclass" : "ubutton",
					"hilite" : 0,
					"hltcolor" : [ 1.0, 1.0, 1.0, 0.501961 ],
					"patching_rect" : [ 464.0, 472.0, 125.0, 18.0 ],
					"numinlets" : 1,
					"presentation" : 0,
					"dragtrack" : 0,
					"id" : "obj-137",
					"toggle" : 0,
					"numoutlets" : 4,
					"stay" : 0,
					"background" : 0,
					"outlettype" : [ "bang", "bang", "", "int" ],
					"handoffdelay" : 250,
					"ignoreclick" : 0,
					"handoff" : "",
					"presentation_rect" : [ 0.0, 0.0, 0.0, 0.0 ],
					"hidden" : 0
				}

			}
, 			{
				"box" : 				{
					"maxclass" : "comment",
					"text" : "jtol.bach.randratio generates rational ratios.\nThis abstraction requires the   ",
					"linecount" : 2,
					"frgb" : [ 1.0, 0.999939, 1.0, 1.0 ],
					"patching_rect" : [ 16.0, 64.0, 424.0, 32.0 ],
					"numinlets" : 1,
					"presentation" : 0,
					"id" : "obj-9",
					"fontname" : "Arial",
					"underline" : 0,
					"textcolor" : [ 1.0, 0.999939, 1.0, 1.0 ],
					"bgcolor" : [ 1.0, 1.0, 1.0, 0.0 ],
					"numoutlets" : 0,
					"background" : 0,
					"fontface" : 0,
					"fontsize" : 11.0,
					"ignoreclick" : 1,
					"presentation_rect" : [ 0.0, 0.0, 0.0, 0.0 ],
					"hidden" : 0
				}

			}
, 			{
				"box" : 				{
					"maxclass" : "comment",
					"varname" : "zsa_description[2]",
					"text" : "Bach library",
					"frgb" : [ 0.93, 0.93, 0.97, 1.0 ],
					"patching_rect" : [ 158.0, 76.0, 74.0, 19.0 ],
					"numinlets" : 1,
					"presentation" : 0,
					"id" : "obj-42",
					"fontname" : "Arial",
					"underline" : 0,
					"textcolor" : [ 0.93, 0.93, 0.97, 1.0 ],
					"bgcolor" : [ 1.0, 1.0, 1.0, 0.0 ],
					"numoutlets" : 0,
					"background" : 0,
					"fontface" : 1,
					"fontsize" : 11.0,
					"ignoreclick" : 1,
					"presentation_rect" : [ 0.0, 0.0, 0.0, 0.0 ],
					"hidden" : 0
				}

			}
, 			{
				"box" : 				{
					"maxclass" : "ubutton",
					"hilite" : 0,
					"hltcolor" : [ 1.0, 1.0, 1.0, 0.501961 ],
					"patching_rect" : [ 156.0, 76.0, 71.0, 21.0 ],
					"numinlets" : 1,
					"presentation" : 0,
					"dragtrack" : 0,
					"id" : "obj-4",
					"toggle" : 0,
					"numoutlets" : 4,
					"stay" : 0,
					"background" : 0,
					"outlettype" : [ "bang", "bang", "", "int" ],
					"handoffdelay" : 250,
					"ignoreclick" : 0,
					"handoff" : "",
					"presentation_rect" : [ 0.0, 0.0, 0.0, 0.0 ],
					"hidden" : 0
				}

			}
, 			{
				"box" : 				{
					"maxclass" : "message",
					"text" : ";\rmax launchbrowser http://www.bachproject.net",
					"linecount" : 2,
					"gradient" : 0,
					"patching_rect" : [ 236.0, 75.0, 197.0, 25.0 ],
					"numinlets" : 2,
					"presentation" : 0,
					"id" : "obj-7",
					"fontname" : "Arial",
					"textcolor" : [ 0.101961, 0.121569, 0.172549, 1.0 ],
					"bgcolor" : [ 0.568627, 0.619608, 0.662745, 1.0 ],
					"numoutlets" : 1,
					"background" : 0,
					"bgcolor2" : [ 0.568627, 0.619608, 0.662745, 1.0 ],
					"outlettype" : [ "" ],
					"fontface" : 0,
					"fontsize" : 9.0,
					"ignoreclick" : 0,
					"presentation_rect" : [ 0.0, 0.0, 0.0, 0.0 ],
					"hidden" : 1
				}

			}
, 			{
				"box" : 				{
					"maxclass" : "comment",
					"varname" : "zsa_description",
					"text" : "generate random rationals",
					"frgb" : [ 0.93, 0.93, 0.97, 1.0 ],
					"patching_rect" : [ 16.0, 39.0, 162.0, 21.0 ],
					"numinlets" : 1,
					"presentation" : 0,
					"id" : "obj-133",
					"fontname" : "Arial",
					"underline" : 0,
					"textcolor" : [ 0.93, 0.93, 0.97, 1.0 ],
					"bgcolor" : [ 1.0, 1.0, 1.0, 0.0 ],
					"numoutlets" : 0,
					"background" : 0,
					"fontface" : 0,
					"fontsize" : 13.0,
					"ignoreclick" : 1,
					"presentation_rect" : [ 0.0, 0.0, 0.0, 0.0 ],
					"hidden" : 0
				}

			}
, 			{
				"box" : 				{
					"maxclass" : "comment",
					"varname" : "zsa_title",
					"text" : "jtol.bach.randratio",
					"frgb" : [ 1.0, 1.0, 1.0, 1.0 ],
					"patching_rect" : [ 16.0, 9.0, 194.0, 31.0 ],
					"numinlets" : 1,
					"presentation" : 0,
					"id" : "obj-134",
					"fontname" : "Arial",
					"underline" : 0,
					"textcolor" : [ 1.0, 1.0, 1.0, 1.0 ],
					"bgcolor" : [ 1.0, 1.0, 1.0, 0.0 ],
					"numoutlets" : 0,
					"background" : 0,
					"fontface" : 3,
					"fontsize" : 21.0,
					"ignoreclick" : 1,
					"presentation_rect" : [ 0.0, 0.0, 0.0, 0.0 ],
					"hidden" : 0
				}

			}
, 			{
				"box" : 				{
					"maxclass" : "newobj",
					"text" : "jtol.bach.randratio 1 6 2 3 3",
					"patching_rect" : [ 60.0, 324.0, 358.0, 17.0 ],
					"numinlets" : 6,
					"presentation" : 0,
					"id" : "obj-37",
					"fontname" : "Arial",
					"textcolor" : [ 0.101961, 0.121569, 0.172549, 1.0 ],
					"bgcolor" : [ 1.0, 1.0, 1.0, 1.0 ],
					"numoutlets" : 1,
					"background" : 0,
					"color" : [ 0.494118, 0.556863, 0.607843, 1.0 ],
					"outlettype" : [ "" ],
					"fontface" : 0,
					"fontsize" : 9.0,
					"ignoreclick" : 0,
					"presentation_rect" : [ 0.0, 0.0, 0.0, 0.0 ],
					"hidden" : 0
				}

			}
, 			{
				"box" : 				{
					"maxclass" : "panel",
					"varname" : "autohelp_top_panel",
					"mode" : 1,
					"angle" : -88.349983,
					"border" : 0,
					"patching_rect" : [ 16.0, 8.0, 473.0, 52.0 ],
					"numinlets" : 1,
					"presentation" : 0,
					"id" : "obj-135",
					"rounded" : 8,
					"bgcolor" : [ 0.184314, 0.254902, 0.34902, 1.0 ],
					"numoutlets" : 0,
					"grad1" : [ 0.694118, 0.694118, 0.694118, 1.0 ],
					"background" : 1,
					"grad2" : [ 0.6, 0.6, 0.6, 1.0 ],
					"ignoreclick" : 1,
					"presentation_rect" : [ 0.0, 0.0, 0.0, 0.0 ],
					"shadow" : 0,
					"hidden" : 0,
					"bordercolor" : [ 0.415686, 0.454902, 0.52549, 1.0 ]
				}

			}
 ],
		"lines" : [ 			{
				"patchline" : 				{
					"source" : [ "obj-60", 0 ],
					"destination" : [ "obj-37", 1 ],
					"hidden" : 0,
					"color" : [ 1.0, 1.0, 1.0, 1.0 ],
					"midpoints" : [  ]
				}

			}
, 			{
				"patchline" : 				{
					"source" : [ "obj-32", 0 ],
					"destination" : [ "obj-37", 5 ],
					"hidden" : 0,
					"color" : [ 1.0, 1.0, 1.0, 1.0 ],
					"midpoints" : [  ]
				}

			}
, 			{
				"patchline" : 				{
					"source" : [ "obj-37", 0 ],
					"destination" : [ "obj-66", 0 ],
					"hidden" : 0,
					"color" : [ 1.0, 1.0, 1.0, 1.0 ],
					"midpoints" : [  ]
				}

			}
, 			{
				"patchline" : 				{
					"source" : [ "obj-37", 0 ],
					"destination" : [ "obj-52", 0 ],
					"hidden" : 0,
					"color" : [ 1.0, 1.0, 1.0, 1.0 ],
					"midpoints" : [  ]
				}

			}
, 			{
				"patchline" : 				{
					"source" : [ "obj-16", 0 ],
					"destination" : [ "obj-37", 4 ],
					"hidden" : 0,
					"color" : [ 1.0, 1.0, 1.0, 1.0 ],
					"midpoints" : [  ]
				}

			}
, 			{
				"patchline" : 				{
					"source" : [ "obj-14", 0 ],
					"destination" : [ "obj-37", 3 ],
					"hidden" : 0,
					"color" : [ 1.0, 1.0, 1.0, 1.0 ],
					"midpoints" : [  ]
				}

			}
, 			{
				"patchline" : 				{
					"source" : [ "obj-28", 0 ],
					"destination" : [ "obj-37", 2 ],
					"hidden" : 0,
					"color" : [ 1.0, 1.0, 1.0, 1.0 ],
					"midpoints" : [  ]
				}

			}
, 			{
				"patchline" : 				{
					"source" : [ "obj-24", 0 ],
					"destination" : [ "obj-37", 1 ],
					"hidden" : 0,
					"color" : [ 1.0, 1.0, 1.0, 1.0 ],
					"midpoints" : [  ]
				}

			}
, 			{
				"patchline" : 				{
					"source" : [ "obj-26", 0 ],
					"destination" : [ "obj-37", 0 ],
					"hidden" : 0,
					"color" : [ 1.0, 1.0, 1.0, 1.0 ],
					"midpoints" : [  ]
				}

			}
, 			{
				"patchline" : 				{
					"source" : [ "obj-44", 0 ],
					"destination" : [ "obj-60", 4 ],
					"hidden" : 0,
					"color" : [ 1.0, 1.0, 1.0, 1.0 ],
					"midpoints" : [  ]
				}

			}
, 			{
				"patchline" : 				{
					"source" : [ "obj-38", 0 ],
					"destination" : [ "obj-60", 3 ],
					"hidden" : 0,
					"color" : [ 1.0, 1.0, 1.0, 1.0 ],
					"midpoints" : [  ]
				}

			}
, 			{
				"patchline" : 				{
					"source" : [ "obj-2", 0 ],
					"destination" : [ "obj-60", 2 ],
					"hidden" : 0,
					"color" : [ 1.0, 1.0, 1.0, 1.0 ],
					"midpoints" : [  ]
				}

			}
, 			{
				"patchline" : 				{
					"source" : [ "obj-69", 0 ],
					"destination" : [ "obj-60", 0 ],
					"hidden" : 0,
					"color" : [ 1.0, 1.0, 1.0, 1.0 ],
					"midpoints" : [  ]
				}

			}
, 			{
				"patchline" : 				{
					"source" : [ "obj-70", 0 ],
					"destination" : [ "obj-60", 1 ],
					"hidden" : 0,
					"color" : [ 1.0, 1.0, 1.0, 1.0 ],
					"midpoints" : [  ]
				}

			}
, 			{
				"patchline" : 				{
					"source" : [ "obj-66", 3 ],
					"destination" : [ "obj-31", 0 ],
					"hidden" : 0,
					"color" : [ 1.0, 1.0, 1.0, 1.0 ],
					"midpoints" : [  ]
				}

			}
, 			{
				"patchline" : 				{
					"source" : [ "obj-31", 0 ],
					"destination" : [ "obj-25", 0 ],
					"hidden" : 0,
					"color" : [ 1.0, 1.0, 1.0, 1.0 ],
					"midpoints" : [  ]
				}

			}
, 			{
				"patchline" : 				{
					"source" : [ "obj-30", 0 ],
					"destination" : [ "obj-66", 1 ],
					"hidden" : 0,
					"color" : [ 1.0, 1.0, 1.0, 1.0 ],
					"midpoints" : [  ]
				}

			}
, 			{
				"patchline" : 				{
					"source" : [ "obj-66", 0 ],
					"destination" : [ "obj-59", 0 ],
					"hidden" : 0,
					"color" : [ 1.0, 1.0, 1.0, 1.0 ],
					"midpoints" : [  ]
				}

			}
, 			{
				"patchline" : 				{
					"source" : [ "obj-66", 1 ],
					"destination" : [ "obj-56", 0 ],
					"hidden" : 0,
					"color" : [ 1.0, 1.0, 1.0, 1.0 ],
					"midpoints" : [  ]
				}

			}
, 			{
				"patchline" : 				{
					"source" : [ "obj-66", 2 ],
					"destination" : [ "obj-53", 0 ],
					"hidden" : 0,
					"color" : [ 1.0, 1.0, 1.0, 1.0 ],
					"midpoints" : [  ]
				}

			}
, 			{
				"patchline" : 				{
					"source" : [ "obj-20", 1 ],
					"destination" : [ "obj-22", 0 ],
					"hidden" : 1,
					"color" : [ 0.101961, 0.121569, 0.172549, 1.0 ],
					"midpoints" : [  ]
				}

			}
, 			{
				"patchline" : 				{
					"source" : [ "obj-137", 1 ],
					"destination" : [ "obj-46", 0 ],
					"hidden" : 1,
					"color" : [ 0.101961, 0.121569, 0.172549, 1.0 ],
					"midpoints" : [  ]
				}

			}
, 			{
				"patchline" : 				{
					"source" : [ "obj-4", 1 ],
					"destination" : [ "obj-7", 0 ],
					"hidden" : 1,
					"color" : [ 0.101961, 0.121569, 0.172549, 1.0 ],
					"midpoints" : [  ]
				}

			}
, 			{
				"patchline" : 				{
					"source" : [ "obj-3", 0 ],
					"destination" : [ "obj-26", 0 ],
					"hidden" : 0,
					"color" : [ 1.0, 1.0, 1.0, 1.0 ],
					"midpoints" : [  ]
				}

			}
, 			{
				"patchline" : 				{
					"source" : [ "obj-6", 0 ],
					"destination" : [ "obj-3", 0 ],
					"hidden" : 0,
					"color" : [ 1.0, 1.0, 1.0, 1.0 ],
					"midpoints" : [  ]
				}

			}
, 			{
				"patchline" : 				{
					"source" : [ "obj-56", 0 ],
					"destination" : [ "obj-5", 0 ],
					"hidden" : 0,
					"color" : [ 1.0, 1.0, 1.0, 1.0 ],
					"midpoints" : [  ]
				}

			}
, 			{
				"patchline" : 				{
					"source" : [ "obj-53", 0 ],
					"destination" : [ "obj-23", 0 ],
					"hidden" : 0,
					"color" : [ 1.0, 1.0, 1.0, 1.0 ],
					"midpoints" : [  ]
				}

			}
 ]
	}

}
