{
	"patcher" : 	{
		"fileversion" : 1,
		"appversion" : 		{
			"major" : 5,
			"minor" : 1,
			"revision" : 9
		}
,
		"rect" : [ 754.0, 161.0, 517.0, 461.0 ],
		"bgcolor" : [ 0.666667, 0.698039, 0.717647, 1.0 ],
		"bglocked" : 0,
		"defrect" : [ 754.0, 161.0, 517.0, 461.0 ],
		"openrect" : [ 0.0, 0.0, 0.0, 0.0 ],
		"openinpresentation" : 0,
		"default_fontsize" : 9.0,
		"default_fontface" : 0,
		"default_fontname" : "Arial",
		"gridonopen" : 0,
		"gridsize" : [ 15.0, 15.0 ],
		"gridsnaponopen" : 0,
		"toolbarvisible" : 0,
		"boxanimatetime" : 200,
		"imprint" : 1,
		"enablehscroll" : 1,
		"enablevscroll" : 1,
		"devicewidth" : 0.0,
		"boxes" : [ 			{
				"box" : 				{
					"maxclass" : "newobj",
					"text" : "&&",
					"patching_rect" : [ 74.0, 141.5, 54.0, 17.0 ],
					"numinlets" : 2,
					"presentation" : 0,
					"id" : "obj-17",
					"fontname" : "Arial",
					"textcolor" : [ 0.101961, 0.121569, 0.172549, 1.0 ],
					"bgcolor" : [ 1.0, 1.0, 1.0, 1.0 ],
					"numoutlets" : 1,
					"background" : 0,
					"color" : [ 0.494118, 0.556863, 0.607843, 1.0 ],
					"outlettype" : [ "int" ],
					"fontface" : 0,
					"fontsize" : 9.0,
					"ignoreclick" : 0,
					"presentation_rect" : [ 0.0, 0.0, 0.0, 0.0 ],
					"hidden" : 0
				}

			}
, 			{
				"box" : 				{
					"maxclass" : "newobj",
					"text" : "== 1",
					"patching_rect" : [ 74.0, 115.0, 32.5, 17.0 ],
					"numinlets" : 2,
					"presentation" : 0,
					"id" : "obj-15",
					"fontname" : "Arial",
					"textcolor" : [ 0.101961, 0.121569, 0.172549, 1.0 ],
					"bgcolor" : [ 1.0, 1.0, 1.0, 1.0 ],
					"numoutlets" : 1,
					"background" : 0,
					"color" : [ 0.494118, 0.556863, 0.607843, 1.0 ],
					"outlettype" : [ "int" ],
					"fontface" : 0,
					"fontsize" : 9.0,
					"ignoreclick" : 0,
					"presentation_rect" : [ 0.0, 0.0, 0.0, 0.0 ],
					"hidden" : 0
				}

			}
, 			{
				"box" : 				{
					"maxclass" : "newobj",
					"text" : "bach.reg",
					"patching_rect" : [ 346.0, 302.333313, 66.0, 17.0 ],
					"numinlets" : 2,
					"presentation" : 0,
					"id" : "obj-12",
					"fontname" : "Arial",
					"textcolor" : [ 0.101961, 0.121569, 0.172549, 1.0 ],
					"bgcolor" : [ 1.0, 1.0, 1.0, 1.0 ],
					"numoutlets" : 1,
					"background" : 0,
					"color" : [ 0.494118, 0.556863, 0.607843, 1.0 ],
					"outlettype" : [ "" ],
					"fontface" : 0,
					"fontsize" : 9.0,
					"ignoreclick" : 0,
					"presentation_rect" : [ 0.0, 0.0, 0.0, 0.0 ],
					"hidden" : 0,
					"saved_object_attributes" : 					{
						"embed" : 0
					}

				}

			}
, 			{
				"box" : 				{
					"maxclass" : "newobj",
					"text" : "t b l",
					"patching_rect" : [ 346.0, 248.333344, 65.5, 17.0 ],
					"numinlets" : 1,
					"presentation" : 0,
					"id" : "obj-11",
					"fontname" : "Arial",
					"textcolor" : [ 0.101961, 0.121569, 0.172549, 1.0 ],
					"bgcolor" : [ 1.0, 1.0, 1.0, 1.0 ],
					"numoutlets" : 2,
					"background" : 0,
					"color" : [ 0.494118, 0.556863, 0.607843, 1.0 ],
					"outlettype" : [ "bang", "" ],
					"fontface" : 0,
					"fontsize" : 9.0,
					"ignoreclick" : 0,
					"presentation_rect" : [ 0.0, 0.0, 0.0, 0.0 ],
					"hidden" : 0
				}

			}
, 			{
				"box" : 				{
					"maxclass" : "newobj",
					"text" : "uzi",
					"patching_rect" : [ 346.0, 275.333313, 46.0, 17.0 ],
					"numinlets" : 2,
					"presentation" : 0,
					"id" : "obj-10",
					"fontname" : "Arial",
					"textcolor" : [ 0.101961, 0.121569, 0.172549, 1.0 ],
					"bgcolor" : [ 1.0, 1.0, 1.0, 1.0 ],
					"numoutlets" : 3,
					"background" : 0,
					"color" : [ 0.494118, 0.556863, 0.607843, 1.0 ],
					"outlettype" : [ "bang", "bang", "int" ],
					"fontface" : 0,
					"fontsize" : 9.0,
					"ignoreclick" : 0,
					"presentation_rect" : [ 0.0, 0.0, 0.0, 0.0 ],
					"hidden" : 0
				}

			}
, 			{
				"box" : 				{
					"maxclass" : "newobj",
					"text" : "bach.collect",
					"patching_rect" : [ 287.0, 329.333313, 136.0, 17.0 ],
					"numinlets" : 3,
					"presentation" : 0,
					"id" : "obj-8",
					"fontname" : "Arial",
					"textcolor" : [ 0.101961, 0.121569, 0.172549, 1.0 ],
					"bgcolor" : [ 1.0, 1.0, 1.0, 1.0 ],
					"numoutlets" : 1,
					"background" : 0,
					"color" : [ 0.494118, 0.556863, 0.607843, 1.0 ],
					"outlettype" : [ "" ],
					"fontface" : 0,
					"fontsize" : 9.0,
					"ignoreclick" : 0,
					"presentation_rect" : [ 0.0, 0.0, 0.0, 0.0 ],
					"hidden" : 0
				}

			}
, 			{
				"box" : 				{
					"maxclass" : "newobj",
					"text" : "+ 1",
					"patching_rect" : [ 74.0, 167.5, 32.0, 17.0 ],
					"numinlets" : 2,
					"presentation" : 0,
					"id" : "obj-7",
					"fontname" : "Arial",
					"textcolor" : [ 0.101961, 0.121569, 0.172549, 1.0 ],
					"bgcolor" : [ 1.0, 1.0, 1.0, 1.0 ],
					"numoutlets" : 1,
					"background" : 0,
					"color" : [ 0.494118, 0.556863, 0.607843, 1.0 ],
					"outlettype" : [ "int" ],
					"fontface" : 0,
					"fontsize" : 9.0,
					"ignoreclick" : 0,
					"presentation_rect" : [ 0.0, 0.0, 0.0, 0.0 ],
					"hidden" : 0
				}

			}
, 			{
				"box" : 				{
					"maxclass" : "newobj",
					"text" : "gate 2 2",
					"patching_rect" : [ 74.0, 193.5, 291.0, 17.0 ],
					"numinlets" : 2,
					"presentation" : 0,
					"id" : "obj-5",
					"fontname" : "Arial",
					"textcolor" : [ 0.101961, 0.121569, 0.172549, 1.0 ],
					"bgcolor" : [ 1.0, 1.0, 1.0, 1.0 ],
					"numoutlets" : 2,
					"background" : 0,
					"color" : [ 0.494118, 0.556863, 0.607843, 1.0 ],
					"outlettype" : [ "", "" ],
					"fontface" : 0,
					"fontsize" : 9.0,
					"ignoreclick" : 0,
					"presentation_rect" : [ 0.0, 0.0, 0.0, 0.0 ],
					"hidden" : 0
				}

			}
, 			{
				"box" : 				{
					"maxclass" : "newobj",
					"text" : "== 1",
					"patching_rect" : [ 109.0, 115.0, 32.5, 17.0 ],
					"numinlets" : 2,
					"presentation" : 0,
					"id" : "obj-4",
					"fontname" : "Arial",
					"textcolor" : [ 0.101961, 0.121569, 0.172549, 1.0 ],
					"bgcolor" : [ 1.0, 1.0, 1.0, 1.0 ],
					"numoutlets" : 1,
					"background" : 0,
					"color" : [ 0.494118, 0.556863, 0.607843, 1.0 ],
					"outlettype" : [ "int" ],
					"fontface" : 0,
					"fontsize" : 9.0,
					"ignoreclick" : 0,
					"presentation_rect" : [ 0.0, 0.0, 0.0, 0.0 ],
					"hidden" : 0
				}

			}
, 			{
				"box" : 				{
					"maxclass" : "newobj",
					"text" : "uzi",
					"patching_rect" : [ 190.0, 275.333313, 46.0, 17.0 ],
					"numinlets" : 2,
					"presentation" : 0,
					"id" : "obj-2",
					"fontname" : "Arial",
					"textcolor" : [ 0.101961, 0.121569, 0.172549, 1.0 ],
					"bgcolor" : [ 1.0, 1.0, 1.0, 1.0 ],
					"numoutlets" : 3,
					"background" : 0,
					"color" : [ 0.494118, 0.556863, 0.607843, 1.0 ],
					"outlettype" : [ "bang", "bang", "int" ],
					"fontface" : 0,
					"fontsize" : 9.0,
					"ignoreclick" : 0,
					"presentation_rect" : [ 0.0, 0.0, 0.0, 0.0 ],
					"hidden" : 0
				}

			}
, 			{
				"box" : 				{
					"maxclass" : "newobj",
					"text" : "t b l",
					"patching_rect" : [ 131.0, 248.333344, 124.5, 17.0 ],
					"numinlets" : 1,
					"presentation" : 0,
					"id" : "obj-28",
					"fontname" : "Arial",
					"textcolor" : [ 0.101961, 0.121569, 0.172549, 1.0 ],
					"bgcolor" : [ 1.0, 1.0, 1.0, 1.0 ],
					"numoutlets" : 2,
					"background" : 0,
					"color" : [ 0.494118, 0.556863, 0.607843, 1.0 ],
					"outlettype" : [ "bang", "" ],
					"fontface" : 0,
					"fontsize" : 9.0,
					"ignoreclick" : 0,
					"presentation_rect" : [ 0.0, 0.0, 0.0, 0.0 ],
					"hidden" : 0
				}

			}
, 			{
				"box" : 				{
					"maxclass" : "newobj",
					"text" : "bach.collect",
					"patching_rect" : [ 131.0, 329.333313, 136.0, 17.0 ],
					"numinlets" : 3,
					"presentation" : 0,
					"id" : "obj-25",
					"fontname" : "Arial",
					"textcolor" : [ 0.101961, 0.121569, 0.172549, 1.0 ],
					"bgcolor" : [ 1.0, 1.0, 1.0, 1.0 ],
					"numoutlets" : 1,
					"background" : 0,
					"color" : [ 0.494118, 0.556863, 0.607843, 1.0 ],
					"outlettype" : [ "" ],
					"fontface" : 0,
					"fontsize" : 9.0,
					"ignoreclick" : 0,
					"presentation_rect" : [ 0.0, 0.0, 0.0, 0.0 ],
					"hidden" : 0
				}

			}
, 			{
				"box" : 				{
					"maxclass" : "newobj",
					"text" : "bach.reg",
					"patching_rect" : [ 190.0, 302.333313, 66.0, 17.0 ],
					"numinlets" : 2,
					"presentation" : 0,
					"id" : "obj-14",
					"fontname" : "Arial",
					"textcolor" : [ 0.101961, 0.121569, 0.172549, 1.0 ],
					"bgcolor" : [ 1.0, 1.0, 1.0, 1.0 ],
					"numoutlets" : 1,
					"background" : 0,
					"color" : [ 0.494118, 0.556863, 0.607843, 1.0 ],
					"outlettype" : [ "" ],
					"fontface" : 0,
					"fontsize" : 9.0,
					"ignoreclick" : 0,
					"presentation_rect" : [ 0.0, 0.0, 0.0, 0.0 ],
					"hidden" : 0,
					"saved_object_attributes" : 					{
						"embed" : 0
					}

				}

			}
, 			{
				"box" : 				{
					"maxclass" : "newobj",
					"text" : "patcherargs",
					"patching_rect" : [ 17.0, 7.0, 58.0, 17.0 ],
					"numinlets" : 1,
					"presentation" : 0,
					"id" : "obj-23",
					"fontname" : "Arial",
					"textcolor" : [ 0.101961, 0.121569, 0.172549, 1.0 ],
					"bgcolor" : [ 1.0, 1.0, 1.0, 1.0 ],
					"numoutlets" : 2,
					"background" : 0,
					"color" : [ 0.494118, 0.556863, 0.607843, 1.0 ],
					"outlettype" : [ "", "" ],
					"fontface" : 0,
					"fontsize" : 9.0,
					"ignoreclick" : 0,
					"presentation_rect" : [ 0.0, 0.0, 0.0, 0.0 ],
					"hidden" : 0
				}

			}
, 			{
				"box" : 				{
					"maxclass" : "newobj",
					"text" : "p load",
					"patching_rect" : [ 56.0, 30.0, 260.0, 17.0 ],
					"numinlets" : 1,
					"presentation" : 0,
					"id" : "obj-16",
					"fontname" : "Arial",
					"textcolor" : [ 0.101961, 0.121569, 0.172549, 1.0 ],
					"bgcolor" : [ 1.0, 1.0, 1.0, 1.0 ],
					"numoutlets" : 4,
					"background" : 0,
					"color" : [ 0.494118, 0.556863, 0.607843, 1.0 ],
					"outlettype" : [ "", "", "", "" ],
					"fontface" : 0,
					"fontsize" : 9.0,
					"ignoreclick" : 0,
					"presentation_rect" : [ 0.0, 0.0, 0.0, 0.0 ],
					"hidden" : 0,
					"patcher" : 					{
						"fileversion" : 1,
						"appversion" : 						{
							"major" : 5,
							"minor" : 1,
							"revision" : 9
						}
,
						"rect" : [ 587.0, 249.0, 512.0, 335.0 ],
						"bgcolor" : [ 0.666667, 0.698039, 0.717647, 1.0 ],
						"bglocked" : 0,
						"defrect" : [ 587.0, 249.0, 512.0, 335.0 ],
						"openrect" : [ 0.0, 0.0, 0.0, 0.0 ],
						"openinpresentation" : 0,
						"default_fontsize" : 9.0,
						"default_fontface" : 0,
						"default_fontname" : "Arial",
						"gridonopen" : 0,
						"gridsize" : [ 15.0, 15.0 ],
						"gridsnaponopen" : 0,
						"toolbarvisible" : 0,
						"boxanimatetime" : 200,
						"imprint" : 1,
						"enablehscroll" : 1,
						"enablevscroll" : 1,
						"devicewidth" : 0.0,
						"boxes" : [ 							{
								"box" : 								{
									"maxclass" : "outlet",
									"patching_rect" : [ 440.0, 276.0, 18.0, 18.0 ],
									"numinlets" : 1,
									"presentation" : 0,
									"id" : "obj-3",
									"numoutlets" : 0,
									"background" : 0,
									"ignoreclick" : 0,
									"presentation_rect" : [ 0.0, 0.0, 0.0, 0.0 ],
									"hidden" : 0,
									"comment" : ""
								}

							}
, 							{
								"box" : 								{
									"maxclass" : "message",
									"text" : "4",
									"gradient" : 0,
									"patching_rect" : [ 287.0, 166.0, 16.0, 15.0 ],
									"numinlets" : 2,
									"presentation" : 0,
									"id" : "obj-2",
									"fontname" : "Arial",
									"textcolor" : [ 0.101961, 0.121569, 0.172549, 1.0 ],
									"bgcolor" : [ 0.568627, 0.619608, 0.662745, 1.0 ],
									"numoutlets" : 1,
									"background" : 0,
									"bgcolor2" : [ 0.568627, 0.619608, 0.662745, 1.0 ],
									"outlettype" : [ "" ],
									"fontface" : 0,
									"fontsize" : 9.0,
									"ignoreclick" : 0,
									"presentation_rect" : [ 0.0, 0.0, 0.0, 0.0 ],
									"hidden" : 0
								}

							}
, 							{
								"box" : 								{
									"maxclass" : "outlet",
									"patching_rect" : [ 386.0, 276.0, 18.0, 18.0 ],
									"numinlets" : 1,
									"presentation" : 0,
									"id" : "obj-36",
									"numoutlets" : 0,
									"background" : 0,
									"ignoreclick" : 0,
									"presentation_rect" : [ 0.0, 0.0, 0.0, 0.0 ],
									"hidden" : 0,
									"comment" : ""
								}

							}
, 							{
								"box" : 								{
									"maxclass" : "message",
									"text" : "out $1",
									"gradient" : 0,
									"patching_rect" : [ 21.0, 235.0, 36.0, 15.0 ],
									"numinlets" : 2,
									"presentation" : 0,
									"id" : "obj-17",
									"fontname" : "Arial",
									"textcolor" : [ 0.101961, 0.121569, 0.172549, 1.0 ],
									"bgcolor" : [ 0.568627, 0.619608, 0.662745, 1.0 ],
									"numoutlets" : 1,
									"background" : 0,
									"bgcolor2" : [ 0.568627, 0.619608, 0.662745, 1.0 ],
									"outlettype" : [ "" ],
									"fontface" : 0,
									"fontsize" : 9.0,
									"ignoreclick" : 0,
									"presentation_rect" : [ 0.0, 0.0, 0.0, 0.0 ],
									"hidden" : 0
								}

							}
, 							{
								"box" : 								{
									"maxclass" : "message",
									"text" : "1",
									"gradient" : 0,
									"patching_rect" : [ 333.0, 93.25, 16.0, 15.0 ],
									"numinlets" : 2,
									"presentation" : 0,
									"id" : "obj-15",
									"fontname" : "Arial",
									"textcolor" : [ 0.101961, 0.121569, 0.172549, 1.0 ],
									"bgcolor" : [ 0.568627, 0.619608, 0.662745, 1.0 ],
									"numoutlets" : 1,
									"background" : 0,
									"bgcolor2" : [ 0.568627, 0.619608, 0.662745, 1.0 ],
									"outlettype" : [ "" ],
									"fontface" : 0,
									"fontsize" : 9.0,
									"ignoreclick" : 0,
									"presentation_rect" : [ 0.0, 0.0, 0.0, 0.0 ],
									"hidden" : 0
								}

							}
, 							{
								"box" : 								{
									"maxclass" : "newobj",
									"text" : "t l b",
									"patching_rect" : [ 123.0, 43.333344, 225.5, 17.0 ],
									"numinlets" : 1,
									"presentation" : 0,
									"id" : "obj-7",
									"fontname" : "Arial",
									"textcolor" : [ 0.101961, 0.121569, 0.172549, 1.0 ],
									"bgcolor" : [ 1.0, 1.0, 1.0, 1.0 ],
									"numoutlets" : 2,
									"background" : 0,
									"color" : [ 0.494118, 0.556863, 0.607843, 1.0 ],
									"outlettype" : [ "", "bang" ],
									"fontface" : 0,
									"fontsize" : 9.0,
									"ignoreclick" : 0,
									"presentation_rect" : [ 0.0, 0.0, 0.0, 0.0 ],
									"hidden" : 0
								}

							}
, 							{
								"box" : 								{
									"maxclass" : "message",
									"text" : "3",
									"gradient" : 0,
									"patching_rect" : [ 261.0, 166.0, 16.0, 15.0 ],
									"numinlets" : 2,
									"presentation" : 0,
									"id" : "obj-8",
									"fontname" : "Arial",
									"textcolor" : [ 0.101961, 0.121569, 0.172549, 1.0 ],
									"bgcolor" : [ 0.568627, 0.619608, 0.662745, 1.0 ],
									"numoutlets" : 1,
									"background" : 0,
									"bgcolor2" : [ 0.568627, 0.619608, 0.662745, 1.0 ],
									"outlettype" : [ "" ],
									"fontface" : 0,
									"fontsize" : 9.0,
									"ignoreclick" : 0,
									"presentation_rect" : [ 0.0, 0.0, 0.0, 0.0 ],
									"hidden" : 0
								}

							}
, 							{
								"box" : 								{
									"maxclass" : "newobj",
									"text" : "gate 4",
									"patching_rect" : [ 21.0, 201.0, 156.0, 17.0 ],
									"numinlets" : 2,
									"presentation" : 0,
									"id" : "obj-14",
									"fontname" : "Arial",
									"textcolor" : [ 0.101961, 0.121569, 0.172549, 1.0 ],
									"bgcolor" : [ 1.0, 1.0, 1.0, 1.0 ],
									"numoutlets" : 4,
									"background" : 0,
									"color" : [ 0.494118, 0.556863, 0.607843, 1.0 ],
									"outlettype" : [ "", "", "", "" ],
									"fontface" : 0,
									"fontsize" : 9.0,
									"ignoreclick" : 0,
									"presentation_rect" : [ 0.0, 0.0, 0.0, 0.0 ],
									"hidden" : 0
								}

							}
, 							{
								"box" : 								{
									"maxclass" : "newobj",
									"text" : "sel out depth n bar",
									"patching_rect" : [ 207.0, 143.25, 121.0, 17.0 ],
									"numinlets" : 1,
									"presentation" : 0,
									"id" : "obj-13",
									"fontname" : "Arial",
									"textcolor" : [ 0.101961, 0.121569, 0.172549, 1.0 ],
									"bgcolor" : [ 1.0, 1.0, 1.0, 1.0 ],
									"numoutlets" : 5,
									"background" : 0,
									"color" : [ 0.494118, 0.556863, 0.607843, 1.0 ],
									"outlettype" : [ "bang", "bang", "bang", "bang", "" ],
									"fontface" : 0,
									"fontsize" : 9.0,
									"ignoreclick" : 0,
									"presentation_rect" : [ 0.0, 0.0, 0.0, 0.0 ],
									"hidden" : 0
								}

							}
, 							{
								"box" : 								{
									"maxclass" : "newobj",
									"text" : "onebang 1",
									"patching_rect" : [ 330.0, 68.25, 53.0, 17.0 ],
									"numinlets" : 2,
									"presentation" : 0,
									"id" : "obj-23",
									"fontname" : "Arial",
									"textcolor" : [ 0.101961, 0.121569, 0.172549, 1.0 ],
									"bgcolor" : [ 1.0, 1.0, 1.0, 1.0 ],
									"numoutlets" : 2,
									"background" : 0,
									"color" : [ 0.494118, 0.556863, 0.607843, 1.0 ],
									"outlettype" : [ "bang", "bang" ],
									"fontface" : 0,
									"fontsize" : 9.0,
									"ignoreclick" : 0,
									"presentation_rect" : [ 0.0, 0.0, 0.0, 0.0 ],
									"hidden" : 0
								}

							}
, 							{
								"box" : 								{
									"maxclass" : "outlet",
									"patching_rect" : [ 332.666687, 276.0, 18.0, 18.0 ],
									"numinlets" : 1,
									"presentation" : 0,
									"id" : "obj-10",
									"numoutlets" : 0,
									"background" : 0,
									"ignoreclick" : 0,
									"presentation_rect" : [ 0.0, 0.0, 0.0, 0.0 ],
									"hidden" : 0,
									"comment" : ""
								}

							}
, 							{
								"box" : 								{
									"maxclass" : "message",
									"text" : "2",
									"gradient" : 0,
									"patching_rect" : [ 236.0, 166.0, 16.0, 15.0 ],
									"numinlets" : 2,
									"presentation" : 0,
									"id" : "obj-1",
									"fontname" : "Arial",
									"textcolor" : [ 0.101961, 0.121569, 0.172549, 1.0 ],
									"bgcolor" : [ 0.568627, 0.619608, 0.662745, 1.0 ],
									"numoutlets" : 1,
									"background" : 0,
									"bgcolor2" : [ 0.568627, 0.619608, 0.662745, 1.0 ],
									"outlettype" : [ "" ],
									"fontface" : 0,
									"fontsize" : 9.0,
									"ignoreclick" : 0,
									"presentation_rect" : [ 0.0, 0.0, 0.0, 0.0 ],
									"hidden" : 0
								}

							}
, 							{
								"box" : 								{
									"maxclass" : "newobj",
									"text" : "zl rev",
									"patching_rect" : [ 158.0, 93.25, 32.0, 17.0 ],
									"numinlets" : 2,
									"presentation" : 0,
									"id" : "obj-18",
									"fontname" : "Arial",
									"textcolor" : [ 0.101961, 0.121569, 0.172549, 1.0 ],
									"bgcolor" : [ 1.0, 1.0, 1.0, 1.0 ],
									"numoutlets" : 2,
									"background" : 0,
									"color" : [ 0.494118, 0.556863, 0.607843, 1.0 ],
									"outlettype" : [ "", "" ],
									"fontface" : 0,
									"fontsize" : 9.0,
									"ignoreclick" : 0,
									"presentation_rect" : [ 0.0, 0.0, 0.0, 0.0 ],
									"hidden" : 0
								}

							}
, 							{
								"box" : 								{
									"maxclass" : "newobj",
									"text" : "route done",
									"patching_rect" : [ 123.0, 68.25, 54.0, 17.0 ],
									"numinlets" : 1,
									"presentation" : 0,
									"id" : "obj-20",
									"fontname" : "Arial",
									"textcolor" : [ 0.101961, 0.121569, 0.172549, 1.0 ],
									"bgcolor" : [ 1.0, 1.0, 1.0, 1.0 ],
									"numoutlets" : 2,
									"background" : 0,
									"color" : [ 0.494118, 0.556863, 0.607843, 1.0 ],
									"outlettype" : [ "", "" ],
									"fontface" : 0,
									"fontsize" : 9.0,
									"ignoreclick" : 0,
									"presentation_rect" : [ 0.0, 0.0, 0.0, 0.0 ],
									"hidden" : 0
								}

							}
, 							{
								"box" : 								{
									"maxclass" : "inlet",
									"patching_rect" : [ 123.0, 14.0, 20.0, 20.0 ],
									"numinlets" : 0,
									"presentation" : 0,
									"id" : "obj-30",
									"numoutlets" : 1,
									"background" : 0,
									"outlettype" : [ "" ],
									"ignoreclick" : 0,
									"presentation_rect" : [ 0.0, 0.0, 0.0, 0.0 ],
									"hidden" : 0,
									"comment" : ""
								}

							}
, 							{
								"box" : 								{
									"maxclass" : "outlet",
									"patching_rect" : [ 21.399994, 276.0, 18.0, 18.0 ],
									"numinlets" : 1,
									"presentation" : 0,
									"id" : "obj-12",
									"numoutlets" : 0,
									"background" : 0,
									"ignoreclick" : 0,
									"presentation_rect" : [ 0.0, 0.0, 0.0, 0.0 ],
									"hidden" : 0,
									"comment" : ""
								}

							}
, 							{
								"box" : 								{
									"maxclass" : "message",
									"text" : "1",
									"gradient" : 0,
									"patching_rect" : [ 210.0, 166.0, 16.0, 15.0 ],
									"numinlets" : 2,
									"presentation" : 0,
									"id" : "obj-16",
									"fontname" : "Arial",
									"textcolor" : [ 0.101961, 0.121569, 0.172549, 1.0 ],
									"bgcolor" : [ 0.568627, 0.619608, 0.662745, 1.0 ],
									"numoutlets" : 1,
									"background" : 0,
									"bgcolor2" : [ 0.568627, 0.619608, 0.662745, 1.0 ],
									"outlettype" : [ "" ],
									"fontface" : 0,
									"fontsize" : 9.0,
									"ignoreclick" : 0,
									"presentation_rect" : [ 0.0, 0.0, 0.0, 0.0 ],
									"hidden" : 0
								}

							}
, 							{
								"box" : 								{
									"maxclass" : "newobj",
									"text" : "zl slice 1",
									"patching_rect" : [ 158.0, 118.25, 68.0, 17.0 ],
									"numinlets" : 2,
									"presentation" : 0,
									"id" : "obj-11",
									"fontname" : "Arial",
									"textcolor" : [ 0.101961, 0.121569, 0.172549, 1.0 ],
									"bgcolor" : [ 1.0, 1.0, 1.0, 1.0 ],
									"numoutlets" : 2,
									"background" : 0,
									"color" : [ 0.494118, 0.556863, 0.607843, 1.0 ],
									"outlettype" : [ "", "" ],
									"fontface" : 0,
									"fontsize" : 9.0,
									"ignoreclick" : 0,
									"presentation_rect" : [ 0.0, 0.0, 0.0, 0.0 ],
									"hidden" : 0
								}

							}
 ],
						"lines" : [ 							{
								"patchline" : 								{
									"source" : [ "obj-13", 2 ],
									"destination" : [ "obj-8", 0 ],
									"hidden" : 0,
									"color" : [ 0.101961, 0.121569, 0.172549, 1.0 ],
									"midpoints" : [  ]
								}

							}
, 							{
								"patchline" : 								{
									"source" : [ "obj-13", 1 ],
									"destination" : [ "obj-1", 0 ],
									"hidden" : 0,
									"color" : [ 0.101961, 0.121569, 0.172549, 1.0 ],
									"midpoints" : [  ]
								}

							}
, 							{
								"patchline" : 								{
									"source" : [ "obj-13", 0 ],
									"destination" : [ "obj-16", 0 ],
									"hidden" : 0,
									"color" : [ 0.101961, 0.121569, 0.172549, 1.0 ],
									"midpoints" : [  ]
								}

							}
, 							{
								"patchline" : 								{
									"source" : [ "obj-11", 1 ],
									"destination" : [ "obj-13", 0 ],
									"hidden" : 0,
									"color" : [ 0.101961, 0.121569, 0.172549, 1.0 ],
									"midpoints" : [  ]
								}

							}
, 							{
								"patchline" : 								{
									"source" : [ "obj-13", 3 ],
									"destination" : [ "obj-2", 0 ],
									"hidden" : 0,
									"color" : [ 0.101961, 0.121569, 0.172549, 1.0 ],
									"midpoints" : [  ]
								}

							}
, 							{
								"patchline" : 								{
									"source" : [ "obj-14", 3 ],
									"destination" : [ "obj-3", 0 ],
									"hidden" : 0,
									"color" : [ 0.101961, 0.121569, 0.172549, 1.0 ],
									"midpoints" : [  ]
								}

							}
, 							{
								"patchline" : 								{
									"source" : [ "obj-2", 0 ],
									"destination" : [ "obj-14", 0 ],
									"hidden" : 0,
									"color" : [ 0.831373, 0.0, 1.0, 1.0 ],
									"midpoints" : [  ]
								}

							}
, 							{
								"patchline" : 								{
									"source" : [ "obj-16", 0 ],
									"destination" : [ "obj-14", 0 ],
									"hidden" : 0,
									"color" : [ 0.831373, 0.0, 1.0, 1.0 ],
									"midpoints" : [  ]
								}

							}
, 							{
								"patchline" : 								{
									"source" : [ "obj-1", 0 ],
									"destination" : [ "obj-14", 0 ],
									"hidden" : 0,
									"color" : [ 0.831373, 0.0, 1.0, 1.0 ],
									"midpoints" : [  ]
								}

							}
, 							{
								"patchline" : 								{
									"source" : [ "obj-11", 0 ],
									"destination" : [ "obj-14", 1 ],
									"hidden" : 0,
									"color" : [ 0.101961, 0.121569, 0.172549, 1.0 ],
									"midpoints" : [  ]
								}

							}
, 							{
								"patchline" : 								{
									"source" : [ "obj-8", 0 ],
									"destination" : [ "obj-14", 0 ],
									"hidden" : 0,
									"color" : [ 0.831373, 0.0, 1.0, 1.0 ],
									"midpoints" : [  ]
								}

							}
, 							{
								"patchline" : 								{
									"source" : [ "obj-14", 1 ],
									"destination" : [ "obj-10", 0 ],
									"hidden" : 0,
									"color" : [ 1.0, 0.0, 0.0, 1.0 ],
									"midpoints" : [  ]
								}

							}
, 							{
								"patchline" : 								{
									"source" : [ "obj-14", 0 ],
									"destination" : [ "obj-17", 0 ],
									"hidden" : 0,
									"color" : [ 0.101961, 0.121569, 0.172549, 1.0 ],
									"midpoints" : [  ]
								}

							}
, 							{
								"patchline" : 								{
									"source" : [ "obj-14", 2 ],
									"destination" : [ "obj-36", 0 ],
									"hidden" : 0,
									"color" : [ 0.101961, 0.121569, 0.172549, 1.0 ],
									"midpoints" : [  ]
								}

							}
, 							{
								"patchline" : 								{
									"source" : [ "obj-15", 0 ],
									"destination" : [ "obj-10", 0 ],
									"hidden" : 0,
									"color" : [ 1.0, 0.0, 0.0, 1.0 ],
									"midpoints" : [  ]
								}

							}
, 							{
								"patchline" : 								{
									"source" : [ "obj-23", 0 ],
									"destination" : [ "obj-15", 0 ],
									"hidden" : 0,
									"color" : [ 0.101961, 0.121569, 0.172549, 1.0 ],
									"midpoints" : [  ]
								}

							}
, 							{
								"patchline" : 								{
									"source" : [ "obj-20", 1 ],
									"destination" : [ "obj-18", 0 ],
									"hidden" : 0,
									"color" : [ 0.101961, 0.121569, 0.172549, 1.0 ],
									"midpoints" : [  ]
								}

							}
, 							{
								"patchline" : 								{
									"source" : [ "obj-18", 0 ],
									"destination" : [ "obj-11", 0 ],
									"hidden" : 0,
									"color" : [ 0.101961, 0.121569, 0.172549, 1.0 ],
									"midpoints" : [  ]
								}

							}
, 							{
								"patchline" : 								{
									"source" : [ "obj-30", 0 ],
									"destination" : [ "obj-7", 0 ],
									"hidden" : 0,
									"color" : [ 0.101961, 0.121569, 0.172549, 1.0 ],
									"midpoints" : [  ]
								}

							}
, 							{
								"patchline" : 								{
									"source" : [ "obj-7", 1 ],
									"destination" : [ "obj-23", 0 ],
									"hidden" : 0,
									"color" : [ 0.101961, 0.121569, 0.172549, 1.0 ],
									"midpoints" : [  ]
								}

							}
, 							{
								"patchline" : 								{
									"source" : [ "obj-7", 0 ],
									"destination" : [ "obj-20", 0 ],
									"hidden" : 0,
									"color" : [ 0.101961, 0.121569, 0.172549, 1.0 ],
									"midpoints" : [  ]
								}

							}
, 							{
								"patchline" : 								{
									"source" : [ "obj-17", 0 ],
									"destination" : [ "obj-12", 0 ],
									"hidden" : 0,
									"color" : [ 0.101961, 0.121569, 0.172549, 1.0 ],
									"midpoints" : [  ]
								}

							}
 ]
					}
,
					"saved_object_attributes" : 					{
						"default_fontface" : 0,
						"fontname" : "Arial",
						"default_fontname" : "Arial",
						"globalpatchername" : "",
						"default_fontsize" : 9.0,
						"fontface" : 0,
						"fontsize" : 9.0
					}

				}

			}
, 			{
				"box" : 				{
					"maxclass" : "newobj",
					"text" : "bach.portal 1",
					"patching_rect" : [ 56.0, 383.333344, 63.0, 17.0 ],
					"numinlets" : 1,
					"presentation" : 0,
					"id" : "obj-13",
					"fontname" : "Arial",
					"textcolor" : [ 0.101961, 0.121569, 0.172549, 1.0 ],
					"bgcolor" : [ 1.0, 1.0, 1.0, 1.0 ],
					"numoutlets" : 2,
					"background" : 0,
					"color" : [ 0.494118, 0.556863, 0.607843, 1.0 ],
					"outlettype" : [ "", "bang" ],
					"fontface" : 0,
					"fontsize" : 9.0,
					"ignoreclick" : 0,
					"presentation_rect" : [ 0.0, 0.0, 0.0, 0.0 ],
					"hidden" : 0
				}

			}
, 			{
				"box" : 				{
					"maxclass" : "newobj",
					"text" : "jtol.bach.recomposenoi",
					"patching_rect" : [ 74.0, 356.333313, 105.0, 17.0 ],
					"numinlets" : 4,
					"presentation" : 0,
					"id" : "obj-60",
					"fontname" : "Arial",
					"textcolor" : [ 0.101961, 0.121569, 0.172549, 1.0 ],
					"bgcolor" : [ 1.0, 1.0, 1.0, 1.0 ],
					"numoutlets" : 1,
					"background" : 0,
					"color" : [ 0.494118, 0.556863, 0.607843, 1.0 ],
					"outlettype" : [ "" ],
					"fontface" : 0,
					"fontsize" : 9.0,
					"ignoreclick" : 0,
					"presentation_rect" : [ 0.0, 0.0, 0.0, 0.0 ],
					"hidden" : 0
				}

			}
, 			{
				"box" : 				{
					"maxclass" : "newobj",
					"text" : "jtol.bach.decomposenoi",
					"patching_rect" : [ 74.0, 219.5, 105.0, 17.0 ],
					"numinlets" : 2,
					"presentation" : 0,
					"id" : "obj-56",
					"fontname" : "Arial",
					"textcolor" : [ 0.101961, 0.121569, 0.172549, 1.0 ],
					"bgcolor" : [ 1.0, 1.0, 1.0, 1.0 ],
					"numoutlets" : 4,
					"background" : 0,
					"color" : [ 0.494118, 0.556863, 0.607843, 1.0 ],
					"outlettype" : [ "", "", "", "" ],
					"fontface" : 0,
					"fontsize" : 9.0,
					"ignoreclick" : 0,
					"presentation_rect" : [ 0.0, 0.0, 0.0, 0.0 ],
					"hidden" : 0
				}

			}
, 			{
				"box" : 				{
					"maxclass" : "inlet",
					"patching_rect" : [ 98.0, 61.0, 19.0, 19.0 ],
					"numinlets" : 0,
					"presentation" : 0,
					"id" : "obj-6",
					"numoutlets" : 1,
					"background" : 0,
					"outlettype" : [ "" ],
					"ignoreclick" : 0,
					"presentation_rect" : [ 0.0, 0.0, 0.0, 0.0 ],
					"hidden" : 0,
					"comment" : ""
				}

			}
, 			{
				"box" : 				{
					"maxclass" : "inlet",
					"patching_rect" : [ 160.0, 61.0, 19.0, 19.0 ],
					"numinlets" : 0,
					"presentation" : 0,
					"id" : "obj-9",
					"numoutlets" : 1,
					"background" : 0,
					"outlettype" : [ "" ],
					"ignoreclick" : 0,
					"presentation_rect" : [ 0.0, 0.0, 0.0, 0.0 ],
					"hidden" : 0,
					"comment" : ""
				}

			}
, 			{
				"box" : 				{
					"maxclass" : "inlet",
					"patching_rect" : [ 414.0, 61.0, 19.0, 19.0 ],
					"numinlets" : 0,
					"presentation" : 0,
					"id" : "obj-19",
					"numoutlets" : 1,
					"background" : 0,
					"outlettype" : [ "" ],
					"ignoreclick" : 0,
					"presentation_rect" : [ 0.0, 0.0, 0.0, 0.0 ],
					"hidden" : 0,
					"comment" : ""
				}

			}
, 			{
				"box" : 				{
					"maxclass" : "outlet",
					"patching_rect" : [ 56.0, 413.0, 19.0, 19.0 ],
					"numinlets" : 1,
					"presentation" : 0,
					"id" : "obj-21",
					"numoutlets" : 0,
					"background" : 0,
					"ignoreclick" : 0,
					"presentation_rect" : [ 0.0, 0.0, 0.0, 0.0 ],
					"hidden" : 0,
					"comment" : ""
				}

			}
 ],
		"lines" : [ 			{
				"patchline" : 				{
					"source" : [ "obj-60", 0 ],
					"destination" : [ "obj-13", 0 ],
					"hidden" : 0,
					"color" : [ 0.317647, 0.709804, 0.321569, 1.0 ],
					"midpoints" : [  ]
				}

			}
, 			{
				"patchline" : 				{
					"source" : [ "obj-25", 0 ],
					"destination" : [ "obj-60", 2 ],
					"hidden" : 0,
					"color" : [ 0.101961, 0.121569, 0.172549, 1.0 ],
					"midpoints" : [  ]
				}

			}
, 			{
				"patchline" : 				{
					"source" : [ "obj-56", 0 ],
					"destination" : [ "obj-60", 0 ],
					"hidden" : 0,
					"color" : [ 0.101961, 0.121569, 0.172549, 1.0 ],
					"midpoints" : [  ]
				}

			}
, 			{
				"patchline" : 				{
					"source" : [ "obj-56", 1 ],
					"destination" : [ "obj-60", 1 ],
					"hidden" : 0,
					"color" : [ 0.101961, 0.121569, 0.172549, 1.0 ],
					"midpoints" : [  ]
				}

			}
, 			{
				"patchline" : 				{
					"source" : [ "obj-56", 3 ],
					"destination" : [ "obj-60", 3 ],
					"hidden" : 0,
					"color" : [ 0.101961, 0.121569, 0.172549, 1.0 ],
					"midpoints" : [  ]
				}

			}
, 			{
				"patchline" : 				{
					"source" : [ "obj-9", 0 ],
					"destination" : [ "obj-56", 1 ],
					"hidden" : 0,
					"color" : [ 0.756863, 0.329412, 0.843137, 1.0 ],
					"midpoints" : [  ]
				}

			}
, 			{
				"patchline" : 				{
					"source" : [ "obj-16", 1 ],
					"destination" : [ "obj-56", 1 ],
					"hidden" : 0,
					"color" : [ 0.827451, 0.827451, 0.827451, 1.0 ],
					"midpoints" : [  ]
				}

			}
, 			{
				"patchline" : 				{
					"source" : [ "obj-56", 2 ],
					"destination" : [ "obj-28", 0 ],
					"hidden" : 0,
					"color" : [ 0.101961, 0.121569, 0.172549, 1.0 ],
					"midpoints" : [  ]
				}

			}
, 			{
				"patchline" : 				{
					"source" : [ "obj-5", 0 ],
					"destination" : [ "obj-56", 0 ],
					"hidden" : 0,
					"color" : [ 0.101961, 0.121569, 0.172549, 1.0 ],
					"midpoints" : [  ]
				}

			}
, 			{
				"patchline" : 				{
					"source" : [ "obj-15", 0 ],
					"destination" : [ "obj-17", 0 ],
					"hidden" : 0,
					"color" : [ 0.101961, 0.121569, 0.172549, 1.0 ],
					"midpoints" : [  ]
				}

			}
, 			{
				"patchline" : 				{
					"source" : [ "obj-17", 0 ],
					"destination" : [ "obj-7", 0 ],
					"hidden" : 0,
					"color" : [ 0.101961, 0.121569, 0.172549, 1.0 ],
					"midpoints" : [  ]
				}

			}
, 			{
				"patchline" : 				{
					"source" : [ "obj-4", 0 ],
					"destination" : [ "obj-17", 1 ],
					"hidden" : 0,
					"color" : [ 0.101961, 0.121569, 0.172549, 1.0 ],
					"midpoints" : [  ]
				}

			}
, 			{
				"patchline" : 				{
					"source" : [ "obj-9", 0 ],
					"destination" : [ "obj-15", 0 ],
					"hidden" : 0,
					"color" : [ 0.756863, 0.329412, 0.843137, 1.0 ],
					"midpoints" : [  ]
				}

			}
, 			{
				"patchline" : 				{
					"source" : [ "obj-7", 0 ],
					"destination" : [ "obj-5", 0 ],
					"hidden" : 0,
					"color" : [ 0.101961, 0.121569, 0.172549, 1.0 ],
					"midpoints" : [  ]
				}

			}
, 			{
				"patchline" : 				{
					"source" : [ "obj-6", 0 ],
					"destination" : [ "obj-5", 1 ],
					"hidden" : 0,
					"color" : [ 0.101961, 0.121569, 0.172549, 1.0 ],
					"midpoints" : [  ]
				}

			}
, 			{
				"patchline" : 				{
					"source" : [ "obj-5", 1 ],
					"destination" : [ "obj-11", 0 ],
					"hidden" : 0,
					"color" : [ 0.101961, 0.121569, 0.172549, 1.0 ],
					"midpoints" : [  ]
				}

			}
, 			{
				"patchline" : 				{
					"source" : [ "obj-10", 1 ],
					"destination" : [ "obj-8", 0 ],
					"hidden" : 0,
					"color" : [ 0.101961, 0.121569, 0.172549, 1.0 ],
					"midpoints" : [  ]
				}

			}
, 			{
				"patchline" : 				{
					"source" : [ "obj-12", 0 ],
					"destination" : [ "obj-8", 1 ],
					"hidden" : 0,
					"color" : [ 0.101961, 0.121569, 0.172549, 1.0 ],
					"midpoints" : [  ]
				}

			}
, 			{
				"patchline" : 				{
					"source" : [ "obj-16", 2 ],
					"destination" : [ "obj-10", 1 ],
					"hidden" : 0,
					"color" : [ 0.827451, 0.827451, 0.827451, 1.0 ],
					"midpoints" : [  ]
				}

			}
, 			{
				"patchline" : 				{
					"source" : [ "obj-2", 1 ],
					"destination" : [ "obj-25", 0 ],
					"hidden" : 0,
					"color" : [ 0.101961, 0.121569, 0.172549, 1.0 ],
					"midpoints" : [  ]
				}

			}
, 			{
				"patchline" : 				{
					"source" : [ "obj-28", 1 ],
					"destination" : [ "obj-14", 1 ],
					"hidden" : 0,
					"color" : [ 0.101961, 0.121569, 0.172549, 1.0 ],
					"midpoints" : [  ]
				}

			}
, 			{
				"patchline" : 				{
					"source" : [ "obj-28", 0 ],
					"destination" : [ "obj-2", 0 ],
					"hidden" : 0,
					"color" : [ 0.101961, 0.121569, 0.172549, 1.0 ],
					"midpoints" : [  ]
				}

			}
, 			{
				"patchline" : 				{
					"source" : [ "obj-11", 1 ],
					"destination" : [ "obj-12", 1 ],
					"hidden" : 0,
					"color" : [ 0.101961, 0.121569, 0.172549, 1.0 ],
					"midpoints" : [  ]
				}

			}
, 			{
				"patchline" : 				{
					"source" : [ "obj-11", 0 ],
					"destination" : [ "obj-10", 0 ],
					"hidden" : 0,
					"color" : [ 0.101961, 0.121569, 0.172549, 1.0 ],
					"midpoints" : [  ]
				}

			}
, 			{
				"patchline" : 				{
					"source" : [ "obj-10", 0 ],
					"destination" : [ "obj-12", 0 ],
					"hidden" : 0,
					"color" : [ 0.101961, 0.121569, 0.172549, 1.0 ],
					"midpoints" : [  ]
				}

			}
, 			{
				"patchline" : 				{
					"source" : [ "obj-19", 0 ],
					"destination" : [ "obj-10", 1 ],
					"hidden" : 0,
					"color" : [ 0.047059, 0.913725, 0.913725, 1.0 ],
					"midpoints" : [ 423.5, 270.666656, 382.5, 270.666656 ]
				}

			}
, 			{
				"patchline" : 				{
					"source" : [ "obj-16", 3 ],
					"destination" : [ "obj-4", 0 ],
					"hidden" : 0,
					"color" : [ 0.827451, 0.827451, 0.827451, 1.0 ],
					"midpoints" : [  ]
				}

			}
, 			{
				"patchline" : 				{
					"source" : [ "obj-16", 2 ],
					"destination" : [ "obj-2", 1 ],
					"hidden" : 0,
					"color" : [ 0.827451, 0.827451, 0.827451, 1.0 ],
					"midpoints" : [  ]
				}

			}
, 			{
				"patchline" : 				{
					"source" : [ "obj-23", 1 ],
					"destination" : [ "obj-16", 0 ],
					"hidden" : 0,
					"color" : [ 0.101961, 0.121569, 0.172549, 1.0 ],
					"midpoints" : [  ]
				}

			}
, 			{
				"patchline" : 				{
					"source" : [ "obj-14", 0 ],
					"destination" : [ "obj-25", 1 ],
					"hidden" : 0,
					"color" : [ 0.101961, 0.121569, 0.172549, 1.0 ],
					"midpoints" : [  ]
				}

			}
, 			{
				"patchline" : 				{
					"source" : [ "obj-19", 0 ],
					"destination" : [ "obj-2", 1 ],
					"hidden" : 0,
					"color" : [ 0.047059, 0.913725, 0.913725, 1.0 ],
					"midpoints" : [ 423.5, 270.666656, 226.5, 270.666656 ]
				}

			}
, 			{
				"patchline" : 				{
					"source" : [ "obj-2", 0 ],
					"destination" : [ "obj-14", 0 ],
					"hidden" : 0,
					"color" : [ 0.101961, 0.121569, 0.172549, 1.0 ],
					"midpoints" : [  ]
				}

			}
, 			{
				"patchline" : 				{
					"source" : [ "obj-16", 0 ],
					"destination" : [ "obj-13", 0 ],
					"hidden" : 0,
					"color" : [ 0.827451, 0.827451, 0.827451, 1.0 ],
					"midpoints" : [  ]
				}

			}
, 			{
				"patchline" : 				{
					"source" : [ "obj-13", 0 ],
					"destination" : [ "obj-21", 0 ],
					"hidden" : 0,
					"color" : [ 0.101961, 0.121569, 0.172549, 1.0 ],
					"midpoints" : [  ]
				}

			}
, 			{
				"patchline" : 				{
					"source" : [ "obj-8", 0 ],
					"destination" : [ "obj-13", 0 ],
					"hidden" : 0,
					"color" : [ 0.317647, 0.709804, 0.321569, 1.0 ],
					"midpoints" : [  ]
				}

			}
 ]
	}

}
