{
	"patcher" : 	{
		"fileversion" : 1,
		"appversion" : 		{
			"major" : 5,
			"minor" : 1,
			"revision" : 9
		}
,
		"rect" : [ 183.0, 97.0, 909.0, 509.0 ],
		"bgcolor" : [ 0.666667, 0.698039, 0.717647, 1.0 ],
		"bglocked" : 0,
		"defrect" : [ 183.0, 97.0, 909.0, 509.0 ],
		"openrect" : [ 0.0, 0.0, 0.0, 0.0 ],
		"openinpresentation" : 0,
		"default_fontsize" : 9.0,
		"default_fontface" : 0,
		"default_fontname" : "Arial",
		"gridonopen" : 0,
		"gridsize" : [ 15.0, 15.0 ],
		"gridsnaponopen" : 0,
		"statusbarvisible" : 0,
		"toolbarvisible" : 0,
		"boxanimatetime" : 0,
		"imprint" : 1,
		"enablehscroll" : 1,
		"enablevscroll" : 1,
		"devicewidth" : 0.0,
		"boxes" : [ 			{
				"box" : 				{
					"maxclass" : "newobj",
					"text" : "patcherargs",
					"patching_rect" : [ 21.0, 9.0, 58.0, 17.0 ],
					"numinlets" : 1,
					"presentation" : 0,
					"id" : "obj-1",
					"fontname" : "Arial",
					"textcolor" : [ 0.101961, 0.121569, 0.172549, 1.0 ],
					"bgcolor" : [ 1.0, 1.0, 1.0, 1.0 ],
					"numoutlets" : 2,
					"background" : 0,
					"color" : [ 0.494118, 0.556863, 0.607843, 1.0 ],
					"outlettype" : [ "", "" ],
					"fontface" : 0,
					"fontsize" : 9.0,
					"ignoreclick" : 0,
					"presentation_rect" : [ 0.0, 0.0, 0.0, 0.0 ],
					"hidden" : 0
				}

			}
, 			{
				"box" : 				{
					"maxclass" : "newobj",
					"text" : "t b l b",
					"patching_rect" : [ 154.0, 154.333344, 571.5, 17.0 ],
					"numinlets" : 1,
					"presentation" : 0,
					"id" : "obj-73",
					"fontname" : "Arial",
					"textcolor" : [ 0.101961, 0.121569, 0.172549, 1.0 ],
					"bgcolor" : [ 1.0, 1.0, 1.0, 1.0 ],
					"numoutlets" : 3,
					"background" : 0,
					"color" : [ 0.494118, 0.556863, 0.607843, 1.0 ],
					"outlettype" : [ "bang", "", "bang" ],
					"fontface" : 0,
					"fontsize" : 9.0,
					"ignoreclick" : 0,
					"presentation_rect" : [ 0.0, 0.0, 0.0, 0.0 ],
					"hidden" : 0
				}

			}
, 			{
				"box" : 				{
					"maxclass" : "newobj",
					"text" : "t b l",
					"patching_rect" : [ 154.0, 242.333344, 360.5, 17.0 ],
					"numinlets" : 1,
					"presentation" : 0,
					"id" : "obj-71",
					"fontname" : "Arial",
					"textcolor" : [ 0.101961, 0.121569, 0.172549, 1.0 ],
					"bgcolor" : [ 1.0, 1.0, 1.0, 1.0 ],
					"numoutlets" : 2,
					"background" : 0,
					"color" : [ 0.494118, 0.556863, 0.607843, 1.0 ],
					"outlettype" : [ "bang", "" ],
					"fontface" : 0,
					"fontsize" : 9.0,
					"ignoreclick" : 0,
					"presentation_rect" : [ 0.0, 0.0, 0.0, 0.0 ],
					"hidden" : 0
				}

			}
, 			{
				"box" : 				{
					"maxclass" : "newobj",
					"text" : "bach.reg",
					"patching_rect" : [ 154.0, 395.333344, 295.0, 17.0 ],
					"numinlets" : 2,
					"presentation" : 0,
					"id" : "obj-69",
					"fontname" : "Arial",
					"textcolor" : [ 0.101961, 0.121569, 0.172549, 1.0 ],
					"bgcolor" : [ 1.0, 1.0, 1.0, 1.0 ],
					"numoutlets" : 1,
					"background" : 0,
					"color" : [ 0.494118, 0.556863, 0.607843, 1.0 ],
					"outlettype" : [ "" ],
					"fontface" : 0,
					"fontsize" : 9.0,
					"ignoreclick" : 0,
					"presentation_rect" : [ 0.0, 0.0, 0.0, 0.0 ],
					"hidden" : 0,
					"saved_object_attributes" : 					{
						"embed" : 0
					}

				}

			}
, 			{
				"box" : 				{
					"maxclass" : "newobj",
					"text" : "t b l clear",
					"patching_rect" : [ 496.0, 314.5, 58.0, 17.0 ],
					"numinlets" : 1,
					"presentation" : 0,
					"id" : "obj-66",
					"fontname" : "Arial",
					"textcolor" : [ 0.101961, 0.121569, 0.172549, 1.0 ],
					"bgcolor" : [ 1.0, 1.0, 1.0, 1.0 ],
					"numoutlets" : 3,
					"background" : 0,
					"color" : [ 0.494118, 0.556863, 0.607843, 1.0 ],
					"outlettype" : [ "bang", "", "clear" ],
					"fontface" : 0,
					"fontsize" : 9.0,
					"ignoreclick" : 0,
					"presentation_rect" : [ 0.0, 0.0, 0.0, 0.0 ],
					"hidden" : 0
				}

			}
, 			{
				"box" : 				{
					"maxclass" : "newobj",
					"text" : "bach.collect",
					"patching_rect" : [ 496.0, 395.333344, 58.0, 17.0 ],
					"numinlets" : 3,
					"presentation" : 0,
					"id" : "obj-65",
					"fontname" : "Arial",
					"textcolor" : [ 0.101961, 0.121569, 0.172549, 1.0 ],
					"bgcolor" : [ 1.0, 1.0, 1.0, 1.0 ],
					"numoutlets" : 1,
					"background" : 0,
					"color" : [ 0.494118, 0.556863, 0.607843, 1.0 ],
					"outlettype" : [ "" ],
					"fontface" : 0,
					"fontsize" : 9.0,
					"ignoreclick" : 0,
					"presentation_rect" : [ 0.0, 0.0, 0.0, 0.0 ],
					"hidden" : 0
				}

			}
, 			{
				"box" : 				{
					"maxclass" : "newobj",
					"text" : "bach.wrap",
					"patching_rect" : [ 516.0, 367.75, 52.0, 17.0 ],
					"numinlets" : 1,
					"presentation" : 0,
					"id" : "obj-64",
					"fontname" : "Arial",
					"textcolor" : [ 0.101961, 0.121569, 0.172549, 1.0 ],
					"bgcolor" : [ 1.0, 1.0, 1.0, 1.0 ],
					"numoutlets" : 1,
					"background" : 0,
					"color" : [ 0.494118, 0.556863, 0.607843, 1.0 ],
					"outlettype" : [ "" ],
					"fontface" : 0,
					"fontsize" : 9.0,
					"ignoreclick" : 0,
					"presentation_rect" : [ 0.0, 0.0, 0.0, 0.0 ],
					"hidden" : 0
				}

			}
, 			{
				"box" : 				{
					"maxclass" : "newobj",
					"text" : "bach.flat",
					"patching_rect" : [ 496.0, 290.5, 45.0, 17.0 ],
					"numinlets" : 1,
					"presentation" : 0,
					"id" : "obj-63",
					"fontname" : "Arial",
					"textcolor" : [ 0.101961, 0.121569, 0.172549, 1.0 ],
					"bgcolor" : [ 1.0, 1.0, 1.0, 1.0 ],
					"numoutlets" : 1,
					"background" : 0,
					"color" : [ 0.494118, 0.556863, 0.607843, 1.0 ],
					"outlettype" : [ "" ],
					"fontface" : 0,
					"fontsize" : 9.0,
					"ignoreclick" : 0,
					"presentation_rect" : [ 0.0, 0.0, 0.0, 0.0 ],
					"hidden" : 0
				}

			}
, 			{
				"box" : 				{
					"maxclass" : "newobj",
					"text" : "bach.flat @maxlevel 1",
					"patching_rect" : [ 667.0, 341.75, 99.0, 17.0 ],
					"numinlets" : 1,
					"presentation" : 0,
					"id" : "obj-12",
					"fontname" : "Arial",
					"textcolor" : [ 0.101961, 0.121569, 0.172549, 1.0 ],
					"bgcolor" : [ 1.0, 1.0, 1.0, 1.0 ],
					"numoutlets" : 1,
					"background" : 0,
					"color" : [ 0.494118, 0.556863, 0.607843, 1.0 ],
					"outlettype" : [ "" ],
					"fontface" : 0,
					"fontsize" : 9.0,
					"ignoreclick" : 0,
					"presentation_rect" : [ 0.0, 0.0, 0.0, 0.0 ],
					"hidden" : 0
				}

			}
, 			{
				"box" : 				{
					"maxclass" : "newobj",
					"text" : "bach.iter 1 @maxdepth 1",
					"patching_rect" : [ 516.0, 341.75, 111.0, 17.0 ],
					"numinlets" : 2,
					"presentation" : 0,
					"id" : "obj-62",
					"fontname" : "Arial",
					"textcolor" : [ 0.101961, 0.121569, 0.172549, 1.0 ],
					"bgcolor" : [ 1.0, 1.0, 1.0, 1.0 ],
					"numoutlets" : 3,
					"background" : 0,
					"color" : [ 0.494118, 0.556863, 0.607843, 1.0 ],
					"outlettype" : [ "", "", "int" ],
					"fontface" : 0,
					"fontsize" : 9.0,
					"ignoreclick" : 0,
					"presentation_rect" : [ 0.0, 0.0, 0.0, 0.0 ],
					"hidden" : 0
				}

			}
, 			{
				"box" : 				{
					"maxclass" : "newobj",
					"text" : "bach.iter 1 @maxdepth 1",
					"patching_rect" : [ 496.0, 266.200012, 360.0, 17.0 ],
					"numinlets" : 2,
					"presentation" : 0,
					"id" : "obj-89",
					"fontname" : "Arial",
					"textcolor" : [ 0.101961, 0.121569, 0.172549, 1.0 ],
					"bgcolor" : [ 1.0, 1.0, 1.0, 1.0 ],
					"numoutlets" : 3,
					"background" : 0,
					"color" : [ 0.494118, 0.556863, 0.607843, 1.0 ],
					"outlettype" : [ "", "", "int" ],
					"fontface" : 0,
					"fontsize" : 9.0,
					"ignoreclick" : 0,
					"presentation_rect" : [ 0.0, 0.0, 0.0, 0.0 ],
					"hidden" : 0
				}

			}
, 			{
				"box" : 				{
					"maxclass" : "newobj",
					"text" : "bach.lookup",
					"patching_rect" : [ 667.0, 290.5, 59.0, 17.0 ],
					"numinlets" : 2,
					"presentation" : 0,
					"id" : "obj-58",
					"fontname" : "Arial",
					"textcolor" : [ 0.101961, 0.121569, 0.172549, 1.0 ],
					"bgcolor" : [ 1.0, 1.0, 1.0, 1.0 ],
					"numoutlets" : 1,
					"background" : 0,
					"color" : [ 0.494118, 0.556863, 0.607843, 1.0 ],
					"outlettype" : [ "" ],
					"fontface" : 0,
					"fontsize" : 9.0,
					"ignoreclick" : 0,
					"presentation_rect" : [ 0.0, 0.0, 0.0, 0.0 ],
					"hidden" : 0
				}

			}
, 			{
				"box" : 				{
					"maxclass" : "newobj",
					"text" : "bach.collect",
					"patching_rect" : [ 707.0, 242.333344, 58.0, 17.0 ],
					"numinlets" : 3,
					"presentation" : 0,
					"id" : "obj-57",
					"fontname" : "Arial",
					"textcolor" : [ 0.101961, 0.121569, 0.172549, 1.0 ],
					"bgcolor" : [ 1.0, 1.0, 1.0, 1.0 ],
					"numoutlets" : 1,
					"background" : 0,
					"color" : [ 0.494118, 0.556863, 0.607843, 1.0 ],
					"outlettype" : [ "" ],
					"fontface" : 0,
					"fontsize" : 9.0,
					"ignoreclick" : 0,
					"presentation_rect" : [ 0.0, 0.0, 0.0, 0.0 ],
					"hidden" : 0
				}

			}
, 			{
				"box" : 				{
					"maxclass" : "newobj",
					"text" : "bach.wrap",
					"patching_rect" : [ 668.0, 178.333344, 52.0, 17.0 ],
					"numinlets" : 1,
					"presentation" : 0,
					"id" : "obj-55",
					"fontname" : "Arial",
					"textcolor" : [ 0.101961, 0.121569, 0.172549, 1.0 ],
					"bgcolor" : [ 1.0, 1.0, 1.0, 1.0 ],
					"numoutlets" : 1,
					"background" : 0,
					"color" : [ 0.494118, 0.556863, 0.607843, 1.0 ],
					"outlettype" : [ "" ],
					"fontface" : 0,
					"fontsize" : 9.0,
					"ignoreclick" : 0,
					"presentation_rect" : [ 0.0, 0.0, 0.0, 0.0 ],
					"hidden" : 0
				}

			}
, 			{
				"box" : 				{
					"maxclass" : "newobj",
					"text" : "p comb",
					"patching_rect" : [ 154.0, 204.333344, 705.0, 17.0 ],
					"numinlets" : 3,
					"presentation" : 0,
					"id" : "obj-37",
					"fontname" : "Arial",
					"textcolor" : [ 0.101961, 0.121569, 0.172549, 1.0 ],
					"bgcolor" : [ 1.0, 1.0, 1.0, 1.0 ],
					"numoutlets" : 1,
					"background" : 0,
					"color" : [ 0.494118, 0.556863, 0.607843, 1.0 ],
					"outlettype" : [ "" ],
					"fontface" : 0,
					"fontsize" : 9.0,
					"ignoreclick" : 0,
					"presentation_rect" : [ 0.0, 0.0, 0.0, 0.0 ],
					"hidden" : 0,
					"patcher" : 					{
						"fileversion" : 1,
						"appversion" : 						{
							"major" : 5,
							"minor" : 1,
							"revision" : 9
						}
,
						"rect" : [ 467.0, 44.0, 573.0, 577.0 ],
						"bgcolor" : [ 0.666667, 0.698039, 0.717647, 1.0 ],
						"bglocked" : 0,
						"defrect" : [ 467.0, 44.0, 573.0, 577.0 ],
						"openrect" : [ 0.0, 0.0, 0.0, 0.0 ],
						"openinpresentation" : 0,
						"default_fontsize" : 9.0,
						"default_fontface" : 0,
						"default_fontname" : "Arial",
						"gridonopen" : 0,
						"gridsize" : [ 15.0, 15.0 ],
						"gridsnaponopen" : 0,
		"statusbarvisible" : 0,
						"toolbarvisible" : 0,
						"boxanimatetime" : 0,
						"imprint" : 1,
						"enablehscroll" : 1,
						"enablevscroll" : 1,
						"devicewidth" : 0.0,
						"boxes" : [ 							{
								"box" : 								{
									"maxclass" : "inlet",
									"patching_rect" : [ 403.0, 14.0, 18.0, 18.0 ],
									"numinlets" : 0,
									"presentation" : 0,
									"id" : "obj-8",
									"numoutlets" : 1,
									"background" : 0,
									"outlettype" : [ "" ],
									"ignoreclick" : 0,
									"presentation_rect" : [ 0.0, 0.0, 0.0, 0.0 ],
									"hidden" : 0,
									"comment" : ""
								}

							}
, 							{
								"box" : 								{
									"maxclass" : "comment",
									"text" : "I'm pretty sure all this could be optimized (cpu & mem) (using bach.comb?);\nIf you have an idea...",
									"linecount" : 3,
									"frgb" : [ 1.0, 0.0, 0.0, 1.0 ],
									"patching_rect" : [ 13.0, 65.0, 247.0, 51.0 ],
									"numinlets" : 1,
									"presentation" : 0,
									"id" : "obj-6",
									"fontname" : "Arial",
									"underline" : 0,
									"textcolor" : [ 1.0, 0.0, 0.0, 1.0 ],
									"bgcolor" : [ 1.0, 1.0, 1.0, 0.0 ],
									"numoutlets" : 0,
									"background" : 0,
									"fontface" : 0,
									"fontsize" : 13.0,
									"ignoreclick" : 1,
									"presentation_rect" : [ 0.0, 0.0, 0.0, 0.0 ],
									"hidden" : 0
								}

							}
, 							{
								"box" : 								{
									"maxclass" : "inlet",
									"patching_rect" : [ 248.0, 14.0, 18.0, 18.0 ],
									"numinlets" : 0,
									"presentation" : 0,
									"id" : "obj-3",
									"numoutlets" : 1,
									"background" : 0,
									"outlettype" : [ "bang" ],
									"ignoreclick" : 0,
									"presentation_rect" : [ 0.0, 0.0, 0.0, 0.0 ],
									"hidden" : 0,
									"comment" : ""
								}

							}
, 							{
								"box" : 								{
									"maxclass" : "inlet",
									"patching_rect" : [ 282.0, 14.0, 18.0, 18.0 ],
									"numinlets" : 0,
									"presentation" : 0,
									"id" : "obj-24",
									"numoutlets" : 1,
									"background" : 0,
									"outlettype" : [ "" ],
									"ignoreclick" : 0,
									"presentation_rect" : [ 0.0, 0.0, 0.0, 0.0 ],
									"hidden" : 0,
									"comment" : ""
								}

							}
, 							{
								"box" : 								{
									"maxclass" : "outlet",
									"patching_rect" : [ 120.0, 540.599976, 18.0, 18.0 ],
									"numinlets" : 1,
									"presentation" : 0,
									"id" : "obj-1",
									"numoutlets" : 0,
									"background" : 0,
									"ignoreclick" : 0,
									"presentation_rect" : [ 0.0, 0.0, 0.0, 0.0 ],
									"hidden" : 0,
									"comment" : ""
								}

							}
, 							{
								"box" : 								{
									"maxclass" : "newobj",
									"text" : "bach.rev",
									"patching_rect" : [ 120.0, 492.599976, 45.0, 17.0 ],
									"numinlets" : 1,
									"presentation" : 0,
									"id" : "obj-32",
									"fontname" : "Arial",
									"textcolor" : [ 0.101961, 0.121569, 0.172549, 1.0 ],
									"bgcolor" : [ 1.0, 1.0, 1.0, 1.0 ],
									"numoutlets" : 1,
									"background" : 0,
									"color" : [ 0.494118, 0.556863, 0.607843, 1.0 ],
									"outlettype" : [ "" ],
									"fontface" : 0,
									"fontsize" : 9.0,
									"ignoreclick" : 0,
									"presentation_rect" : [ 0.0, 0.0, 0.0, 0.0 ],
									"hidden" : 0
								}

							}
, 							{
								"box" : 								{
									"maxclass" : "newobj",
									"text" : "bach.flat @maxlevel 1",
									"patching_rect" : [ 120.0, 466.599976, 99.0, 17.0 ],
									"numinlets" : 1,
									"presentation" : 0,
									"id" : "obj-30",
									"fontname" : "Arial",
									"textcolor" : [ 0.101961, 0.121569, 0.172549, 1.0 ],
									"bgcolor" : [ 1.0, 1.0, 1.0, 1.0 ],
									"numoutlets" : 1,
									"background" : 0,
									"color" : [ 0.494118, 0.556863, 0.607843, 1.0 ],
									"outlettype" : [ "" ],
									"fontface" : 0,
									"fontsize" : 9.0,
									"ignoreclick" : 0,
									"presentation_rect" : [ 0.0, 0.0, 0.0, 0.0 ],
									"hidden" : 0
								}

							}
, 							{
								"box" : 								{
									"maxclass" : "newobj",
									"text" : "bach.append",
									"patching_rect" : [ 120.0, 517.599976, 63.0, 17.0 ],
									"numinlets" : 2,
									"presentation" : 0,
									"id" : "obj-27",
									"fontname" : "Arial",
									"textcolor" : [ 0.101961, 0.121569, 0.172549, 1.0 ],
									"bgcolor" : [ 1.0, 1.0, 1.0, 1.0 ],
									"numoutlets" : 1,
									"background" : 0,
									"color" : [ 0.494118, 0.556863, 0.607843, 1.0 ],
									"outlettype" : [ "" ],
									"fontface" : 0,
									"fontsize" : 9.0,
									"ignoreclick" : 0,
									"presentation_rect" : [ 0.0, 0.0, 0.0, 0.0 ],
									"hidden" : 0
								}

							}
, 							{
								"box" : 								{
									"maxclass" : "newobj",
									"text" : "bach.flat @maxlevel 2",
									"patching_rect" : [ 120.0, 416.0, 99.0, 17.0 ],
									"numinlets" : 1,
									"presentation" : 0,
									"id" : "obj-12",
									"fontname" : "Arial",
									"textcolor" : [ 0.101961, 0.121569, 0.172549, 1.0 ],
									"bgcolor" : [ 1.0, 1.0, 1.0, 1.0 ],
									"numoutlets" : 1,
									"background" : 0,
									"color" : [ 0.494118, 0.556863, 0.607843, 1.0 ],
									"outlettype" : [ "" ],
									"fontface" : 0,
									"fontsize" : 9.0,
									"ignoreclick" : 0,
									"presentation_rect" : [ 0.0, 0.0, 0.0, 0.0 ],
									"hidden" : 0
								}

							}
, 							{
								"box" : 								{
									"maxclass" : "newobj",
									"text" : "bach.flat @maxlevel 1",
									"patching_rect" : [ 248.0, 492.599976, 99.0, 17.0 ],
									"numinlets" : 1,
									"presentation" : 0,
									"id" : "obj-5",
									"fontname" : "Arial",
									"textcolor" : [ 0.101961, 0.121569, 0.172549, 1.0 ],
									"bgcolor" : [ 1.0, 1.0, 1.0, 1.0 ],
									"numoutlets" : 1,
									"background" : 0,
									"color" : [ 0.494118, 0.556863, 0.607843, 1.0 ],
									"outlettype" : [ "" ],
									"fontface" : 0,
									"fontsize" : 9.0,
									"ignoreclick" : 0,
									"presentation_rect" : [ 0.0, 0.0, 0.0, 0.0 ],
									"hidden" : 0
								}

							}
, 							{
								"box" : 								{
									"maxclass" : "newobj",
									"text" : "bach.wrap",
									"patching_rect" : [ 262.0, 440.599976, 52.0, 17.0 ],
									"numinlets" : 1,
									"presentation" : 0,
									"id" : "obj-2",
									"fontname" : "Arial",
									"textcolor" : [ 0.101961, 0.121569, 0.172549, 1.0 ],
									"bgcolor" : [ 1.0, 1.0, 1.0, 1.0 ],
									"numoutlets" : 1,
									"background" : 0,
									"color" : [ 0.494118, 0.556863, 0.607843, 1.0 ],
									"outlettype" : [ "" ],
									"fontface" : 0,
									"fontsize" : 9.0,
									"ignoreclick" : 0,
									"presentation_rect" : [ 0.0, 0.0, 0.0, 0.0 ],
									"hidden" : 0
								}

							}
, 							{
								"box" : 								{
									"maxclass" : "newobj",
									"text" : "jtol.bach.fifo",
									"patching_rect" : [ 248.0, 466.599976, 59.0, 17.0 ],
									"numinlets" : 2,
									"presentation" : 0,
									"id" : "obj-126",
									"fontname" : "Arial",
									"textcolor" : [ 0.101961, 0.121569, 0.172549, 1.0 ],
									"bgcolor" : [ 1.0, 1.0, 1.0, 1.0 ],
									"numoutlets" : 3,
									"background" : 0,
									"color" : [ 0.494118, 0.556863, 0.607843, 1.0 ],
									"outlettype" : [ "", "", "bang" ],
									"fontface" : 0,
									"fontsize" : 9.0,
									"ignoreclick" : 0,
									"presentation_rect" : [ 0.0, 0.0, 0.0, 0.0 ],
									"hidden" : 0
								}

							}
, 							{
								"box" : 								{
									"maxclass" : "newobj",
									"text" : "bach.slice 1",
									"patching_rect" : [ 120.0, 440.599976, 63.0, 17.0 ],
									"numinlets" : 1,
									"presentation" : 0,
									"id" : "obj-110",
									"fontname" : "Arial",
									"textcolor" : [ 0.101961, 0.121569, 0.172549, 1.0 ],
									"bgcolor" : [ 1.0, 1.0, 1.0, 1.0 ],
									"numoutlets" : 2,
									"background" : 0,
									"color" : [ 0.494118, 0.556863, 0.607843, 1.0 ],
									"outlettype" : [ "", "" ],
									"fontface" : 0,
									"fontsize" : 9.0,
									"ignoreclick" : 0,
									"presentation_rect" : [ 0.0, 0.0, 0.0, 0.0 ],
									"hidden" : 0
								}

							}
, 							{
								"box" : 								{
									"maxclass" : "newobj",
									"text" : "t b l",
									"patching_rect" : [ 248.0, 181.0, 32.5, 17.0 ],
									"numinlets" : 1,
									"presentation" : 0,
									"id" : "obj-123",
									"fontname" : "Arial",
									"textcolor" : [ 0.101961, 0.121569, 0.172549, 1.0 ],
									"bgcolor" : [ 1.0, 1.0, 1.0, 1.0 ],
									"numoutlets" : 2,
									"background" : 0,
									"color" : [ 0.494118, 0.556863, 0.607843, 1.0 ],
									"outlettype" : [ "bang", "" ],
									"fontface" : 0,
									"fontsize" : 9.0,
									"ignoreclick" : 0,
									"presentation_rect" : [ 0.0, 0.0, 0.0, 0.0 ],
									"hidden" : 0
								}

							}
, 							{
								"box" : 								{
									"maxclass" : "newobj",
									"text" : "+ 1",
									"patching_rect" : [ 120.0, 368.200012, 32.5, 17.0 ],
									"numinlets" : 2,
									"presentation" : 0,
									"id" : "obj-122",
									"fontname" : "Arial",
									"textcolor" : [ 0.101961, 0.121569, 0.172549, 1.0 ],
									"bgcolor" : [ 1.0, 1.0, 1.0, 1.0 ],
									"numoutlets" : 1,
									"background" : 0,
									"color" : [ 0.494118, 0.556863, 0.607843, 1.0 ],
									"outlettype" : [ "int" ],
									"fontface" : 0,
									"fontsize" : 9.0,
									"ignoreclick" : 0,
									"presentation_rect" : [ 0.0, 0.0, 0.0, 0.0 ],
									"hidden" : 0
								}

							}
, 							{
								"box" : 								{
									"maxclass" : "newobj",
									"text" : "gate 2",
									"patching_rect" : [ 120.0, 392.200012, 161.0, 17.0 ],
									"numinlets" : 2,
									"presentation" : 0,
									"id" : "obj-121",
									"fontname" : "Arial",
									"textcolor" : [ 0.101961, 0.121569, 0.172549, 1.0 ],
									"bgcolor" : [ 1.0, 1.0, 1.0, 1.0 ],
									"numoutlets" : 2,
									"background" : 0,
									"color" : [ 0.494118, 0.556863, 0.607843, 1.0 ],
									"outlettype" : [ "", "" ],
									"fontface" : 0,
									"fontsize" : 9.0,
									"ignoreclick" : 0,
									"presentation_rect" : [ 0.0, 0.0, 0.0, 0.0 ],
									"hidden" : 0
								}

							}
, 							{
								"box" : 								{
									"maxclass" : "newobj",
									"text" : "bach.append",
									"patching_rect" : [ 262.0, 416.0, 196.0, 17.0 ],
									"numinlets" : 2,
									"presentation" : 0,
									"id" : "obj-119",
									"fontname" : "Arial",
									"textcolor" : [ 0.101961, 0.121569, 0.172549, 1.0 ],
									"bgcolor" : [ 1.0, 1.0, 1.0, 1.0 ],
									"numoutlets" : 1,
									"background" : 0,
									"color" : [ 0.494118, 0.556863, 0.607843, 1.0 ],
									"outlettype" : [ "" ],
									"fontface" : 0,
									"fontsize" : 9.0,
									"ignoreclick" : 0,
									"presentation_rect" : [ 0.0, 0.0, 0.0, 0.0 ],
									"hidden" : 0
								}

							}
, 							{
								"box" : 								{
									"maxclass" : "newobj",
									"text" : "gate",
									"patching_rect" : [ 439.0, 392.200012, 32.5, 17.0 ],
									"numinlets" : 2,
									"presentation" : 0,
									"id" : "obj-118",
									"fontname" : "Arial",
									"textcolor" : [ 0.101961, 0.121569, 0.172549, 1.0 ],
									"bgcolor" : [ 1.0, 1.0, 1.0, 1.0 ],
									"numoutlets" : 1,
									"background" : 0,
									"color" : [ 0.494118, 0.556863, 0.607843, 1.0 ],
									"outlettype" : [ "" ],
									"fontface" : 0,
									"fontsize" : 9.0,
									"ignoreclick" : 0,
									"presentation_rect" : [ 0.0, 0.0, 0.0, 0.0 ],
									"hidden" : 0
								}

							}
, 							{
								"box" : 								{
									"maxclass" : "newobj",
									"text" : "t l l",
									"patching_rect" : [ 453.0, 257.200012, 32.5, 17.0 ],
									"numinlets" : 1,
									"presentation" : 0,
									"id" : "obj-117",
									"fontname" : "Arial",
									"textcolor" : [ 0.101961, 0.121569, 0.172549, 1.0 ],
									"bgcolor" : [ 1.0, 1.0, 1.0, 1.0 ],
									"numoutlets" : 2,
									"background" : 0,
									"color" : [ 0.494118, 0.556863, 0.607843, 1.0 ],
									"outlettype" : [ "", "" ],
									"fontface" : 0,
									"fontsize" : 9.0,
									"ignoreclick" : 0,
									"presentation_rect" : [ 0.0, 0.0, 0.0, 0.0 ],
									"hidden" : 0
								}

							}
, 							{
								"box" : 								{
									"maxclass" : "newobj",
									"text" : "!= 1",
									"patching_rect" : [ 467.0, 303.200012, 32.5, 17.0 ],
									"numinlets" : 2,
									"presentation" : 0,
									"id" : "obj-116",
									"fontname" : "Arial",
									"textcolor" : [ 0.101961, 0.121569, 0.172549, 1.0 ],
									"bgcolor" : [ 1.0, 1.0, 1.0, 1.0 ],
									"numoutlets" : 1,
									"background" : 0,
									"color" : [ 0.494118, 0.556863, 0.607843, 1.0 ],
									"outlettype" : [ "int" ],
									"fontface" : 0,
									"fontsize" : 9.0,
									"ignoreclick" : 0,
									"presentation_rect" : [ 0.0, 0.0, 0.0, 0.0 ],
									"hidden" : 0
								}

							}
, 							{
								"box" : 								{
									"maxclass" : "newobj",
									"text" : "bach.is",
									"patching_rect" : [ 467.0, 280.200012, 39.0, 17.0 ],
									"numinlets" : 1,
									"presentation" : 0,
									"id" : "obj-115",
									"fontname" : "Arial",
									"textcolor" : [ 0.101961, 0.121569, 0.172549, 1.0 ],
									"bgcolor" : [ 1.0, 1.0, 1.0, 1.0 ],
									"numoutlets" : 2,
									"background" : 0,
									"color" : [ 0.494118, 0.556863, 0.607843, 1.0 ],
									"outlettype" : [ "int", "" ],
									"fontface" : 0,
									"fontsize" : 9.0,
									"ignoreclick" : 0,
									"presentation_rect" : [ 0.0, 0.0, 0.0, 0.0 ],
									"hidden" : 0
								}

							}
, 							{
								"box" : 								{
									"maxclass" : "newobj",
									"text" : "bach.slice 1",
									"patching_rect" : [ 414.0, 234.200012, 58.0, 17.0 ],
									"numinlets" : 1,
									"presentation" : 0,
									"id" : "obj-92",
									"fontname" : "Arial",
									"textcolor" : [ 0.101961, 0.121569, 0.172549, 1.0 ],
									"bgcolor" : [ 1.0, 1.0, 1.0, 1.0 ],
									"numoutlets" : 2,
									"background" : 0,
									"color" : [ 0.494118, 0.556863, 0.607843, 1.0 ],
									"outlettype" : [ "", "" ],
									"fontface" : 0,
									"fontsize" : 9.0,
									"ignoreclick" : 0,
									"presentation_rect" : [ 0.0, 0.0, 0.0, 0.0 ],
									"hidden" : 0
								}

							}
, 							{
								"box" : 								{
									"maxclass" : "newobj",
									"text" : "bach.wrap",
									"patching_rect" : [ 262.0, 257.200012, 52.0, 17.0 ],
									"numinlets" : 1,
									"presentation" : 0,
									"id" : "obj-91",
									"fontname" : "Arial",
									"textcolor" : [ 0.101961, 0.121569, 0.172549, 1.0 ],
									"bgcolor" : [ 1.0, 1.0, 1.0, 1.0 ],
									"numoutlets" : 1,
									"background" : 0,
									"color" : [ 0.494118, 0.556863, 0.607843, 1.0 ],
									"outlettype" : [ "" ],
									"fontface" : 0,
									"fontsize" : 9.0,
									"ignoreclick" : 0,
									"presentation_rect" : [ 0.0, 0.0, 0.0, 0.0 ],
									"hidden" : 0
								}

							}
, 							{
								"box" : 								{
									"maxclass" : "newobj",
									"text" : "bach.append",
									"patching_rect" : [ 262.0, 280.200012, 171.0, 17.0 ],
									"numinlets" : 2,
									"presentation" : 0,
									"id" : "obj-90",
									"fontname" : "Arial",
									"textcolor" : [ 0.101961, 0.121569, 0.172549, 1.0 ],
									"bgcolor" : [ 1.0, 1.0, 1.0, 1.0 ],
									"numoutlets" : 1,
									"background" : 0,
									"color" : [ 0.494118, 0.556863, 0.607843, 1.0 ],
									"outlettype" : [ "" ],
									"fontface" : 0,
									"fontsize" : 9.0,
									"ignoreclick" : 0,
									"presentation_rect" : [ 0.0, 0.0, 0.0, 0.0 ],
									"hidden" : 0
								}

							}
, 							{
								"box" : 								{
									"maxclass" : "newobj",
									"text" : "bach.iter 1 @maxdepth 2",
									"patching_rect" : [ 262.0, 234.200012, 111.0, 17.0 ],
									"numinlets" : 2,
									"presentation" : 0,
									"id" : "obj-89",
									"fontname" : "Arial",
									"textcolor" : [ 0.101961, 0.121569, 0.172549, 1.0 ],
									"bgcolor" : [ 1.0, 1.0, 1.0, 1.0 ],
									"numoutlets" : 3,
									"background" : 0,
									"color" : [ 0.494118, 0.556863, 0.607843, 1.0 ],
									"outlettype" : [ "", "", "int" ],
									"fontface" : 0,
									"fontsize" : 9.0,
									"ignoreclick" : 0,
									"presentation_rect" : [ 0.0, 0.0, 0.0, 0.0 ],
									"hidden" : 0
								}

							}
, 							{
								"box" : 								{
									"maxclass" : "newobj",
									"text" : "bach.slice 1",
									"patching_rect" : [ 262.0, 206.0, 171.0, 17.0 ],
									"numinlets" : 1,
									"presentation" : 0,
									"id" : "obj-87",
									"fontname" : "Arial",
									"textcolor" : [ 0.101961, 0.121569, 0.172549, 1.0 ],
									"bgcolor" : [ 1.0, 1.0, 1.0, 1.0 ],
									"numoutlets" : 2,
									"background" : 0,
									"color" : [ 0.494118, 0.556863, 0.607843, 1.0 ],
									"outlettype" : [ "", "" ],
									"fontface" : 0,
									"fontsize" : 9.0,
									"ignoreclick" : 0,
									"presentation_rect" : [ 0.0, 0.0, 0.0, 0.0 ],
									"hidden" : 0
								}

							}
, 							{
								"box" : 								{
									"maxclass" : "newobj",
									"text" : "p factorization",
									"patching_rect" : [ 262.0, 303.200012, 67.0, 17.0 ],
									"numinlets" : 1,
									"presentation" : 0,
									"id" : "obj-84",
									"fontname" : "Arial",
									"textcolor" : [ 0.101961, 0.121569, 0.172549, 1.0 ],
									"bgcolor" : [ 1.0, 1.0, 1.0, 1.0 ],
									"numoutlets" : 1,
									"background" : 0,
									"color" : [ 0.494118, 0.556863, 0.607843, 1.0 ],
									"outlettype" : [ "" ],
									"fontface" : 0,
									"fontsize" : 9.0,
									"ignoreclick" : 0,
									"presentation_rect" : [ 0.0, 0.0, 0.0, 0.0 ],
									"hidden" : 0,
									"patcher" : 									{
										"fileversion" : 1,
										"appversion" : 										{
											"major" : 5,
											"minor" : 1,
											"revision" : 9
										}
,
										"rect" : [ 452.0, 44.0, 240.0, 290.0 ],
										"bgcolor" : [ 0.666667, 0.698039, 0.717647, 1.0 ],
										"bglocked" : 0,
										"defrect" : [ 452.0, 44.0, 240.0, 290.0 ],
										"openrect" : [ 0.0, 0.0, 0.0, 0.0 ],
										"openinpresentation" : 0,
										"default_fontsize" : 9.0,
										"default_fontface" : 0,
										"default_fontname" : "Arial",
										"gridonopen" : 0,
										"gridsize" : [ 15.0, 15.0 ],
										"gridsnaponopen" : 0,
		"statusbarvisible" : 0,
										"toolbarvisible" : 0,
										"boxanimatetime" : 0,
										"imprint" : 1,
										"enablehscroll" : 1,
										"enablevscroll" : 1,
										"devicewidth" : 0.0,
										"boxes" : [ 											{
												"box" : 												{
													"maxclass" : "newobj",
													"text" : "bach.rev",
													"patching_rect" : [ 57.0, 203.5, 45.0, 17.0 ],
													"numinlets" : 1,
													"presentation" : 0,
													"id" : "obj-67",
													"fontname" : "Arial",
													"textcolor" : [ 0.101961, 0.121569, 0.172549, 1.0 ],
													"bgcolor" : [ 1.0, 1.0, 1.0, 1.0 ],
													"numoutlets" : 1,
													"background" : 0,
													"color" : [ 0.494118, 0.556863, 0.607843, 1.0 ],
													"outlettype" : [ "" ],
													"fontface" : 0,
													"fontsize" : 9.0,
													"ignoreclick" : 0,
													"presentation_rect" : [ 0.0, 0.0, 0.0, 0.0 ],
													"hidden" : 0
												}

											}
, 											{
												"box" : 												{
													"maxclass" : "newobj",
													"text" : "bach.append",
													"patching_rect" : [ 57.0, 178.5, 120.0, 17.0 ],
													"numinlets" : 2,
													"presentation" : 0,
													"id" : "obj-66",
													"fontname" : "Arial",
													"textcolor" : [ 0.101961, 0.121569, 0.172549, 1.0 ],
													"bgcolor" : [ 1.0, 1.0, 1.0, 1.0 ],
													"numoutlets" : 1,
													"background" : 0,
													"color" : [ 0.494118, 0.556863, 0.607843, 1.0 ],
													"outlettype" : [ "" ],
													"fontface" : 0,
													"fontsize" : 9.0,
													"ignoreclick" : 0,
													"presentation_rect" : [ 0.0, 0.0, 0.0, 0.0 ],
													"hidden" : 0
												}

											}
, 											{
												"box" : 												{
													"maxclass" : "newobj",
													"text" : "t b l",
													"patching_rect" : [ 57.0, 103.5, 120.0, 17.0 ],
													"numinlets" : 1,
													"presentation" : 0,
													"id" : "obj-65",
													"fontname" : "Arial",
													"textcolor" : [ 0.101961, 0.121569, 0.172549, 1.0 ],
													"bgcolor" : [ 1.0, 1.0, 1.0, 1.0 ],
													"numoutlets" : 2,
													"background" : 0,
													"color" : [ 0.494118, 0.556863, 0.607843, 1.0 ],
													"outlettype" : [ "bang", "" ],
													"fontface" : 0,
													"fontsize" : 9.0,
													"ignoreclick" : 0,
													"presentation_rect" : [ 0.0, 0.0, 0.0, 0.0 ],
													"hidden" : 0
												}

											}
, 											{
												"box" : 												{
													"maxclass" : "newobj",
													"text" : "bach.iter @maxdepth 1",
													"patching_rect" : [ 57.0, 153.5, 104.0, 17.0 ],
													"numinlets" : 2,
													"presentation" : 0,
													"id" : "obj-64",
													"fontname" : "Arial",
													"textcolor" : [ 0.101961, 0.121569, 0.172549, 1.0 ],
													"bgcolor" : [ 1.0, 1.0, 1.0, 1.0 ],
													"numoutlets" : 3,
													"background" : 0,
													"color" : [ 0.494118, 0.556863, 0.607843, 1.0 ],
													"outlettype" : [ "", "", "int" ],
													"fontface" : 0,
													"fontsize" : 9.0,
													"ignoreclick" : 0,
													"presentation_rect" : [ 0.0, 0.0, 0.0, 0.0 ],
													"hidden" : 0
												}

											}
, 											{
												"box" : 												{
													"maxclass" : "newobj",
													"text" : "bach.reg",
													"patching_rect" : [ 57.0, 128.5, 58.0, 17.0 ],
													"numinlets" : 2,
													"presentation" : 0,
													"id" : "obj-61",
													"fontname" : "Arial",
													"textcolor" : [ 0.101961, 0.121569, 0.172549, 1.0 ],
													"bgcolor" : [ 1.0, 1.0, 1.0, 1.0 ],
													"numoutlets" : 1,
													"background" : 0,
													"color" : [ 0.494118, 0.556863, 0.607843, 1.0 ],
													"outlettype" : [ "" ],
													"fontface" : 0,
													"fontsize" : 9.0,
													"ignoreclick" : 0,
													"presentation_rect" : [ 0.0, 0.0, 0.0, 0.0 ],
													"hidden" : 0,
													"saved_object_attributes" : 													{
														"embed" : 0
													}

												}

											}
, 											{
												"box" : 												{
													"maxclass" : "newobj",
													"text" : "bach.flat @maxlevel 1",
													"patching_rect" : [ 57.0, 53.0, 99.0, 17.0 ],
													"numinlets" : 1,
													"presentation" : 0,
													"id" : "obj-59",
													"fontname" : "Arial",
													"textcolor" : [ 0.101961, 0.121569, 0.172549, 1.0 ],
													"bgcolor" : [ 1.0, 1.0, 1.0, 1.0 ],
													"numoutlets" : 1,
													"background" : 0,
													"color" : [ 0.494118, 0.556863, 0.607843, 1.0 ],
													"outlettype" : [ "" ],
													"fontface" : 0,
													"fontsize" : 9.0,
													"ignoreclick" : 0,
													"presentation_rect" : [ 0.0, 0.0, 0.0, 0.0 ],
													"hidden" : 0
												}

											}
, 											{
												"box" : 												{
													"maxclass" : "newobj",
													"text" : "bach.slice 1",
													"patching_rect" : [ 57.0, 78.5, 58.0, 17.0 ],
													"numinlets" : 1,
													"presentation" : 0,
													"id" : "obj-58",
													"fontname" : "Arial",
													"textcolor" : [ 0.101961, 0.121569, 0.172549, 1.0 ],
													"bgcolor" : [ 1.0, 1.0, 1.0, 1.0 ],
													"numoutlets" : 2,
													"background" : 0,
													"color" : [ 0.494118, 0.556863, 0.607843, 1.0 ],
													"outlettype" : [ "", "" ],
													"fontface" : 0,
													"fontsize" : 9.0,
													"ignoreclick" : 0,
													"presentation_rect" : [ 0.0, 0.0, 0.0, 0.0 ],
													"hidden" : 0
												}

											}
, 											{
												"box" : 												{
													"maxclass" : "inlet",
													"patching_rect" : [ 57.0, 23.0, 20.0, 20.0 ],
													"numinlets" : 0,
													"presentation" : 0,
													"id" : "obj-82",
													"numoutlets" : 1,
													"background" : 0,
													"outlettype" : [ "" ],
													"ignoreclick" : 0,
													"presentation_rect" : [ 0.0, 0.0, 0.0, 0.0 ],
													"hidden" : 0,
													"comment" : ""
												}

											}
, 											{
												"box" : 												{
													"maxclass" : "outlet",
													"patching_rect" : [ 57.0, 228.5, 20.0, 20.0 ],
													"numinlets" : 1,
													"presentation" : 0,
													"id" : "obj-83",
													"numoutlets" : 0,
													"background" : 0,
													"ignoreclick" : 0,
													"presentation_rect" : [ 0.0, 0.0, 0.0, 0.0 ],
													"hidden" : 0,
													"comment" : ""
												}

											}
 ],
										"lines" : [ 											{
												"patchline" : 												{
													"source" : [ "obj-67", 0 ],
													"destination" : [ "obj-83", 0 ],
													"hidden" : 0,
													"color" : [ 0.101961, 0.121569, 0.172549, 1.0 ],
													"midpoints" : [  ]
												}

											}
, 											{
												"patchline" : 												{
													"source" : [ "obj-66", 0 ],
													"destination" : [ "obj-67", 0 ],
													"hidden" : 0,
													"color" : [ 0.101961, 0.121569, 0.172549, 1.0 ],
													"midpoints" : [  ]
												}

											}
, 											{
												"patchline" : 												{
													"source" : [ "obj-65", 1 ],
													"destination" : [ "obj-66", 1 ],
													"hidden" : 0,
													"color" : [ 0.101961, 0.121569, 0.172549, 1.0 ],
													"midpoints" : [  ]
												}

											}
, 											{
												"patchline" : 												{
													"source" : [ "obj-64", 0 ],
													"destination" : [ "obj-66", 0 ],
													"hidden" : 0,
													"color" : [ 0.101961, 0.121569, 0.172549, 1.0 ],
													"midpoints" : [  ]
												}

											}
, 											{
												"patchline" : 												{
													"source" : [ "obj-65", 0 ],
													"destination" : [ "obj-61", 0 ],
													"hidden" : 0,
													"color" : [ 0.101961, 0.121569, 0.172549, 1.0 ],
													"midpoints" : [  ]
												}

											}
, 											{
												"patchline" : 												{
													"source" : [ "obj-61", 0 ],
													"destination" : [ "obj-64", 0 ],
													"hidden" : 0,
													"color" : [ 0.101961, 0.121569, 0.172549, 1.0 ],
													"midpoints" : [  ]
												}

											}
, 											{
												"patchline" : 												{
													"source" : [ "obj-58", 0 ],
													"destination" : [ "obj-65", 0 ],
													"hidden" : 0,
													"color" : [ 0.101961, 0.121569, 0.172549, 1.0 ],
													"midpoints" : [  ]
												}

											}
, 											{
												"patchline" : 												{
													"source" : [ "obj-58", 1 ],
													"destination" : [ "obj-61", 1 ],
													"hidden" : 0,
													"color" : [ 0.101961, 0.121569, 0.172549, 1.0 ],
													"midpoints" : [  ]
												}

											}
, 											{
												"patchline" : 												{
													"source" : [ "obj-59", 0 ],
													"destination" : [ "obj-58", 0 ],
													"hidden" : 0,
													"color" : [ 0.101961, 0.121569, 0.172549, 1.0 ],
													"midpoints" : [  ]
												}

											}
, 											{
												"patchline" : 												{
													"source" : [ "obj-82", 0 ],
													"destination" : [ "obj-59", 0 ],
													"hidden" : 0,
													"color" : [ 0.101961, 0.121569, 0.172549, 1.0 ],
													"midpoints" : [  ]
												}

											}
 ]
									}
,
									"saved_object_attributes" : 									{
										"default_fontface" : 0,
										"fontname" : "Arial",
										"default_fontname" : "Arial",
										"globalpatchername" : "",
										"default_fontsize" : 9.0,
										"fontface" : 0,
										"fontsize" : 9.0
									}

								}

							}
, 							{
								"box" : 								{
									"maxclass" : "newobj",
									"text" : "bach.wrap 2",
									"patching_rect" : [ 262.0, 326.200012, 60.0, 17.0 ],
									"numinlets" : 1,
									"presentation" : 0,
									"id" : "obj-60",
									"fontname" : "Arial",
									"textcolor" : [ 0.101961, 0.121569, 0.172549, 1.0 ],
									"bgcolor" : [ 1.0, 1.0, 1.0, 1.0 ],
									"numoutlets" : 1,
									"background" : 0,
									"color" : [ 0.494118, 0.556863, 0.607843, 1.0 ],
									"outlettype" : [ "" ],
									"fontface" : 0,
									"fontsize" : 9.0,
									"ignoreclick" : 0,
									"presentation_rect" : [ 0.0, 0.0, 0.0, 0.0 ],
									"hidden" : 0
								}

							}
, 							{
								"box" : 								{
									"maxclass" : "newobj",
									"text" : "bach.collect",
									"patching_rect" : [ 248.0, 154.0, 87.0, 17.0 ],
									"numinlets" : 3,
									"presentation" : 0,
									"id" : "obj-34",
									"fontname" : "Arial",
									"textcolor" : [ 0.101961, 0.121569, 0.172549, 1.0 ],
									"bgcolor" : [ 1.0, 1.0, 1.0, 1.0 ],
									"numoutlets" : 1,
									"background" : 0,
									"color" : [ 0.494118, 0.556863, 0.607843, 1.0 ],
									"outlettype" : [ "" ],
									"fontface" : 0,
									"fontsize" : 9.0,
									"ignoreclick" : 0,
									"presentation_rect" : [ 0.0, 0.0, 0.0, 0.0 ],
									"hidden" : 0
								}

							}
, 							{
								"box" : 								{
									"maxclass" : "newobj",
									"text" : "bach.wrap",
									"patching_rect" : [ 282.0, 131.0, 52.0, 17.0 ],
									"numinlets" : 1,
									"presentation" : 0,
									"id" : "obj-29",
									"fontname" : "Arial",
									"textcolor" : [ 0.101961, 0.121569, 0.172549, 1.0 ],
									"bgcolor" : [ 1.0, 1.0, 1.0, 1.0 ],
									"numoutlets" : 1,
									"background" : 0,
									"color" : [ 0.494118, 0.556863, 0.607843, 1.0 ],
									"outlettype" : [ "" ],
									"fontface" : 0,
									"fontsize" : 9.0,
									"ignoreclick" : 0,
									"presentation_rect" : [ 0.0, 0.0, 0.0, 0.0 ],
									"hidden" : 0
								}

							}
, 							{
								"box" : 								{
									"maxclass" : "newobj",
									"text" : "t b l",
									"patching_rect" : [ 282.0, 65.0, 53.0, 17.0 ],
									"numinlets" : 1,
									"presentation" : 0,
									"id" : "obj-44",
									"fontname" : "Arial",
									"textcolor" : [ 0.101961, 0.121569, 0.172549, 1.0 ],
									"bgcolor" : [ 1.0, 1.0, 1.0, 1.0 ],
									"numoutlets" : 2,
									"background" : 0,
									"color" : [ 0.494118, 0.556863, 0.607843, 1.0 ],
									"outlettype" : [ "bang", "" ],
									"fontface" : 0,
									"fontsize" : 9.0,
									"ignoreclick" : 0,
									"presentation_rect" : [ 0.0, 0.0, 0.0, 0.0 ],
									"hidden" : 0
								}

							}
, 							{
								"box" : 								{
									"maxclass" : "newobj",
									"text" : "bach.collect",
									"patching_rect" : [ 282.0, 110.0, 87.0, 17.0 ],
									"numinlets" : 3,
									"presentation" : 0,
									"id" : "obj-41",
									"fontname" : "Arial",
									"textcolor" : [ 0.101961, 0.121569, 0.172549, 1.0 ],
									"bgcolor" : [ 1.0, 1.0, 1.0, 1.0 ],
									"numoutlets" : 1,
									"background" : 0,
									"color" : [ 0.494118, 0.556863, 0.607843, 1.0 ],
									"outlettype" : [ "" ],
									"fontface" : 0,
									"fontsize" : 9.0,
									"ignoreclick" : 0,
									"presentation_rect" : [ 0.0, 0.0, 0.0, 0.0 ],
									"hidden" : 0
								}

							}
, 							{
								"box" : 								{
									"maxclass" : "newobj",
									"text" : "bach.perm",
									"patching_rect" : [ 316.0, 88.0, 53.0, 17.0 ],
									"numinlets" : 1,
									"presentation" : 0,
									"id" : "obj-36",
									"fontname" : "Arial",
									"textcolor" : [ 0.101961, 0.121569, 0.172549, 1.0 ],
									"bgcolor" : [ 1.0, 1.0, 1.0, 1.0 ],
									"numoutlets" : 1,
									"background" : 0,
									"color" : [ 0.494118, 0.556863, 0.607843, 1.0 ],
									"outlettype" : [ "" ],
									"fontface" : 0,
									"fontsize" : 9.0,
									"ignoreclick" : 0,
									"presentation_rect" : [ 0.0, 0.0, 0.0, 0.0 ],
									"hidden" : 0
								}

							}
, 							{
								"box" : 								{
									"maxclass" : "newobj",
									"text" : "bach.flat @maxlevel 1",
									"patching_rect" : [ 282.0, 42.0, 99.0, 17.0 ],
									"numinlets" : 1,
									"presentation" : 0,
									"id" : "obj-35",
									"fontname" : "Arial",
									"textcolor" : [ 0.101961, 0.121569, 0.172549, 1.0 ],
									"bgcolor" : [ 1.0, 1.0, 1.0, 1.0 ],
									"numoutlets" : 1,
									"background" : 0,
									"color" : [ 0.494118, 0.556863, 0.607843, 1.0 ],
									"outlettype" : [ "" ],
									"fontface" : 0,
									"fontsize" : 9.0,
									"ignoreclick" : 0,
									"presentation_rect" : [ 0.0, 0.0, 0.0, 0.0 ],
									"hidden" : 0
								}

							}
 ],
						"lines" : [ 							{
								"patchline" : 								{
									"source" : [ "obj-123", 0 ],
									"destination" : [ "obj-126", 0 ],
									"hidden" : 0,
									"color" : [ 0.101961, 0.121569, 0.172549, 1.0 ],
									"midpoints" : [  ]
								}

							}
, 							{
								"patchline" : 								{
									"source" : [ "obj-2", 0 ],
									"destination" : [ "obj-126", 0 ],
									"hidden" : 0,
									"color" : [ 0.101961, 0.121569, 0.172549, 1.0 ],
									"midpoints" : [  ]
								}

							}
, 							{
								"patchline" : 								{
									"source" : [ "obj-126", 0 ],
									"destination" : [ "obj-5", 0 ],
									"hidden" : 0,
									"color" : [ 0.101961, 0.121569, 0.172549, 1.0 ],
									"midpoints" : [  ]
								}

							}
, 							{
								"patchline" : 								{
									"source" : [ "obj-8", 0 ],
									"destination" : [ "obj-36", 0 ],
									"hidden" : 0,
									"color" : [ 0.101961, 0.121569, 0.172549, 1.0 ],
									"midpoints" : [  ]
								}

							}
, 							{
								"patchline" : 								{
									"source" : [ "obj-29", 0 ],
									"destination" : [ "obj-34", 1 ],
									"hidden" : 0,
									"color" : [ 0.101961, 0.121569, 0.172549, 1.0 ],
									"midpoints" : [  ]
								}

							}
, 							{
								"patchline" : 								{
									"source" : [ "obj-34", 0 ],
									"destination" : [ "obj-123", 0 ],
									"hidden" : 0,
									"color" : [ 0.047059, 0.913725, 0.913725, 1.0 ],
									"midpoints" : [  ]
								}

							}
, 							{
								"patchline" : 								{
									"source" : [ "obj-3", 0 ],
									"destination" : [ "obj-34", 0 ],
									"hidden" : 0,
									"color" : [ 0.101961, 0.121569, 0.172549, 1.0 ],
									"midpoints" : [  ]
								}

							}
, 							{
								"patchline" : 								{
									"source" : [ "obj-27", 0 ],
									"destination" : [ "obj-1", 0 ],
									"hidden" : 0,
									"color" : [ 0.101961, 0.121569, 0.172549, 1.0 ],
									"midpoints" : [  ]
								}

							}
, 							{
								"patchline" : 								{
									"source" : [ "obj-24", 0 ],
									"destination" : [ "obj-35", 0 ],
									"hidden" : 0,
									"color" : [ 0.101961, 0.121569, 0.172549, 1.0 ],
									"midpoints" : [  ]
								}

							}
, 							{
								"patchline" : 								{
									"source" : [ "obj-32", 0 ],
									"destination" : [ "obj-27", 0 ],
									"hidden" : 0,
									"color" : [ 0.101961, 0.121569, 0.172549, 1.0 ],
									"midpoints" : [  ]
								}

							}
, 							{
								"patchline" : 								{
									"source" : [ "obj-30", 0 ],
									"destination" : [ "obj-32", 0 ],
									"hidden" : 0,
									"color" : [ 0.101961, 0.121569, 0.172549, 1.0 ],
									"midpoints" : [  ]
								}

							}
, 							{
								"patchline" : 								{
									"source" : [ "obj-110", 1 ],
									"destination" : [ "obj-27", 1 ],
									"hidden" : 0,
									"color" : [ 0.101961, 0.121569, 0.172549, 1.0 ],
									"midpoints" : [  ]
								}

							}
, 							{
								"patchline" : 								{
									"source" : [ "obj-110", 0 ],
									"destination" : [ "obj-30", 0 ],
									"hidden" : 0,
									"color" : [ 0.101961, 0.121569, 0.172549, 1.0 ],
									"midpoints" : [  ]
								}

							}
, 							{
								"patchline" : 								{
									"source" : [ "obj-121", 0 ],
									"destination" : [ "obj-12", 0 ],
									"hidden" : 0,
									"color" : [ 0.101961, 0.121569, 0.172549, 1.0 ],
									"midpoints" : [  ]
								}

							}
, 							{
								"patchline" : 								{
									"source" : [ "obj-12", 0 ],
									"destination" : [ "obj-110", 0 ],
									"hidden" : 0,
									"color" : [ 0.101961, 0.121569, 0.172549, 1.0 ],
									"midpoints" : [  ]
								}

							}
, 							{
								"patchline" : 								{
									"source" : [ "obj-5", 0 ],
									"destination" : [ "obj-123", 0 ],
									"hidden" : 0,
									"color" : [ 0.047059, 0.913725, 0.913725, 1.0 ],
									"midpoints" : [ 257.5, 519.0, 518.0, 519.0, 518.0, 177.0, 257.5, 177.0 ]
								}

							}
, 							{
								"patchline" : 								{
									"source" : [ "obj-119", 0 ],
									"destination" : [ "obj-2", 0 ],
									"hidden" : 0,
									"color" : [ 0.101961, 0.121569, 0.172549, 1.0 ],
									"midpoints" : [  ]
								}

							}
, 							{
								"patchline" : 								{
									"source" : [ "obj-123", 1 ],
									"destination" : [ "obj-87", 0 ],
									"hidden" : 0,
									"color" : [ 0.101961, 0.121569, 0.172549, 1.0 ],
									"midpoints" : [  ]
								}

							}
, 							{
								"patchline" : 								{
									"source" : [ "obj-44", 1 ],
									"destination" : [ "obj-36", 0 ],
									"hidden" : 0,
									"color" : [ 0.101961, 0.121569, 0.172549, 1.0 ],
									"midpoints" : [  ]
								}

							}
, 							{
								"patchline" : 								{
									"source" : [ "obj-35", 0 ],
									"destination" : [ "obj-44", 0 ],
									"hidden" : 0,
									"color" : [ 0.101961, 0.121569, 0.172549, 1.0 ],
									"midpoints" : [  ]
								}

							}
, 							{
								"patchline" : 								{
									"source" : [ "obj-44", 0 ],
									"destination" : [ "obj-41", 0 ],
									"hidden" : 0,
									"color" : [ 0.101961, 0.121569, 0.172549, 1.0 ],
									"midpoints" : [  ]
								}

							}
, 							{
								"patchline" : 								{
									"source" : [ "obj-36", 0 ],
									"destination" : [ "obj-41", 1 ],
									"hidden" : 0,
									"color" : [ 0.101961, 0.121569, 0.172549, 1.0 ],
									"midpoints" : [  ]
								}

							}
, 							{
								"patchline" : 								{
									"source" : [ "obj-41", 0 ],
									"destination" : [ "obj-29", 0 ],
									"hidden" : 0,
									"color" : [ 0.101961, 0.121569, 0.172549, 1.0 ],
									"midpoints" : [  ]
								}

							}
, 							{
								"patchline" : 								{
									"source" : [ "obj-90", 0 ],
									"destination" : [ "obj-84", 0 ],
									"hidden" : 0,
									"color" : [ 0.101961, 0.121569, 0.172549, 1.0 ],
									"midpoints" : [  ]
								}

							}
, 							{
								"patchline" : 								{
									"source" : [ "obj-87", 0 ],
									"destination" : [ "obj-89", 0 ],
									"hidden" : 0,
									"color" : [ 0.101961, 0.121569, 0.172549, 1.0 ],
									"midpoints" : [  ]
								}

							}
, 							{
								"patchline" : 								{
									"source" : [ "obj-89", 0 ],
									"destination" : [ "obj-91", 0 ],
									"hidden" : 0,
									"color" : [ 0.101961, 0.121569, 0.172549, 1.0 ],
									"midpoints" : [  ]
								}

							}
, 							{
								"patchline" : 								{
									"source" : [ "obj-91", 0 ],
									"destination" : [ "obj-90", 0 ],
									"hidden" : 0,
									"color" : [ 0.101961, 0.121569, 0.172549, 1.0 ],
									"midpoints" : [  ]
								}

							}
, 							{
								"patchline" : 								{
									"source" : [ "obj-87", 1 ],
									"destination" : [ "obj-92", 0 ],
									"hidden" : 0,
									"color" : [ 0.101961, 0.121569, 0.172549, 1.0 ],
									"midpoints" : [  ]
								}

							}
, 							{
								"patchline" : 								{
									"source" : [ "obj-92", 0 ],
									"destination" : [ "obj-90", 1 ],
									"hidden" : 0,
									"color" : [ 0.101961, 0.121569, 0.172549, 1.0 ],
									"midpoints" : [  ]
								}

							}
, 							{
								"patchline" : 								{
									"source" : [ "obj-115", 0 ],
									"destination" : [ "obj-116", 0 ],
									"hidden" : 0,
									"color" : [ 0.101961, 0.121569, 0.172549, 1.0 ],
									"midpoints" : [  ]
								}

							}
, 							{
								"patchline" : 								{
									"source" : [ "obj-92", 1 ],
									"destination" : [ "obj-117", 0 ],
									"hidden" : 0,
									"color" : [ 0.101961, 0.121569, 0.172549, 1.0 ],
									"midpoints" : [  ]
								}

							}
, 							{
								"patchline" : 								{
									"source" : [ "obj-117", 1 ],
									"destination" : [ "obj-115", 0 ],
									"hidden" : 0,
									"color" : [ 0.101961, 0.121569, 0.172549, 1.0 ],
									"midpoints" : [  ]
								}

							}
, 							{
								"patchline" : 								{
									"source" : [ "obj-117", 0 ],
									"destination" : [ "obj-118", 1 ],
									"hidden" : 0,
									"color" : [ 0.101961, 0.121569, 0.172549, 1.0 ],
									"midpoints" : [  ]
								}

							}
, 							{
								"patchline" : 								{
									"source" : [ "obj-116", 0 ],
									"destination" : [ "obj-118", 0 ],
									"hidden" : 0,
									"color" : [ 0.278431, 0.921569, 0.639216, 1.0 ],
									"midpoints" : [  ]
								}

							}
, 							{
								"patchline" : 								{
									"source" : [ "obj-118", 0 ],
									"destination" : [ "obj-119", 1 ],
									"hidden" : 0,
									"color" : [ 0.101961, 0.121569, 0.172549, 1.0 ],
									"midpoints" : [  ]
								}

							}
, 							{
								"patchline" : 								{
									"source" : [ "obj-122", 0 ],
									"destination" : [ "obj-121", 0 ],
									"hidden" : 0,
									"color" : [ 0.101961, 0.121569, 0.172549, 1.0 ],
									"midpoints" : [  ]
								}

							}
, 							{
								"patchline" : 								{
									"source" : [ "obj-116", 0 ],
									"destination" : [ "obj-122", 0 ],
									"hidden" : 0,
									"color" : [ 0.278431, 0.921569, 0.639216, 1.0 ],
									"midpoints" : [  ]
								}

							}
, 							{
								"patchline" : 								{
									"source" : [ "obj-121", 1 ],
									"destination" : [ "obj-119", 0 ],
									"hidden" : 0,
									"color" : [ 0.101961, 0.121569, 0.172549, 1.0 ],
									"midpoints" : [  ]
								}

							}
, 							{
								"patchline" : 								{
									"source" : [ "obj-60", 0 ],
									"destination" : [ "obj-121", 1 ],
									"hidden" : 0,
									"color" : [ 0.101961, 0.121569, 0.172549, 1.0 ],
									"midpoints" : [  ]
								}

							}
, 							{
								"patchline" : 								{
									"source" : [ "obj-84", 0 ],
									"destination" : [ "obj-60", 0 ],
									"hidden" : 0,
									"color" : [ 0.101961, 0.121569, 0.172549, 1.0 ],
									"midpoints" : [  ]
								}

							}
 ]
					}
,
					"saved_object_attributes" : 					{
						"default_fontface" : 0,
						"fontname" : "Arial",
						"default_fontname" : "Arial",
						"globalpatchername" : "",
						"default_fontsize" : 9.0,
						"fontface" : 0,
						"fontsize" : 9.0
					}

				}

			}
, 			{
				"box" : 				{
					"maxclass" : "newobj",
					"text" : "t b l clear",
					"patching_rect" : [ 97.0, 91.5, 133.0, 17.0 ],
					"numinlets" : 1,
					"presentation" : 0,
					"id" : "obj-13",
					"fontname" : "Arial",
					"textcolor" : [ 0.101961, 0.121569, 0.172549, 1.0 ],
					"bgcolor" : [ 1.0, 1.0, 1.0, 1.0 ],
					"numoutlets" : 3,
					"background" : 0,
					"color" : [ 0.494118, 0.556863, 0.607843, 1.0 ],
					"outlettype" : [ "bang", "", "clear" ],
					"fontface" : 0,
					"fontsize" : 9.0,
					"ignoreclick" : 0,
					"presentation_rect" : [ 0.0, 0.0, 0.0, 0.0 ],
					"hidden" : 0
				}

			}
, 			{
				"box" : 				{
					"maxclass" : "inlet",
					"patching_rect" : [ 668.0, 56.0, 18.0, 18.0 ],
					"numinlets" : 0,
					"presentation" : 0,
					"id" : "obj-24",
					"numoutlets" : 1,
					"background" : 0,
					"outlettype" : [ "" ],
					"ignoreclick" : 0,
					"presentation_rect" : [ 0.0, 0.0, 0.0, 0.0 ],
					"hidden" : 0,
					"comment" : ""
				}

			}
, 			{
				"box" : 				{
					"maxclass" : "inlet",
					"patching_rect" : [ 443.0, 56.0, 18.0, 18.0 ],
					"numinlets" : 0,
					"presentation" : 0,
					"id" : "obj-5",
					"numoutlets" : 1,
					"background" : 0,
					"outlettype" : [ "" ],
					"ignoreclick" : 0,
					"presentation_rect" : [ 0.0, 0.0, 0.0, 0.0 ],
					"hidden" : 0,
					"comment" : ""
				}

			}
, 			{
				"box" : 				{
					"maxclass" : "message",
					"text" : "order $1",
					"gradient" : 0,
					"patching_rect" : [ 840.0, 105.5, 44.0, 15.0 ],
					"numinlets" : 2,
					"presentation" : 0,
					"id" : "obj-10",
					"fontname" : "Arial",
					"textcolor" : [ 0.101961, 0.121569, 0.172549, 1.0 ],
					"bgcolor" : [ 0.568627, 0.619608, 0.662745, 1.0 ],
					"numoutlets" : 1,
					"background" : 0,
					"bgcolor2" : [ 0.568627, 0.619608, 0.662745, 1.0 ],
					"outlettype" : [ "" ],
					"fontface" : 0,
					"fontsize" : 9.0,
					"ignoreclick" : 0,
					"presentation_rect" : [ 0.0, 0.0, 0.0, 0.0 ],
					"hidden" : 0
				}

			}
, 			{
				"box" : 				{
					"maxclass" : "newobj",
					"text" : "p load",
					"patching_rect" : [ 60.0, 32.0, 799.0, 17.0 ],
					"numinlets" : 1,
					"presentation" : 0,
					"id" : "obj-4",
					"fontname" : "Arial",
					"textcolor" : [ 0.101961, 0.121569, 0.172549, 1.0 ],
					"bgcolor" : [ 1.0, 1.0, 1.0, 1.0 ],
					"numoutlets" : 3,
					"background" : 0,
					"color" : [ 0.494118, 0.556863, 0.607843, 1.0 ],
					"outlettype" : [ "", "", "" ],
					"fontface" : 0,
					"fontsize" : 9.0,
					"ignoreclick" : 0,
					"presentation_rect" : [ 0.0, 0.0, 0.0, 0.0 ],
					"hidden" : 0,
					"patcher" : 					{
						"fileversion" : 1,
						"appversion" : 						{
							"major" : 5,
							"minor" : 1,
							"revision" : 9
						}
,
						"rect" : [ 747.0, 135.0, 384.0, 318.0 ],
						"bgcolor" : [ 0.666667, 0.698039, 0.717647, 1.0 ],
						"bglocked" : 0,
						"defrect" : [ 747.0, 135.0, 384.0, 318.0 ],
						"openrect" : [ 0.0, 0.0, 0.0, 0.0 ],
						"openinpresentation" : 0,
						"default_fontsize" : 9.0,
						"default_fontface" : 0,
						"default_fontname" : "Arial",
						"gridonopen" : 0,
						"gridsize" : [ 15.0, 15.0 ],
						"gridsnaponopen" : 0,
		"statusbarvisible" : 0,
						"toolbarvisible" : 0,
						"boxanimatetime" : 0,
						"imprint" : 1,
						"enablehscroll" : 1,
						"enablevscroll" : 1,
						"devicewidth" : 0.0,
						"boxes" : [ 							{
								"box" : 								{
									"maxclass" : "message",
									"text" : "1",
									"gradient" : 0,
									"patching_rect" : [ 309.0, 194.0, 16.0, 15.0 ],
									"numinlets" : 2,
									"presentation" : 0,
									"id" : "obj-23",
									"fontname" : "Arial",
									"textcolor" : [ 0.101961, 0.121569, 0.172549, 1.0 ],
									"bgcolor" : [ 0.568627, 0.619608, 0.662745, 1.0 ],
									"numoutlets" : 1,
									"background" : 0,
									"bgcolor2" : [ 0.568627, 0.619608, 0.662745, 1.0 ],
									"outlettype" : [ "" ],
									"fontface" : 0,
									"fontsize" : 9.0,
									"ignoreclick" : 0,
									"presentation_rect" : [ 0.0, 0.0, 0.0, 0.0 ],
									"hidden" : 0
								}

							}
, 							{
								"box" : 								{
									"maxclass" : "newobj",
									"text" : "onebang 1",
									"patching_rect" : [ 306.0, 95.666656, 53.0, 17.0 ],
									"numinlets" : 2,
									"presentation" : 0,
									"id" : "obj-22",
									"fontname" : "Arial",
									"textcolor" : [ 0.101961, 0.121569, 0.172549, 1.0 ],
									"bgcolor" : [ 1.0, 1.0, 1.0, 1.0 ],
									"numoutlets" : 2,
									"background" : 0,
									"color" : [ 0.494118, 0.556863, 0.607843, 1.0 ],
									"outlettype" : [ "bang", "bang" ],
									"fontface" : 0,
									"fontsize" : 9.0,
									"ignoreclick" : 0,
									"presentation_rect" : [ 0.0, 0.0, 0.0, 0.0 ],
									"hidden" : 0
								}

							}
, 							{
								"box" : 								{
									"maxclass" : "newobj",
									"text" : "t l b",
									"patching_rect" : [ 133.0, 67.666656, 192.0, 17.0 ],
									"numinlets" : 1,
									"presentation" : 0,
									"id" : "obj-21",
									"fontname" : "Arial",
									"textcolor" : [ 0.101961, 0.121569, 0.172549, 1.0 ],
									"bgcolor" : [ 1.0, 1.0, 1.0, 1.0 ],
									"numoutlets" : 2,
									"background" : 0,
									"color" : [ 0.494118, 0.556863, 0.607843, 1.0 ],
									"outlettype" : [ "", "bang" ],
									"fontface" : 0,
									"fontsize" : 9.0,
									"ignoreclick" : 0,
									"presentation_rect" : [ 0.0, 0.0, 0.0, 0.0 ],
									"hidden" : 0
								}

							}
, 							{
								"box" : 								{
									"maxclass" : "newobj",
									"text" : "zl rev",
									"patching_rect" : [ 133.0, 95.666656, 32.0, 17.0 ],
									"numinlets" : 2,
									"presentation" : 0,
									"id" : "obj-18",
									"fontname" : "Arial",
									"textcolor" : [ 0.101961, 0.121569, 0.172549, 1.0 ],
									"bgcolor" : [ 1.0, 1.0, 1.0, 1.0 ],
									"numoutlets" : 2,
									"background" : 0,
									"color" : [ 0.494118, 0.556863, 0.607843, 1.0 ],
									"outlettype" : [ "", "" ],
									"fontface" : 0,
									"fontsize" : 9.0,
									"ignoreclick" : 0,
									"presentation_rect" : [ 0.0, 0.0, 0.0, 0.0 ],
									"hidden" : 0
								}

							}
, 							{
								"box" : 								{
									"maxclass" : "newobj",
									"text" : "route done",
									"patching_rect" : [ 98.0, 43.333344, 54.0, 17.0 ],
									"numinlets" : 1,
									"presentation" : 0,
									"id" : "obj-20",
									"fontname" : "Arial",
									"textcolor" : [ 0.101961, 0.121569, 0.172549, 1.0 ],
									"bgcolor" : [ 1.0, 1.0, 1.0, 1.0 ],
									"numoutlets" : 2,
									"background" : 0,
									"color" : [ 0.494118, 0.556863, 0.607843, 1.0 ],
									"outlettype" : [ "", "" ],
									"fontface" : 0,
									"fontsize" : 9.0,
									"ignoreclick" : 0,
									"presentation_rect" : [ 0.0, 0.0, 0.0, 0.0 ],
									"hidden" : 0
								}

							}
, 							{
								"box" : 								{
									"maxclass" : "inlet",
									"patching_rect" : [ 98.0, 13.0, 20.0, 20.0 ],
									"numinlets" : 0,
									"presentation" : 0,
									"id" : "obj-30",
									"numoutlets" : 1,
									"background" : 0,
									"outlettype" : [ "" ],
									"ignoreclick" : 0,
									"presentation_rect" : [ 0.0, 0.0, 0.0, 0.0 ],
									"hidden" : 0,
									"comment" : ""
								}

							}
, 							{
								"box" : 								{
									"maxclass" : "newobj",
									"text" : "zl iter 2",
									"patching_rect" : [ 133.0, 123.333344, 40.0, 17.0 ],
									"numinlets" : 2,
									"presentation" : 0,
									"id" : "obj-19",
									"fontname" : "Arial",
									"textcolor" : [ 0.101961, 0.121569, 0.172549, 1.0 ],
									"bgcolor" : [ 1.0, 1.0, 1.0, 1.0 ],
									"numoutlets" : 2,
									"background" : 0,
									"color" : [ 0.494118, 0.556863, 0.607843, 1.0 ],
									"outlettype" : [ "", "" ],
									"fontface" : 0,
									"fontsize" : 9.0,
									"ignoreclick" : 0,
									"presentation_rect" : [ 0.0, 0.0, 0.0, 0.0 ],
									"hidden" : 0
								}

							}
, 							{
								"box" : 								{
									"maxclass" : "message",
									"text" : "0",
									"gradient" : 0,
									"patching_rect" : [ 279.0, 194.0, 16.0, 15.0 ],
									"numinlets" : 2,
									"presentation" : 0,
									"id" : "obj-10",
									"fontname" : "Arial",
									"textcolor" : [ 0.101961, 0.121569, 0.172549, 1.0 ],
									"bgcolor" : [ 0.568627, 0.619608, 0.662745, 1.0 ],
									"numoutlets" : 1,
									"background" : 0,
									"bgcolor2" : [ 0.568627, 0.619608, 0.662745, 1.0 ],
									"outlettype" : [ "" ],
									"fontface" : 0,
									"fontsize" : 9.0,
									"ignoreclick" : 0,
									"presentation_rect" : [ 0.0, 0.0, 0.0, 0.0 ],
									"hidden" : 0
								}

							}
, 							{
								"box" : 								{
									"maxclass" : "outlet",
									"patching_rect" : [ 220.0, 270.0, 18.0, 18.0 ],
									"numinlets" : 1,
									"presentation" : 0,
									"id" : "obj-9",
									"numoutlets" : 0,
									"background" : 0,
									"ignoreclick" : 0,
									"presentation_rect" : [ 0.0, 0.0, 0.0, 0.0 ],
									"hidden" : 0,
									"comment" : ""
								}

							}
, 							{
								"box" : 								{
									"maxclass" : "message",
									"text" : "out $1",
									"gradient" : 0,
									"patching_rect" : [ 32.0, 247.0, 36.0, 15.0 ],
									"numinlets" : 2,
									"presentation" : 0,
									"id" : "obj-6",
									"fontname" : "Arial",
									"textcolor" : [ 0.101961, 0.121569, 0.172549, 1.0 ],
									"bgcolor" : [ 0.568627, 0.619608, 0.662745, 1.0 ],
									"numoutlets" : 1,
									"background" : 0,
									"bgcolor2" : [ 0.568627, 0.619608, 0.662745, 1.0 ],
									"outlettype" : [ "" ],
									"fontface" : 0,
									"fontsize" : 9.0,
									"ignoreclick" : 0,
									"presentation_rect" : [ 0.0, 0.0, 0.0, 0.0 ],
									"hidden" : 0
								}

							}
, 							{
								"box" : 								{
									"maxclass" : "outlet",
									"patching_rect" : [ 133.0, 270.0, 18.0, 18.0 ],
									"numinlets" : 1,
									"presentation" : 0,
									"id" : "obj-5",
									"numoutlets" : 0,
									"background" : 0,
									"ignoreclick" : 0,
									"presentation_rect" : [ 0.0, 0.0, 0.0, 0.0 ],
									"hidden" : 0,
									"comment" : ""
								}

							}
, 							{
								"box" : 								{
									"maxclass" : "message",
									"text" : "2",
									"gradient" : 0,
									"patching_rect" : [ 216.0, 194.0, 16.0, 15.0 ],
									"numinlets" : 2,
									"presentation" : 0,
									"id" : "obj-4",
									"fontname" : "Arial",
									"textcolor" : [ 0.101961, 0.121569, 0.172549, 1.0 ],
									"bgcolor" : [ 0.568627, 0.619608, 0.662745, 1.0 ],
									"numoutlets" : 1,
									"background" : 0,
									"bgcolor2" : [ 0.568627, 0.619608, 0.662745, 1.0 ],
									"outlettype" : [ "" ],
									"fontface" : 0,
									"fontsize" : 9.0,
									"ignoreclick" : 0,
									"presentation_rect" : [ 0.0, 0.0, 0.0, 0.0 ],
									"hidden" : 0
								}

							}
, 							{
								"box" : 								{
									"maxclass" : "message",
									"text" : "3",
									"gradient" : 0,
									"patching_rect" : [ 248.0, 194.0, 16.0, 15.0 ],
									"numinlets" : 2,
									"presentation" : 0,
									"id" : "obj-2",
									"fontname" : "Arial",
									"textcolor" : [ 0.101961, 0.121569, 0.172549, 1.0 ],
									"bgcolor" : [ 0.568627, 0.619608, 0.662745, 1.0 ],
									"numoutlets" : 1,
									"background" : 0,
									"bgcolor2" : [ 0.568627, 0.619608, 0.662745, 1.0 ],
									"outlettype" : [ "" ],
									"fontface" : 0,
									"fontsize" : 9.0,
									"ignoreclick" : 0,
									"presentation_rect" : [ 0.0, 0.0, 0.0, 0.0 ],
									"hidden" : 0
								}

							}
, 							{
								"box" : 								{
									"maxclass" : "message",
									"text" : "1",
									"gradient" : 0,
									"patching_rect" : [ 185.0, 194.0, 16.0, 15.0 ],
									"numinlets" : 2,
									"presentation" : 0,
									"id" : "obj-16",
									"fontname" : "Arial",
									"textcolor" : [ 0.101961, 0.121569, 0.172549, 1.0 ],
									"bgcolor" : [ 0.568627, 0.619608, 0.662745, 1.0 ],
									"numoutlets" : 1,
									"background" : 0,
									"bgcolor2" : [ 0.568627, 0.619608, 0.662745, 1.0 ],
									"outlettype" : [ "" ],
									"fontface" : 0,
									"fontsize" : 9.0,
									"ignoreclick" : 0,
									"presentation_rect" : [ 0.0, 0.0, 0.0, 0.0 ],
									"hidden" : 0
								}

							}
, 							{
								"box" : 								{
									"maxclass" : "newobj",
									"text" : "gate 3",
									"patching_rect" : [ 32.0, 222.0, 120.0, 17.0 ],
									"numinlets" : 2,
									"presentation" : 0,
									"id" : "obj-15",
									"fontname" : "Arial",
									"textcolor" : [ 0.101961, 0.121569, 0.172549, 1.0 ],
									"bgcolor" : [ 1.0, 1.0, 1.0, 1.0 ],
									"numoutlets" : 3,
									"background" : 0,
									"color" : [ 0.494118, 0.556863, 0.607843, 1.0 ],
									"outlettype" : [ "", "", "" ],
									"fontface" : 0,
									"fontsize" : 9.0,
									"ignoreclick" : 0,
									"presentation_rect" : [ 0.0, 0.0, 0.0, 0.0 ],
									"hidden" : 0
								}

							}
, 							{
								"box" : 								{
									"maxclass" : "newobj",
									"text" : "sel out order depth",
									"patching_rect" : [ 182.0, 168.0, 113.0, 17.0 ],
									"numinlets" : 1,
									"presentation" : 0,
									"id" : "obj-14",
									"fontname" : "Arial",
									"textcolor" : [ 0.101961, 0.121569, 0.172549, 1.0 ],
									"bgcolor" : [ 1.0, 1.0, 1.0, 1.0 ],
									"numoutlets" : 4,
									"background" : 0,
									"color" : [ 0.494118, 0.556863, 0.607843, 1.0 ],
									"outlettype" : [ "bang", "bang", "bang", "" ],
									"fontface" : 0,
									"fontsize" : 9.0,
									"ignoreclick" : 0,
									"presentation_rect" : [ 0.0, 0.0, 0.0, 0.0 ],
									"hidden" : 0
								}

							}
, 							{
								"box" : 								{
									"maxclass" : "newobj",
									"text" : "zl slice 1",
									"patching_rect" : [ 133.0, 145.0, 68.0, 17.0 ],
									"numinlets" : 2,
									"presentation" : 0,
									"id" : "obj-11",
									"fontname" : "Arial",
									"textcolor" : [ 0.101961, 0.121569, 0.172549, 1.0 ],
									"bgcolor" : [ 1.0, 1.0, 1.0, 1.0 ],
									"numoutlets" : 2,
									"background" : 0,
									"color" : [ 0.494118, 0.556863, 0.607843, 1.0 ],
									"outlettype" : [ "", "" ],
									"fontface" : 0,
									"fontsize" : 9.0,
									"ignoreclick" : 0,
									"presentation_rect" : [ 0.0, 0.0, 0.0, 0.0 ],
									"hidden" : 0
								}

							}
, 							{
								"box" : 								{
									"maxclass" : "outlet",
									"patching_rect" : [ 32.0, 270.0, 18.0, 18.0 ],
									"numinlets" : 1,
									"presentation" : 0,
									"id" : "obj-1",
									"numoutlets" : 0,
									"background" : 0,
									"ignoreclick" : 0,
									"presentation_rect" : [ 0.0, 0.0, 0.0, 0.0 ],
									"hidden" : 0,
									"comment" : ""
								}

							}
 ],
						"lines" : [ 							{
								"patchline" : 								{
									"source" : [ "obj-4", 0 ],
									"destination" : [ "obj-15", 0 ],
									"hidden" : 0,
									"color" : [ 0.741176, 0.184314, 0.756863, 1.0 ],
									"midpoints" : [  ]
								}

							}
, 							{
								"patchline" : 								{
									"source" : [ "obj-2", 0 ],
									"destination" : [ "obj-15", 0 ],
									"hidden" : 0,
									"color" : [ 0.741176, 0.184314, 0.756863, 1.0 ],
									"midpoints" : [  ]
								}

							}
, 							{
								"patchline" : 								{
									"source" : [ "obj-11", 0 ],
									"destination" : [ "obj-15", 1 ],
									"hidden" : 0,
									"color" : [ 0.101961, 0.121569, 0.172549, 1.0 ],
									"midpoints" : [  ]
								}

							}
, 							{
								"patchline" : 								{
									"source" : [ "obj-16", 0 ],
									"destination" : [ "obj-15", 0 ],
									"hidden" : 0,
									"color" : [ 0.741176, 0.184314, 0.756863, 1.0 ],
									"midpoints" : [  ]
								}

							}
, 							{
								"patchline" : 								{
									"source" : [ "obj-15", 0 ],
									"destination" : [ "obj-6", 0 ],
									"hidden" : 0,
									"color" : [ 0.101961, 0.121569, 0.172549, 1.0 ],
									"midpoints" : [  ]
								}

							}
, 							{
								"patchline" : 								{
									"source" : [ "obj-10", 0 ],
									"destination" : [ "obj-15", 0 ],
									"hidden" : 0,
									"color" : [ 0.741176, 0.184314, 0.756863, 1.0 ],
									"midpoints" : [  ]
								}

							}
, 							{
								"patchline" : 								{
									"source" : [ "obj-6", 0 ],
									"destination" : [ "obj-1", 0 ],
									"hidden" : 0,
									"color" : [ 0.101961, 0.121569, 0.172549, 1.0 ],
									"midpoints" : [  ]
								}

							}
, 							{
								"patchline" : 								{
									"source" : [ "obj-15", 1 ],
									"destination" : [ "obj-9", 0 ],
									"hidden" : 0,
									"color" : [ 0.101961, 0.121569, 0.172549, 1.0 ],
									"midpoints" : [  ]
								}

							}
, 							{
								"patchline" : 								{
									"source" : [ "obj-15", 2 ],
									"destination" : [ "obj-5", 0 ],
									"hidden" : 0,
									"color" : [ 0.0, 0.278431, 1.0, 1.0 ],
									"midpoints" : [  ]
								}

							}
, 							{
								"patchline" : 								{
									"source" : [ "obj-18", 0 ],
									"destination" : [ "obj-19", 0 ],
									"hidden" : 0,
									"color" : [ 0.101961, 0.121569, 0.172549, 1.0 ],
									"midpoints" : [  ]
								}

							}
, 							{
								"patchline" : 								{
									"source" : [ "obj-30", 0 ],
									"destination" : [ "obj-20", 0 ],
									"hidden" : 0,
									"color" : [ 0.101961, 0.121569, 0.172549, 1.0 ],
									"midpoints" : [  ]
								}

							}
, 							{
								"patchline" : 								{
									"source" : [ "obj-19", 0 ],
									"destination" : [ "obj-11", 0 ],
									"hidden" : 0,
									"color" : [ 0.101961, 0.121569, 0.172549, 1.0 ],
									"midpoints" : [  ]
								}

							}
, 							{
								"patchline" : 								{
									"source" : [ "obj-11", 1 ],
									"destination" : [ "obj-14", 0 ],
									"hidden" : 0,
									"color" : [ 0.101961, 0.121569, 0.172549, 1.0 ],
									"midpoints" : [  ]
								}

							}
, 							{
								"patchline" : 								{
									"source" : [ "obj-14", 0 ],
									"destination" : [ "obj-16", 0 ],
									"hidden" : 0,
									"color" : [ 0.101961, 0.121569, 0.172549, 1.0 ],
									"midpoints" : [  ]
								}

							}
, 							{
								"patchline" : 								{
									"source" : [ "obj-14", 2 ],
									"destination" : [ "obj-2", 0 ],
									"hidden" : 0,
									"color" : [ 0.101961, 0.121569, 0.172549, 1.0 ],
									"midpoints" : [  ]
								}

							}
, 							{
								"patchline" : 								{
									"source" : [ "obj-14", 1 ],
									"destination" : [ "obj-4", 0 ],
									"hidden" : 0,
									"color" : [ 0.101961, 0.121569, 0.172549, 1.0 ],
									"midpoints" : [  ]
								}

							}
, 							{
								"patchline" : 								{
									"source" : [ "obj-14", 3 ],
									"destination" : [ "obj-10", 0 ],
									"hidden" : 0,
									"color" : [ 0.101961, 0.121569, 0.172549, 1.0 ],
									"midpoints" : [  ]
								}

							}
, 							{
								"patchline" : 								{
									"source" : [ "obj-23", 0 ],
									"destination" : [ "obj-5", 0 ],
									"hidden" : 0,
									"color" : [ 0.0, 0.278431, 1.0, 1.0 ],
									"midpoints" : [  ]
								}

							}
, 							{
								"patchline" : 								{
									"source" : [ "obj-22", 0 ],
									"destination" : [ "obj-23", 0 ],
									"hidden" : 0,
									"color" : [ 0.101961, 0.121569, 0.172549, 1.0 ],
									"midpoints" : [  ]
								}

							}
, 							{
								"patchline" : 								{
									"source" : [ "obj-21", 0 ],
									"destination" : [ "obj-18", 0 ],
									"hidden" : 0,
									"color" : [ 0.101961, 0.121569, 0.172549, 1.0 ],
									"midpoints" : [  ]
								}

							}
, 							{
								"patchline" : 								{
									"source" : [ "obj-20", 1 ],
									"destination" : [ "obj-21", 0 ],
									"hidden" : 0,
									"color" : [ 0.101961, 0.121569, 0.172549, 1.0 ],
									"midpoints" : [  ]
								}

							}
, 							{
								"patchline" : 								{
									"source" : [ "obj-21", 1 ],
									"destination" : [ "obj-22", 0 ],
									"hidden" : 0,
									"color" : [ 0.101961, 0.121569, 0.172549, 1.0 ],
									"midpoints" : [  ]
								}

							}
 ]
					}
,
					"saved_object_attributes" : 					{
						"default_fontface" : 0,
						"fontname" : "Arial",
						"default_fontname" : "Arial",
						"globalpatchername" : "",
						"default_fontsize" : 9.0,
						"fontface" : 0,
						"fontsize" : 9.0
					}

				}

			}
, 			{
				"box" : 				{
					"maxclass" : "newobj",
					"text" : "bach.collect",
					"patching_rect" : [ 97.0, 450.333374, 132.0, 17.0 ],
					"numinlets" : 3,
					"presentation" : 0,
					"id" : "obj-3",
					"fontname" : "Arial",
					"textcolor" : [ 0.101961, 0.121569, 0.172549, 1.0 ],
					"bgcolor" : [ 1.0, 1.0, 1.0, 1.0 ],
					"numoutlets" : 1,
					"background" : 0,
					"color" : [ 0.494118, 0.556863, 0.607843, 1.0 ],
					"outlettype" : [ "" ],
					"fontface" : 0,
					"fontsize" : 9.0,
					"ignoreclick" : 0,
					"presentation_rect" : [ 0.0, 0.0, 0.0, 0.0 ],
					"hidden" : 0
				}

			}
, 			{
				"box" : 				{
					"maxclass" : "outlet",
					"patching_rect" : [ 97.0, 477.5, 18.0, 18.0 ],
					"numinlets" : 1,
					"presentation" : 0,
					"id" : "obj-2",
					"numoutlets" : 0,
					"background" : 0,
					"ignoreclick" : 0,
					"presentation_rect" : [ 0.0, 0.0, 0.0, 0.0 ],
					"hidden" : 0,
					"comment" : ""
				}

			}
, 			{
				"box" : 				{
					"maxclass" : "inlet",
					"patching_rect" : [ 97.0, 56.0, 18.0, 18.0 ],
					"numinlets" : 0,
					"presentation" : 0,
					"id" : "obj-49",
					"numoutlets" : 1,
					"background" : 0,
					"outlettype" : [ "" ],
					"ignoreclick" : 0,
					"presentation_rect" : [ 0.0, 0.0, 0.0, 0.0 ],
					"hidden" : 0,
					"comment" : ""
				}

			}
, 			{
				"box" : 				{
					"maxclass" : "newobj",
					"text" : "jtol.bach.recomposenoi",
					"patching_rect" : [ 154.0, 422.333374, 532.0, 17.0 ],
					"numinlets" : 4,
					"presentation" : 0,
					"id" : "obj-23",
					"fontname" : "Arial",
					"textcolor" : [ 0.101961, 0.121569, 0.172549, 1.0 ],
					"bgcolor" : [ 1.0, 1.0, 1.0, 1.0 ],
					"numoutlets" : 1,
					"background" : 0,
					"color" : [ 0.494118, 0.556863, 0.607843, 1.0 ],
					"outlettype" : [ "" ],
					"fontface" : 0,
					"fontsize" : 9.0,
					"ignoreclick" : 0,
					"presentation_rect" : [ 0.0, 0.0, 0.0, 0.0 ],
					"hidden" : 0
				}

			}
, 			{
				"box" : 				{
					"maxclass" : "newobj",
					"text" : "jtol.bach.decomposenoi",
					"patching_rect" : [ 154.0, 123.0, 533.0, 17.0 ],
					"numinlets" : 2,
					"presentation" : 0,
					"id" : "obj-56",
					"fontname" : "Arial",
					"textcolor" : [ 0.101961, 0.121569, 0.172549, 1.0 ],
					"bgcolor" : [ 1.0, 1.0, 1.0, 1.0 ],
					"numoutlets" : 4,
					"background" : 0,
					"color" : [ 0.494118, 0.556863, 0.607843, 1.0 ],
					"outlettype" : [ "", "", "", "" ],
					"fontface" : 0,
					"fontsize" : 9.0,
					"ignoreclick" : 0,
					"presentation_rect" : [ 0.0, 0.0, 0.0, 0.0 ],
					"hidden" : 0
				}

			}
 ],
		"lines" : [ 			{
				"patchline" : 				{
					"source" : [ "obj-4", 1 ],
					"destination" : [ "obj-56", 1 ],
					"hidden" : 0,
					"color" : [ 0.87451, 0.25098, 0.717647, 1.0 ],
					"midpoints" : [  ]
				}

			}
, 			{
				"patchline" : 				{
					"source" : [ "obj-24", 0 ],
					"destination" : [ "obj-56", 1 ],
					"hidden" : 0,
					"color" : [ 0.101961, 0.121569, 0.172549, 1.0 ],
					"midpoints" : [  ]
				}

			}
, 			{
				"patchline" : 				{
					"source" : [ "obj-56", 2 ],
					"destination" : [ "obj-37", 1 ],
					"hidden" : 0,
					"color" : [ 0.101961, 0.121569, 0.172549, 1.0 ],
					"midpoints" : [  ]
				}

			}
, 			{
				"patchline" : 				{
					"source" : [ "obj-56", 3 ],
					"destination" : [ "obj-55", 0 ],
					"hidden" : 0,
					"color" : [ 0.101961, 0.121569, 0.172549, 1.0 ],
					"midpoints" : [  ]
				}

			}
, 			{
				"patchline" : 				{
					"source" : [ "obj-56", 1 ],
					"destination" : [ "obj-23", 1 ],
					"hidden" : 0,
					"color" : [ 0.101961, 0.121569, 0.172549, 1.0 ],
					"midpoints" : [  ]
				}

			}
, 			{
				"patchline" : 				{
					"source" : [ "obj-13", 1 ],
					"destination" : [ "obj-56", 0 ],
					"hidden" : 0,
					"color" : [ 0.101961, 0.121569, 0.172549, 1.0 ],
					"midpoints" : [  ]
				}

			}
, 			{
				"patchline" : 				{
					"source" : [ "obj-56", 0 ],
					"destination" : [ "obj-73", 0 ],
					"hidden" : 0,
					"color" : [ 0.101961, 0.121569, 0.172549, 1.0 ],
					"midpoints" : [  ]
				}

			}
, 			{
				"patchline" : 				{
					"source" : [ "obj-73", 1 ],
					"destination" : [ "obj-69", 1 ],
					"hidden" : 0,
					"color" : [ 0.101961, 0.121569, 0.172549, 1.0 ],
					"midpoints" : [  ]
				}

			}
, 			{
				"patchline" : 				{
					"source" : [ "obj-73", 2 ],
					"destination" : [ "obj-57", 0 ],
					"hidden" : 0,
					"color" : [ 0.101961, 0.121569, 0.172549, 1.0 ],
					"midpoints" : [  ]
				}

			}
, 			{
				"patchline" : 				{
					"source" : [ "obj-73", 0 ],
					"destination" : [ "obj-37", 0 ],
					"hidden" : 0,
					"color" : [ 0.101961, 0.121569, 0.172549, 1.0 ],
					"midpoints" : [  ]
				}

			}
, 			{
				"patchline" : 				{
					"source" : [ "obj-49", 0 ],
					"destination" : [ "obj-13", 0 ],
					"hidden" : 0,
					"color" : [ 0.101961, 0.121569, 0.172549, 1.0 ],
					"midpoints" : [  ]
				}

			}
, 			{
				"patchline" : 				{
					"source" : [ "obj-13", 2 ],
					"destination" : [ "obj-3", 2 ],
					"hidden" : 0,
					"color" : [ 0.278431, 0.921569, 0.639216, 1.0 ],
					"midpoints" : [  ]
				}

			}
, 			{
				"patchline" : 				{
					"source" : [ "obj-13", 0 ],
					"destination" : [ "obj-3", 0 ],
					"hidden" : 0,
					"color" : [ 0.101961, 0.121569, 0.172549, 1.0 ],
					"midpoints" : [  ]
				}

			}
, 			{
				"patchline" : 				{
					"source" : [ "obj-13", 2 ],
					"destination" : [ "obj-57", 2 ],
					"hidden" : 0,
					"color" : [ 0.278431, 0.921569, 0.639216, 1.0 ],
					"midpoints" : [  ]
				}

			}
, 			{
				"patchline" : 				{
					"source" : [ "obj-71", 1 ],
					"destination" : [ "obj-89", 0 ],
					"hidden" : 0,
					"color" : [ 0.101961, 0.121569, 0.172549, 1.0 ],
					"midpoints" : [  ]
				}

			}
, 			{
				"patchline" : 				{
					"source" : [ "obj-37", 0 ],
					"destination" : [ "obj-71", 0 ],
					"hidden" : 0,
					"color" : [ 0.101961, 0.121569, 0.172549, 1.0 ],
					"midpoints" : [  ]
				}

			}
, 			{
				"patchline" : 				{
					"source" : [ "obj-71", 0 ],
					"destination" : [ "obj-69", 0 ],
					"hidden" : 0,
					"color" : [ 0.101961, 0.121569, 0.172549, 1.0 ],
					"midpoints" : [  ]
				}

			}
, 			{
				"patchline" : 				{
					"source" : [ "obj-10", 0 ],
					"destination" : [ "obj-37", 2 ],
					"hidden" : 0,
					"color" : [ 0.101961, 0.121569, 0.172549, 1.0 ],
					"midpoints" : [  ]
				}

			}
, 			{
				"patchline" : 				{
					"source" : [ "obj-69", 0 ],
					"destination" : [ "obj-23", 0 ],
					"hidden" : 0,
					"color" : [ 0.101961, 0.121569, 0.172549, 1.0 ],
					"midpoints" : [  ]
				}

			}
, 			{
				"patchline" : 				{
					"source" : [ "obj-66", 2 ],
					"destination" : [ "obj-65", 2 ],
					"hidden" : 0,
					"color" : [ 0.101961, 0.121569, 0.172549, 1.0 ],
					"midpoints" : [  ]
				}

			}
, 			{
				"patchline" : 				{
					"source" : [ "obj-63", 0 ],
					"destination" : [ "obj-66", 0 ],
					"hidden" : 0,
					"color" : [ 0.101961, 0.121569, 0.172549, 1.0 ],
					"midpoints" : [  ]
				}

			}
, 			{
				"patchline" : 				{
					"source" : [ "obj-66", 1 ],
					"destination" : [ "obj-62", 0 ],
					"hidden" : 0,
					"color" : [ 0.101961, 0.121569, 0.172549, 1.0 ],
					"midpoints" : [  ]
				}

			}
, 			{
				"patchline" : 				{
					"source" : [ "obj-66", 0 ],
					"destination" : [ "obj-65", 0 ],
					"hidden" : 0,
					"color" : [ 0.101961, 0.121569, 0.172549, 1.0 ],
					"midpoints" : [  ]
				}

			}
, 			{
				"patchline" : 				{
					"source" : [ "obj-65", 0 ],
					"destination" : [ "obj-23", 2 ],
					"hidden" : 0,
					"color" : [ 0.101961, 0.121569, 0.172549, 1.0 ],
					"midpoints" : [  ]
				}

			}
, 			{
				"patchline" : 				{
					"source" : [ "obj-62", 0 ],
					"destination" : [ "obj-64", 0 ],
					"hidden" : 0,
					"color" : [ 0.101961, 0.121569, 0.172549, 1.0 ],
					"midpoints" : [  ]
				}

			}
, 			{
				"patchline" : 				{
					"source" : [ "obj-64", 0 ],
					"destination" : [ "obj-65", 1 ],
					"hidden" : 0,
					"color" : [ 0.101961, 0.121569, 0.172549, 1.0 ],
					"midpoints" : [  ]
				}

			}
, 			{
				"patchline" : 				{
					"source" : [ "obj-89", 0 ],
					"destination" : [ "obj-63", 0 ],
					"hidden" : 0,
					"color" : [ 0.101961, 0.121569, 0.172549, 1.0 ],
					"midpoints" : [  ]
				}

			}
, 			{
				"patchline" : 				{
					"source" : [ "obj-12", 0 ],
					"destination" : [ "obj-23", 3 ],
					"hidden" : 0,
					"color" : [ 0.101961, 0.121569, 0.172549, 1.0 ],
					"midpoints" : [  ]
				}

			}
, 			{
				"patchline" : 				{
					"source" : [ "obj-58", 0 ],
					"destination" : [ "obj-12", 0 ],
					"hidden" : 0,
					"color" : [ 0.101961, 0.121569, 0.172549, 1.0 ],
					"midpoints" : [  ]
				}

			}
, 			{
				"patchline" : 				{
					"source" : [ "obj-55", 0 ],
					"destination" : [ "obj-57", 1 ],
					"hidden" : 0,
					"color" : [ 0.87451, 0.25098, 0.717647, 1.0 ],
					"midpoints" : [  ]
				}

			}
, 			{
				"patchline" : 				{
					"source" : [ "obj-89", 1 ],
					"destination" : [ "obj-58", 0 ],
					"hidden" : 0,
					"color" : [ 0.101961, 0.121569, 0.172549, 1.0 ],
					"midpoints" : [  ]
				}

			}
, 			{
				"patchline" : 				{
					"source" : [ "obj-57", 0 ],
					"destination" : [ "obj-58", 1 ],
					"hidden" : 0,
					"color" : [ 0.101961, 0.121569, 0.172549, 1.0 ],
					"midpoints" : [  ]
				}

			}
, 			{
				"patchline" : 				{
					"source" : [ "obj-5", 0 ],
					"destination" : [ "obj-10", 0 ],
					"hidden" : 0,
					"color" : [ 0.047059, 0.913725, 0.913725, 1.0 ],
					"midpoints" : [ 452.5, 81.75, 849.5, 81.75 ]
				}

			}
, 			{
				"patchline" : 				{
					"source" : [ "obj-4", 0 ],
					"destination" : [ "obj-3", 0 ],
					"hidden" : 0,
					"color" : [ 0.87451, 0.25098, 0.717647, 1.0 ],
					"midpoints" : [  ]
				}

			}
, 			{
				"patchline" : 				{
					"source" : [ "obj-3", 0 ],
					"destination" : [ "obj-2", 0 ],
					"hidden" : 0,
					"color" : [ 0.101961, 0.121569, 0.172549, 1.0 ],
					"midpoints" : [  ]
				}

			}
, 			{
				"patchline" : 				{
					"source" : [ "obj-4", 2 ],
					"destination" : [ "obj-10", 0 ],
					"hidden" : 0,
					"color" : [ 0.047059, 0.913725, 0.913725, 1.0 ],
					"midpoints" : [  ]
				}

			}
, 			{
				"patchline" : 				{
					"source" : [ "obj-23", 0 ],
					"destination" : [ "obj-3", 1 ],
					"hidden" : 0,
					"color" : [ 0.101961, 0.121569, 0.172549, 1.0 ],
					"midpoints" : [  ]
				}

			}
, 			{
				"patchline" : 				{
					"source" : [ "obj-1", 1 ],
					"destination" : [ "obj-4", 0 ],
					"hidden" : 0,
					"color" : [ 0.101961, 0.121569, 0.172549, 1.0 ],
					"midpoints" : [  ]
				}

			}
 ]
	}

}
