{
	"patcher" : 	{
		"fileversion" : 1,
		"appversion" : 		{
			"major" : 7,
			"minor" : 0,
			"revision" : 3,
			"architecture" : "x86",
			"modernui" : 1
		}
,
		"rect" : [ 681.0, 84.0, 659.0, 535.0 ],
		"bgcolor" : [ 0.666667, 0.698039, 0.717647, 1.0 ],
		"bglocked" : 0,
		"openinpresentation" : 0,
		"default_fontsize" : 9.0,
		"default_fontface" : 0,
		"default_fontname" : "Arial",
		"gridonopen" : 1,
		"gridsize" : [ 15.0, 15.0 ],
		"gridsnaponopen" : 1,
		"objectsnaponopen" : 1,
		"statusbarvisible" : 0,
		"toolbarvisible" : 0,
		"lefttoolbarpinned" : 0,
		"toptoolbarpinned" : 0,
		"righttoolbarpinned" : 0,
		"bottomtoolbarpinned" : 0,
		"toolbars_unpinned_last_save" : 0,
		"tallnewobj" : 0,
		"boxanimatetime" : 0,
		"enablehscroll" : 1,
		"enablevscroll" : 1,
		"devicewidth" : 0.0,
		"description" : "",
		"digest" : "",
		"tags" : "",
		"style" : "",
		"subpatcher_template" : "",
		"boxes" : [ 			{
				"box" : 				{
					"bgcolor" : [ 1.0, 1.0, 1.0, 1.0 ],
					"color" : [ 0.494118, 0.556863, 0.607843, 1.0 ],
					"fontface" : 0,
					"fontname" : "Arial",
					"fontsize" : 9.0,
					"id" : "obj-17",
					"maxclass" : "newobj",
					"numinlets" : 2,
					"numoutlets" : 2,
					"outlettype" : [ "", "" ],
					"patching_rect" : [ 6.5, 99.666687, 43.0, 19.0 ],
					"style" : "",
					"text" : "gate 2 1",
					"textcolor" : [ 0.101961, 0.121569, 0.172549, 1.0 ]
				}

			}
, 			{
				"box" : 				{
					"bgcolor" : [ 1.0, 1.0, 1.0, 1.0 ],
					"color" : [ 0.494118, 0.556863, 0.607843, 1.0 ],
					"fontface" : 0,
					"fontname" : "Arial",
					"fontsize" : 9.0,
					"id" : "obj-12",
					"maxclass" : "newobj",
					"numinlets" : 2,
					"numoutlets" : 2,
					"outlettype" : [ "", "bang" ],
					"patching_rect" : [ 30.5, 131.25, 62.0, 19.0 ],
					"style" : "",
					"text" : "bach.change",
					"textcolor" : [ 0.101961, 0.121569, 0.172549, 1.0 ]
				}

			}
, 			{
				"box" : 				{
					"fontface" : 0,
					"fontname" : "Arial",
					"fontsize" : 9.0,
					"id" : "obj-1",
					"maxclass" : "comment",
					"numinlets" : 1,
					"numoutlets" : 0,
					"patching_rect" : [ 628.0, 21.0, 30.0, 17.0 ],
					"style" : "",
					"text" : "pitch",
					"textcolor" : [ 0.101961, 0.121569, 0.172549, 1.0 ]
				}

			}
, 			{
				"box" : 				{
					"comment" : "",
					"id" : "obj-3",
					"maxclass" : "inlet",
					"numinlets" : 0,
					"numoutlets" : 1,
					"outlettype" : [ "" ],
					"patching_rect" : [ 613.0, 21.0, 15.0, 15.0 ],
					"style" : ""
				}

			}
, 			{
				"box" : 				{
					"bgcolor" : [ 1.0, 1.0, 1.0, 1.0 ],
					"color" : [ 0.494118, 0.556863, 0.607843, 1.0 ],
					"fontface" : 0,
					"fontname" : "Arial",
					"fontsize" : 9.0,
					"id" : "obj-52",
					"maxclass" : "newobj",
					"numinlets" : 4,
					"numoutlets" : 1,
					"outlettype" : [ "" ],
					"patcher" : 					{
						"fileversion" : 1,
						"appversion" : 						{
							"major" : 7,
							"minor" : 0,
							"revision" : 3,
							"architecture" : "x86",
							"modernui" : 1
						}
,
						"rect" : [ 650.0, 120.0, 358.0, 291.0 ],
						"bgcolor" : [ 0.666667, 0.698039, 0.717647, 1.0 ],
						"bglocked" : 0,
						"openinpresentation" : 0,
						"default_fontsize" : 9.0,
						"default_fontface" : 0,
						"default_fontname" : "Arial",
						"gridonopen" : 1,
						"gridsize" : [ 15.0, 15.0 ],
						"gridsnaponopen" : 1,
						"objectsnaponopen" : 1,
						"statusbarvisible" : 0,
						"toolbarvisible" : 0,
						"lefttoolbarpinned" : 0,
						"toptoolbarpinned" : 0,
						"righttoolbarpinned" : 0,
						"bottomtoolbarpinned" : 0,
						"toolbars_unpinned_last_save" : 0,
						"tallnewobj" : 0,
						"boxanimatetime" : 0,
						"enablehscroll" : 1,
						"enablevscroll" : 1,
						"devicewidth" : 0.0,
						"description" : "",
						"digest" : "",
						"tags" : "",
						"style" : "",
						"subpatcher_template" : "",
						"boxes" : [ 							{
								"box" : 								{
									"bgcolor" : [ 1.0, 1.0, 1.0, 1.0 ],
									"color" : [ 0.494118, 0.556863, 0.607843, 1.0 ],
									"fontface" : 0,
									"fontname" : "Arial",
									"fontsize" : 9.0,
									"id" : "obj-36",
									"maxclass" : "newobj",
									"numinlets" : 1,
									"numoutlets" : 1,
									"outlettype" : [ "" ],
									"patching_rect" : [ 50.0, 220.666626, 52.0, 17.0 ],
									"style" : "",
									"text" : "bach.wrap",
									"textcolor" : [ 0.101961, 0.121569, 0.172549, 1.0 ]
								}

							}
, 							{
								"box" : 								{
									"bgcolor" : [ 1.0, 1.0, 1.0, 1.0 ],
									"color" : [ 0.960784, 0.439216, 0.478431, 1.0 ],
									"fontface" : 0,
									"fontname" : "Arial",
									"fontsize" : 9.0,
									"id" : "obj-32",
									"maxclass" : "newobj",
									"numinlets" : 3,
									"numoutlets" : 1,
									"outlettype" : [ "" ],
									"patching_rect" : [ 159.0, 196.666626, 63.0, 17.0 ],
									"style" : "",
									"text" : "bach.collect",
									"textcolor" : [ 0.101961, 0.121569, 0.172549, 1.0 ]
								}

							}
, 							{
								"box" : 								{
									"bgcolor" : [ 1.0, 1.0, 1.0, 1.0 ],
									"color" : [ 0.960784, 0.439216, 0.478431, 1.0 ],
									"fontface" : 0,
									"fontname" : "Arial",
									"fontsize" : 9.0,
									"id" : "obj-17",
									"maxclass" : "newobj",
									"numinlets" : 3,
									"numoutlets" : 1,
									"outlettype" : [ "" ],
									"patching_rect" : [ 50.0, 196.666626, 63.0, 17.0 ],
									"style" : "",
									"text" : "bach.collect",
									"textcolor" : [ 0.101961, 0.121569, 0.172549, 1.0 ]
								}

							}
, 							{
								"box" : 								{
									"bgcolor" : [ 1.0, 1.0, 1.0, 1.0 ],
									"color" : [ 0.494118, 0.556863, 0.607843, 1.0 ],
									"fontface" : 0,
									"fontname" : "Arial",
									"fontsize" : 9.0,
									"id" : "obj-25",
									"maxclass" : "newobj",
									"numinlets" : 1,
									"numoutlets" : 1,
									"outlettype" : [ "" ],
									"patching_rect" : [ 181.0, 160.666626, 60.0, 17.0 ],
									"style" : "",
									"text" : "bach.wrap 2",
									"textcolor" : [ 0.101961, 0.121569, 0.172549, 1.0 ]
								}

							}
, 							{
								"box" : 								{
									"bgcolor" : [ 1.0, 1.0, 1.0, 1.0 ],
									"color" : [ 0.494118, 0.556863, 0.607843, 1.0 ],
									"fontface" : 0,
									"fontname" : "Arial",
									"fontsize" : 9.0,
									"id" : "obj-29",
									"maxclass" : "newobj",
									"numinlets" : 2,
									"numoutlets" : 2,
									"outlettype" : [ "", "" ],
									"patching_rect" : [ 50.0, 100.0, 128.0, 17.0 ],
									"style" : "",
									"text" : "gate 2 1",
									"textcolor" : [ 0.101961, 0.121569, 0.172549, 1.0 ]
								}

							}
, 							{
								"box" : 								{
									"bgcolor" : [ 1.0, 1.0, 1.0, 1.0 ],
									"color" : [ 0.494118, 0.556863, 0.607843, 1.0 ],
									"fontface" : 0,
									"fontname" : "Arial",
									"fontsize" : 9.0,
									"id" : "obj-3",
									"maxclass" : "newobj",
									"numinlets" : 1,
									"numoutlets" : 1,
									"outlettype" : [ "" ],
									"patching_rect" : [ 72.0, 160.666626, 52.0, 17.0 ],
									"style" : "",
									"text" : "bach.wrap",
									"textcolor" : [ 0.101961, 0.121569, 0.172549, 1.0 ]
								}

							}
, 							{
								"box" : 								{
									"bgcolor" : [ 1.0, 1.0, 1.0, 1.0 ],
									"color" : [ 0.494118, 0.556863, 0.607843, 1.0 ],
									"fontface" : 0,
									"fontname" : "Arial",
									"fontsize" : 9.0,
									"id" : "obj-30",
									"maxclass" : "newobj",
									"numinlets" : 2,
									"numoutlets" : 2,
									"outlettype" : [ "", "" ],
									"patching_rect" : [ 72.0, 128.0, 128.0, 17.0 ],
									"style" : "",
									"text" : "gate 2 1",
									"textcolor" : [ 0.101961, 0.121569, 0.172549, 1.0 ]
								}

							}
, 							{
								"box" : 								{
									"comment" : "",
									"id" : "obj-45",
									"maxclass" : "inlet",
									"numinlets" : 0,
									"numoutlets" : 1,
									"outlettype" : [ "" ],
									"patching_rect" : [ 249.0, 11.0, 18.0, 18.0 ],
									"style" : ""
								}

							}
, 							{
								"box" : 								{
									"comment" : "",
									"id" : "obj-46",
									"maxclass" : "inlet",
									"numinlets" : 0,
									"numoutlets" : 1,
									"outlettype" : [ "clear" ],
									"patching_rect" : [ 282.5, 11.0, 18.0, 18.0 ],
									"style" : ""
								}

							}
, 							{
								"box" : 								{
									"comment" : "",
									"id" : "obj-47",
									"maxclass" : "inlet",
									"numinlets" : 0,
									"numoutlets" : 1,
									"outlettype" : [ "bang" ],
									"patching_rect" : [ 159.0, 40.0, 18.0, 18.0 ],
									"style" : ""
								}

							}
, 							{
								"box" : 								{
									"comment" : "",
									"id" : "obj-49",
									"maxclass" : "inlet",
									"numinlets" : 0,
									"numoutlets" : 1,
									"outlettype" : [ "" ],
									"patching_rect" : [ 181.0, 40.0, 18.0, 18.0 ],
									"style" : ""
								}

							}
, 							{
								"box" : 								{
									"comment" : "",
									"id" : "obj-50",
									"maxclass" : "outlet",
									"numinlets" : 1,
									"numoutlets" : 0,
									"patching_rect" : [ 49.5, 252.666626, 18.0, 18.0 ],
									"style" : ""
								}

							}
 ],
						"lines" : [ 							{
								"patchline" : 								{
									"color" : [ 0.101961, 0.121569, 0.172549, 1.0 ],
									"destination" : [ "obj-36", 0 ],
									"disabled" : 0,
									"hidden" : 0,
									"source" : [ "obj-17", 0 ]
								}

							}
, 							{
								"patchline" : 								{
									"color" : [ 0.101961, 0.121569, 0.172549, 1.0 ],
									"destination" : [ "obj-32", 1 ],
									"disabled" : 0,
									"hidden" : 0,
									"source" : [ "obj-25", 0 ]
								}

							}
, 							{
								"patchline" : 								{
									"color" : [ 0.101961, 0.121569, 0.172549, 1.0 ],
									"destination" : [ "obj-17", 0 ],
									"disabled" : 0,
									"hidden" : 0,
									"source" : [ "obj-29", 0 ]
								}

							}
, 							{
								"patchline" : 								{
									"color" : [ 0.101961, 0.121569, 0.172549, 1.0 ],
									"destination" : [ "obj-32", 0 ],
									"disabled" : 0,
									"hidden" : 0,
									"source" : [ "obj-29", 1 ]
								}

							}
, 							{
								"patchline" : 								{
									"color" : [ 0.101961, 0.121569, 0.172549, 1.0 ],
									"destination" : [ "obj-17", 1 ],
									"disabled" : 0,
									"hidden" : 0,
									"source" : [ "obj-3", 0 ]
								}

							}
, 							{
								"patchline" : 								{
									"color" : [ 0.101961, 0.121569, 0.172549, 1.0 ],
									"destination" : [ "obj-25", 0 ],
									"disabled" : 0,
									"hidden" : 0,
									"source" : [ "obj-30", 1 ]
								}

							}
, 							{
								"patchline" : 								{
									"color" : [ 0.101961, 0.121569, 0.172549, 1.0 ],
									"destination" : [ "obj-3", 0 ],
									"disabled" : 0,
									"hidden" : 0,
									"source" : [ "obj-30", 0 ]
								}

							}
, 							{
								"patchline" : 								{
									"color" : [ 0.101961, 0.121569, 0.172549, 1.0 ],
									"destination" : [ "obj-50", 0 ],
									"disabled" : 0,
									"hidden" : 0,
									"midpoints" : [ 168.5, 246.666626, 59.0, 246.666626 ],
									"source" : [ "obj-32", 0 ]
								}

							}
, 							{
								"patchline" : 								{
									"color" : [ 0.101961, 0.121569, 0.172549, 1.0 ],
									"destination" : [ "obj-50", 0 ],
									"disabled" : 0,
									"hidden" : 0,
									"source" : [ "obj-36", 0 ]
								}

							}
, 							{
								"patchline" : 								{
									"color" : [ 0.478431, 0.709804, 0.317647, 1.0 ],
									"destination" : [ "obj-29", 0 ],
									"disabled" : 0,
									"hidden" : 0,
									"midpoints" : [ 258.5, 35.0, 59.5, 35.0 ],
									"source" : [ "obj-45", 0 ]
								}

							}
, 							{
								"patchline" : 								{
									"color" : [ 0.478431, 0.709804, 0.317647, 1.0 ],
									"destination" : [ "obj-30", 0 ],
									"disabled" : 0,
									"hidden" : 0,
									"midpoints" : [ 258.5, 35.0, 81.5, 35.0 ],
									"source" : [ "obj-45", 0 ]
								}

							}
, 							{
								"patchline" : 								{
									"color" : [ 0.929412, 0.360784, 0.866667, 1.0 ],
									"destination" : [ "obj-17", 2 ],
									"disabled" : 0,
									"hidden" : 0,
									"midpoints" : [ 292.0, 189.333313, 103.5, 189.333313 ],
									"source" : [ "obj-46", 0 ]
								}

							}
, 							{
								"patchline" : 								{
									"color" : [ 0.929412, 0.360784, 0.866667, 1.0 ],
									"destination" : [ "obj-32", 2 ],
									"disabled" : 0,
									"hidden" : 0,
									"midpoints" : [ 292.0, 189.333313, 212.5, 189.333313 ],
									"source" : [ "obj-46", 0 ]
								}

							}
, 							{
								"patchline" : 								{
									"color" : [ 0.101961, 0.121569, 0.172549, 1.0 ],
									"destination" : [ "obj-29", 1 ],
									"disabled" : 0,
									"hidden" : 0,
									"source" : [ "obj-47", 0 ]
								}

							}
, 							{
								"patchline" : 								{
									"color" : [ 0.101961, 0.121569, 0.172549, 1.0 ],
									"destination" : [ "obj-30", 1 ],
									"disabled" : 0,
									"hidden" : 0,
									"source" : [ "obj-49", 0 ]
								}

							}
 ]
					}
,
					"patching_rect" : [ 249.0, 344.666687, 95.0, 19.0 ],
					"saved_object_attributes" : 					{
						"description" : "",
						"digest" : "",
						"fontsize" : 9.0,
						"globalpatchername" : "",
						"style" : "",
						"tags" : ""
					}
,
					"style" : "",
					"text" : "p mono_poly",
					"textcolor" : [ 0.101961, 0.121569, 0.172549, 1.0 ]
				}

			}
, 			{
				"box" : 				{
					"bgcolor" : [ 1.0, 1.0, 1.0, 1.0 ],
					"color" : [ 0.494118, 0.556863, 0.607843, 1.0 ],
					"fontface" : 0,
					"fontname" : "Arial",
					"fontsize" : 9.0,
					"id" : "obj-51",
					"maxclass" : "newobj",
					"numinlets" : 4,
					"numoutlets" : 1,
					"outlettype" : [ "" ],
					"patcher" : 					{
						"fileversion" : 1,
						"appversion" : 						{
							"major" : 7,
							"minor" : 0,
							"revision" : 3,
							"architecture" : "x86",
							"modernui" : 1
						}
,
						"rect" : [ 650.0, 120.0, 358.0, 291.0 ],
						"bgcolor" : [ 0.666667, 0.698039, 0.717647, 1.0 ],
						"bglocked" : 0,
						"openinpresentation" : 0,
						"default_fontsize" : 9.0,
						"default_fontface" : 0,
						"default_fontname" : "Arial",
						"gridonopen" : 1,
						"gridsize" : [ 15.0, 15.0 ],
						"gridsnaponopen" : 1,
						"objectsnaponopen" : 1,
						"statusbarvisible" : 0,
						"toolbarvisible" : 0,
						"lefttoolbarpinned" : 0,
						"toptoolbarpinned" : 0,
						"righttoolbarpinned" : 0,
						"bottomtoolbarpinned" : 0,
						"toolbars_unpinned_last_save" : 0,
						"tallnewobj" : 0,
						"boxanimatetime" : 0,
						"enablehscroll" : 1,
						"enablevscroll" : 1,
						"devicewidth" : 0.0,
						"description" : "",
						"digest" : "",
						"tags" : "",
						"style" : "",
						"subpatcher_template" : "",
						"boxes" : [ 							{
								"box" : 								{
									"bgcolor" : [ 1.0, 1.0, 1.0, 1.0 ],
									"color" : [ 0.494118, 0.556863, 0.607843, 1.0 ],
									"fontface" : 0,
									"fontname" : "Arial",
									"fontsize" : 9.0,
									"id" : "obj-36",
									"maxclass" : "newobj",
									"numinlets" : 1,
									"numoutlets" : 1,
									"outlettype" : [ "" ],
									"patching_rect" : [ 50.0, 220.666626, 52.0, 17.0 ],
									"style" : "",
									"text" : "bach.wrap",
									"textcolor" : [ 0.101961, 0.121569, 0.172549, 1.0 ]
								}

							}
, 							{
								"box" : 								{
									"bgcolor" : [ 1.0, 1.0, 1.0, 1.0 ],
									"color" : [ 0.960784, 0.439216, 0.478431, 1.0 ],
									"fontface" : 0,
									"fontname" : "Arial",
									"fontsize" : 9.0,
									"id" : "obj-32",
									"maxclass" : "newobj",
									"numinlets" : 3,
									"numoutlets" : 1,
									"outlettype" : [ "" ],
									"patching_rect" : [ 159.0, 196.666626, 63.0, 17.0 ],
									"style" : "",
									"text" : "bach.collect",
									"textcolor" : [ 0.101961, 0.121569, 0.172549, 1.0 ]
								}

							}
, 							{
								"box" : 								{
									"bgcolor" : [ 1.0, 1.0, 1.0, 1.0 ],
									"color" : [ 0.960784, 0.439216, 0.478431, 1.0 ],
									"fontface" : 0,
									"fontname" : "Arial",
									"fontsize" : 9.0,
									"id" : "obj-17",
									"maxclass" : "newobj",
									"numinlets" : 3,
									"numoutlets" : 1,
									"outlettype" : [ "" ],
									"patching_rect" : [ 50.0, 196.666626, 63.0, 17.0 ],
									"style" : "",
									"text" : "bach.collect",
									"textcolor" : [ 0.101961, 0.121569, 0.172549, 1.0 ]
								}

							}
, 							{
								"box" : 								{
									"bgcolor" : [ 1.0, 1.0, 1.0, 1.0 ],
									"color" : [ 0.494118, 0.556863, 0.607843, 1.0 ],
									"fontface" : 0,
									"fontname" : "Arial",
									"fontsize" : 9.0,
									"id" : "obj-25",
									"maxclass" : "newobj",
									"numinlets" : 1,
									"numoutlets" : 1,
									"outlettype" : [ "" ],
									"patching_rect" : [ 181.0, 160.666626, 60.0, 17.0 ],
									"style" : "",
									"text" : "bach.wrap 2",
									"textcolor" : [ 0.101961, 0.121569, 0.172549, 1.0 ]
								}

							}
, 							{
								"box" : 								{
									"bgcolor" : [ 1.0, 1.0, 1.0, 1.0 ],
									"color" : [ 0.494118, 0.556863, 0.607843, 1.0 ],
									"fontface" : 0,
									"fontname" : "Arial",
									"fontsize" : 9.0,
									"id" : "obj-29",
									"maxclass" : "newobj",
									"numinlets" : 2,
									"numoutlets" : 2,
									"outlettype" : [ "", "" ],
									"patching_rect" : [ 50.0, 100.0, 128.0, 17.0 ],
									"style" : "",
									"text" : "gate 2 1",
									"textcolor" : [ 0.101961, 0.121569, 0.172549, 1.0 ]
								}

							}
, 							{
								"box" : 								{
									"bgcolor" : [ 1.0, 1.0, 1.0, 1.0 ],
									"color" : [ 0.494118, 0.556863, 0.607843, 1.0 ],
									"fontface" : 0,
									"fontname" : "Arial",
									"fontsize" : 9.0,
									"id" : "obj-3",
									"maxclass" : "newobj",
									"numinlets" : 1,
									"numoutlets" : 1,
									"outlettype" : [ "" ],
									"patching_rect" : [ 72.0, 160.666626, 52.0, 17.0 ],
									"style" : "",
									"text" : "bach.wrap",
									"textcolor" : [ 0.101961, 0.121569, 0.172549, 1.0 ]
								}

							}
, 							{
								"box" : 								{
									"bgcolor" : [ 1.0, 1.0, 1.0, 1.0 ],
									"color" : [ 0.494118, 0.556863, 0.607843, 1.0 ],
									"fontface" : 0,
									"fontname" : "Arial",
									"fontsize" : 9.0,
									"id" : "obj-30",
									"maxclass" : "newobj",
									"numinlets" : 2,
									"numoutlets" : 2,
									"outlettype" : [ "", "" ],
									"patching_rect" : [ 72.0, 128.0, 128.0, 17.0 ],
									"style" : "",
									"text" : "gate 2 1",
									"textcolor" : [ 0.101961, 0.121569, 0.172549, 1.0 ]
								}

							}
, 							{
								"box" : 								{
									"comment" : "",
									"id" : "obj-45",
									"maxclass" : "inlet",
									"numinlets" : 0,
									"numoutlets" : 1,
									"outlettype" : [ "" ],
									"patching_rect" : [ 249.0, 11.0, 18.0, 18.0 ],
									"style" : ""
								}

							}
, 							{
								"box" : 								{
									"comment" : "",
									"id" : "obj-46",
									"maxclass" : "inlet",
									"numinlets" : 0,
									"numoutlets" : 1,
									"outlettype" : [ "clear" ],
									"patching_rect" : [ 282.5, 11.0, 18.0, 18.0 ],
									"style" : ""
								}

							}
, 							{
								"box" : 								{
									"comment" : "",
									"id" : "obj-47",
									"maxclass" : "inlet",
									"numinlets" : 0,
									"numoutlets" : 1,
									"outlettype" : [ "bang" ],
									"patching_rect" : [ 159.0, 40.0, 18.0, 18.0 ],
									"style" : ""
								}

							}
, 							{
								"box" : 								{
									"comment" : "",
									"id" : "obj-49",
									"maxclass" : "inlet",
									"numinlets" : 0,
									"numoutlets" : 1,
									"outlettype" : [ "" ],
									"patching_rect" : [ 181.0, 40.0, 18.0, 18.0 ],
									"style" : ""
								}

							}
, 							{
								"box" : 								{
									"comment" : "",
									"id" : "obj-50",
									"maxclass" : "outlet",
									"numinlets" : 1,
									"numoutlets" : 0,
									"patching_rect" : [ 49.5, 252.666626, 18.0, 18.0 ],
									"style" : ""
								}

							}
 ],
						"lines" : [ 							{
								"patchline" : 								{
									"color" : [ 0.101961, 0.121569, 0.172549, 1.0 ],
									"destination" : [ "obj-36", 0 ],
									"disabled" : 0,
									"hidden" : 0,
									"source" : [ "obj-17", 0 ]
								}

							}
, 							{
								"patchline" : 								{
									"color" : [ 0.101961, 0.121569, 0.172549, 1.0 ],
									"destination" : [ "obj-32", 1 ],
									"disabled" : 0,
									"hidden" : 0,
									"source" : [ "obj-25", 0 ]
								}

							}
, 							{
								"patchline" : 								{
									"color" : [ 0.101961, 0.121569, 0.172549, 1.0 ],
									"destination" : [ "obj-17", 0 ],
									"disabled" : 0,
									"hidden" : 0,
									"source" : [ "obj-29", 0 ]
								}

							}
, 							{
								"patchline" : 								{
									"color" : [ 0.101961, 0.121569, 0.172549, 1.0 ],
									"destination" : [ "obj-32", 0 ],
									"disabled" : 0,
									"hidden" : 0,
									"source" : [ "obj-29", 1 ]
								}

							}
, 							{
								"patchline" : 								{
									"color" : [ 0.101961, 0.121569, 0.172549, 1.0 ],
									"destination" : [ "obj-17", 1 ],
									"disabled" : 0,
									"hidden" : 0,
									"source" : [ "obj-3", 0 ]
								}

							}
, 							{
								"patchline" : 								{
									"color" : [ 0.101961, 0.121569, 0.172549, 1.0 ],
									"destination" : [ "obj-25", 0 ],
									"disabled" : 0,
									"hidden" : 0,
									"source" : [ "obj-30", 1 ]
								}

							}
, 							{
								"patchline" : 								{
									"color" : [ 0.101961, 0.121569, 0.172549, 1.0 ],
									"destination" : [ "obj-3", 0 ],
									"disabled" : 0,
									"hidden" : 0,
									"source" : [ "obj-30", 0 ]
								}

							}
, 							{
								"patchline" : 								{
									"color" : [ 0.101961, 0.121569, 0.172549, 1.0 ],
									"destination" : [ "obj-50", 0 ],
									"disabled" : 0,
									"hidden" : 0,
									"midpoints" : [ 168.5, 246.666626, 59.0, 246.666626 ],
									"source" : [ "obj-32", 0 ]
								}

							}
, 							{
								"patchline" : 								{
									"color" : [ 0.101961, 0.121569, 0.172549, 1.0 ],
									"destination" : [ "obj-50", 0 ],
									"disabled" : 0,
									"hidden" : 0,
									"source" : [ "obj-36", 0 ]
								}

							}
, 							{
								"patchline" : 								{
									"color" : [ 0.478431, 0.709804, 0.317647, 1.0 ],
									"destination" : [ "obj-29", 0 ],
									"disabled" : 0,
									"hidden" : 0,
									"midpoints" : [ 258.5, 35.0, 59.5, 35.0 ],
									"source" : [ "obj-45", 0 ]
								}

							}
, 							{
								"patchline" : 								{
									"color" : [ 0.478431, 0.709804, 0.317647, 1.0 ],
									"destination" : [ "obj-30", 0 ],
									"disabled" : 0,
									"hidden" : 0,
									"midpoints" : [ 258.5, 35.0, 81.5, 35.0 ],
									"source" : [ "obj-45", 0 ]
								}

							}
, 							{
								"patchline" : 								{
									"color" : [ 0.929412, 0.360784, 0.866667, 1.0 ],
									"destination" : [ "obj-17", 2 ],
									"disabled" : 0,
									"hidden" : 0,
									"midpoints" : [ 292.0, 189.333313, 103.5, 189.333313 ],
									"source" : [ "obj-46", 0 ]
								}

							}
, 							{
								"patchline" : 								{
									"color" : [ 0.929412, 0.360784, 0.866667, 1.0 ],
									"destination" : [ "obj-32", 2 ],
									"disabled" : 0,
									"hidden" : 0,
									"midpoints" : [ 292.0, 189.333313, 212.5, 189.333313 ],
									"source" : [ "obj-46", 0 ]
								}

							}
, 							{
								"patchline" : 								{
									"color" : [ 0.101961, 0.121569, 0.172549, 1.0 ],
									"destination" : [ "obj-29", 1 ],
									"disabled" : 0,
									"hidden" : 0,
									"source" : [ "obj-47", 0 ]
								}

							}
, 							{
								"patchline" : 								{
									"color" : [ 0.101961, 0.121569, 0.172549, 1.0 ],
									"destination" : [ "obj-30", 1 ],
									"disabled" : 0,
									"hidden" : 0,
									"source" : [ "obj-49", 0 ]
								}

							}
 ]
					}
,
					"patching_rect" : [ 357.0, 344.666687, 108.0, 19.0 ],
					"saved_object_attributes" : 					{
						"description" : "",
						"digest" : "",
						"fontsize" : 9.0,
						"globalpatchername" : "",
						"style" : "",
						"tags" : ""
					}
,
					"style" : "",
					"text" : "p mono_poly",
					"textcolor" : [ 0.101961, 0.121569, 0.172549, 1.0 ]
				}

			}
, 			{
				"box" : 				{
					"bgcolor" : [ 1.0, 1.0, 1.0, 1.0 ],
					"color" : [ 0.494118, 0.556863, 0.607843, 1.0 ],
					"fontface" : 0,
					"fontname" : "Arial",
					"fontsize" : 9.0,
					"id" : "obj-23",
					"maxclass" : "newobj",
					"numinlets" : 1,
					"numoutlets" : 2,
					"outlettype" : [ "", "" ],
					"patching_rect" : [ 70.0, 21.0, 58.0, 19.0 ],
					"style" : "",
					"text" : "patcherargs",
					"textcolor" : [ 0.101961, 0.121569, 0.172549, 1.0 ]
				}

			}
, 			{
				"box" : 				{
					"bgcolor" : [ 1.0, 1.0, 1.0, 1.0 ],
					"color" : [ 0.494118, 0.556863, 0.607843, 1.0 ],
					"fontface" : 0,
					"fontname" : "Arial",
					"fontsize" : 9.0,
					"id" : "obj-31",
					"linecount" : 2,
					"maxclass" : "newobj",
					"numinlets" : 2,
					"numoutlets" : 3,
					"outlettype" : [ "", "", "" ],
					"patching_rect" : [ 160.0, 219.666687, 70.0, 29.0 ],
					"style" : "",
					"text" : "bach.iter @maxdepth 1",
					"textcolor" : [ 0.101961, 0.121569, 0.172549, 1.0 ]
				}

			}
, 			{
				"box" : 				{
					"bgcolor" : [ 1.0, 1.0, 1.0, 1.0 ],
					"color" : [ 0.494118, 0.556863, 0.607843, 1.0 ],
					"fontface" : 0,
					"fontname" : "Arial",
					"fontsize" : 9.0,
					"id" : "obj-19",
					"maxclass" : "newobj",
					"numinlets" : 1,
					"numoutlets" : 6,
					"outlettype" : [ "bang", "bang", "bang", "bang", "", "clear" ],
					"patching_rect" : [ 31.0, 168.666687, 563.0, 19.0 ],
					"style" : "",
					"text" : "t b b b b l clear",
					"textcolor" : [ 0.101961, 0.121569, 0.172549, 1.0 ]
				}

			}
, 			{
				"box" : 				{
					"bgcolor" : [ 1.0, 1.0, 1.0, 1.0 ],
					"color" : [ 0.960784, 0.439216, 0.478431, 1.0 ],
					"fontface" : 0,
					"fontname" : "Arial",
					"fontsize" : 9.0,
					"id" : "obj-9",
					"maxclass" : "newobj",
					"numinlets" : 3,
					"numoutlets" : 1,
					"outlettype" : [ "" ],
					"patching_rect" : [ 140.0, 388.333313, 58.0, 19.0 ],
					"style" : "",
					"text" : "bach.collect",
					"textcolor" : [ 0.101961, 0.121569, 0.172549, 1.0 ]
				}

			}
, 			{
				"box" : 				{
					"bgcolor" : [ 1.0, 1.0, 1.0, 1.0 ],
					"color" : [ 0.494118, 0.556863, 0.607843, 1.0 ],
					"fontface" : 0,
					"fontname" : "Arial",
					"fontsize" : 9.0,
					"id" : "obj-48",
					"maxclass" : "newobj",
					"numinlets" : 1,
					"numoutlets" : 1,
					"outlettype" : [ "" ],
					"patching_rect" : [ 160.0, 282.333313, 52.0, 19.0 ],
					"style" : "",
					"text" : "bach.wrap",
					"textcolor" : [ 0.101961, 0.121569, 0.172549, 1.0 ]
				}

			}
, 			{
				"box" : 				{
					"bgcolor" : [ 1.0, 1.0, 1.0, 1.0 ],
					"color" : [ 0.494118, 0.556863, 0.607843, 1.0 ],
					"fontface" : 0,
					"fontname" : "Arial",
					"fontsize" : 9.0,
					"id" : "obj-6",
					"maxclass" : "newobj",
					"numinlets" : 3,
					"numoutlets" : 4,
					"outlettype" : [ "", "", "", "bang" ],
					"patching_rect" : [ 140.0, 443.333313, 236.0, 19.0 ],
					"style" : "",
					"text" : "bach.portal 3",
					"textcolor" : [ 0.101961, 0.121569, 0.172549, 1.0 ]
				}

			}
, 			{
				"box" : 				{
					"fontface" : 0,
					"fontname" : "Arial",
					"fontsize" : 9.0,
					"id" : "obj-8",
					"maxclass" : "comment",
					"numinlets" : 1,
					"numoutlets" : 0,
					"patching_rect" : [ 577.0, 103.666687, 36.0, 17.0 ],
					"style" : "",
					"text" : "tempo",
					"textcolor" : [ 0.101961, 0.121569, 0.172549, 1.0 ]
				}

			}
, 			{
				"box" : 				{
					"fontface" : 0,
					"fontname" : "Arial",
					"fontsize" : 9.0,
					"id" : "obj-7",
					"linecount" : 2,
					"maxclass" : "comment",
					"numinlets" : 1,
					"numoutlets" : 0,
					"patching_rect" : [ 503.0, 103.666687, 32.0, 27.0 ],
					"style" : "",
					"text" : "note value",
					"textcolor" : [ 0.101961, 0.121569, 0.172549, 1.0 ]
				}

			}
, 			{
				"box" : 				{
					"comment" : "",
					"id" : "obj-5",
					"maxclass" : "inlet",
					"numinlets" : 0,
					"numoutlets" : 1,
					"outlettype" : [ "" ],
					"patching_rect" : [ 488.0, 103.666687, 15.0, 15.0 ],
					"style" : ""
				}

			}
, 			{
				"box" : 				{
					"comment" : "",
					"id" : "obj-2",
					"maxclass" : "inlet",
					"numinlets" : 0,
					"numoutlets" : 1,
					"outlettype" : [ "" ],
					"patching_rect" : [ 562.0, 103.666687, 15.0, 15.0 ],
					"style" : ""
				}

			}
, 			{
				"box" : 				{
					"bgcolor" : [ 1.0, 1.0, 1.0, 1.0 ],
					"color" : [ 0.494118, 0.556863, 0.607843, 1.0 ],
					"fontface" : 0,
					"fontname" : "Arial",
					"fontsize" : 9.0,
					"id" : "obj-28",
					"maxclass" : "newobj",
					"numinlets" : 1,
					"numoutlets" : 1,
					"outlettype" : [ "" ],
					"patcher" : 					{
						"fileversion" : 1,
						"appversion" : 						{
							"major" : 7,
							"minor" : 0,
							"revision" : 3,
							"architecture" : "x86",
							"modernui" : 1
						}
,
						"rect" : [ 25.0, 69.0, 195.0, 248.0 ],
						"bgcolor" : [ 0.666667, 0.698039, 0.717647, 1.0 ],
						"bglocked" : 0,
						"openinpresentation" : 0,
						"default_fontsize" : 9.0,
						"default_fontface" : 0,
						"default_fontname" : "Arial",
						"gridonopen" : 1,
						"gridsize" : [ 15.0, 15.0 ],
						"gridsnaponopen" : 1,
						"objectsnaponopen" : 1,
						"statusbarvisible" : 0,
						"toolbarvisible" : 0,
						"lefttoolbarpinned" : 0,
						"toptoolbarpinned" : 0,
						"righttoolbarpinned" : 0,
						"bottomtoolbarpinned" : 0,
						"toolbars_unpinned_last_save" : 0,
						"tallnewobj" : 0,
						"boxanimatetime" : 0,
						"enablehscroll" : 1,
						"enablevscroll" : 1,
						"devicewidth" : 0.0,
						"description" : "",
						"digest" : "",
						"tags" : "",
						"style" : "",
						"subpatcher_template" : "",
						"boxes" : [ 							{
								"box" : 								{
									"bgcolor" : [ 1.0, 1.0, 1.0, 1.0 ],
									"color" : [ 0.494118, 0.556863, 0.607843, 1.0 ],
									"fontface" : 0,
									"fontname" : "Arial",
									"fontsize" : 9.0,
									"id" : "obj-25",
									"maxclass" : "newobj",
									"numinlets" : 1,
									"numoutlets" : 1,
									"outlettype" : [ "" ],
									"patching_rect" : [ 24.0, 177.0, 55.0, 17.0 ],
									"style" : "",
									"text" : "bach.wrap",
									"textcolor" : [ 0.101961, 0.121569, 0.172549, 1.0 ]
								}

							}
, 							{
								"box" : 								{
									"bgcolor" : [ 1.0, 1.0, 1.0, 1.0 ],
									"color" : [ 0.494118, 0.556863, 0.607843, 1.0 ],
									"fontface" : 0,
									"fontname" : "Arial",
									"fontsize" : 9.0,
									"id" : "obj-20",
									"maxclass" : "newobj",
									"numinlets" : 2,
									"numoutlets" : 2,
									"outlettype" : [ "", "" ],
									"patching_rect" : [ 24.0, 151.0, 53.0, 17.0 ],
									"style" : "",
									"text" : "gate 2",
									"textcolor" : [ 0.101961, 0.121569, 0.172549, 1.0 ]
								}

							}
, 							{
								"box" : 								{
									"bgcolor" : [ 1.0, 1.0, 1.0, 1.0 ],
									"color" : [ 0.494118, 0.556863, 0.607843, 1.0 ],
									"fontface" : 0,
									"fontname" : "Arial",
									"fontsize" : 9.0,
									"id" : "obj-19",
									"maxclass" : "newobj",
									"numinlets" : 2,
									"numoutlets" : 1,
									"outlettype" : [ "int" ],
									"patching_rect" : [ 24.0, 128.0, 32.5, 17.0 ],
									"style" : "",
									"text" : "+ 1",
									"textcolor" : [ 0.101961, 0.121569, 0.172549, 1.0 ]
								}

							}
, 							{
								"box" : 								{
									"bgcolor" : [ 1.0, 1.0, 1.0, 1.0 ],
									"color" : [ 0.494118, 0.556863, 0.607843, 1.0 ],
									"fontface" : 0,
									"fontname" : "Arial",
									"fontsize" : 9.0,
									"id" : "obj-12",
									"maxclass" : "newobj",
									"numinlets" : 2,
									"numoutlets" : 1,
									"outlettype" : [ "int" ],
									"patching_rect" : [ 24.0, 106.0, 32.5, 17.0 ],
									"style" : "",
									"text" : "> 1",
									"textcolor" : [ 0.101961, 0.121569, 0.172549, 1.0 ]
								}

							}
, 							{
								"box" : 								{
									"bgcolor" : [ 1.0, 1.0, 1.0, 1.0 ],
									"color" : [ 0.494118, 0.556863, 0.607843, 1.0 ],
									"fontface" : 0,
									"fontname" : "Arial",
									"fontsize" : 9.0,
									"id" : "obj-9",
									"linecount" : 2,
									"maxclass" : "newobj",
									"numinlets" : 1,
									"numoutlets" : 1,
									"outlettype" : [ "int" ],
									"patching_rect" : [ 105.0, 68.0, 59.0, 27.0 ],
									"style" : "",
									"text" : "bach.depth #out t",
									"textcolor" : [ 0.101961, 0.121569, 0.172549, 1.0 ]
								}

							}
, 							{
								"box" : 								{
									"bgcolor" : [ 1.0, 1.0, 1.0, 1.0 ],
									"color" : [ 0.494118, 0.556863, 0.607843, 1.0 ],
									"fontface" : 0,
									"fontname" : "Arial",
									"fontsize" : 9.0,
									"id" : "obj-8",
									"maxclass" : "newobj",
									"numinlets" : 1,
									"numoutlets" : 2,
									"outlettype" : [ "", "" ],
									"patching_rect" : [ 58.0, 43.0, 66.0, 17.0 ],
									"style" : "",
									"text" : "t l l",
									"textcolor" : [ 0.101961, 0.121569, 0.172549, 1.0 ]
								}

							}
, 							{
								"box" : 								{
									"comment" : "",
									"id" : "obj-26",
									"maxclass" : "inlet",
									"numinlets" : 0,
									"numoutlets" : 1,
									"outlettype" : [ "" ],
									"patching_rect" : [ 58.0, 13.0, 17.0, 17.0 ],
									"style" : ""
								}

							}
, 							{
								"box" : 								{
									"comment" : "",
									"id" : "obj-27",
									"maxclass" : "outlet",
									"numinlets" : 1,
									"numoutlets" : 0,
									"patching_rect" : [ 24.0, 205.0, 17.0, 17.0 ],
									"style" : ""
								}

							}
 ],
						"lines" : [ 							{
								"patchline" : 								{
									"color" : [ 0.101961, 0.121569, 0.172549, 1.0 ],
									"destination" : [ "obj-19", 0 ],
									"disabled" : 0,
									"hidden" : 0,
									"source" : [ "obj-12", 0 ]
								}

							}
, 							{
								"patchline" : 								{
									"color" : [ 0.101961, 0.121569, 0.172549, 1.0 ],
									"destination" : [ "obj-20", 0 ],
									"disabled" : 0,
									"hidden" : 0,
									"source" : [ "obj-19", 0 ]
								}

							}
, 							{
								"patchline" : 								{
									"color" : [ 0.101961, 0.121569, 0.172549, 1.0 ],
									"destination" : [ "obj-25", 0 ],
									"disabled" : 0,
									"hidden" : 0,
									"source" : [ "obj-20", 0 ]
								}

							}
, 							{
								"patchline" : 								{
									"color" : [ 0.101961, 0.121569, 0.172549, 1.0 ],
									"destination" : [ "obj-27", 0 ],
									"disabled" : 0,
									"hidden" : 0,
									"source" : [ "obj-20", 1 ]
								}

							}
, 							{
								"patchline" : 								{
									"color" : [ 0.101961, 0.121569, 0.172549, 1.0 ],
									"destination" : [ "obj-27", 0 ],
									"disabled" : 0,
									"hidden" : 0,
									"source" : [ "obj-25", 0 ]
								}

							}
, 							{
								"patchline" : 								{
									"color" : [ 0.101961, 0.121569, 0.172549, 1.0 ],
									"destination" : [ "obj-8", 0 ],
									"disabled" : 0,
									"hidden" : 0,
									"source" : [ "obj-26", 0 ]
								}

							}
, 							{
								"patchline" : 								{
									"color" : [ 0.101961, 0.121569, 0.172549, 1.0 ],
									"destination" : [ "obj-20", 1 ],
									"disabled" : 0,
									"hidden" : 0,
									"source" : [ "obj-8", 0 ]
								}

							}
, 							{
								"patchline" : 								{
									"color" : [ 0.101961, 0.121569, 0.172549, 1.0 ],
									"destination" : [ "obj-9", 0 ],
									"disabled" : 0,
									"hidden" : 0,
									"source" : [ "obj-8", 1 ]
								}

							}
, 							{
								"patchline" : 								{
									"color" : [ 0.101961, 0.121569, 0.172549, 1.0 ],
									"destination" : [ "obj-12", 0 ],
									"disabled" : 0,
									"hidden" : 0,
									"source" : [ "obj-9", 0 ]
								}

							}
 ]
					}
,
					"patching_rect" : [ 529.0, 253.0, 43.0, 19.0 ],
					"saved_object_attributes" : 					{
						"description" : "",
						"digest" : "",
						"fontsize" : 9.0,
						"globalpatchername" : "",
						"style" : "",
						"tags" : ""
					}
,
					"style" : "",
					"text" : "p tempo",
					"textcolor" : [ 0.101961, 0.121569, 0.172549, 1.0 ]
				}

			}
, 			{
				"box" : 				{
					"bgcolor" : [ 1.0, 1.0, 1.0, 1.0 ],
					"color" : [ 0.494118, 0.556863, 0.607843, 1.0 ],
					"fontface" : 0,
					"fontname" : "Arial",
					"fontsize" : 9.0,
					"id" : "obj-4",
					"maxclass" : "newobj",
					"numinlets" : 2,
					"numoutlets" : 1,
					"outlettype" : [ "" ],
					"patching_rect" : [ 160.0, 309.666626, 388.0, 19.0 ],
					"style" : "",
					"text" : "bach.append",
					"textcolor" : [ 0.101961, 0.121569, 0.172549, 1.0 ]
				}

			}
, 			{
				"box" : 				{
					"bgcolor" : [ 1.0, 1.0, 1.0, 1.0 ],
					"color" : [ 0.494118, 0.556863, 0.607843, 1.0 ],
					"fontface" : 0,
					"fontname" : "Arial",
					"fontsize" : 9.0,
					"id" : "obj-14",
					"maxclass" : "newobj",
					"numinlets" : 0,
					"numoutlets" : 1,
					"outlettype" : [ "" ],
					"patching_rect" : [ 529.0, 219.666687, 70.0, 19.0 ],
					"style" : "",
					"text" : "r #0tempo",
					"textcolor" : [ 0.101961, 0.121569, 0.172549, 1.0 ]
				}

			}
, 			{
				"box" : 				{
					"bgcolor" : [ 1.0, 1.0, 1.0, 1.0 ],
					"color" : [ 0.494118, 0.556863, 0.607843, 1.0 ],
					"fontface" : 0,
					"fontname" : "Arial",
					"fontsize" : 9.0,
					"id" : "obj-16",
					"maxclass" : "newobj",
					"numinlets" : 2,
					"numoutlets" : 3,
					"outlettype" : [ "int", "", "" ],
					"patcher" : 					{
						"fileversion" : 1,
						"appversion" : 						{
							"major" : 7,
							"minor" : 0,
							"revision" : 3,
							"architecture" : "x86",
							"modernui" : 1
						}
,
						"rect" : [ 538.0, 240.0, 793.0, 475.0 ],
						"bgcolor" : [ 0.666667, 0.698039, 0.717647, 1.0 ],
						"bglocked" : 0,
						"openinpresentation" : 0,
						"default_fontsize" : 9.0,
						"default_fontface" : 0,
						"default_fontname" : "Arial",
						"gridonopen" : 1,
						"gridsize" : [ 15.0, 15.0 ],
						"gridsnaponopen" : 1,
						"objectsnaponopen" : 1,
						"statusbarvisible" : 0,
						"toolbarvisible" : 0,
						"lefttoolbarpinned" : 0,
						"toptoolbarpinned" : 0,
						"righttoolbarpinned" : 0,
						"bottomtoolbarpinned" : 0,
						"toolbars_unpinned_last_save" : 0,
						"tallnewobj" : 0,
						"boxanimatetime" : 0,
						"enablehscroll" : 1,
						"enablevscroll" : 1,
						"devicewidth" : 0.0,
						"description" : "",
						"digest" : "",
						"tags" : "",
						"style" : "",
						"subpatcher_template" : "",
						"boxes" : [ 							{
								"box" : 								{
									"bgcolor" : [ 1.0, 1.0, 1.0, 1.0 ],
									"color" : [ 0.494118, 0.556863, 0.607843, 1.0 ],
									"fontface" : 0,
									"fontname" : "Arial",
									"fontsize" : 9.0,
									"id" : "obj-24",
									"maxclass" : "newobj",
									"numinlets" : 2,
									"numoutlets" : 1,
									"outlettype" : [ "int" ],
									"patching_rect" : [ 679.25, 284.0, 29.5, 19.0 ],
									"style" : "",
									"text" : "+ 1",
									"textcolor" : [ 0.101961, 0.121569, 0.172549, 1.0 ]
								}

							}
, 							{
								"box" : 								{
									"comment" : "",
									"id" : "obj-23",
									"maxclass" : "outlet",
									"numinlets" : 1,
									"numoutlets" : 0,
									"patching_rect" : [ 237.25, 437.0, 18.0, 18.0 ],
									"style" : ""
								}

							}
, 							{
								"box" : 								{
									"bgcolor" : [ 0.568627, 0.619608, 0.662745, 1.0 ],
									"bgfillcolor_angle" : 270.0,
									"bgfillcolor_autogradient" : 0.79,
									"bgfillcolor_color" : [ 0.290196, 0.309804, 0.301961, 1.0 ],
									"bgfillcolor_color1" : [ 0.568627, 0.619608, 0.662745, 1.0 ],
									"bgfillcolor_color2" : [ 0.568627, 0.619608, 0.662745, 1.0 ],
									"bgfillcolor_proportion" : 0.39,
									"bgfillcolor_type" : "gradient",
									"fontface" : 0,
									"fontname" : "Arial",
									"fontsize" : 9.0,
									"gradient" : 0,
									"id" : "obj-17",
									"maxclass" : "message",
									"numinlets" : 2,
									"numoutlets" : 1,
									"outlettype" : [ "" ],
									"patching_rect" : [ 276.333344, 221.0, 16.0, 19.0 ],
									"style" : "",
									"text" : "6",
									"textcolor" : [ 0.101961, 0.121569, 0.172549, 1.0 ]
								}

							}
, 							{
								"box" : 								{
									"comment" : "",
									"id" : "obj-6",
									"maxclass" : "inlet",
									"numinlets" : 0,
									"numoutlets" : 1,
									"outlettype" : [ "" ],
									"patching_rect" : [ 508.25, 10.0, 20.0, 20.0 ],
									"style" : ""
								}

							}
, 							{
								"box" : 								{
									"bgcolor" : [ 1.0, 1.0, 1.0, 1.0 ],
									"color" : [ 0.494118, 0.556863, 0.607843, 1.0 ],
									"fontface" : 0,
									"fontname" : "Arial",
									"fontsize" : 9.0,
									"id" : "obj-49",
									"maxclass" : "newobj",
									"numinlets" : 1,
									"numoutlets" : 3,
									"outlettype" : [ "", "bang", "int" ],
									"patching_rect" : [ 28.0, 43.0, 724.0, 19.0 ],
									"style" : "",
									"text" : "t l b 1",
									"textcolor" : [ 0.101961, 0.121569, 0.172549, 1.0 ]
								}

							}
, 							{
								"box" : 								{
									"bgcolor" : [ 1.0, 1.0, 1.0, 1.0 ],
									"color" : [ 0.494118, 0.556863, 0.607843, 1.0 ],
									"fontface" : 0,
									"fontname" : "Arial",
									"fontsize" : 9.0,
									"id" : "obj-56",
									"maxclass" : "newobj",
									"numinlets" : 2,
									"numoutlets" : 2,
									"outlettype" : [ "bang", "bang" ],
									"patching_rect" : [ 380.5, 67.333344, 53.0, 19.0 ],
									"style" : "",
									"text" : "onebang 1",
									"textcolor" : [ 0.101961, 0.121569, 0.172549, 1.0 ]
								}

							}
, 							{
								"box" : 								{
									"bgcolor" : [ 0.568627, 0.619608, 0.662745, 1.0 ],
									"bgfillcolor_angle" : 270.0,
									"bgfillcolor_autogradient" : 0.79,
									"bgfillcolor_color" : [ 0.290196, 0.309804, 0.301961, 1.0 ],
									"bgfillcolor_color1" : [ 0.568627, 0.619608, 0.662745, 1.0 ],
									"bgfillcolor_color2" : [ 0.568627, 0.619608, 0.662745, 1.0 ],
									"bgfillcolor_proportion" : 0.39,
									"bgfillcolor_type" : "gradient",
									"fontface" : 0,
									"fontname" : "Arial",
									"fontsize" : 9.0,
									"gradient" : 0,
									"id" : "obj-3",
									"maxclass" : "message",
									"numinlets" : 2,
									"numoutlets" : 1,
									"outlettype" : [ "" ],
									"patching_rect" : [ 380.5, 92.666664, 21.5, 19.0 ],
									"style" : "",
									"text" : "60",
									"textcolor" : [ 0.101961, 0.121569, 0.172549, 1.0 ]
								}

							}
, 							{
								"box" : 								{
									"bgcolor" : [ 1.0, 1.0, 1.0, 1.0 ],
									"color" : [ 0.494118, 0.556863, 0.607843, 1.0 ],
									"fontface" : 0,
									"fontname" : "Arial",
									"fontsize" : 9.0,
									"id" : "obj-18",
									"maxclass" : "newobj",
									"numinlets" : 2,
									"numoutlets" : 2,
									"outlettype" : [ "", "" ],
									"patching_rect" : [ 63.0, 92.666664, 32.0, 19.0 ],
									"style" : "",
									"text" : "zl rev",
									"textcolor" : [ 0.101961, 0.121569, 0.172549, 1.0 ]
								}

							}
, 							{
								"box" : 								{
									"bgcolor" : [ 1.0, 1.0, 1.0, 1.0 ],
									"color" : [ 0.494118, 0.556863, 0.607843, 1.0 ],
									"fontface" : 0,
									"fontname" : "Arial",
									"fontsize" : 9.0,
									"id" : "obj-20",
									"maxclass" : "newobj",
									"numinlets" : 2,
									"numoutlets" : 2,
									"outlettype" : [ "", "" ],
									"patching_rect" : [ 28.0, 67.333344, 54.0, 19.0 ],
									"style" : "",
									"text" : "route done",
									"textcolor" : [ 0.101961, 0.121569, 0.172549, 1.0 ]
								}

							}
, 							{
								"box" : 								{
									"comment" : "",
									"id" : "obj-30",
									"maxclass" : "inlet",
									"numinlets" : 0,
									"numoutlets" : 1,
									"outlettype" : [ "" ],
									"patching_rect" : [ 28.0, 10.0, 20.0, 20.0 ],
									"style" : ""
								}

							}
, 							{
								"box" : 								{
									"bgcolor" : [ 0.568627, 0.619608, 0.662745, 1.0 ],
									"bgfillcolor_angle" : 270.0,
									"bgfillcolor_autogradient" : 0.79,
									"bgfillcolor_color" : [ 0.290196, 0.309804, 0.301961, 1.0 ],
									"bgfillcolor_color1" : [ 0.568627, 0.619608, 0.662745, 1.0 ],
									"bgfillcolor_color2" : [ 0.568627, 0.619608, 0.662745, 1.0 ],
									"bgfillcolor_proportion" : 0.39,
									"bgfillcolor_type" : "gradient",
									"fontface" : 0,
									"fontname" : "Arial",
									"fontsize" : 9.0,
									"gradient" : 0,
									"id" : "obj-22",
									"maxclass" : "message",
									"numinlets" : 2,
									"numoutlets" : 1,
									"outlettype" : [ "" ],
									"patching_rect" : [ 632.0, 308.0, 16.0, 19.0 ],
									"style" : "",
									"text" : "2",
									"textcolor" : [ 0.101961, 0.121569, 0.172549, 1.0 ]
								}

							}
, 							{
								"box" : 								{
									"bgcolor" : [ 0.568627, 0.619608, 0.662745, 1.0 ],
									"bgfillcolor_angle" : 270.0,
									"bgfillcolor_autogradient" : 0.79,
									"bgfillcolor_color" : [ 0.290196, 0.309804, 0.301961, 1.0 ],
									"bgfillcolor_color1" : [ 0.568627, 0.619608, 0.662745, 1.0 ],
									"bgfillcolor_color2" : [ 0.568627, 0.619608, 0.662745, 1.0 ],
									"bgfillcolor_proportion" : 0.39,
									"bgfillcolor_type" : "gradient",
									"fontface" : 0,
									"fontname" : "Arial",
									"fontsize" : 9.0,
									"gradient" : 0,
									"id" : "obj-21",
									"maxclass" : "message",
									"numinlets" : 2,
									"numoutlets" : 1,
									"outlettype" : [ "" ],
									"patching_rect" : [ 608.0, 308.0, 16.0, 19.0 ],
									"style" : "",
									"text" : "1",
									"textcolor" : [ 0.101961, 0.121569, 0.172549, 1.0 ]
								}

							}
, 							{
								"box" : 								{
									"bgcolor" : [ 1.0, 1.0, 1.0, 1.0 ],
									"color" : [ 0.494118, 0.556863, 0.607843, 1.0 ],
									"fontface" : 0,
									"fontname" : "Arial",
									"fontsize" : 9.0,
									"id" : "obj-19",
									"maxclass" : "newobj",
									"numinlets" : 3,
									"numoutlets" : 3,
									"outlettype" : [ "bang", "bang", "" ],
									"patching_rect" : [ 605.0, 284.0, 66.0, 19.0 ],
									"style" : "",
									"text" : "sel mono poly",
									"textcolor" : [ 0.101961, 0.121569, 0.172549, 1.0 ]
								}

							}
, 							{
								"box" : 								{
									"comment" : "",
									"id" : "obj-12",
									"maxclass" : "outlet",
									"numinlets" : 1,
									"numoutlets" : 0,
									"patching_rect" : [ 608.0, 369.0, 18.0, 18.0 ],
									"style" : ""
								}

							}
, 							{
								"box" : 								{
									"bgcolor" : [ 0.568627, 0.619608, 0.662745, 1.0 ],
									"bgfillcolor_angle" : 270.0,
									"bgfillcolor_autogradient" : 0.79,
									"bgfillcolor_color" : [ 0.290196, 0.309804, 0.301961, 1.0 ],
									"bgfillcolor_color1" : [ 0.568627, 0.619608, 0.662745, 1.0 ],
									"bgfillcolor_color2" : [ 0.568627, 0.619608, 0.662745, 1.0 ],
									"bgfillcolor_proportion" : 0.39,
									"bgfillcolor_type" : "gradient",
									"fontface" : 0,
									"fontname" : "Arial",
									"fontsize" : 9.0,
									"gradient" : 0,
									"id" : "obj-4",
									"maxclass" : "message",
									"numinlets" : 2,
									"numoutlets" : 1,
									"outlettype" : [ "" ],
									"patching_rect" : [ 244.0, 221.0, 16.0, 19.0 ],
									"style" : "",
									"text" : "5",
									"textcolor" : [ 0.101961, 0.121569, 0.172549, 1.0 ]
								}

							}
, 							{
								"box" : 								{
									"bgcolor" : [ 0.568627, 0.619608, 0.662745, 1.0 ],
									"bgfillcolor_angle" : 270.0,
									"bgfillcolor_autogradient" : 0.79,
									"bgfillcolor_color" : [ 0.290196, 0.309804, 0.301961, 1.0 ],
									"bgfillcolor_color1" : [ 0.568627, 0.619608, 0.662745, 1.0 ],
									"bgfillcolor_color2" : [ 0.568627, 0.619608, 0.662745, 1.0 ],
									"bgfillcolor_proportion" : 0.39,
									"bgfillcolor_type" : "gradient",
									"fontface" : 0,
									"fontname" : "Arial",
									"fontsize" : 9.0,
									"gradient" : 0,
									"id" : "obj-31",
									"maxclass" : "message",
									"numinlets" : 2,
									"numoutlets" : 1,
									"outlettype" : [ "" ],
									"patching_rect" : [ 308.0, 221.0, 16.0, 19.0 ],
									"style" : "",
									"text" : "0",
									"textcolor" : [ 0.101961, 0.121569, 0.172549, 1.0 ]
								}

							}
, 							{
								"box" : 								{
									"bgcolor" : [ 1.0, 1.0, 1.0, 1.0 ],
									"color" : [ 0.494118, 0.556863, 0.607843, 1.0 ],
									"fontface" : 0,
									"fontname" : "Arial",
									"fontsize" : 9.0,
									"id" : "obj-28",
									"linecount" : 2,
									"maxclass" : "newobj",
									"numinlets" : 1,
									"numoutlets" : 0,
									"patching_rect" : [ 457.0, 369.0, 59.0, 19.0 ],
									"style" : "",
									"text" : "s #0note",
									"textcolor" : [ 0.101961, 0.121569, 0.172549, 1.0 ]
								}

							}
, 							{
								"box" : 								{
									"bgcolor" : [ 1.0, 1.0, 1.0, 1.0 ],
									"color" : [ 0.494118, 0.556863, 0.607843, 1.0 ],
									"fontface" : 0,
									"fontname" : "Arial",
									"fontsize" : 9.0,
									"id" : "obj-27",
									"maxclass" : "newobj",
									"numinlets" : 2,
									"numoutlets" : 1,
									"outlettype" : [ "int" ],
									"patching_rect" : [ 457.0, 336.0, 32.0, 19.0 ],
									"style" : "",
									"text" : "* 100",
									"textcolor" : [ 0.101961, 0.121569, 0.172549, 1.0 ]
								}

							}
, 							{
								"box" : 								{
									"bgcolor" : [ 1.0, 1.0, 1.0, 1.0 ],
									"color" : [ 0.494118, 0.556863, 0.607843, 1.0 ],
									"fontface" : 0,
									"fontname" : "Arial",
									"fontsize" : 9.0,
									"id" : "obj-25",
									"maxclass" : "newobj",
									"numinlets" : 3,
									"numoutlets" : 2,
									"outlettype" : [ "int", "int" ],
									"patching_rect" : [ 457.0, 308.0, 52.0, 19.0 ],
									"style" : "",
									"text" : "split 0 127",
									"textcolor" : [ 0.101961, 0.121569, 0.172549, 1.0 ]
								}

							}
, 							{
								"box" : 								{
									"bgcolor" : [ 1.0, 1.0, 1.0, 1.0 ],
									"color" : [ 0.494118, 0.556863, 0.607843, 1.0 ],
									"fontface" : 0,
									"fontname" : "Arial",
									"fontsize" : 9.0,
									"id" : "obj-13",
									"linecount" : 2,
									"maxclass" : "newobj",
									"numinlets" : 1,
									"numoutlets" : 0,
									"patching_rect" : [ 531.0, 369.0, 59.0, 19.0 ],
									"style" : "",
									"text" : "s #0beat",
									"textcolor" : [ 0.101961, 0.121569, 0.172549, 1.0 ]
								}

							}
, 							{
								"box" : 								{
									"bgcolor" : [ 0.568627, 0.619608, 0.662745, 1.0 ],
									"bgfillcolor_angle" : 270.0,
									"bgfillcolor_autogradient" : 0.79,
									"bgfillcolor_color" : [ 0.290196, 0.309804, 0.301961, 1.0 ],
									"bgfillcolor_color1" : [ 0.568627, 0.619608, 0.662745, 1.0 ],
									"bgfillcolor_color2" : [ 0.568627, 0.619608, 0.662745, 1.0 ],
									"bgfillcolor_proportion" : 0.39,
									"bgfillcolor_type" : "gradient",
									"fontface" : 0,
									"fontname" : "Arial",
									"fontsize" : 9.0,
									"gradient" : 0,
									"id" : "obj-10",
									"maxclass" : "message",
									"numinlets" : 2,
									"numoutlets" : 1,
									"outlettype" : [ "" ],
									"patching_rect" : [ 212.0, 221.0, 16.0, 19.0 ],
									"style" : "",
									"text" : "4",
									"textcolor" : [ 0.101961, 0.121569, 0.172549, 1.0 ]
								}

							}
, 							{
								"box" : 								{
									"bgcolor" : [ 0.568627, 0.619608, 0.662745, 1.0 ],
									"bgfillcolor_angle" : 270.0,
									"bgfillcolor_autogradient" : 0.79,
									"bgfillcolor_color" : [ 0.290196, 0.309804, 0.301961, 1.0 ],
									"bgfillcolor_color1" : [ 0.568627, 0.619608, 0.662745, 1.0 ],
									"bgfillcolor_color2" : [ 0.568627, 0.619608, 0.662745, 1.0 ],
									"bgfillcolor_proportion" : 0.39,
									"bgfillcolor_type" : "gradient",
									"fontface" : 0,
									"fontname" : "Arial",
									"fontsize" : 9.0,
									"gradient" : 0,
									"id" : "obj-8",
									"maxclass" : "message",
									"numinlets" : 2,
									"numoutlets" : 1,
									"outlettype" : [ "" ],
									"patching_rect" : [ 179.0, 221.0, 16.0, 19.0 ],
									"style" : "",
									"text" : "3",
									"textcolor" : [ 0.101961, 0.121569, 0.172549, 1.0 ]
								}

							}
, 							{
								"box" : 								{
									"bgcolor" : [ 1.0, 1.0, 1.0, 1.0 ],
									"color" : [ 0.494118, 0.556863, 0.607843, 1.0 ],
									"fontface" : 0,
									"fontname" : "Arial",
									"fontsize" : 9.0,
									"id" : "obj-7",
									"maxclass" : "newobj",
									"numinlets" : 2,
									"numoutlets" : 2,
									"outlettype" : [ "", "" ],
									"patching_rect" : [ 63.0, 116.666672, 40.0, 19.0 ],
									"style" : "",
									"text" : "zl iter 2",
									"textcolor" : [ 0.101961, 0.121569, 0.172549, 1.0 ]
								}

							}
, 							{
								"box" : 								{
									"bgcolor" : [ 1.0, 1.0, 1.0, 1.0 ],
									"color" : [ 0.494118, 0.556863, 0.607843, 1.0 ],
									"fontface" : 0,
									"fontname" : "Arial",
									"fontsize" : 9.0,
									"id" : "obj-5",
									"linecount" : 2,
									"maxclass" : "newobj",
									"numinlets" : 1,
									"numoutlets" : 0,
									"patching_rect" : [ 367.0, 369.0, 68.0, 19.0 ],
									"style" : "",
									"text" : "s #0tempo",
									"textcolor" : [ 0.101961, 0.121569, 0.172549, 1.0 ]
								}

							}
, 							{
								"box" : 								{
									"bgcolor" : [ 0.568627, 0.619608, 0.662745, 1.0 ],
									"bgfillcolor_angle" : 270.0,
									"bgfillcolor_autogradient" : 0.79,
									"bgfillcolor_color" : [ 0.290196, 0.309804, 0.301961, 1.0 ],
									"bgfillcolor_color1" : [ 0.568627, 0.619608, 0.662745, 1.0 ],
									"bgfillcolor_color2" : [ 0.568627, 0.619608, 0.662745, 1.0 ],
									"bgfillcolor_proportion" : 0.39,
									"bgfillcolor_type" : "gradient",
									"fontface" : 0,
									"fontname" : "Arial",
									"fontsize" : 9.0,
									"gradient" : 0,
									"id" : "obj-9",
									"maxclass" : "message",
									"numinlets" : 2,
									"numoutlets" : 1,
									"outlettype" : [ "" ],
									"patching_rect" : [ 308.0, 336.0, 36.0, 19.0 ],
									"style" : "",
									"text" : "out $1",
									"textcolor" : [ 0.101961, 0.121569, 0.172549, 1.0 ]
								}

							}
, 							{
								"box" : 								{
									"bgcolor" : [ 0.568627, 0.619608, 0.662745, 1.0 ],
									"bgfillcolor_angle" : 270.0,
									"bgfillcolor_autogradient" : 0.79,
									"bgfillcolor_color" : [ 0.290196, 0.309804, 0.301961, 1.0 ],
									"bgfillcolor_color1" : [ 0.568627, 0.619608, 0.662745, 1.0 ],
									"bgfillcolor_color2" : [ 0.568627, 0.619608, 0.662745, 1.0 ],
									"bgfillcolor_proportion" : 0.39,
									"bgfillcolor_type" : "gradient",
									"fontface" : 0,
									"fontname" : "Arial",
									"fontsize" : 9.0,
									"gradient" : 0,
									"id" : "obj-2",
									"maxclass" : "message",
									"numinlets" : 2,
									"numoutlets" : 1,
									"outlettype" : [ "" ],
									"patching_rect" : [ 147.0, 221.0, 16.0, 19.0 ],
									"style" : "",
									"text" : "2",
									"textcolor" : [ 0.101961, 0.121569, 0.172549, 1.0 ]
								}

							}
, 							{
								"box" : 								{
									"bgcolor" : [ 0.568627, 0.619608, 0.662745, 1.0 ],
									"bgfillcolor_angle" : 270.0,
									"bgfillcolor_autogradient" : 0.79,
									"bgfillcolor_color" : [ 0.290196, 0.309804, 0.301961, 1.0 ],
									"bgfillcolor_color1" : [ 0.568627, 0.619608, 0.662745, 1.0 ],
									"bgfillcolor_color2" : [ 0.568627, 0.619608, 0.662745, 1.0 ],
									"bgfillcolor_proportion" : 0.39,
									"bgfillcolor_type" : "gradient",
									"fontface" : 0,
									"fontname" : "Arial",
									"fontsize" : 9.0,
									"gradient" : 0,
									"id" : "obj-16",
									"maxclass" : "message",
									"numinlets" : 2,
									"numoutlets" : 1,
									"outlettype" : [ "" ],
									"patching_rect" : [ 115.0, 221.0, 16.0, 19.0 ],
									"style" : "",
									"text" : "1",
									"textcolor" : [ 0.101961, 0.121569, 0.172549, 1.0 ]
								}

							}
, 							{
								"box" : 								{
									"bgcolor" : [ 1.0, 1.0, 1.0, 1.0 ],
									"color" : [ 0.494118, 0.556863, 0.607843, 1.0 ],
									"fontface" : 0,
									"fontname" : "Arial",
									"fontsize" : 9.0,
									"id" : "obj-15",
									"maxclass" : "newobj",
									"numinlets" : 2,
									"numoutlets" : 6,
									"outlettype" : [ "", "", "", "", "", "" ],
									"patching_rect" : [ 308.0, 260.0, 390.25, 19.0 ],
									"style" : "",
									"text" : "gate 6",
									"textcolor" : [ 0.101961, 0.121569, 0.172549, 1.0 ]
								}

							}
, 							{
								"box" : 								{
									"bgcolor" : [ 1.0, 1.0, 1.0, 1.0 ],
									"color" : [ 0.494118, 0.556863, 0.607843, 1.0 ],
									"fontface" : 0,
									"fontname" : "Arial",
									"fontsize" : 9.0,
									"id" : "obj-14",
									"maxclass" : "newobj",
									"numinlets" : 7,
									"numoutlets" : 7,
									"outlettype" : [ "bang", "bang", "bang", "bang", "bang", "bang", "" ],
									"patching_rect" : [ 112.0, 165.0, 212.0, 19.0 ],
									"style" : "",
									"text" : "sel out tempo pitch note voice change",
									"textcolor" : [ 0.101961, 0.121569, 0.172549, 1.0 ]
								}

							}
, 							{
								"box" : 								{
									"bgcolor" : [ 1.0, 1.0, 1.0, 1.0 ],
									"color" : [ 0.494118, 0.556863, 0.607843, 1.0 ],
									"fontface" : 0,
									"fontname" : "Arial",
									"fontsize" : 9.0,
									"id" : "obj-11",
									"maxclass" : "newobj",
									"numinlets" : 2,
									"numoutlets" : 2,
									"outlettype" : [ "", "" ],
									"patching_rect" : [ 63.0, 140.666672, 68.0, 19.0 ],
									"style" : "",
									"text" : "zl slice 1",
									"textcolor" : [ 0.101961, 0.121569, 0.172549, 1.0 ]
								}

							}
, 							{
								"box" : 								{
									"comment" : "",
									"id" : "obj-1",
									"maxclass" : "outlet",
									"numinlets" : 1,
									"numoutlets" : 0,
									"patching_rect" : [ 308.0, 369.0, 18.0, 18.0 ],
									"style" : ""
								}

							}
 ],
						"lines" : [ 							{
								"patchline" : 								{
									"color" : [ 1.0, 1.0, 1.0, 1.0 ],
									"destination" : [ "obj-15", 0 ],
									"disabled" : 0,
									"hidden" : 0,
									"source" : [ "obj-10", 0 ]
								}

							}
, 							{
								"patchline" : 								{
									"color" : [ 0.101961, 0.121569, 0.172549, 1.0 ],
									"destination" : [ "obj-14", 0 ],
									"disabled" : 0,
									"hidden" : 0,
									"source" : [ "obj-11", 1 ]
								}

							}
, 							{
								"patchline" : 								{
									"color" : [ 0.101961, 0.121569, 0.172549, 1.0 ],
									"destination" : [ "obj-15", 1 ],
									"disabled" : 0,
									"hidden" : 0,
									"source" : [ "obj-11", 0 ]
								}

							}
, 							{
								"patchline" : 								{
									"color" : [ 0.101961, 0.121569, 0.172549, 1.0 ],
									"destination" : [ "obj-10", 0 ],
									"disabled" : 0,
									"hidden" : 0,
									"source" : [ "obj-14", 3 ]
								}

							}
, 							{
								"patchline" : 								{
									"color" : [ 0.101961, 0.121569, 0.172549, 1.0 ],
									"destination" : [ "obj-16", 0 ],
									"disabled" : 0,
									"hidden" : 0,
									"source" : [ "obj-14", 0 ]
								}

							}
, 							{
								"patchline" : 								{
									"color" : [ 0.0, 0.0, 0.0, 1.0 ],
									"destination" : [ "obj-17", 0 ],
									"disabled" : 0,
									"hidden" : 0,
									"source" : [ "obj-14", 5 ]
								}

							}
, 							{
								"patchline" : 								{
									"color" : [ 0.101961, 0.121569, 0.172549, 1.0 ],
									"destination" : [ "obj-2", 0 ],
									"disabled" : 0,
									"hidden" : 0,
									"source" : [ "obj-14", 1 ]
								}

							}
, 							{
								"patchline" : 								{
									"color" : [ 0.101961, 0.121569, 0.172549, 1.0 ],
									"destination" : [ "obj-31", 0 ],
									"disabled" : 0,
									"hidden" : 0,
									"source" : [ "obj-14", 6 ]
								}

							}
, 							{
								"patchline" : 								{
									"color" : [ 0.101961, 0.121569, 0.172549, 1.0 ],
									"destination" : [ "obj-4", 0 ],
									"disabled" : 0,
									"hidden" : 0,
									"source" : [ "obj-14", 4 ]
								}

							}
, 							{
								"patchline" : 								{
									"color" : [ 0.101961, 0.121569, 0.172549, 1.0 ],
									"destination" : [ "obj-8", 0 ],
									"disabled" : 0,
									"hidden" : 0,
									"source" : [ "obj-14", 2 ]
								}

							}
, 							{
								"patchline" : 								{
									"color" : [ 0.101961, 0.121569, 0.172549, 1.0 ],
									"destination" : [ "obj-13", 0 ],
									"disabled" : 0,
									"hidden" : 0,
									"source" : [ "obj-15", 3 ]
								}

							}
, 							{
								"patchline" : 								{
									"color" : [ 0.101961, 0.121569, 0.172549, 1.0 ],
									"destination" : [ "obj-19", 0 ],
									"disabled" : 0,
									"hidden" : 0,
									"source" : [ "obj-15", 4 ]
								}

							}
, 							{
								"patchline" : 								{
									"destination" : [ "obj-24", 0 ],
									"disabled" : 0,
									"hidden" : 0,
									"source" : [ "obj-15", 5 ]
								}

							}
, 							{
								"patchline" : 								{
									"color" : [ 0.101961, 0.121569, 0.172549, 1.0 ],
									"destination" : [ "obj-25", 0 ],
									"disabled" : 0,
									"hidden" : 0,
									"source" : [ "obj-15", 2 ]
								}

							}
, 							{
								"patchline" : 								{
									"color" : [ 0.101961, 0.121569, 0.172549, 1.0 ],
									"destination" : [ "obj-5", 0 ],
									"disabled" : 0,
									"hidden" : 0,
									"source" : [ "obj-15", 1 ]
								}

							}
, 							{
								"patchline" : 								{
									"color" : [ 0.101961, 0.121569, 0.172549, 1.0 ],
									"destination" : [ "obj-9", 0 ],
									"disabled" : 0,
									"hidden" : 0,
									"source" : [ "obj-15", 0 ]
								}

							}
, 							{
								"patchline" : 								{
									"color" : [ 1.0, 1.0, 1.0, 1.0 ],
									"destination" : [ "obj-15", 0 ],
									"disabled" : 0,
									"hidden" : 0,
									"source" : [ "obj-16", 0 ]
								}

							}
, 							{
								"patchline" : 								{
									"color" : [ 1.0, 1.0, 1.0, 1.0 ],
									"destination" : [ "obj-15", 0 ],
									"disabled" : 0,
									"hidden" : 0,
									"source" : [ "obj-17", 0 ]
								}

							}
, 							{
								"patchline" : 								{
									"color" : [ 0.101961, 0.121569, 0.172549, 1.0 ],
									"destination" : [ "obj-7", 0 ],
									"disabled" : 0,
									"hidden" : 0,
									"source" : [ "obj-18", 0 ]
								}

							}
, 							{
								"patchline" : 								{
									"color" : [ 0.101961, 0.121569, 0.172549, 1.0 ],
									"destination" : [ "obj-21", 0 ],
									"disabled" : 0,
									"hidden" : 0,
									"source" : [ "obj-19", 0 ]
								}

							}
, 							{
								"patchline" : 								{
									"color" : [ 0.101961, 0.121569, 0.172549, 1.0 ],
									"destination" : [ "obj-22", 0 ],
									"disabled" : 0,
									"hidden" : 0,
									"source" : [ "obj-19", 1 ]
								}

							}
, 							{
								"patchline" : 								{
									"color" : [ 1.0, 1.0, 1.0, 1.0 ],
									"destination" : [ "obj-15", 0 ],
									"disabled" : 0,
									"hidden" : 0,
									"source" : [ "obj-2", 0 ]
								}

							}
, 							{
								"patchline" : 								{
									"color" : [ 0.101961, 0.121569, 0.172549, 1.0 ],
									"destination" : [ "obj-18", 0 ],
									"disabled" : 0,
									"hidden" : 0,
									"source" : [ "obj-20", 1 ]
								}

							}
, 							{
								"patchline" : 								{
									"color" : [ 0.101961, 0.121569, 0.172549, 1.0 ],
									"destination" : [ "obj-12", 0 ],
									"disabled" : 0,
									"hidden" : 0,
									"source" : [ "obj-21", 0 ]
								}

							}
, 							{
								"patchline" : 								{
									"color" : [ 0.101961, 0.121569, 0.172549, 1.0 ],
									"destination" : [ "obj-12", 0 ],
									"disabled" : 0,
									"hidden" : 0,
									"source" : [ "obj-22", 0 ]
								}

							}
, 							{
								"patchline" : 								{
									"color" : [ 0.0, 0.0, 0.0, 1.0 ],
									"destination" : [ "obj-23", 0 ],
									"disabled" : 0,
									"hidden" : 0,
									"midpoints" : [ 688.75, 407.5, 246.75, 407.5 ],
									"source" : [ "obj-24", 0 ]
								}

							}
, 							{
								"patchline" : 								{
									"color" : [ 0.101961, 0.121569, 0.172549, 1.0 ],
									"destination" : [ "obj-27", 0 ],
									"disabled" : 0,
									"hidden" : 0,
									"source" : [ "obj-25", 0 ]
								}

							}
, 							{
								"patchline" : 								{
									"color" : [ 0.101961, 0.121569, 0.172549, 1.0 ],
									"destination" : [ "obj-28", 0 ],
									"disabled" : 0,
									"hidden" : 0,
									"source" : [ "obj-25", 1 ]
								}

							}
, 							{
								"patchline" : 								{
									"color" : [ 0.101961, 0.121569, 0.172549, 1.0 ],
									"destination" : [ "obj-28", 0 ],
									"disabled" : 0,
									"hidden" : 0,
									"source" : [ "obj-27", 0 ]
								}

							}
, 							{
								"patchline" : 								{
									"color" : [ 0.101961, 0.121569, 0.172549, 1.0 ],
									"destination" : [ "obj-5", 0 ],
									"disabled" : 0,
									"hidden" : 0,
									"source" : [ "obj-3", 0 ]
								}

							}
, 							{
								"patchline" : 								{
									"color" : [ 0.101961, 0.121569, 0.172549, 1.0 ],
									"destination" : [ "obj-49", 0 ],
									"disabled" : 0,
									"hidden" : 0,
									"source" : [ "obj-30", 0 ]
								}

							}
, 							{
								"patchline" : 								{
									"color" : [ 1.0, 1.0, 1.0, 1.0 ],
									"destination" : [ "obj-15", 0 ],
									"disabled" : 0,
									"hidden" : 0,
									"source" : [ "obj-31", 0 ]
								}

							}
, 							{
								"patchline" : 								{
									"color" : [ 1.0, 1.0, 1.0, 1.0 ],
									"destination" : [ "obj-15", 0 ],
									"disabled" : 0,
									"hidden" : 0,
									"source" : [ "obj-4", 0 ]
								}

							}
, 							{
								"patchline" : 								{
									"color" : [ 0.101961, 0.121569, 0.172549, 1.0 ],
									"destination" : [ "obj-20", 0 ],
									"disabled" : 0,
									"hidden" : 0,
									"source" : [ "obj-49", 0 ]
								}

							}
, 							{
								"patchline" : 								{
									"color" : [ 0.0, 0.0, 0.0, 1.0 ],
									"destination" : [ "obj-23", 0 ],
									"disabled" : 0,
									"hidden" : 0,
									"midpoints" : [ 742.5, 407.0, 246.75, 407.0 ],
									"source" : [ "obj-49", 2 ]
								}

							}
, 							{
								"patchline" : 								{
									"color" : [ 0.101961, 0.121569, 0.172549, 1.0 ],
									"destination" : [ "obj-56", 0 ],
									"disabled" : 0,
									"hidden" : 0,
									"source" : [ "obj-49", 1 ]
								}

							}
, 							{
								"patchline" : 								{
									"color" : [ 0.101961, 0.121569, 0.172549, 1.0 ],
									"destination" : [ "obj-3", 0 ],
									"disabled" : 0,
									"hidden" : 0,
									"source" : [ "obj-56", 0 ]
								}

							}
, 							{
								"patchline" : 								{
									"color" : [ 0.0, 0.0, 0.0, 1.0 ],
									"destination" : [ "obj-25", 0 ],
									"disabled" : 0,
									"hidden" : 0,
									"source" : [ "obj-6", 0 ]
								}

							}
, 							{
								"patchline" : 								{
									"color" : [ 0.101961, 0.121569, 0.172549, 1.0 ],
									"destination" : [ "obj-11", 0 ],
									"disabled" : 0,
									"hidden" : 0,
									"source" : [ "obj-7", 0 ]
								}

							}
, 							{
								"patchline" : 								{
									"color" : [ 1.0, 1.0, 1.0, 1.0 ],
									"destination" : [ "obj-15", 0 ],
									"disabled" : 0,
									"hidden" : 0,
									"source" : [ "obj-8", 0 ]
								}

							}
, 							{
								"patchline" : 								{
									"color" : [ 0.101961, 0.121569, 0.172549, 1.0 ],
									"destination" : [ "obj-1", 0 ],
									"disabled" : 0,
									"hidden" : 0,
									"source" : [ "obj-9", 0 ]
								}

							}
 ]
					}
,
					"patching_rect" : [ 109.0, 58.0, 326.0, 19.0 ],
					"saved_object_attributes" : 					{
						"description" : "",
						"digest" : "",
						"fontsize" : 9.0,
						"globalpatchername" : "",
						"style" : "",
						"tags" : ""
					}
,
					"style" : "",
					"text" : "p load",
					"textcolor" : [ 0.101961, 0.121569, 0.172549, 1.0 ]
				}

			}
, 			{
				"box" : 				{
					"comment" : "",
					"id" : "obj-34",
					"maxclass" : "inlet",
					"numinlets" : 0,
					"numoutlets" : 1,
					"outlettype" : [ "" ],
					"patching_rect" : [ 31.0, 70.0, 15.0, 15.0 ],
					"style" : ""
				}

			}
, 			{
				"box" : 				{
					"bgcolor" : [ 1.0, 1.0, 1.0, 1.0 ],
					"color" : [ 0.494118, 0.556863, 0.607843, 1.0 ],
					"fontface" : 0,
					"fontname" : "Arial",
					"fontsize" : 9.0,
					"id" : "obj-57",
					"maxclass" : "newobj",
					"numinlets" : 2,
					"numoutlets" : 3,
					"outlettype" : [ "", "", "" ],
					"patcher" : 					{
						"fileversion" : 1,
						"appversion" : 						{
							"major" : 7,
							"minor" : 0,
							"revision" : 3,
							"architecture" : "x86",
							"modernui" : 1
						}
,
						"rect" : [ 744.0, 286.0, 518.0, 243.0 ],
						"bgcolor" : [ 0.666667, 0.698039, 0.717647, 1.0 ],
						"bglocked" : 0,
						"openinpresentation" : 0,
						"default_fontsize" : 9.0,
						"default_fontface" : 0,
						"default_fontname" : "Arial",
						"gridonopen" : 1,
						"gridsize" : [ 15.0, 15.0 ],
						"gridsnaponopen" : 1,
						"objectsnaponopen" : 1,
						"statusbarvisible" : 0,
						"toolbarvisible" : 0,
						"lefttoolbarpinned" : 0,
						"toptoolbarpinned" : 0,
						"righttoolbarpinned" : 0,
						"bottomtoolbarpinned" : 0,
						"toolbars_unpinned_last_save" : 0,
						"tallnewobj" : 0,
						"boxanimatetime" : 0,
						"enablehscroll" : 1,
						"enablevscroll" : 1,
						"devicewidth" : 0.0,
						"description" : "",
						"digest" : "",
						"tags" : "",
						"style" : "",
						"subpatcher_template" : "",
						"boxes" : [ 							{
								"box" : 								{
									"comment" : "",
									"id" : "obj-1",
									"maxclass" : "inlet",
									"numinlets" : 0,
									"numoutlets" : 1,
									"outlettype" : [ "" ],
									"patching_rect" : [ 375.0, 25.0, 19.0, 19.0 ],
									"style" : ""
								}

							}
, 							{
								"box" : 								{
									"bgcolor" : [ 1.0, 1.0, 1.0, 1.0 ],
									"color" : [ 0.494118, 0.556863, 0.607843, 1.0 ],
									"fontface" : 0,
									"fontname" : "Arial",
									"fontsize" : 9.0,
									"id" : "obj-13",
									"maxclass" : "newobj",
									"numinlets" : 0,
									"numoutlets" : 1,
									"outlettype" : [ "" ],
									"patching_rect" : [ 305.0, 25.0, 63.0, 19.0 ],
									"style" : "",
									"text" : "r #0beat",
									"textcolor" : [ 0.101961, 0.121569, 0.172549, 1.0 ]
								}

							}
, 							{
								"box" : 								{
									"fontface" : 0,
									"fontname" : "Arial",
									"fontsize" : 9.0,
									"id" : "obj-11",
									"maxclass" : "comment",
									"numinlets" : 1,
									"numoutlets" : 0,
									"patching_rect" : [ 321.0, 81.0, 168.0, 17.0 ],
									"style" : "",
									"text" : "<--- finds out how many beats there are",
									"textcolor" : [ 0.101961, 0.121569, 0.172549, 1.0 ]
								}

							}
, 							{
								"box" : 								{
									"fontface" : 0,
									"fontname" : "Arial",
									"fontsize" : 9.0,
									"id" : "obj-10",
									"maxclass" : "comment",
									"numinlets" : 1,
									"numoutlets" : 0,
									"patching_rect" : [ 122.0, 146.666626, 141.0, 17.0 ],
									"style" : "",
									"text" : "<--- gives a pitch to all durations ",
									"textcolor" : [ 0.101961, 0.121569, 0.172549, 1.0 ]
								}

							}
, 							{
								"box" : 								{
									"bgcolor" : [ 1.0, 1.0, 1.0, 1.0 ],
									"color" : [ 0.494118, 0.556863, 0.607843, 1.0 ],
									"fontface" : 0,
									"fontname" : "Arial",
									"fontsize" : 9.0,
									"id" : "obj-6",
									"maxclass" : "newobj",
									"numinlets" : 1,
									"numoutlets" : 1,
									"outlettype" : [ "" ],
									"patcher" : 									{
										"fileversion" : 1,
										"appversion" : 										{
											"major" : 7,
											"minor" : 0,
											"revision" : 3,
											"architecture" : "x86",
											"modernui" : 1
										}
,
										"rect" : [ 160.0, 417.0, 370.0, 269.0 ],
										"bgcolor" : [ 0.666667, 0.698039, 0.717647, 1.0 ],
										"bglocked" : 0,
										"openinpresentation" : 0,
										"default_fontsize" : 9.0,
										"default_fontface" : 0,
										"default_fontname" : "Arial",
										"gridonopen" : 1,
										"gridsize" : [ 15.0, 15.0 ],
										"gridsnaponopen" : 1,
										"objectsnaponopen" : 1,
										"statusbarvisible" : 0,
										"toolbarvisible" : 0,
										"lefttoolbarpinned" : 0,
										"toptoolbarpinned" : 0,
										"righttoolbarpinned" : 0,
										"bottomtoolbarpinned" : 0,
										"toolbars_unpinned_last_save" : 0,
										"tallnewobj" : 0,
										"boxanimatetime" : 0,
										"enablehscroll" : 1,
										"enablevscroll" : 1,
										"devicewidth" : 0.0,
										"description" : "",
										"digest" : "",
										"tags" : "",
										"style" : "",
										"subpatcher_template" : "",
										"boxes" : [ 											{
												"box" : 												{
													"bgcolor" : [ 1.0, 1.0, 1.0, 1.0 ],
													"color" : [ 0.494118, 0.556863, 0.607843, 1.0 ],
													"fontface" : 0,
													"fontname" : "Arial",
													"fontsize" : 9.0,
													"id" : "obj-2",
													"maxclass" : "newobj",
													"numinlets" : 1,
													"numoutlets" : 1,
													"outlettype" : [ "" ],
													"patching_rect" : [ 66.0, 36.0, 45.0, 17.0 ],
													"style" : "",
													"text" : "bach.flat",
													"textcolor" : [ 0.101961, 0.121569, 0.172549, 1.0 ]
												}

											}
, 											{
												"box" : 												{
													"bgcolor" : [ 1.0, 1.0, 1.0, 1.0 ],
													"color" : [ 0.494118, 0.556863, 0.607843, 1.0 ],
													"fontface" : 0,
													"fontname" : "Arial",
													"fontsize" : 9.0,
													"id" : "obj-4",
													"linecount" : 2,
													"maxclass" : "newobj",
													"numinlets" : 0,
													"numoutlets" : 1,
													"outlettype" : [ "" ],
													"patching_rect" : [ 125.0, 60.0, 59.0, 17.0 ],
													"style" : "",
													"text" : "r #0note",
													"textcolor" : [ 0.101961, 0.121569, 0.172549, 1.0 ]
												}

											}
, 											{
												"box" : 												{
													"bgcolor" : [ 1.0, 1.0, 1.0, 1.0 ],
													"color" : [ 0.494118, 0.556863, 0.607843, 1.0 ],
													"fontface" : 0,
													"fontname" : "Arial",
													"fontsize" : 9.0,
													"id" : "obj-12",
													"maxclass" : "newobj",
													"numinlets" : 1,
													"numoutlets" : 1,
													"outlettype" : [ "int" ],
													"patching_rect" : [ 66.0, 60.0, 57.0, 17.0 ],
													"style" : "",
													"text" : "bach.length",
													"textcolor" : [ 0.101961, 0.121569, 0.172549, 1.0 ]
												}

											}
, 											{
												"box" : 												{
													"bgcolor" : [ 1.0, 1.0, 1.0, 1.0 ],
													"color" : [ 0.494118, 0.556863, 0.607843, 1.0 ],
													"fontface" : 0,
													"fontname" : "Arial",
													"fontsize" : 9.0,
													"id" : "obj-11",
													"maxclass" : "newobj",
													"numinlets" : 1,
													"numoutlets" : 2,
													"outlettype" : [ "int", "clear" ],
													"patching_rect" : [ 66.0, 83.0, 40.0, 17.0 ],
													"style" : "",
													"text" : "t i clear",
													"textcolor" : [ 0.101961, 0.121569, 0.172549, 1.0 ]
												}

											}
, 											{
												"box" : 												{
													"bgcolor" : [ 1.0, 1.0, 1.0, 1.0 ],
													"color" : [ 0.494118, 0.556863, 0.607843, 1.0 ],
													"fontface" : 0,
													"fontname" : "Arial",
													"fontsize" : 9.0,
													"id" : "obj-10",
													"maxclass" : "newobj",
													"numinlets" : 2,
													"numoutlets" : 3,
													"outlettype" : [ "bang", "bang", "int" ],
													"patching_rect" : [ 66.0, 105.0, 46.0, 17.0 ],
													"style" : "",
													"text" : "uzi",
													"textcolor" : [ 0.101961, 0.121569, 0.172549, 1.0 ]
												}

											}
, 											{
												"box" : 												{
													"bgcolor" : [ 1.0, 1.0, 1.0, 1.0 ],
													"color" : [ 0.494118, 0.556863, 0.607843, 1.0 ],
													"fontface" : 0,
													"fontname" : "Arial",
													"fontsize" : 9.0,
													"id" : "obj-13",
													"maxclass" : "newobj",
													"numinlets" : 2,
													"numoutlets" : 1,
													"outlettype" : [ "int" ],
													"patching_rect" : [ 66.0, 132.333374, 77.5, 17.0 ],
													"style" : "",
													"text" : "6000",
													"textcolor" : [ 0.101961, 0.121569, 0.172549, 1.0 ]
												}

											}
, 											{
												"box" : 												{
													"bgcolor" : [ 1.0, 1.0, 1.0, 1.0 ],
													"color" : [ 0.494118, 0.556863, 0.607843, 1.0 ],
													"fontface" : 0,
													"fontname" : "Arial",
													"fontsize" : 9.0,
													"id" : "obj-8",
													"maxclass" : "newobj",
													"numinlets" : 3,
													"numoutlets" : 1,
													"outlettype" : [ "" ],
													"patching_rect" : [ 45.0, 156.0, 61.0, 17.0 ],
													"style" : "",
													"text" : "bach.collect",
													"textcolor" : [ 0.101961, 0.121569, 0.172549, 1.0 ]
												}

											}
, 											{
												"box" : 												{
													"comment" : "",
													"id" : "obj-1",
													"maxclass" : "inlet",
													"numinlets" : 0,
													"numoutlets" : 1,
													"outlettype" : [ "" ],
													"patching_rect" : [ 66.0, 10.0, 19.0, 19.0 ],
													"style" : ""
												}

											}
, 											{
												"box" : 												{
													"comment" : "",
													"id" : "obj-3",
													"maxclass" : "outlet",
													"numinlets" : 1,
													"numoutlets" : 0,
													"patching_rect" : [ 45.0, 183.0, 19.0, 19.0 ],
													"style" : ""
												}

											}
 ],
										"lines" : [ 											{
												"patchline" : 												{
													"color" : [ 0.101961, 0.121569, 0.172549, 1.0 ],
													"destination" : [ "obj-2", 0 ],
													"disabled" : 0,
													"hidden" : 0,
													"source" : [ "obj-1", 0 ]
												}

											}
, 											{
												"patchline" : 												{
													"color" : [ 0.101961, 0.121569, 0.172549, 1.0 ],
													"destination" : [ "obj-13", 0 ],
													"disabled" : 0,
													"hidden" : 0,
													"source" : [ "obj-10", 0 ]
												}

											}
, 											{
												"patchline" : 												{
													"color" : [ 0.101961, 0.121569, 0.172549, 1.0 ],
													"destination" : [ "obj-8", 0 ],
													"disabled" : 0,
													"hidden" : 0,
													"source" : [ "obj-10", 1 ]
												}

											}
, 											{
												"patchline" : 												{
													"color" : [ 0.101961, 0.121569, 0.172549, 1.0 ],
													"destination" : [ "obj-10", 0 ],
													"disabled" : 0,
													"hidden" : 0,
													"source" : [ "obj-11", 0 ]
												}

											}
, 											{
												"patchline" : 												{
													"color" : [ 0.101961, 0.121569, 0.172549, 1.0 ],
													"destination" : [ "obj-8", 2 ],
													"disabled" : 0,
													"hidden" : 0,
													"source" : [ "obj-11", 1 ]
												}

											}
, 											{
												"patchline" : 												{
													"color" : [ 0.101961, 0.121569, 0.172549, 1.0 ],
													"destination" : [ "obj-11", 0 ],
													"disabled" : 0,
													"hidden" : 0,
													"source" : [ "obj-12", 0 ]
												}

											}
, 											{
												"patchline" : 												{
													"color" : [ 0.101961, 0.121569, 0.172549, 1.0 ],
													"destination" : [ "obj-8", 1 ],
													"disabled" : 0,
													"hidden" : 0,
													"source" : [ "obj-13", 0 ]
												}

											}
, 											{
												"patchline" : 												{
													"color" : [ 0.101961, 0.121569, 0.172549, 1.0 ],
													"destination" : [ "obj-12", 0 ],
													"disabled" : 0,
													"hidden" : 0,
													"source" : [ "obj-2", 0 ]
												}

											}
, 											{
												"patchline" : 												{
													"color" : [ 0.101961, 0.121569, 0.172549, 1.0 ],
													"destination" : [ "obj-13", 1 ],
													"disabled" : 0,
													"hidden" : 0,
													"source" : [ "obj-4", 0 ]
												}

											}
, 											{
												"patchline" : 												{
													"color" : [ 0.101961, 0.121569, 0.172549, 1.0 ],
													"destination" : [ "obj-3", 0 ],
													"disabled" : 0,
													"hidden" : 0,
													"source" : [ "obj-8", 0 ]
												}

											}
 ]
									}
,
									"patching_rect" : [ 60.0, 146.666626, 65.0, 19.0 ],
									"saved_object_attributes" : 									{
										"description" : "",
										"digest" : "",
										"fontsize" : 9.0,
										"globalpatchername" : "",
										"style" : "",
										"tags" : ""
									}
,
									"style" : "",
									"text" : "p fillwithnotes",
									"textcolor" : [ 0.101961, 0.121569, 0.172549, 1.0 ]
								}

							}
, 							{
								"box" : 								{
									"bgcolor" : [ 1.0, 1.0, 1.0, 1.0 ],
									"color" : [ 0.494118, 0.556863, 0.607843, 1.0 ],
									"fontface" : 0,
									"fontname" : "Arial",
									"fontsize" : 9.0,
									"id" : "obj-5",
									"maxclass" : "newobj",
									"numinlets" : 1,
									"numoutlets" : 2,
									"outlettype" : [ "int", "int" ],
									"patching_rect" : [ 305.0, 53.666626, 161.5, 19.0 ],
									"style" : "",
									"text" : "t i i",
									"textcolor" : [ 0.101961, 0.121569, 0.172549, 1.0 ]
								}

							}
, 							{
								"box" : 								{
									"bgcolor" : [ 1.0, 1.0, 1.0, 1.0 ],
									"color" : [ 0.494118, 0.556863, 0.607843, 1.0 ],
									"fontface" : 0,
									"fontname" : "Arial",
									"fontsize" : 9.0,
									"id" : "obj-2",
									"maxclass" : "newobj",
									"numinlets" : 1,
									"numoutlets" : 2,
									"outlettype" : [ "", "" ],
									"patching_rect" : [ 161.0, 53.666626, 107.5, 19.0 ],
									"style" : "",
									"text" : "t l l",
									"textcolor" : [ 0.101961, 0.121569, 0.172549, 1.0 ]
								}

							}
, 							{
								"box" : 								{
									"bgcolor" : [ 1.0, 1.0, 1.0, 1.0 ],
									"color" : [ 0.494118, 0.556863, 0.607843, 1.0 ],
									"fontface" : 0,
									"fontname" : "Arial",
									"fontsize" : 9.0,
									"id" : "obj-7",
									"maxclass" : "newobj",
									"numinlets" : 3,
									"numoutlets" : 2,
									"outlettype" : [ "", "" ],
									"patching_rect" : [ 161.0, 111.0, 306.0, 19.0 ],
									"style" : "",
									"text" : "jtol.bach.ratio",
									"textcolor" : [ 0.101961, 0.121569, 0.172549, 1.0 ]
								}

							}
, 							{
								"box" : 								{
									"bgcolor" : [ 1.0, 1.0, 1.0, 1.0 ],
									"color" : [ 0.494118, 0.556863, 0.607843, 1.0 ],
									"fontface" : 0,
									"fontname" : "Arial",
									"fontsize" : 9.0,
									"id" : "obj-23",
									"maxclass" : "newobj",
									"numinlets" : 2,
									"numoutlets" : 2,
									"outlettype" : [ "", "" ],
									"patching_rect" : [ 250.0, 80.666656, 74.0, 19.0 ],
									"style" : "",
									"text" : "jtol.bach.timesig",
									"textcolor" : [ 0.101961, 0.121569, 0.172549, 1.0 ]
								}

							}
, 							{
								"box" : 								{
									"comment" : "",
									"id" : "obj-55",
									"maxclass" : "outlet",
									"numinlets" : 1,
									"numoutlets" : 0,
									"patching_rect" : [ 27.0, 207.333313, 19.0, 19.0 ],
									"style" : ""
								}

							}
, 							{
								"box" : 								{
									"comment" : "",
									"id" : "obj-4",
									"maxclass" : "outlet",
									"numinlets" : 1,
									"numoutlets" : 0,
									"patching_rect" : [ 60.0, 175.333313, 19.0, 19.0 ],
									"style" : ""
								}

							}
, 							{
								"box" : 								{
									"comment" : "",
									"id" : "obj-50",
									"maxclass" : "inlet",
									"numinlets" : 0,
									"numoutlets" : 1,
									"outlettype" : [ "" ],
									"patching_rect" : [ 161.0, 25.0, 19.0, 19.0 ],
									"style" : ""
								}

							}
, 							{
								"box" : 								{
									"comment" : "",
									"id" : "obj-53",
									"maxclass" : "outlet",
									"numinlets" : 1,
									"numoutlets" : 0,
									"patching_rect" : [ 161.0, 175.333313, 19.0, 19.0 ],
									"style" : ""
								}

							}
 ],
						"lines" : [ 							{
								"patchline" : 								{
									"color" : [ 0.101961, 0.121569, 0.172549, 1.0 ],
									"destination" : [ "obj-5", 0 ],
									"disabled" : 0,
									"hidden" : 0,
									"source" : [ "obj-1", 0 ]
								}

							}
, 							{
								"patchline" : 								{
									"color" : [ 0.101961, 0.121569, 0.172549, 1.0 ],
									"destination" : [ "obj-5", 0 ],
									"disabled" : 0,
									"hidden" : 0,
									"source" : [ "obj-13", 0 ]
								}

							}
, 							{
								"patchline" : 								{
									"color" : [ 0.101961, 0.121569, 0.172549, 1.0 ],
									"destination" : [ "obj-23", 0 ],
									"disabled" : 0,
									"hidden" : 0,
									"source" : [ "obj-2", 1 ]
								}

							}
, 							{
								"patchline" : 								{
									"color" : [ 0.101961, 0.121569, 0.172549, 1.0 ],
									"destination" : [ "obj-7", 0 ],
									"disabled" : 0,
									"hidden" : 0,
									"source" : [ "obj-2", 0 ]
								}

							}
, 							{
								"patchline" : 								{
									"color" : [ 0.101961, 0.121569, 0.172549, 1.0 ],
									"destination" : [ "obj-55", 0 ],
									"disabled" : 0,
									"hidden" : 0,
									"midpoints" : [ 259.5, 200.499985, 36.5, 200.499985 ],
									"source" : [ "obj-23", 0 ]
								}

							}
, 							{
								"patchline" : 								{
									"color" : [ 0.101961, 0.121569, 0.172549, 1.0 ],
									"destination" : [ "obj-7", 1 ],
									"disabled" : 0,
									"hidden" : 0,
									"source" : [ "obj-23", 1 ]
								}

							}
, 							{
								"patchline" : 								{
									"color" : [ 0.101961, 0.121569, 0.172549, 1.0 ],
									"destination" : [ "obj-23", 1 ],
									"disabled" : 0,
									"hidden" : 0,
									"source" : [ "obj-5", 0 ]
								}

							}
, 							{
								"patchline" : 								{
									"color" : [ 0.101961, 0.121569, 0.172549, 1.0 ],
									"destination" : [ "obj-7", 2 ],
									"disabled" : 0,
									"hidden" : 0,
									"source" : [ "obj-5", 1 ]
								}

							}
, 							{
								"patchline" : 								{
									"color" : [ 0.101961, 0.121569, 0.172549, 1.0 ],
									"destination" : [ "obj-2", 0 ],
									"disabled" : 0,
									"hidden" : 0,
									"source" : [ "obj-50", 0 ]
								}

							}
, 							{
								"patchline" : 								{
									"color" : [ 0.101961, 0.121569, 0.172549, 1.0 ],
									"destination" : [ "obj-4", 0 ],
									"disabled" : 0,
									"hidden" : 0,
									"source" : [ "obj-6", 0 ]
								}

							}
, 							{
								"patchline" : 								{
									"color" : [ 0.101961, 0.121569, 0.172549, 1.0 ],
									"destination" : [ "obj-53", 0 ],
									"disabled" : 0,
									"hidden" : 0,
									"midpoints" : [ 170.5, 139.166656, 170.5, 139.166656 ],
									"source" : [ "obj-7", 0 ]
								}

							}
, 							{
								"patchline" : 								{
									"color" : [ 0.101961, 0.121569, 0.172549, 1.0 ],
									"destination" : [ "obj-6", 0 ],
									"disabled" : 0,
									"hidden" : 0,
									"midpoints" : [ 170.5, 139.833313, 69.5, 139.833313 ],
									"source" : [ "obj-7", 0 ]
								}

							}
 ]
					}
,
					"patching_rect" : [ 160.0, 253.0, 246.0, 19.0 ],
					"saved_object_attributes" : 					{
						"description" : "",
						"digest" : "",
						"fontsize" : 9.0,
						"globalpatchername" : "",
						"style" : "",
						"tags" : ""
					}
,
					"style" : "",
					"text" : "p duration business",
					"textcolor" : [ 0.101961, 0.121569, 0.172549, 1.0 ]
				}

			}
, 			{
				"box" : 				{
					"comment" : "",
					"id" : "obj-10",
					"maxclass" : "outlet",
					"numinlets" : 1,
					"numoutlets" : 0,
					"patching_rect" : [ 31.0, 505.0, 15.0, 15.0 ],
					"style" : ""
				}

			}
, 			{
				"box" : 				{
					"comment" : "",
					"id" : "obj-11",
					"maxclass" : "outlet",
					"numinlets" : 1,
					"numoutlets" : 0,
					"patching_rect" : [ 140.0, 475.0, 15.0, 15.0 ],
					"style" : ""
				}

			}
, 			{
				"box" : 				{
					"comment" : "",
					"id" : "obj-13",
					"maxclass" : "outlet",
					"numinlets" : 1,
					"numoutlets" : 0,
					"patching_rect" : [ 212.0, 475.0, 15.0, 15.0 ],
					"style" : ""
				}

			}
, 			{
				"box" : 				{
					"comment" : "",
					"id" : "obj-15",
					"maxclass" : "outlet",
					"numinlets" : 1,
					"numoutlets" : 0,
					"patching_rect" : [ 285.0, 475.0, 15.0, 15.0 ],
					"style" : ""
				}

			}
 ],
		"lines" : [ 			{
				"patchline" : 				{
					"color" : [ 0.0, 0.0, 0.0, 1.0 ],
					"destination" : [ "obj-19", 0 ],
					"disabled" : 0,
					"hidden" : 0,
					"source" : [ "obj-12", 0 ]
				}

			}
, 			{
				"patchline" : 				{
					"color" : [ 0.101961, 0.121569, 0.172549, 1.0 ],
					"destination" : [ "obj-28", 0 ],
					"disabled" : 0,
					"hidden" : 0,
					"source" : [ "obj-14", 0 ]
				}

			}
, 			{
				"patchline" : 				{
					"color" : [ 0.0, 0.0, 0.0, 1.0 ],
					"destination" : [ "obj-17", 0 ],
					"disabled" : 0,
					"hidden" : 0,
					"source" : [ "obj-16", 0 ]
				}

			}
, 			{
				"patchline" : 				{
					"color" : [ 0.278431, 0.921569, 0.639216, 1.0 ],
					"destination" : [ "obj-51", 2 ],
					"disabled" : 0,
					"hidden" : 0,
					"source" : [ "obj-16", 2 ]
				}

			}
, 			{
				"patchline" : 				{
					"color" : [ 0.278431, 0.921569, 0.639216, 1.0 ],
					"destination" : [ "obj-52", 2 ],
					"disabled" : 0,
					"hidden" : 0,
					"source" : [ "obj-16", 2 ]
				}

			}
, 			{
				"patchline" : 				{
					"color" : [ 0.678431, 0.819608, 0.819608, 1.0 ],
					"destination" : [ "obj-6", 0 ],
					"disabled" : 0,
					"hidden" : 0,
					"source" : [ "obj-16", 1 ]
				}

			}
, 			{
				"patchline" : 				{
					"color" : [ 0.0, 0.0, 0.0, 1.0 ],
					"destination" : [ "obj-12", 0 ],
					"disabled" : 0,
					"hidden" : 0,
					"source" : [ "obj-17", 1 ]
				}

			}
, 			{
				"patchline" : 				{
					"color" : [ 0.0, 0.0, 0.0, 1.0 ],
					"destination" : [ "obj-19", 0 ],
					"disabled" : 0,
					"hidden" : 0,
					"source" : [ "obj-17", 0 ]
				}

			}
, 			{
				"patchline" : 				{
					"color" : [ 0.827451, 0.364706, 0.541176, 1.0 ],
					"destination" : [ "obj-10", 0 ],
					"disabled" : 0,
					"hidden" : 0,
					"midpoints" : [ 584.5, 497.833344, 40.0, 497.833344 ],
					"source" : [ "obj-19", 5 ]
				}

			}
, 			{
				"patchline" : 				{
					"color" : [ 0.87451, 0.25098, 0.717647, 1.0 ],
					"destination" : [ "obj-10", 0 ],
					"disabled" : 0,
					"hidden" : 0,
					"source" : [ "obj-19", 0 ]
				}

			}
, 			{
				"patchline" : 				{
					"color" : [ 0.047059, 0.913725, 0.913725, 1.0 ],
					"destination" : [ "obj-31", 0 ],
					"disabled" : 0,
					"hidden" : 0,
					"source" : [ "obj-19", 4 ]
				}

			}
, 			{
				"patchline" : 				{
					"color" : [ 0.827451, 0.364706, 0.541176, 1.0 ],
					"destination" : [ "obj-51", 3 ],
					"disabled" : 0,
					"hidden" : 0,
					"midpoints" : [ 584.5, 337.666687, 455.5, 337.666687 ],
					"source" : [ "obj-19", 5 ]
				}

			}
, 			{
				"patchline" : 				{
					"color" : [ 0.101961, 0.121569, 0.172549, 1.0 ],
					"destination" : [ "obj-51", 0 ],
					"disabled" : 0,
					"hidden" : 0,
					"source" : [ "obj-19", 3 ]
				}

			}
, 			{
				"patchline" : 				{
					"color" : [ 0.827451, 0.364706, 0.541176, 1.0 ],
					"destination" : [ "obj-52", 3 ],
					"disabled" : 0,
					"hidden" : 0,
					"midpoints" : [ 584.5, 337.666687, 334.5, 337.666687 ],
					"source" : [ "obj-19", 5 ]
				}

			}
, 			{
				"patchline" : 				{
					"color" : [ 0.101961, 0.121569, 0.172549, 1.0 ],
					"destination" : [ "obj-52", 0 ],
					"disabled" : 0,
					"hidden" : 0,
					"source" : [ "obj-19", 2 ]
				}

			}
, 			{
				"patchline" : 				{
					"color" : [ 0.827451, 0.364706, 0.541176, 1.0 ],
					"destination" : [ "obj-9", 2 ],
					"disabled" : 0,
					"hidden" : 0,
					"midpoints" : [ 584.5, 377.0, 188.5, 377.0 ],
					"source" : [ "obj-19", 5 ]
				}

			}
, 			{
				"patchline" : 				{
					"color" : [ 0.101961, 0.121569, 0.172549, 1.0 ],
					"destination" : [ "obj-9", 0 ],
					"disabled" : 0,
					"hidden" : 0,
					"source" : [ "obj-19", 1 ]
				}

			}
, 			{
				"patchline" : 				{
					"color" : [ 0.101961, 0.121569, 0.172549, 1.0 ],
					"destination" : [ "obj-28", 0 ],
					"disabled" : 0,
					"hidden" : 0,
					"source" : [ "obj-2", 0 ]
				}

			}
, 			{
				"patchline" : 				{
					"color" : [ 0.101961, 0.121569, 0.172549, 1.0 ],
					"destination" : [ "obj-16", 0 ],
					"disabled" : 0,
					"hidden" : 0,
					"source" : [ "obj-23", 1 ]
				}

			}
, 			{
				"patchline" : 				{
					"color" : [ 0.101961, 0.121569, 0.172549, 1.0 ],
					"destination" : [ "obj-4", 1 ],
					"disabled" : 0,
					"hidden" : 0,
					"source" : [ "obj-28", 0 ]
				}

			}
, 			{
				"patchline" : 				{
					"color" : [ 0.0, 0.0, 0.0, 1.0 ],
					"destination" : [ "obj-16", 1 ],
					"disabled" : 0,
					"hidden" : 0,
					"midpoints" : [ 622.0, 46.5, 425.5, 46.5 ],
					"source" : [ "obj-3", 0 ]
				}

			}
, 			{
				"patchline" : 				{
					"color" : [ 0.101961, 0.121569, 0.172549, 1.0 ],
					"destination" : [ "obj-57", 0 ],
					"disabled" : 0,
					"hidden" : 0,
					"source" : [ "obj-31", 0 ]
				}

			}
, 			{
				"patchline" : 				{
					"color" : [ 0.101961, 0.121569, 0.172549, 1.0 ],
					"destination" : [ "obj-17", 1 ],
					"disabled" : 0,
					"hidden" : 0,
					"source" : [ "obj-34", 0 ]
				}

			}
, 			{
				"patchline" : 				{
					"color" : [ 0.101961, 0.121569, 0.172549, 1.0 ],
					"destination" : [ "obj-9", 1 ],
					"disabled" : 0,
					"hidden" : 0,
					"source" : [ "obj-4", 0 ]
				}

			}
, 			{
				"patchline" : 				{
					"color" : [ 0.101961, 0.121569, 0.172549, 1.0 ],
					"destination" : [ "obj-4", 0 ],
					"disabled" : 0,
					"hidden" : 0,
					"source" : [ "obj-48", 0 ]
				}

			}
, 			{
				"patchline" : 				{
					"color" : [ 0.101961, 0.121569, 0.172549, 1.0 ],
					"destination" : [ "obj-57", 1 ],
					"disabled" : 0,
					"hidden" : 0,
					"source" : [ "obj-5", 0 ]
				}

			}
, 			{
				"patchline" : 				{
					"color" : [ 0.101961, 0.121569, 0.172549, 1.0 ],
					"destination" : [ "obj-6", 2 ],
					"disabled" : 0,
					"hidden" : 0,
					"source" : [ "obj-51", 0 ]
				}

			}
, 			{
				"patchline" : 				{
					"color" : [ 0.101961, 0.121569, 0.172549, 1.0 ],
					"destination" : [ "obj-6", 1 ],
					"disabled" : 0,
					"hidden" : 0,
					"source" : [ "obj-52", 0 ]
				}

			}
, 			{
				"patchline" : 				{
					"color" : [ 0.101961, 0.121569, 0.172549, 1.0 ],
					"destination" : [ "obj-48", 0 ],
					"disabled" : 0,
					"hidden" : 0,
					"source" : [ "obj-57", 0 ]
				}

			}
, 			{
				"patchline" : 				{
					"color" : [ 0.101961, 0.121569, 0.172549, 1.0 ],
					"destination" : [ "obj-51", 1 ],
					"disabled" : 0,
					"hidden" : 0,
					"source" : [ "obj-57", 2 ]
				}

			}
, 			{
				"patchline" : 				{
					"color" : [ 0.101961, 0.121569, 0.172549, 1.0 ],
					"destination" : [ "obj-52", 1 ],
					"disabled" : 0,
					"hidden" : 0,
					"source" : [ "obj-57", 1 ]
				}

			}
, 			{
				"patchline" : 				{
					"color" : [ 0.101961, 0.121569, 0.172549, 1.0 ],
					"destination" : [ "obj-11", 0 ],
					"disabled" : 0,
					"hidden" : 0,
					"source" : [ "obj-6", 0 ]
				}

			}
, 			{
				"patchline" : 				{
					"color" : [ 0.101961, 0.121569, 0.172549, 1.0 ],
					"destination" : [ "obj-13", 0 ],
					"disabled" : 0,
					"hidden" : 0,
					"source" : [ "obj-6", 1 ]
				}

			}
, 			{
				"patchline" : 				{
					"color" : [ 0.101961, 0.121569, 0.172549, 1.0 ],
					"destination" : [ "obj-15", 0 ],
					"disabled" : 0,
					"hidden" : 0,
					"source" : [ "obj-6", 2 ]
				}

			}
, 			{
				"patchline" : 				{
					"color" : [ 0.101961, 0.121569, 0.172549, 1.0 ],
					"destination" : [ "obj-6", 0 ],
					"disabled" : 0,
					"hidden" : 0,
					"source" : [ "obj-9", 0 ]
				}

			}
 ]
	}

}
