{
	"patcher" : 	{
		"fileversion" : 1,
		"appversion" : 		{
			"major" : 5,
			"minor" : 1,
			"revision" : 9
		}
,
		"rect" : [ 188.0, 138.0, 486.0, 573.0 ],
		"bgcolor" : [ 0.666667, 0.698039, 0.717647, 1.0 ],
		"bglocked" : 0,
		"defrect" : [ 188.0, 138.0, 486.0, 573.0 ],
		"openrect" : [ 0.0, 0.0, 0.0, 0.0 ],
		"openinpresentation" : 0,
		"default_fontsize" : 9.0,
		"default_fontface" : 0,
		"default_fontname" : "Arial",
		"gridonopen" : 0,
		"gridsize" : [ 15.0, 15.0 ],
		"gridsnaponopen" : 0,
		"toolbarvisible" : 0,
		"boxanimatetime" : 200,
		"imprint" : 1,
		"enablehscroll" : 1,
		"enablevscroll" : 1,
		"devicewidth" : 0.0,
		"boxes" : [ 			{
				"box" : 				{
					"maxclass" : "newobj",
					"text" : "patcherargs",
					"patching_rect" : [ 24.0, 6.0, 58.0, 17.0 ],
					"numinlets" : 1,
					"presentation" : 0,
					"id" : "obj-5",
					"fontname" : "Arial",
					"textcolor" : [ 0.101961, 0.121569, 0.172549, 1.0 ],
					"bgcolor" : [ 1.0, 1.0, 1.0, 1.0 ],
					"numoutlets" : 2,
					"background" : 0,
					"color" : [ 0.494118, 0.556863, 0.607843, 1.0 ],
					"outlettype" : [ "", "" ],
					"fontface" : 0,
					"fontsize" : 9.0,
					"ignoreclick" : 0,
					"presentation_rect" : [ 0.0, 0.0, 0.0, 0.0 ],
					"hidden" : 0
				}

			}
, 			{
				"box" : 				{
					"maxclass" : "newobj",
					"text" : "t l l",
					"patching_rect" : [ 108.0, 78.25, 192.5, 17.0 ],
					"numinlets" : 1,
					"presentation" : 0,
					"id" : "obj-54",
					"fontname" : "Arial",
					"textcolor" : [ 0.101961, 0.121569, 0.172549, 1.0 ],
					"bgcolor" : [ 1.0, 1.0, 1.0, 1.0 ],
					"numoutlets" : 2,
					"background" : 0,
					"color" : [ 0.494118, 0.556863, 0.607843, 1.0 ],
					"outlettype" : [ "", "" ],
					"fontface" : 0,
					"fontsize" : 9.0,
					"ignoreclick" : 0,
					"presentation_rect" : [ 0.0, 0.0, 0.0, 0.0 ],
					"hidden" : 0
				}

			}
, 			{
				"box" : 				{
					"maxclass" : "newobj",
					"text" : "t l l",
					"patching_rect" : [ 281.75, 157.0, 94.0, 17.0 ],
					"numinlets" : 1,
					"presentation" : 0,
					"id" : "obj-53",
					"fontname" : "Arial",
					"textcolor" : [ 0.101961, 0.121569, 0.172549, 1.0 ],
					"bgcolor" : [ 1.0, 1.0, 1.0, 1.0 ],
					"numoutlets" : 2,
					"background" : 0,
					"color" : [ 0.494118, 0.556863, 0.607843, 1.0 ],
					"outlettype" : [ "", "" ],
					"fontface" : 0,
					"fontsize" : 9.0,
					"ignoreclick" : 0,
					"presentation_rect" : [ 0.0, 0.0, 0.0, 0.0 ],
					"hidden" : 0
				}

			}
, 			{
				"box" : 				{
					"maxclass" : "newobj",
					"text" : "gate",
					"patching_rect" : [ 374.75, 428.5, 32.5, 17.0 ],
					"numinlets" : 2,
					"presentation" : 0,
					"id" : "obj-52",
					"fontname" : "Arial",
					"textcolor" : [ 0.101961, 0.121569, 0.172549, 1.0 ],
					"bgcolor" : [ 1.0, 1.0, 1.0, 1.0 ],
					"numoutlets" : 1,
					"background" : 0,
					"color" : [ 0.494118, 0.556863, 0.607843, 1.0 ],
					"outlettype" : [ "" ],
					"fontface" : 0,
					"fontsize" : 9.0,
					"ignoreclick" : 0,
					"presentation_rect" : [ 0.0, 0.0, 0.0, 0.0 ],
					"hidden" : 0
				}

			}
, 			{
				"box" : 				{
					"maxclass" : "newobj",
					"text" : "t l l",
					"patching_rect" : [ 108.0, 405.5, 298.5, 17.0 ],
					"numinlets" : 1,
					"presentation" : 0,
					"id" : "obj-50",
					"fontname" : "Arial",
					"textcolor" : [ 0.101961, 0.121569, 0.172549, 1.0 ],
					"bgcolor" : [ 1.0, 1.0, 1.0, 1.0 ],
					"numoutlets" : 2,
					"background" : 0,
					"color" : [ 0.494118, 0.556863, 0.607843, 1.0 ],
					"outlettype" : [ "", "" ],
					"fontface" : 0,
					"fontsize" : 9.0,
					"ignoreclick" : 0,
					"presentation_rect" : [ 0.0, 0.0, 0.0, 0.0 ],
					"hidden" : 0
				}

			}
, 			{
				"box" : 				{
					"maxclass" : "newobj",
					"text" : "bach.nth",
					"patching_rect" : [ 374.75, 453.5, 45.0, 17.0 ],
					"numinlets" : 2,
					"presentation" : 0,
					"id" : "obj-49",
					"fontname" : "Arial",
					"textcolor" : [ 0.101961, 0.121569, 0.172549, 1.0 ],
					"bgcolor" : [ 1.0, 1.0, 1.0, 1.0 ],
					"numoutlets" : 1,
					"background" : 0,
					"color" : [ 0.494118, 0.556863, 0.607843, 1.0 ],
					"outlettype" : [ "" ],
					"fontface" : 0,
					"fontsize" : 9.0,
					"ignoreclick" : 0,
					"presentation_rect" : [ 0.0, 0.0, 0.0, 0.0 ],
					"hidden" : 0
				}

			}
, 			{
				"box" : 				{
					"maxclass" : "newobj",
					"text" : "bach.expr $i1-1",
					"patching_rect" : [ 281.75, 380.5, 73.0, 17.0 ],
					"numinlets" : 1,
					"presentation" : 0,
					"id" : "obj-48",
					"fontname" : "Arial",
					"textcolor" : [ 0.101961, 0.121569, 0.172549, 1.0 ],
					"bgcolor" : [ 1.0, 1.0, 1.0, 1.0 ],
					"numoutlets" : 1,
					"background" : 0,
					"color" : [ 0.494118, 0.556863, 0.607843, 1.0 ],
					"outlettype" : [ "" ],
					"fontface" : 0,
					"fontsize" : 9.0,
					"ignoreclick" : 0,
					"presentation_rect" : [ 0.0, 0.0, 0.0, 0.0 ],
					"hidden" : 0
				}

			}
, 			{
				"box" : 				{
					"maxclass" : "newobj",
					"text" : "t l l",
					"patching_rect" : [ 281.75, 356.5, 138.0, 17.0 ],
					"numinlets" : 1,
					"presentation" : 0,
					"id" : "obj-45",
					"fontname" : "Arial",
					"textcolor" : [ 0.101961, 0.121569, 0.172549, 1.0 ],
					"bgcolor" : [ 1.0, 1.0, 1.0, 1.0 ],
					"numoutlets" : 2,
					"background" : 0,
					"color" : [ 0.494118, 0.556863, 0.607843, 1.0 ],
					"outlettype" : [ "", "" ],
					"fontface" : 0,
					"fontsize" : 9.0,
					"ignoreclick" : 0,
					"presentation_rect" : [ 0.0, 0.0, 0.0, 0.0 ],
					"hidden" : 0
				}

			}
, 			{
				"box" : 				{
					"maxclass" : "newobj",
					"text" : "bach.append",
					"patching_rect" : [ 108.0, 481.5, 215.0, 17.0 ],
					"numinlets" : 2,
					"presentation" : 0,
					"id" : "obj-44",
					"fontname" : "Arial",
					"textcolor" : [ 0.101961, 0.121569, 0.172549, 1.0 ],
					"bgcolor" : [ 1.0, 1.0, 1.0, 1.0 ],
					"numoutlets" : 1,
					"background" : 0,
					"color" : [ 0.494118, 0.556863, 0.607843, 1.0 ],
					"outlettype" : [ "" ],
					"fontface" : 0,
					"fontsize" : 9.0,
					"ignoreclick" : 0,
					"presentation_rect" : [ 0.0, 0.0, 0.0, 0.0 ],
					"hidden" : 0
				}

			}
, 			{
				"box" : 				{
					"maxclass" : "newobj",
					"text" : "t l null",
					"patching_rect" : [ 225.75, 331.5, 97.0, 17.0 ],
					"numinlets" : 1,
					"presentation" : 0,
					"id" : "obj-43",
					"fontname" : "Arial",
					"textcolor" : [ 0.101961, 0.121569, 0.172549, 1.0 ],
					"bgcolor" : [ 1.0, 1.0, 1.0, 1.0 ],
					"numoutlets" : 2,
					"background" : 0,
					"color" : [ 0.494118, 0.556863, 0.607843, 1.0 ],
					"outlettype" : [ "", "null" ],
					"fontface" : 0,
					"fontsize" : 9.0,
					"ignoreclick" : 0,
					"presentation_rect" : [ 0.0, 0.0, 0.0, 0.0 ],
					"hidden" : 0
				}

			}
, 			{
				"box" : 				{
					"maxclass" : "newobj",
					"text" : "+ 1",
					"patching_rect" : [ 225.75, 284.5, 32.5, 17.0 ],
					"numinlets" : 2,
					"presentation" : 0,
					"id" : "obj-30",
					"fontname" : "Arial",
					"textcolor" : [ 0.101961, 0.121569, 0.172549, 1.0 ],
					"bgcolor" : [ 1.0, 1.0, 1.0, 1.0 ],
					"numoutlets" : 1,
					"background" : 0,
					"color" : [ 0.494118, 0.556863, 0.607843, 1.0 ],
					"outlettype" : [ "int" ],
					"fontface" : 0,
					"fontsize" : 9.0,
					"ignoreclick" : 0,
					"presentation_rect" : [ 0.0, 0.0, 0.0, 0.0 ],
					"hidden" : 0
				}

			}
, 			{
				"box" : 				{
					"maxclass" : "newobj",
					"text" : "gate 2",
					"patching_rect" : [ 225.75, 307.5, 75.0, 17.0 ],
					"numinlets" : 2,
					"presentation" : 0,
					"id" : "obj-31",
					"fontname" : "Arial",
					"textcolor" : [ 0.101961, 0.121569, 0.172549, 1.0 ],
					"bgcolor" : [ 1.0, 1.0, 1.0, 1.0 ],
					"numoutlets" : 2,
					"background" : 0,
					"color" : [ 0.494118, 0.556863, 0.607843, 1.0 ],
					"outlettype" : [ "", "" ],
					"fontface" : 0,
					"fontsize" : 9.0,
					"ignoreclick" : 0,
					"presentation_rect" : [ 0.0, 0.0, 0.0, 0.0 ],
					"hidden" : 0
				}

			}
, 			{
				"box" : 				{
					"maxclass" : "newobj",
					"text" : "!= 1",
					"patching_rect" : [ 374.75, 257.5, 32.5, 17.0 ],
					"numinlets" : 2,
					"presentation" : 0,
					"id" : "obj-32",
					"fontname" : "Arial",
					"textcolor" : [ 0.101961, 0.121569, 0.172549, 1.0 ],
					"bgcolor" : [ 1.0, 1.0, 1.0, 1.0 ],
					"numoutlets" : 1,
					"background" : 0,
					"color" : [ 0.494118, 0.556863, 0.607843, 1.0 ],
					"outlettype" : [ "int" ],
					"fontface" : 0,
					"fontsize" : 9.0,
					"ignoreclick" : 0,
					"presentation_rect" : [ 0.0, 0.0, 0.0, 0.0 ],
					"hidden" : 0
				}

			}
, 			{
				"box" : 				{
					"maxclass" : "newobj",
					"text" : "bach.is",
					"patching_rect" : [ 374.75, 234.5, 39.0, 17.0 ],
					"numinlets" : 1,
					"presentation" : 0,
					"id" : "obj-33",
					"fontname" : "Arial",
					"textcolor" : [ 0.101961, 0.121569, 0.172549, 1.0 ],
					"bgcolor" : [ 1.0, 1.0, 1.0, 1.0 ],
					"numoutlets" : 2,
					"background" : 0,
					"color" : [ 0.494118, 0.556863, 0.607843, 1.0 ],
					"outlettype" : [ "int", "" ],
					"fontface" : 0,
					"fontsize" : 9.0,
					"ignoreclick" : 0,
					"presentation_rect" : [ 0.0, 0.0, 0.0, 0.0 ],
					"hidden" : 0
				}

			}
, 			{
				"box" : 				{
					"maxclass" : "newobj",
					"text" : "bach.find 1",
					"patching_rect" : [ 356.75, 211.0, 55.0, 17.0 ],
					"numinlets" : 3,
					"presentation" : 0,
					"id" : "obj-21",
					"fontname" : "Arial",
					"textcolor" : [ 0.101961, 0.121569, 0.172549, 1.0 ],
					"bgcolor" : [ 1.0, 1.0, 1.0, 1.0 ],
					"numoutlets" : 3,
					"background" : 0,
					"color" : [ 0.494118, 0.556863, 0.607843, 1.0 ],
					"outlettype" : [ "", "", "" ],
					"fontface" : 0,
					"fontsize" : 9.0,
					"ignoreclick" : 0,
					"presentation_rect" : [ 0.0, 0.0, 0.0, 0.0 ],
					"hidden" : 0
				}

			}
, 			{
				"box" : 				{
					"maxclass" : "newobj",
					"text" : "bach.expr $i1==$i2 @scalarmode 1",
					"linecount" : 2,
					"patching_rect" : [ 356.75, 178.0, 95.0, 27.0 ],
					"numinlets" : 2,
					"presentation" : 0,
					"id" : "obj-20",
					"fontname" : "Arial",
					"textcolor" : [ 0.101961, 0.121569, 0.172549, 1.0 ],
					"bgcolor" : [ 1.0, 1.0, 1.0, 1.0 ],
					"numoutlets" : 1,
					"background" : 0,
					"color" : [ 0.494118, 0.556863, 0.607843, 1.0 ],
					"outlettype" : [ "" ],
					"fontface" : 0,
					"fontsize" : 9.0,
					"ignoreclick" : 0,
					"presentation_rect" : [ 0.0, 0.0, 0.0, 0.0 ],
					"hidden" : 0
				}

			}
, 			{
				"box" : 				{
					"maxclass" : "newobj",
					"text" : "bach.expr $i1+$i2",
					"patching_rect" : [ 281.75, 131.0, 82.0, 17.0 ],
					"numinlets" : 2,
					"presentation" : 0,
					"id" : "obj-9",
					"fontname" : "Arial",
					"textcolor" : [ 0.101961, 0.121569, 0.172549, 1.0 ],
					"bgcolor" : [ 1.0, 1.0, 1.0, 1.0 ],
					"numoutlets" : 1,
					"background" : 0,
					"color" : [ 0.494118, 0.556863, 0.607843, 1.0 ],
					"outlettype" : [ "" ],
					"fontface" : 0,
					"fontsize" : 9.0,
					"ignoreclick" : 0,
					"presentation_rect" : [ 0.0, 0.0, 0.0, 0.0 ],
					"hidden" : 0
				}

			}
, 			{
				"box" : 				{
					"maxclass" : "newobj",
					"text" : "p all_fake",
					"patching_rect" : [ 281.75, 105.0, 170.0, 17.0 ],
					"numinlets" : 2,
					"presentation" : 0,
					"id" : "obj-10",
					"fontname" : "Arial",
					"textcolor" : [ 0.101961, 0.121569, 0.172549, 1.0 ],
					"bgcolor" : [ 1.0, 1.0, 1.0, 1.0 ],
					"numoutlets" : 2,
					"background" : 0,
					"color" : [ 0.494118, 0.556863, 0.607843, 1.0 ],
					"outlettype" : [ "", "" ],
					"fontface" : 0,
					"fontsize" : 9.0,
					"ignoreclick" : 0,
					"presentation_rect" : [ 0.0, 0.0, 0.0, 0.0 ],
					"hidden" : 0,
					"patcher" : 					{
						"fileversion" : 1,
						"appversion" : 						{
							"major" : 5,
							"minor" : 1,
							"revision" : 9
						}
,
						"rect" : [ 612.0, 210.0, 652.0, 486.0 ],
						"bgcolor" : [ 0.666667, 0.698039, 0.717647, 1.0 ],
						"bglocked" : 0,
						"defrect" : [ 612.0, 210.0, 652.0, 486.0 ],
						"openrect" : [ 0.0, 0.0, 0.0, 0.0 ],
						"openinpresentation" : 0,
						"default_fontsize" : 9.0,
						"default_fontface" : 0,
						"default_fontname" : "Arial",
						"gridonopen" : 0,
						"gridsize" : [ 15.0, 15.0 ],
						"gridsnaponopen" : 0,
						"toolbarvisible" : 0,
						"boxanimatetime" : 200,
						"imprint" : 1,
						"enablehscroll" : 1,
						"enablevscroll" : 1,
						"devicewidth" : 0.0,
						"boxes" : [ 							{
								"box" : 								{
									"maxclass" : "newobj",
									"text" : "t b b l 0 clear",
									"patching_rect" : [ 26.0, 40.666687, 318.0, 17.0 ],
									"numinlets" : 1,
									"presentation" : 0,
									"id" : "obj-4",
									"fontname" : "Arial",
									"textcolor" : [ 0.101961, 0.121569, 0.172549, 1.0 ],
									"bgcolor" : [ 1.0, 1.0, 1.0, 1.0 ],
									"numoutlets" : 5,
									"background" : 0,
									"color" : [ 0.494118, 0.556863, 0.607843, 1.0 ],
									"outlettype" : [ "bang", "bang", "", "int", "clear" ],
									"fontface" : 0,
									"fontsize" : 9.0,
									"ignoreclick" : 0,
									"presentation_rect" : [ 0.0, 0.0, 0.0, 0.0 ],
									"hidden" : 0
								}

							}
, 							{
								"box" : 								{
									"maxclass" : "newobj",
									"text" : "bach.collect",
									"patching_rect" : [ 101.0, 408.666626, 494.0, 17.0 ],
									"numinlets" : 3,
									"presentation" : 0,
									"id" : "obj-3",
									"fontname" : "Arial",
									"textcolor" : [ 0.101961, 0.121569, 0.172549, 1.0 ],
									"bgcolor" : [ 1.0, 1.0, 1.0, 1.0 ],
									"numoutlets" : 1,
									"background" : 0,
									"color" : [ 0.494118, 0.556863, 0.607843, 1.0 ],
									"outlettype" : [ "" ],
									"fontface" : 0,
									"fontsize" : 9.0,
									"ignoreclick" : 0,
									"presentation_rect" : [ 0.0, 0.0, 0.0, 0.0 ],
									"hidden" : 0
								}

							}
, 							{
								"box" : 								{
									"maxclass" : "outlet",
									"patching_rect" : [ 101.0, 435.333313, 19.0, 19.0 ],
									"numinlets" : 1,
									"presentation" : 0,
									"id" : "obj-2",
									"numoutlets" : 0,
									"background" : 0,
									"ignoreclick" : 0,
									"presentation_rect" : [ 0.0, 0.0, 0.0, 0.0 ],
									"hidden" : 0,
									"comment" : ""
								}

							}
, 							{
								"box" : 								{
									"maxclass" : "newobj",
									"text" : "bach.reg",
									"patching_rect" : [ 26.0, 383.666626, 191.0, 17.0 ],
									"numinlets" : 2,
									"presentation" : 0,
									"id" : "obj-56",
									"fontname" : "Arial",
									"textcolor" : [ 0.101961, 0.121569, 0.172549, 1.0 ],
									"bgcolor" : [ 1.0, 1.0, 1.0, 1.0 ],
									"numoutlets" : 1,
									"background" : 0,
									"color" : [ 0.494118, 0.556863, 0.607843, 1.0 ],
									"outlettype" : [ "" ],
									"fontface" : 0,
									"fontsize" : 9.0,
									"ignoreclick" : 0,
									"presentation_rect" : [ 0.0, 0.0, 0.0, 0.0 ],
									"hidden" : 0,
									"saved_object_attributes" : 									{
										"embed" : 0
									}

								}

							}
, 							{
								"box" : 								{
									"maxclass" : "comment",
									"text" : "summation & test",
									"linecount" : 2,
									"frgb" : [ 0.101961, 0.121569, 0.172549, 1.0 ],
									"patching_rect" : [ 221.0, 268.0, 55.0, 27.0 ],
									"numinlets" : 1,
									"presentation" : 0,
									"id" : "obj-54",
									"fontname" : "Arial",
									"underline" : 0,
									"textcolor" : [ 0.101961, 0.121569, 0.172549, 1.0 ],
									"bgcolor" : [ 1.0, 1.0, 1.0, 0.0 ],
									"numoutlets" : 0,
									"background" : 0,
									"fontface" : 0,
									"fontsize" : 9.0,
									"ignoreclick" : 1,
									"presentation_rect" : [ 0.0, 0.0, 0.0, 0.0 ],
									"hidden" : 0
								}

							}
, 							{
								"box" : 								{
									"maxclass" : "newobj",
									"text" : "bach.reg",
									"patching_rect" : [ 318.0, 307.5, 53.0, 17.0 ],
									"numinlets" : 2,
									"presentation" : 0,
									"id" : "obj-47",
									"fontname" : "Arial",
									"textcolor" : [ 0.101961, 0.121569, 0.172549, 1.0 ],
									"bgcolor" : [ 1.0, 1.0, 1.0, 1.0 ],
									"numoutlets" : 1,
									"background" : 0,
									"color" : [ 0.494118, 0.556863, 0.607843, 1.0 ],
									"outlettype" : [ "" ],
									"fontface" : 0,
									"fontsize" : 9.0,
									"ignoreclick" : 0,
									"presentation_rect" : [ 0.0, 0.0, 0.0, 0.0 ],
									"hidden" : 0,
									"saved_object_attributes" : 									{
										"embed" : 0
									}

								}

							}
, 							{
								"box" : 								{
									"maxclass" : "inlet",
									"patching_rect" : [ 428.0, 13.0, 19.0, 19.0 ],
									"numinlets" : 0,
									"presentation" : 0,
									"id" : "obj-37",
									"numoutlets" : 1,
									"background" : 0,
									"outlettype" : [ "" ],
									"ignoreclick" : 0,
									"presentation_rect" : [ 0.0, 0.0, 0.0, 0.0 ],
									"hidden" : 0,
									"comment" : ""
								}

							}
, 							{
								"box" : 								{
									"maxclass" : "newobj",
									"text" : "t l b b l",
									"patching_rect" : [ 198.0, 240.666626, 199.5, 17.0 ],
									"numinlets" : 1,
									"presentation" : 0,
									"id" : "obj-31",
									"fontname" : "Arial",
									"textcolor" : [ 0.101961, 0.121569, 0.172549, 1.0 ],
									"bgcolor" : [ 1.0, 1.0, 1.0, 1.0 ],
									"numoutlets" : 4,
									"background" : 0,
									"color" : [ 0.494118, 0.556863, 0.607843, 1.0 ],
									"outlettype" : [ "", "bang", "bang", "" ],
									"fontface" : 0,
									"fontsize" : 9.0,
									"ignoreclick" : 0,
									"presentation_rect" : [ 0.0, 0.0, 0.0, 0.0 ],
									"hidden" : 0
								}

							}
, 							{
								"box" : 								{
									"maxclass" : "newobj",
									"text" : "bach.expr ($i4>=($i1-$i2-1))+$i3",
									"patching_rect" : [ 198.0, 341.666626, 199.0, 17.0 ],
									"numinlets" : 4,
									"presentation" : 0,
									"id" : "obj-30",
									"fontname" : "Arial",
									"textcolor" : [ 0.101961, 0.121569, 0.172549, 1.0 ],
									"bgcolor" : [ 1.0, 1.0, 1.0, 1.0 ],
									"numoutlets" : 1,
									"background" : 0,
									"color" : [ 0.494118, 0.556863, 0.607843, 1.0 ],
									"outlettype" : [ "" ],
									"fontface" : 0,
									"fontsize" : 9.0,
									"ignoreclick" : 0,
									"presentation_rect" : [ 0.0, 0.0, 0.0, 0.0 ],
									"hidden" : 0
								}

							}
, 							{
								"box" : 								{
									"maxclass" : "newobj",
									"text" : "int",
									"patching_rect" : [ 257.75, 307.5, 43.5, 17.0 ],
									"numinlets" : 2,
									"presentation" : 0,
									"id" : "obj-26",
									"fontname" : "Arial",
									"textcolor" : [ 0.101961, 0.121569, 0.172549, 1.0 ],
									"bgcolor" : [ 1.0, 1.0, 1.0, 1.0 ],
									"numoutlets" : 1,
									"background" : 0,
									"color" : [ 0.494118, 0.556863, 0.607843, 1.0 ],
									"outlettype" : [ "int" ],
									"fontface" : 0,
									"fontsize" : 9.0,
									"ignoreclick" : 0,
									"presentation_rect" : [ 0.0, 0.0, 0.0, 0.0 ],
									"hidden" : 0
								}

							}
, 							{
								"box" : 								{
									"maxclass" : "newobj",
									"text" : "+ 1",
									"patching_rect" : [ 281.75, 277.666626, 32.5, 17.0 ],
									"numinlets" : 2,
									"presentation" : 0,
									"id" : "obj-24",
									"fontname" : "Arial",
									"textcolor" : [ 0.101961, 0.121569, 0.172549, 1.0 ],
									"bgcolor" : [ 1.0, 1.0, 1.0, 1.0 ],
									"numoutlets" : 1,
									"background" : 0,
									"color" : [ 0.494118, 0.556863, 0.607843, 1.0 ],
									"outlettype" : [ "int" ],
									"fontface" : 0,
									"fontsize" : 9.0,
									"ignoreclick" : 0,
									"presentation_rect" : [ 0.0, 0.0, 0.0, 0.0 ],
									"hidden" : 0
								}

							}
, 							{
								"box" : 								{
									"maxclass" : "outlet",
									"patching_rect" : [ 26.0, 435.333313, 19.0, 19.0 ],
									"numinlets" : 1,
									"presentation" : 0,
									"id" : "obj-13",
									"numoutlets" : 0,
									"background" : 0,
									"ignoreclick" : 0,
									"presentation_rect" : [ 0.0, 0.0, 0.0, 0.0 ],
									"hidden" : 0,
									"comment" : ""
								}

							}
, 							{
								"box" : 								{
									"maxclass" : "newobj",
									"text" : "bach.slice 1",
									"patching_rect" : [ 159.0, 214.666656, 58.0, 17.0 ],
									"numinlets" : 1,
									"presentation" : 0,
									"id" : "obj-1",
									"fontname" : "Arial",
									"textcolor" : [ 0.101961, 0.121569, 0.172549, 1.0 ],
									"bgcolor" : [ 1.0, 1.0, 1.0, 1.0 ],
									"numoutlets" : 2,
									"background" : 0,
									"color" : [ 0.494118, 0.556863, 0.607843, 1.0 ],
									"outlettype" : [ "", "" ],
									"fontface" : 0,
									"fontsize" : 9.0,
									"ignoreclick" : 0,
									"presentation_rect" : [ 0.0, 0.0, 0.0, 0.0 ],
									"hidden" : 0
								}

							}
, 							{
								"box" : 								{
									"maxclass" : "newobj",
									"text" : "bach.reg",
									"patching_rect" : [ 159.0, 190.0, 130.0, 17.0 ],
									"numinlets" : 2,
									"presentation" : 0,
									"id" : "obj-5",
									"fontname" : "Arial",
									"textcolor" : [ 0.101961, 0.121569, 0.172549, 1.0 ],
									"bgcolor" : [ 1.0, 1.0, 1.0, 1.0 ],
									"numoutlets" : 1,
									"background" : 0,
									"color" : [ 0.494118, 0.556863, 0.607843, 1.0 ],
									"outlettype" : [ "" ],
									"fontface" : 0,
									"fontsize" : 9.0,
									"ignoreclick" : 0,
									"presentation_rect" : [ 0.0, 0.0, 0.0, 0.0 ],
									"hidden" : 0,
									"saved_object_attributes" : 									{
										"embed" : 0
									}

								}

							}
, 							{
								"box" : 								{
									"maxclass" : "newobj",
									"text" : "gate",
									"patching_rect" : [ 159.0, 164.666656, 36.0, 17.0 ],
									"numinlets" : 2,
									"presentation" : 0,
									"id" : "obj-88",
									"fontname" : "Arial",
									"textcolor" : [ 0.101961, 0.121569, 0.172549, 1.0 ],
									"bgcolor" : [ 1.0, 1.0, 1.0, 1.0 ],
									"numoutlets" : 1,
									"background" : 0,
									"color" : [ 0.494118, 0.556863, 0.607843, 1.0 ],
									"outlettype" : [ "" ],
									"fontface" : 0,
									"fontsize" : 9.0,
									"ignoreclick" : 0,
									"presentation_rect" : [ 0.0, 0.0, 0.0, 0.0 ],
									"hidden" : 0
								}

							}
, 							{
								"box" : 								{
									"maxclass" : "newobj",
									"text" : "> 1",
									"patching_rect" : [ 214.0, 139.666656, 32.5, 17.0 ],
									"numinlets" : 2,
									"presentation" : 0,
									"id" : "obj-48",
									"fontname" : "Arial",
									"textcolor" : [ 0.101961, 0.121569, 0.172549, 1.0 ],
									"bgcolor" : [ 1.0, 1.0, 1.0, 1.0 ],
									"numoutlets" : 1,
									"background" : 0,
									"color" : [ 0.494118, 0.556863, 0.607843, 1.0 ],
									"outlettype" : [ "int" ],
									"fontface" : 0,
									"fontsize" : 9.0,
									"ignoreclick" : 0,
									"presentation_rect" : [ 0.0, 0.0, 0.0, 0.0 ],
									"hidden" : 0
								}

							}
, 							{
								"box" : 								{
									"maxclass" : "newobj",
									"text" : "t b l",
									"patching_rect" : [ 176.0, 91.666656, 57.0, 17.0 ],
									"numinlets" : 1,
									"presentation" : 0,
									"id" : "obj-46",
									"fontname" : "Arial",
									"textcolor" : [ 0.101961, 0.121569, 0.172549, 1.0 ],
									"bgcolor" : [ 1.0, 1.0, 1.0, 1.0 ],
									"numoutlets" : 2,
									"background" : 0,
									"color" : [ 0.494118, 0.556863, 0.607843, 1.0 ],
									"outlettype" : [ "bang", "" ],
									"fontface" : 0,
									"fontsize" : 9.0,
									"ignoreclick" : 0,
									"presentation_rect" : [ 0.0, 0.0, 0.0, 0.0 ],
									"hidden" : 0
								}

							}
, 							{
								"box" : 								{
									"maxclass" : "newobj",
									"text" : "bach.depth",
									"patching_rect" : [ 214.0, 115.666656, 55.0, 17.0 ],
									"numinlets" : 1,
									"presentation" : 0,
									"id" : "obj-44",
									"fontname" : "Arial",
									"textcolor" : [ 0.101961, 0.121569, 0.172549, 1.0 ],
									"bgcolor" : [ 1.0, 1.0, 1.0, 1.0 ],
									"numoutlets" : 1,
									"background" : 0,
									"color" : [ 0.494118, 0.556863, 0.607843, 1.0 ],
									"outlettype" : [ "int" ],
									"fontface" : 0,
									"fontsize" : 9.0,
									"ignoreclick" : 0,
									"presentation_rect" : [ 0.0, 0.0, 0.0, 0.0 ],
									"hidden" : 0
								}

							}
, 							{
								"box" : 								{
									"maxclass" : "newobj",
									"text" : "bach.iter @maxdepth 2",
									"patching_rect" : [ 176.0, 67.666656, 207.0, 17.0 ],
									"numinlets" : 2,
									"presentation" : 0,
									"id" : "obj-25",
									"fontname" : "Arial",
									"textcolor" : [ 0.101961, 0.121569, 0.172549, 1.0 ],
									"bgcolor" : [ 1.0, 1.0, 1.0, 1.0 ],
									"numoutlets" : 3,
									"background" : 0,
									"color" : [ 0.494118, 0.556863, 0.607843, 1.0 ],
									"outlettype" : [ "", "", "int" ],
									"fontface" : 0,
									"fontsize" : 9.0,
									"ignoreclick" : 0,
									"presentation_rect" : [ 0.0, 0.0, 0.0, 0.0 ],
									"hidden" : 0
								}

							}
, 							{
								"box" : 								{
									"maxclass" : "inlet",
									"patching_rect" : [ 26.0, 13.0, 19.0, 19.0 ],
									"numinlets" : 0,
									"presentation" : 0,
									"id" : "obj-50",
									"numoutlets" : 1,
									"background" : 0,
									"outlettype" : [ "" ],
									"ignoreclick" : 0,
									"presentation_rect" : [ 0.0, 0.0, 0.0, 0.0 ],
									"hidden" : 0,
									"comment" : ""
								}

							}
 ],
						"lines" : [ 							{
								"patchline" : 								{
									"source" : [ "obj-4", 4 ],
									"destination" : [ "obj-3", 2 ],
									"hidden" : 0,
									"color" : [ 0.87451, 0.25098, 0.717647, 1.0 ],
									"midpoints" : [ 334.5, 63.666656, 585.5, 63.666656 ]
								}

							}
, 							{
								"patchline" : 								{
									"source" : [ "obj-4", 3 ],
									"destination" : [ "obj-47", 1 ],
									"hidden" : 0,
									"color" : [ 0.047059, 0.913725, 0.913725, 1.0 ],
									"midpoints" : [  ]
								}

							}
, 							{
								"patchline" : 								{
									"source" : [ "obj-4", 3 ],
									"destination" : [ "obj-26", 1 ],
									"hidden" : 0,
									"color" : [ 0.047059, 0.913725, 0.913725, 1.0 ],
									"midpoints" : [  ]
								}

							}
, 							{
								"patchline" : 								{
									"source" : [ "obj-4", 2 ],
									"destination" : [ "obj-25", 0 ],
									"hidden" : 0,
									"color" : [ 0.101961, 0.121569, 0.172549, 1.0 ],
									"midpoints" : [  ]
								}

							}
, 							{
								"patchline" : 								{
									"source" : [ "obj-4", 1 ],
									"destination" : [ "obj-3", 0 ],
									"hidden" : 0,
									"color" : [ 0.101961, 0.121569, 0.172549, 1.0 ],
									"midpoints" : [  ]
								}

							}
, 							{
								"patchline" : 								{
									"source" : [ "obj-4", 0 ],
									"destination" : [ "obj-56", 0 ],
									"hidden" : 0,
									"color" : [ 0.101961, 0.121569, 0.172549, 1.0 ],
									"midpoints" : [  ]
								}

							}
, 							{
								"patchline" : 								{
									"source" : [ "obj-50", 0 ],
									"destination" : [ "obj-4", 0 ],
									"hidden" : 0,
									"color" : [ 0.101961, 0.121569, 0.172549, 1.0 ],
									"midpoints" : [  ]
								}

							}
, 							{
								"patchline" : 								{
									"source" : [ "obj-30", 0 ],
									"destination" : [ "obj-56", 1 ],
									"hidden" : 0,
									"color" : [ 0.827451, 0.364706, 0.541176, 1.0 ],
									"midpoints" : [  ]
								}

							}
, 							{
								"patchline" : 								{
									"source" : [ "obj-30", 0 ],
									"destination" : [ "obj-47", 1 ],
									"hidden" : 0,
									"color" : [ 0.827451, 0.364706, 0.541176, 1.0 ],
									"midpoints" : [ 207.5, 368.0, 375.0, 368.0, 375.0, 301.0, 361.5, 301.0 ]
								}

							}
, 							{
								"patchline" : 								{
									"source" : [ "obj-47", 0 ],
									"destination" : [ "obj-30", 2 ],
									"hidden" : 0,
									"color" : [ 0.101961, 0.121569, 0.172549, 1.0 ],
									"midpoints" : [  ]
								}

							}
, 							{
								"patchline" : 								{
									"source" : [ "obj-37", 0 ],
									"destination" : [ "obj-30", 3 ],
									"hidden" : 0,
									"color" : [ 0.317647, 0.709804, 0.321569, 1.0 ],
									"midpoints" : [  ]
								}

							}
, 							{
								"patchline" : 								{
									"source" : [ "obj-26", 0 ],
									"destination" : [ "obj-30", 1 ],
									"hidden" : 0,
									"color" : [ 0.101961, 0.121569, 0.172549, 1.0 ],
									"midpoints" : [  ]
								}

							}
, 							{
								"patchline" : 								{
									"source" : [ "obj-56", 0 ],
									"destination" : [ "obj-13", 0 ],
									"hidden" : 0,
									"color" : [ 0.101961, 0.121569, 0.172549, 1.0 ],
									"midpoints" : [  ]
								}

							}
, 							{
								"patchline" : 								{
									"source" : [ "obj-26", 0 ],
									"destination" : [ "obj-24", 0 ],
									"hidden" : 0,
									"color" : [ 0.101961, 0.121569, 0.172549, 1.0 ],
									"midpoints" : [ 267.25, 333.5, 316.75, 333.5, 316.75, 271.5, 291.25, 271.5 ]
								}

							}
, 							{
								"patchline" : 								{
									"source" : [ "obj-24", 0 ],
									"destination" : [ "obj-26", 1 ],
									"hidden" : 0,
									"color" : [ 0.101961, 0.121569, 0.172549, 1.0 ],
									"midpoints" : [  ]
								}

							}
, 							{
								"patchline" : 								{
									"source" : [ "obj-5", 0 ],
									"destination" : [ "obj-1", 0 ],
									"hidden" : 0,
									"color" : [ 0.101961, 0.121569, 0.172549, 1.0 ],
									"midpoints" : [  ]
								}

							}
, 							{
								"patchline" : 								{
									"source" : [ "obj-88", 0 ],
									"destination" : [ "obj-5", 0 ],
									"hidden" : 0,
									"color" : [ 0.101961, 0.121569, 0.172549, 1.0 ],
									"midpoints" : [  ]
								}

							}
, 							{
								"patchline" : 								{
									"source" : [ "obj-46", 0 ],
									"destination" : [ "obj-88", 1 ],
									"hidden" : 0,
									"color" : [ 0.101961, 0.121569, 0.172549, 1.0 ],
									"midpoints" : [  ]
								}

							}
, 							{
								"patchline" : 								{
									"source" : [ "obj-46", 1 ],
									"destination" : [ "obj-44", 0 ],
									"hidden" : 0,
									"color" : [ 0.101961, 0.121569, 0.172549, 1.0 ],
									"midpoints" : [  ]
								}

							}
, 							{
								"patchline" : 								{
									"source" : [ "obj-25", 0 ],
									"destination" : [ "obj-46", 0 ],
									"hidden" : 0,
									"color" : [ 0.101961, 0.121569, 0.172549, 1.0 ],
									"midpoints" : [  ]
								}

							}
, 							{
								"patchline" : 								{
									"source" : [ "obj-44", 0 ],
									"destination" : [ "obj-48", 0 ],
									"hidden" : 0,
									"color" : [ 0.101961, 0.121569, 0.172549, 1.0 ],
									"midpoints" : [  ]
								}

							}
, 							{
								"patchline" : 								{
									"source" : [ "obj-48", 0 ],
									"destination" : [ "obj-88", 0 ],
									"hidden" : 0,
									"color" : [ 0.101961, 0.121569, 0.172549, 1.0 ],
									"midpoints" : [  ]
								}

							}
, 							{
								"patchline" : 								{
									"source" : [ "obj-25", 1 ],
									"destination" : [ "obj-5", 1 ],
									"hidden" : 0,
									"color" : [ 0.101961, 0.121569, 0.172549, 1.0 ],
									"midpoints" : [  ]
								}

							}
, 							{
								"patchline" : 								{
									"source" : [ "obj-3", 0 ],
									"destination" : [ "obj-2", 0 ],
									"hidden" : 0,
									"color" : [ 0.101961, 0.121569, 0.172549, 1.0 ],
									"midpoints" : [  ]
								}

							}
, 							{
								"patchline" : 								{
									"source" : [ "obj-31", 3 ],
									"destination" : [ "obj-3", 1 ],
									"hidden" : 0,
									"color" : [ 0.945098, 0.913725, 0.407843, 1.0 ],
									"midpoints" : [  ]
								}

							}
, 							{
								"patchline" : 								{
									"source" : [ "obj-31", 2 ],
									"destination" : [ "obj-47", 0 ],
									"hidden" : 0,
									"color" : [ 0.101961, 0.121569, 0.172549, 1.0 ],
									"midpoints" : [  ]
								}

							}
, 							{
								"patchline" : 								{
									"source" : [ "obj-1", 1 ],
									"destination" : [ "obj-31", 0 ],
									"hidden" : 0,
									"color" : [ 0.101961, 0.121569, 0.172549, 1.0 ],
									"midpoints" : [  ]
								}

							}
, 							{
								"patchline" : 								{
									"source" : [ "obj-31", 1 ],
									"destination" : [ "obj-26", 0 ],
									"hidden" : 0,
									"color" : [ 0.101961, 0.121569, 0.172549, 1.0 ],
									"midpoints" : [  ]
								}

							}
, 							{
								"patchline" : 								{
									"source" : [ "obj-31", 0 ],
									"destination" : [ "obj-30", 0 ],
									"hidden" : 0,
									"color" : [ 0.101961, 0.121569, 0.172549, 1.0 ],
									"midpoints" : [  ]
								}

							}
 ]
					}
,
					"saved_object_attributes" : 					{
						"default_fontface" : 0,
						"fontname" : "Arial",
						"default_fontname" : "Arial",
						"globalpatchername" : "",
						"default_fontsize" : 9.0,
						"fontface" : 0,
						"fontsize" : 9.0
					}

				}

			}
, 			{
				"box" : 				{
					"maxclass" : "newobj",
					"text" : "p load",
					"patching_rect" : [ 63.0, 28.0, 389.0, 17.0 ],
					"numinlets" : 1,
					"presentation" : 0,
					"id" : "obj-2",
					"fontname" : "Arial",
					"textcolor" : [ 0.101961, 0.121569, 0.172549, 1.0 ],
					"bgcolor" : [ 1.0, 1.0, 1.0, 1.0 ],
					"numoutlets" : 2,
					"background" : 0,
					"color" : [ 0.494118, 0.556863, 0.607843, 1.0 ],
					"outlettype" : [ "", "" ],
					"fontface" : 0,
					"fontsize" : 9.0,
					"ignoreclick" : 0,
					"presentation_rect" : [ 0.0, 0.0, 0.0, 0.0 ],
					"hidden" : 0,
					"patcher" : 					{
						"fileversion" : 1,
						"appversion" : 						{
							"major" : 5,
							"minor" : 1,
							"revision" : 9
						}
,
						"rect" : [ 747.0, 135.0, 242.0, 271.0 ],
						"bgcolor" : [ 0.666667, 0.698039, 0.717647, 1.0 ],
						"bglocked" : 0,
						"defrect" : [ 747.0, 135.0, 242.0, 271.0 ],
						"openrect" : [ 0.0, 0.0, 0.0, 0.0 ],
						"openinpresentation" : 0,
						"default_fontsize" : 9.0,
						"default_fontface" : 0,
						"default_fontname" : "Arial",
						"gridonopen" : 0,
						"gridsize" : [ 15.0, 15.0 ],
						"gridsnaponopen" : 0,
						"toolbarvisible" : 0,
						"boxanimatetime" : 200,
						"imprint" : 1,
						"enablehscroll" : 1,
						"enablevscroll" : 1,
						"devicewidth" : 0.0,
						"boxes" : [ 							{
								"box" : 								{
									"maxclass" : "newobj",
									"text" : "zl rev",
									"patching_rect" : [ 72.0, 58.666656, 32.0, 17.0 ],
									"numinlets" : 2,
									"presentation" : 0,
									"id" : "obj-18",
									"fontname" : "Arial",
									"textcolor" : [ 0.101961, 0.121569, 0.172549, 1.0 ],
									"bgcolor" : [ 1.0, 1.0, 1.0, 1.0 ],
									"numoutlets" : 2,
									"background" : 0,
									"color" : [ 0.494118, 0.556863, 0.607843, 1.0 ],
									"outlettype" : [ "", "" ],
									"fontface" : 0,
									"fontsize" : 9.0,
									"ignoreclick" : 0,
									"presentation_rect" : [ 0.0, 0.0, 0.0, 0.0 ],
									"hidden" : 0
								}

							}
, 							{
								"box" : 								{
									"maxclass" : "newobj",
									"text" : "route done",
									"patching_rect" : [ 37.0, 34.333344, 54.0, 17.0 ],
									"numinlets" : 1,
									"presentation" : 0,
									"id" : "obj-20",
									"fontname" : "Arial",
									"textcolor" : [ 0.101961, 0.121569, 0.172549, 1.0 ],
									"bgcolor" : [ 1.0, 1.0, 1.0, 1.0 ],
									"numoutlets" : 2,
									"background" : 0,
									"color" : [ 0.494118, 0.556863, 0.607843, 1.0 ],
									"outlettype" : [ "", "" ],
									"fontface" : 0,
									"fontsize" : 9.0,
									"ignoreclick" : 0,
									"presentation_rect" : [ 0.0, 0.0, 0.0, 0.0 ],
									"hidden" : 0
								}

							}
, 							{
								"box" : 								{
									"maxclass" : "inlet",
									"patching_rect" : [ 37.0, 4.0, 20.0, 20.0 ],
									"numinlets" : 0,
									"presentation" : 0,
									"id" : "obj-30",
									"numoutlets" : 1,
									"background" : 0,
									"outlettype" : [ "" ],
									"ignoreclick" : 0,
									"presentation_rect" : [ 0.0, 0.0, 0.0, 0.0 ],
									"hidden" : 0,
									"comment" : ""
								}

							}
, 							{
								"box" : 								{
									"maxclass" : "message",
									"text" : "out $1",
									"gradient" : 0,
									"patching_rect" : [ 21.0, 208.0, 36.0, 15.0 ],
									"numinlets" : 2,
									"presentation" : 0,
									"id" : "obj-6",
									"fontname" : "Arial",
									"textcolor" : [ 0.101961, 0.121569, 0.172549, 1.0 ],
									"bgcolor" : [ 0.568627, 0.619608, 0.662745, 1.0 ],
									"numoutlets" : 1,
									"background" : 0,
									"bgcolor2" : [ 0.568627, 0.619608, 0.662745, 1.0 ],
									"outlettype" : [ "" ],
									"fontface" : 0,
									"fontsize" : 9.0,
									"ignoreclick" : 0,
									"presentation_rect" : [ 0.0, 0.0, 0.0, 0.0 ],
									"hidden" : 0
								}

							}
, 							{
								"box" : 								{
									"maxclass" : "outlet",
									"patching_rect" : [ 72.0, 231.0, 18.0, 18.0 ],
									"numinlets" : 1,
									"presentation" : 0,
									"id" : "obj-5",
									"numoutlets" : 0,
									"background" : 0,
									"ignoreclick" : 0,
									"presentation_rect" : [ 0.0, 0.0, 0.0, 0.0 ],
									"hidden" : 0,
									"comment" : ""
								}

							}
, 							{
								"box" : 								{
									"maxclass" : "message",
									"text" : "2",
									"gradient" : 0,
									"patching_rect" : [ 154.0, 155.0, 16.0, 15.0 ],
									"numinlets" : 2,
									"presentation" : 0,
									"id" : "obj-4",
									"fontname" : "Arial",
									"textcolor" : [ 0.101961, 0.121569, 0.172549, 1.0 ],
									"bgcolor" : [ 0.568627, 0.619608, 0.662745, 1.0 ],
									"numoutlets" : 1,
									"background" : 0,
									"bgcolor2" : [ 0.568627, 0.619608, 0.662745, 1.0 ],
									"outlettype" : [ "" ],
									"fontface" : 0,
									"fontsize" : 9.0,
									"ignoreclick" : 0,
									"presentation_rect" : [ 0.0, 0.0, 0.0, 0.0 ],
									"hidden" : 0
								}

							}
, 							{
								"box" : 								{
									"maxclass" : "message",
									"text" : "0",
									"gradient" : 0,
									"patching_rect" : [ 184.0, 155.0, 16.0, 15.0 ],
									"numinlets" : 2,
									"presentation" : 0,
									"id" : "obj-2",
									"fontname" : "Arial",
									"textcolor" : [ 0.101961, 0.121569, 0.172549, 1.0 ],
									"bgcolor" : [ 0.568627, 0.619608, 0.662745, 1.0 ],
									"numoutlets" : 1,
									"background" : 0,
									"bgcolor2" : [ 0.568627, 0.619608, 0.662745, 1.0 ],
									"outlettype" : [ "" ],
									"fontface" : 0,
									"fontsize" : 9.0,
									"ignoreclick" : 0,
									"presentation_rect" : [ 0.0, 0.0, 0.0, 0.0 ],
									"hidden" : 0
								}

							}
, 							{
								"box" : 								{
									"maxclass" : "newobj",
									"text" : "zl iter 2",
									"patching_rect" : [ 72.0, 84.333344, 40.0, 17.0 ],
									"numinlets" : 2,
									"presentation" : 0,
									"id" : "obj-7",
									"fontname" : "Arial",
									"textcolor" : [ 0.101961, 0.121569, 0.172549, 1.0 ],
									"bgcolor" : [ 1.0, 1.0, 1.0, 1.0 ],
									"numoutlets" : 2,
									"background" : 0,
									"color" : [ 0.494118, 0.556863, 0.607843, 1.0 ],
									"outlettype" : [ "", "" ],
									"fontface" : 0,
									"fontsize" : 9.0,
									"ignoreclick" : 0,
									"presentation_rect" : [ 0.0, 0.0, 0.0, 0.0 ],
									"hidden" : 0
								}

							}
, 							{
								"box" : 								{
									"maxclass" : "message",
									"text" : "1",
									"gradient" : 0,
									"patching_rect" : [ 124.0, 155.0, 16.0, 15.0 ],
									"numinlets" : 2,
									"presentation" : 0,
									"id" : "obj-16",
									"fontname" : "Arial",
									"textcolor" : [ 0.101961, 0.121569, 0.172549, 1.0 ],
									"bgcolor" : [ 0.568627, 0.619608, 0.662745, 1.0 ],
									"numoutlets" : 1,
									"background" : 0,
									"bgcolor2" : [ 0.568627, 0.619608, 0.662745, 1.0 ],
									"outlettype" : [ "" ],
									"fontface" : 0,
									"fontsize" : 9.0,
									"ignoreclick" : 0,
									"presentation_rect" : [ 0.0, 0.0, 0.0, 0.0 ],
									"hidden" : 0
								}

							}
, 							{
								"box" : 								{
									"maxclass" : "newobj",
									"text" : "gate 2",
									"patching_rect" : [ 21.0, 183.0, 70.0, 17.0 ],
									"numinlets" : 2,
									"presentation" : 0,
									"id" : "obj-15",
									"fontname" : "Arial",
									"textcolor" : [ 0.101961, 0.121569, 0.172549, 1.0 ],
									"bgcolor" : [ 1.0, 1.0, 1.0, 1.0 ],
									"numoutlets" : 2,
									"background" : 0,
									"color" : [ 0.494118, 0.556863, 0.607843, 1.0 ],
									"outlettype" : [ "", "" ],
									"fontface" : 0,
									"fontsize" : 9.0,
									"ignoreclick" : 0,
									"presentation_rect" : [ 0.0, 0.0, 0.0, 0.0 ],
									"hidden" : 0
								}

							}
, 							{
								"box" : 								{
									"maxclass" : "newobj",
									"text" : "sel out index",
									"patching_rect" : [ 121.0, 129.0, 79.0, 17.0 ],
									"numinlets" : 1,
									"presentation" : 0,
									"id" : "obj-14",
									"fontname" : "Arial",
									"textcolor" : [ 0.101961, 0.121569, 0.172549, 1.0 ],
									"bgcolor" : [ 1.0, 1.0, 1.0, 1.0 ],
									"numoutlets" : 3,
									"background" : 0,
									"color" : [ 0.494118, 0.556863, 0.607843, 1.0 ],
									"outlettype" : [ "bang", "bang", "" ],
									"fontface" : 0,
									"fontsize" : 9.0,
									"ignoreclick" : 0,
									"presentation_rect" : [ 0.0, 0.0, 0.0, 0.0 ],
									"hidden" : 0
								}

							}
, 							{
								"box" : 								{
									"maxclass" : "newobj",
									"text" : "zl slice 1",
									"patching_rect" : [ 72.0, 106.0, 68.0, 17.0 ],
									"numinlets" : 2,
									"presentation" : 0,
									"id" : "obj-11",
									"fontname" : "Arial",
									"textcolor" : [ 0.101961, 0.121569, 0.172549, 1.0 ],
									"bgcolor" : [ 1.0, 1.0, 1.0, 1.0 ],
									"numoutlets" : 2,
									"background" : 0,
									"color" : [ 0.494118, 0.556863, 0.607843, 1.0 ],
									"outlettype" : [ "", "" ],
									"fontface" : 0,
									"fontsize" : 9.0,
									"ignoreclick" : 0,
									"presentation_rect" : [ 0.0, 0.0, 0.0, 0.0 ],
									"hidden" : 0
								}

							}
, 							{
								"box" : 								{
									"maxclass" : "outlet",
									"patching_rect" : [ 21.0, 231.0, 18.0, 18.0 ],
									"numinlets" : 1,
									"presentation" : 0,
									"id" : "obj-1",
									"numoutlets" : 0,
									"background" : 0,
									"ignoreclick" : 0,
									"presentation_rect" : [ 0.0, 0.0, 0.0, 0.0 ],
									"hidden" : 0,
									"comment" : ""
								}

							}
 ],
						"lines" : [ 							{
								"patchline" : 								{
									"source" : [ "obj-6", 0 ],
									"destination" : [ "obj-1", 0 ],
									"hidden" : 0,
									"color" : [ 0.101961, 0.121569, 0.172549, 1.0 ],
									"midpoints" : [  ]
								}

							}
, 							{
								"patchline" : 								{
									"source" : [ "obj-7", 0 ],
									"destination" : [ "obj-11", 0 ],
									"hidden" : 0,
									"color" : [ 0.101961, 0.121569, 0.172549, 1.0 ],
									"midpoints" : [  ]
								}

							}
, 							{
								"patchline" : 								{
									"source" : [ "obj-4", 0 ],
									"destination" : [ "obj-15", 0 ],
									"hidden" : 0,
									"color" : [ 0.756863, 0.329412, 0.843137, 1.0 ],
									"midpoints" : [  ]
								}

							}
, 							{
								"patchline" : 								{
									"source" : [ "obj-2", 0 ],
									"destination" : [ "obj-15", 0 ],
									"hidden" : 0,
									"color" : [ 0.756863, 0.329412, 0.843137, 1.0 ],
									"midpoints" : [  ]
								}

							}
, 							{
								"patchline" : 								{
									"source" : [ "obj-11", 0 ],
									"destination" : [ "obj-15", 1 ],
									"hidden" : 0,
									"color" : [ 0.101961, 0.121569, 0.172549, 1.0 ],
									"midpoints" : [  ]
								}

							}
, 							{
								"patchline" : 								{
									"source" : [ "obj-16", 0 ],
									"destination" : [ "obj-15", 0 ],
									"hidden" : 0,
									"color" : [ 0.756863, 0.329412, 0.843137, 1.0 ],
									"midpoints" : [  ]
								}

							}
, 							{
								"patchline" : 								{
									"source" : [ "obj-15", 1 ],
									"destination" : [ "obj-5", 0 ],
									"hidden" : 0,
									"color" : [ 0.101961, 0.121569, 0.172549, 1.0 ],
									"midpoints" : [  ]
								}

							}
, 							{
								"patchline" : 								{
									"source" : [ "obj-15", 0 ],
									"destination" : [ "obj-6", 0 ],
									"hidden" : 0,
									"color" : [ 0.101961, 0.121569, 0.172549, 1.0 ],
									"midpoints" : [  ]
								}

							}
, 							{
								"patchline" : 								{
									"source" : [ "obj-11", 1 ],
									"destination" : [ "obj-14", 0 ],
									"hidden" : 0,
									"color" : [ 0.101961, 0.121569, 0.172549, 1.0 ],
									"midpoints" : [  ]
								}

							}
, 							{
								"patchline" : 								{
									"source" : [ "obj-14", 0 ],
									"destination" : [ "obj-16", 0 ],
									"hidden" : 0,
									"color" : [ 0.101961, 0.121569, 0.172549, 1.0 ],
									"midpoints" : [  ]
								}

							}
, 							{
								"patchline" : 								{
									"source" : [ "obj-14", 2 ],
									"destination" : [ "obj-2", 0 ],
									"hidden" : 0,
									"color" : [ 0.101961, 0.121569, 0.172549, 1.0 ],
									"midpoints" : [  ]
								}

							}
, 							{
								"patchline" : 								{
									"source" : [ "obj-14", 1 ],
									"destination" : [ "obj-4", 0 ],
									"hidden" : 0,
									"color" : [ 0.101961, 0.121569, 0.172549, 1.0 ],
									"midpoints" : [  ]
								}

							}
, 							{
								"patchline" : 								{
									"source" : [ "obj-20", 1 ],
									"destination" : [ "obj-18", 0 ],
									"hidden" : 0,
									"color" : [ 0.101961, 0.121569, 0.172549, 1.0 ],
									"midpoints" : [  ]
								}

							}
, 							{
								"patchline" : 								{
									"source" : [ "obj-18", 0 ],
									"destination" : [ "obj-7", 0 ],
									"hidden" : 0,
									"color" : [ 0.101961, 0.121569, 0.172549, 1.0 ],
									"midpoints" : [  ]
								}

							}
, 							{
								"patchline" : 								{
									"source" : [ "obj-30", 0 ],
									"destination" : [ "obj-20", 0 ],
									"hidden" : 0,
									"color" : [ 0.101961, 0.121569, 0.172549, 1.0 ],
									"midpoints" : [  ]
								}

							}
 ]
					}
,
					"saved_object_attributes" : 					{
						"default_fontface" : 0,
						"fontname" : "Arial",
						"default_fontname" : "Arial",
						"globalpatchername" : "",
						"default_fontsize" : 9.0,
						"fontface" : 0,
						"fontsize" : 9.0
					}

				}

			}
, 			{
				"box" : 				{
					"maxclass" : "newobj",
					"text" : "bach.wrap",
					"patching_rect" : [ 108.0, 509.5, 52.0, 17.0 ],
					"numinlets" : 1,
					"presentation" : 0,
					"id" : "obj-1",
					"fontname" : "Arial",
					"textcolor" : [ 0.101961, 0.121569, 0.172549, 1.0 ],
					"bgcolor" : [ 1.0, 1.0, 1.0, 1.0 ],
					"numoutlets" : 1,
					"background" : 0,
					"color" : [ 0.494118, 0.556863, 0.607843, 1.0 ],
					"outlettype" : [ "" ],
					"fontface" : 0,
					"fontsize" : 9.0,
					"ignoreclick" : 0,
					"presentation_rect" : [ 0.0, 0.0, 0.0, 0.0 ],
					"hidden" : 0
				}

			}
, 			{
				"box" : 				{
					"maxclass" : "newobj",
					"text" : "bach.flat @maxlevel 1",
					"patching_rect" : [ 108.0, 380.5, 99.0, 17.0 ],
					"numinlets" : 1,
					"presentation" : 0,
					"id" : "obj-76",
					"fontname" : "Arial",
					"textcolor" : [ 0.101961, 0.121569, 0.172549, 1.0 ],
					"bgcolor" : [ 1.0, 1.0, 1.0, 1.0 ],
					"numoutlets" : 1,
					"background" : 0,
					"color" : [ 0.494118, 0.556863, 0.607843, 1.0 ],
					"outlettype" : [ "" ],
					"fontface" : 0,
					"fontsize" : 9.0,
					"ignoreclick" : 0,
					"presentation_rect" : [ 0.0, 0.0, 0.0, 0.0 ],
					"hidden" : 0
				}

			}
, 			{
				"box" : 				{
					"maxclass" : "newobj",
					"text" : "bach.nth",
					"patching_rect" : [ 108.0, 453.5, 137.0, 17.0 ],
					"numinlets" : 2,
					"presentation" : 0,
					"id" : "obj-86",
					"fontname" : "Arial",
					"textcolor" : [ 0.101961, 0.121569, 0.172549, 1.0 ],
					"bgcolor" : [ 1.0, 1.0, 1.0, 1.0 ],
					"numoutlets" : 1,
					"background" : 0,
					"color" : [ 0.494118, 0.556863, 0.607843, 1.0 ],
					"outlettype" : [ "" ],
					"fontface" : 0,
					"fontsize" : 9.0,
					"ignoreclick" : 0,
					"presentation_rect" : [ 0.0, 0.0, 0.0, 0.0 ],
					"hidden" : 0
				}

			}
, 			{
				"box" : 				{
					"maxclass" : "outlet",
					"patching_rect" : [ 108.0, 535.5, 17.0, 17.0 ],
					"numinlets" : 1,
					"presentation" : 0,
					"id" : "obj-18",
					"numoutlets" : 0,
					"background" : 0,
					"ignoreclick" : 0,
					"presentation_rect" : [ 0.0, 0.0, 0.0, 0.0 ],
					"hidden" : 0,
					"comment" : ""
				}

			}
, 			{
				"box" : 				{
					"maxclass" : "inlet",
					"patching_rect" : [ 345.0, 52.5, 17.0, 17.0 ],
					"numinlets" : 0,
					"presentation" : 0,
					"id" : "obj-3",
					"numoutlets" : 1,
					"background" : 0,
					"outlettype" : [ "" ],
					"ignoreclick" : 0,
					"presentation_rect" : [ 0.0, 0.0, 0.0, 0.0 ],
					"hidden" : 0,
					"comment" : ""
				}

			}
, 			{
				"box" : 				{
					"maxclass" : "inlet",
					"patching_rect" : [ 108.0, 52.5, 17.0, 17.0 ],
					"numinlets" : 0,
					"presentation" : 0,
					"id" : "obj-51",
					"numoutlets" : 1,
					"background" : 0,
					"outlettype" : [ "" ],
					"ignoreclick" : 0,
					"presentation_rect" : [ 0.0, 0.0, 0.0, 0.0 ],
					"hidden" : 0,
					"comment" : ""
				}

			}
 ],
		"lines" : [ 			{
				"patchline" : 				{
					"source" : [ "obj-20", 0 ],
					"destination" : [ "obj-21", 0 ],
					"hidden" : 0,
					"color" : [ 0.101961, 0.121569, 0.172549, 1.0 ],
					"midpoints" : [  ]
				}

			}
, 			{
				"patchline" : 				{
					"source" : [ "obj-30", 0 ],
					"destination" : [ "obj-31", 0 ],
					"hidden" : 0,
					"color" : [ 0.101961, 0.121569, 0.172549, 1.0 ],
					"midpoints" : [  ]
				}

			}
, 			{
				"patchline" : 				{
					"source" : [ "obj-21", 1 ],
					"destination" : [ "obj-33", 0 ],
					"hidden" : 0,
					"color" : [ 0.101961, 0.121569, 0.172549, 1.0 ],
					"midpoints" : [  ]
				}

			}
, 			{
				"patchline" : 				{
					"source" : [ "obj-32", 0 ],
					"destination" : [ "obj-30", 0 ],
					"hidden" : 0,
					"color" : [ 0.278431, 0.921569, 0.639216, 1.0 ],
					"midpoints" : [  ]
				}

			}
, 			{
				"patchline" : 				{
					"source" : [ "obj-33", 0 ],
					"destination" : [ "obj-32", 0 ],
					"hidden" : 0,
					"color" : [ 0.101961, 0.121569, 0.172549, 1.0 ],
					"midpoints" : [  ]
				}

			}
, 			{
				"patchline" : 				{
					"source" : [ "obj-43", 0 ],
					"destination" : [ "obj-86", 1 ],
					"hidden" : 0,
					"color" : [ 0.101961, 0.121569, 0.172549, 1.0 ],
					"midpoints" : [  ]
				}

			}
, 			{
				"patchline" : 				{
					"source" : [ "obj-31", 0 ],
					"destination" : [ "obj-43", 0 ],
					"hidden" : 0,
					"color" : [ 0.101961, 0.121569, 0.172549, 1.0 ],
					"midpoints" : [  ]
				}

			}
, 			{
				"patchline" : 				{
					"source" : [ "obj-86", 0 ],
					"destination" : [ "obj-44", 0 ],
					"hidden" : 0,
					"color" : [ 0.101961, 0.121569, 0.172549, 1.0 ],
					"midpoints" : [  ]
				}

			}
, 			{
				"patchline" : 				{
					"source" : [ "obj-43", 1 ],
					"destination" : [ "obj-44", 1 ],
					"hidden" : 0,
					"color" : [ 0.101961, 0.121569, 0.172549, 1.0 ],
					"midpoints" : [  ]
				}

			}
, 			{
				"patchline" : 				{
					"source" : [ "obj-31", 1 ],
					"destination" : [ "obj-45", 0 ],
					"hidden" : 0,
					"color" : [ 0.101961, 0.121569, 0.172549, 1.0 ],
					"midpoints" : [  ]
				}

			}
, 			{
				"patchline" : 				{
					"source" : [ "obj-45", 0 ],
					"destination" : [ "obj-48", 0 ],
					"hidden" : 0,
					"color" : [ 0.101961, 0.121569, 0.172549, 1.0 ],
					"midpoints" : [  ]
				}

			}
, 			{
				"patchline" : 				{
					"source" : [ "obj-49", 0 ],
					"destination" : [ "obj-44", 1 ],
					"hidden" : 0,
					"color" : [ 0.101961, 0.121569, 0.172549, 1.0 ],
					"midpoints" : [  ]
				}

			}
, 			{
				"patchline" : 				{
					"source" : [ "obj-48", 0 ],
					"destination" : [ "obj-86", 1 ],
					"hidden" : 0,
					"color" : [ 0.101961, 0.121569, 0.172549, 1.0 ],
					"midpoints" : [  ]
				}

			}
, 			{
				"patchline" : 				{
					"source" : [ "obj-76", 0 ],
					"destination" : [ "obj-50", 0 ],
					"hidden" : 0,
					"color" : [ 0.101961, 0.121569, 0.172549, 1.0 ],
					"midpoints" : [  ]
				}

			}
, 			{
				"patchline" : 				{
					"source" : [ "obj-50", 0 ],
					"destination" : [ "obj-86", 0 ],
					"hidden" : 0,
					"color" : [ 0.101961, 0.121569, 0.172549, 1.0 ],
					"midpoints" : [  ]
				}

			}
, 			{
				"patchline" : 				{
					"source" : [ "obj-50", 1 ],
					"destination" : [ "obj-52", 1 ],
					"hidden" : 0,
					"color" : [ 0.101961, 0.121569, 0.172549, 1.0 ],
					"midpoints" : [  ]
				}

			}
, 			{
				"patchline" : 				{
					"source" : [ "obj-52", 0 ],
					"destination" : [ "obj-49", 0 ],
					"hidden" : 0,
					"color" : [ 0.101961, 0.121569, 0.172549, 1.0 ],
					"midpoints" : [  ]
				}

			}
, 			{
				"patchline" : 				{
					"source" : [ "obj-45", 1 ],
					"destination" : [ "obj-49", 1 ],
					"hidden" : 0,
					"color" : [ 0.101961, 0.121569, 0.172549, 1.0 ],
					"midpoints" : [  ]
				}

			}
, 			{
				"patchline" : 				{
					"source" : [ "obj-32", 0 ],
					"destination" : [ "obj-52", 0 ],
					"hidden" : 0,
					"color" : [ 0.278431, 0.921569, 0.639216, 1.0 ],
					"midpoints" : [  ]
				}

			}
, 			{
				"patchline" : 				{
					"source" : [ "obj-10", 1 ],
					"destination" : [ "obj-20", 1 ],
					"hidden" : 0,
					"color" : [ 0.101961, 0.121569, 0.172549, 1.0 ],
					"midpoints" : [  ]
				}

			}
, 			{
				"patchline" : 				{
					"source" : [ "obj-53", 0 ],
					"destination" : [ "obj-31", 1 ],
					"hidden" : 0,
					"color" : [ 0.101961, 0.121569, 0.172549, 1.0 ],
					"midpoints" : [  ]
				}

			}
, 			{
				"patchline" : 				{
					"source" : [ "obj-53", 1 ],
					"destination" : [ "obj-20", 0 ],
					"hidden" : 0,
					"color" : [ 0.101961, 0.121569, 0.172549, 1.0 ],
					"midpoints" : [  ]
				}

			}
, 			{
				"patchline" : 				{
					"source" : [ "obj-51", 0 ],
					"destination" : [ "obj-54", 0 ],
					"hidden" : 0,
					"color" : [ 0.101961, 0.121569, 0.172549, 1.0 ],
					"midpoints" : [  ]
				}

			}
, 			{
				"patchline" : 				{
					"source" : [ "obj-54", 0 ],
					"destination" : [ "obj-76", 0 ],
					"hidden" : 0,
					"color" : [ 0.101961, 0.121569, 0.172549, 1.0 ],
					"midpoints" : [  ]
				}

			}
, 			{
				"patchline" : 				{
					"source" : [ "obj-54", 1 ],
					"destination" : [ "obj-10", 0 ],
					"hidden" : 0,
					"color" : [ 0.101961, 0.121569, 0.172549, 1.0 ],
					"midpoints" : [  ]
				}

			}
, 			{
				"patchline" : 				{
					"source" : [ "obj-3", 0 ],
					"destination" : [ "obj-10", 1 ],
					"hidden" : 0,
					"color" : [ 0.047059, 0.913725, 0.913725, 1.0 ],
					"midpoints" : [  ]
				}

			}
, 			{
				"patchline" : 				{
					"source" : [ "obj-3", 0 ],
					"destination" : [ "obj-9", 1 ],
					"hidden" : 0,
					"color" : [ 0.047059, 0.913725, 0.913725, 1.0 ],
					"midpoints" : [  ]
				}

			}
, 			{
				"patchline" : 				{
					"source" : [ "obj-9", 0 ],
					"destination" : [ "obj-53", 0 ],
					"hidden" : 0,
					"color" : [ 0.101961, 0.121569, 0.172549, 1.0 ],
					"midpoints" : [  ]
				}

			}
, 			{
				"patchline" : 				{
					"source" : [ "obj-10", 0 ],
					"destination" : [ "obj-9", 0 ],
					"hidden" : 0,
					"color" : [ 0.101961, 0.121569, 0.172549, 1.0 ],
					"midpoints" : [  ]
				}

			}
, 			{
				"patchline" : 				{
					"source" : [ "obj-44", 0 ],
					"destination" : [ "obj-1", 0 ],
					"hidden" : 0,
					"color" : [ 0.101961, 0.121569, 0.172549, 1.0 ],
					"midpoints" : [  ]
				}

			}
, 			{
				"patchline" : 				{
					"source" : [ "obj-1", 0 ],
					"destination" : [ "obj-18", 0 ],
					"hidden" : 0,
					"color" : [ 0.101961, 0.121569, 0.172549, 1.0 ],
					"midpoints" : [  ]
				}

			}
, 			{
				"patchline" : 				{
					"source" : [ "obj-2", 0 ],
					"destination" : [ "obj-1", 0 ],
					"hidden" : 0,
					"color" : [ 1.0, 0.337255, 0.619608, 1.0 ],
					"midpoints" : [  ]
				}

			}
, 			{
				"patchline" : 				{
					"source" : [ "obj-2", 1 ],
					"destination" : [ "obj-9", 1 ],
					"hidden" : 0,
					"color" : [ 1.0, 0.337255, 0.619608, 1.0 ],
					"midpoints" : [  ]
				}

			}
, 			{
				"patchline" : 				{
					"source" : [ "obj-2", 1 ],
					"destination" : [ "obj-10", 1 ],
					"hidden" : 0,
					"color" : [ 1.0, 0.337255, 0.619608, 1.0 ],
					"midpoints" : [  ]
				}

			}
, 			{
				"patchline" : 				{
					"source" : [ "obj-5", 1 ],
					"destination" : [ "obj-2", 0 ],
					"hidden" : 0,
					"color" : [ 0.101961, 0.121569, 0.172549, 1.0 ],
					"midpoints" : [  ]
				}

			}
 ]
	}

}
