{
	"patcher" : 	{
		"fileversion" : 1,
		"appversion" : 		{
			"major" : 5,
			"minor" : 1,
			"revision" : 9
		}
,
		"rect" : [ 227.0, 101.0, 768.0, 672.0 ],
		"bgcolor" : [ 0.278431, 0.278431, 0.278431, 1.0 ],
		"bglocked" : 0,
		"defrect" : [ 227.0, 101.0, 768.0, 672.0 ],
		"openrect" : [ 0.0, 0.0, 0.0, 0.0 ],
		"openinpresentation" : 0,
		"default_fontsize" : 9.0,
		"default_fontface" : 0,
		"default_fontname" : "Arial",
		"gridonopen" : 0,
		"gridsize" : [ 15.0, 15.0 ],
		"gridsnaponopen" : 0,
		"statusbarvisible" : 0,
		"toolbarvisible" : 0,
		"boxanimatetime" : 0,
		"imprint" : 1,
		"enablehscroll" : 1,
		"enablevscroll" : 1,
		"devicewidth" : 0.0,
		"boxes" : [ 			{
				"box" : 				{
					"maxclass" : "message",
					"text" : "( 1 2 ( 1 3 ( 1 1 1 1 ) 1 ) )",
					"fontname" : "Arial",
					"bgcolor" : [ 0.858824, 0.0, 0.0, 1.0 ],
					"gradient" : 0,
					"patching_rect" : [ 206.0, 187.0, 207.0, 25.0 ],
					"presentation" : 0,
					"textcolor" : [ 1.0, 1.0, 1.0, 1.0 ],
					"fontface" : 0,
					"numinlets" : 2,
					"bgcolor2" : [ 0.568627, 0.619608, 0.662745, 1.0 ],
					"fontsize" : 18.0,
					"background" : 0,
					"numoutlets" : 1,
					"ignoreclick" : 0,
					"outlettype" : [ "" ],
					"presentation_rect" : [ 0.0, 0.0, 0.0, 0.0 ],
					"hidden" : 0,
					"id" : "obj-16"
				}

			}
, 			{
				"box" : 				{
					"maxclass" : "comment",
					"text" : "good but...?",
					"fontname" : "Arial Bold",
					"frgb" : [ 1.0, 1.0, 1.0, 1.0 ],
					"bgcolor" : [ 1.0, 1.0, 1.0, 0.0 ],
					"patching_rect" : [ 352.0, 237.0, 62.0, 17.0 ],
					"presentation" : 0,
					"underline" : 0,
					"textcolor" : [ 1.0, 1.0, 1.0, 1.0 ],
					"fontface" : 0,
					"numinlets" : 1,
					"fontsize" : 9.0,
					"background" : 0,
					"numoutlets" : 0,
					"ignoreclick" : 1,
					"presentation_rect" : [ 0.0, 0.0, 0.0, 0.0 ],
					"hidden" : 0,
					"id" : "obj-14"
				}

			}
, 			{
				"box" : 				{
					"maxclass" : "message",
					"text" : "( 1 3 ( 1 1 1 ) )",
					"fontname" : "Arial",
					"bgcolor" : [ 0.858824, 0.0, 0.0, 1.0 ],
					"gradient" : 0,
					"patching_rect" : [ 288.0, 213.0, 125.0, 25.0 ],
					"presentation" : 0,
					"textcolor" : [ 1.0, 1.0, 1.0, 1.0 ],
					"fontface" : 0,
					"numinlets" : 2,
					"bgcolor2" : [ 0.568627, 0.619608, 0.662745, 1.0 ],
					"fontsize" : 18.0,
					"background" : 0,
					"numoutlets" : 1,
					"ignoreclick" : 0,
					"outlettype" : [ "" ],
					"presentation_rect" : [ 0.0, 0.0, 0.0, 0.0 ],
					"hidden" : 0,
					"id" : "obj-10"
				}

			}
, 			{
				"box" : 				{
					"maxclass" : "comment",
					"text" : "first level rational durations",
					"fontname" : "Arial",
					"frgb" : [ 1.0, 1.0, 1.0, 1.0 ],
					"bgcolor" : [ 1.0, 1.0, 1.0, 0.0 ],
					"patching_rect" : [ 533.0, 576.0, 118.0, 17.0 ],
					"presentation" : 0,
					"underline" : 0,
					"textcolor" : [ 1.0, 1.0, 1.0, 1.0 ],
					"fontface" : 0,
					"numinlets" : 1,
					"fontsize" : 9.0,
					"background" : 0,
					"numoutlets" : 0,
					"ignoreclick" : 1,
					"presentation_rect" : [ 0.0, 0.0, 0.0, 0.0 ],
					"hidden" : 0,
					"id" : "obj-8"
				}

			}
, 			{
				"box" : 				{
					"maxclass" : "comment",
					"text" : "tree",
					"fontname" : "Arial",
					"frgb" : [ 1.0, 1.0, 1.0, 1.0 ],
					"bgcolor" : [ 1.0, 1.0, 1.0, 0.0 ],
					"patching_rect" : [ 578.0, 508.0, 26.0, 17.0 ],
					"presentation" : 0,
					"underline" : 0,
					"textcolor" : [ 1.0, 1.0, 1.0, 1.0 ],
					"fontface" : 0,
					"numinlets" : 1,
					"fontsize" : 9.0,
					"background" : 0,
					"numoutlets" : 0,
					"ignoreclick" : 1,
					"presentation_rect" : [ 0.0, 0.0, 0.0, 0.0 ],
					"hidden" : 0,
					"id" : "obj-9"
				}

			}
, 			{
				"box" : 				{
					"maxclass" : "comment",
					"text" : "first level rational durations",
					"fontname" : "Arial",
					"frgb" : [ 1.0, 1.0, 1.0, 1.0 ],
					"bgcolor" : [ 1.0, 1.0, 1.0, 0.0 ],
					"patching_rect" : [ 195.0, 576.0, 118.0, 17.0 ],
					"presentation" : 0,
					"underline" : 0,
					"textcolor" : [ 1.0, 1.0, 1.0, 1.0 ],
					"fontface" : 0,
					"numinlets" : 1,
					"fontsize" : 9.0,
					"background" : 0,
					"numoutlets" : 0,
					"ignoreclick" : 1,
					"presentation_rect" : [ 0.0, 0.0, 0.0, 0.0 ],
					"hidden" : 0,
					"id" : "obj-7"
				}

			}
, 			{
				"box" : 				{
					"maxclass" : "comment",
					"text" : "tree",
					"fontname" : "Arial",
					"frgb" : [ 1.0, 1.0, 1.0, 1.0 ],
					"bgcolor" : [ 1.0, 1.0, 1.0, 0.0 ],
					"patching_rect" : [ 240.0, 508.0, 26.0, 17.0 ],
					"presentation" : 0,
					"underline" : 0,
					"textcolor" : [ 1.0, 1.0, 1.0, 1.0 ],
					"fontface" : 0,
					"numinlets" : 1,
					"fontsize" : 9.0,
					"background" : 0,
					"numoutlets" : 0,
					"ignoreclick" : 1,
					"presentation_rect" : [ 0.0, 0.0, 0.0, 0.0 ],
					"hidden" : 0,
					"id" : "obj-1"
				}

			}
, 			{
				"box" : 				{
					"maxclass" : "comment",
					"text" : "(heavy...)",
					"fontname" : "Arial",
					"frgb" : [ 1.0, 1.0, 1.0, 1.0 ],
					"bgcolor" : [ 1.0, 1.0, 1.0, 0.0 ],
					"patching_rect" : [ 460.0, 450.0, 47.0, 17.0 ],
					"presentation" : 0,
					"underline" : 0,
					"textcolor" : [ 1.0, 1.0, 1.0, 1.0 ],
					"fontface" : 0,
					"numinlets" : 1,
					"fontsize" : 9.0,
					"background" : 0,
					"numoutlets" : 0,
					"ignoreclick" : 1,
					"presentation_rect" : [ 0.0, 0.0, 0.0, 0.0 ],
					"hidden" : 0,
					"id" : "obj-6"
				}

			}
, 			{
				"box" : 				{
					"maxclass" : "message",
					"text" : "( 3/2 3/2 ( 9 18 9 ) 3/2 3/2 3 )",
					"fontname" : "Arial",
					"bgcolor" : [ 0.568627, 0.619608, 0.662745, 1.0 ],
					"gradient" : 0,
					"patching_rect" : [ 363.0, 548.5, 286.0, 25.0 ],
					"presentation" : 0,
					"textcolor" : [ 1.0, 1.0, 1.0, 1.0 ],
					"fontface" : 0,
					"numinlets" : 2,
					"bgcolor2" : [ 0.568627, 0.619608, 0.662745, 1.0 ],
					"fontsize" : 18.0,
					"background" : 0,
					"numoutlets" : 1,
					"ignoreclick" : 0,
					"outlettype" : [ "" ],
					"presentation_rect" : [ 0.0, 0.0, 0.0, 0.0 ],
					"hidden" : 0,
					"id" : "obj-2"
				}

			}
, 			{
				"box" : 				{
					"maxclass" : "message",
					"text" : "( 3/2 3/2 ( 9 18 9 ) 3/2 3/2 3 )",
					"fontname" : "Arial",
					"bgcolor" : [ 0.568627, 0.619608, 0.662745, 1.0 ],
					"gradient" : 0,
					"patching_rect" : [ 28.0, 548.5, 286.0, 25.0 ],
					"presentation" : 0,
					"textcolor" : [ 1.0, 1.0, 1.0, 1.0 ],
					"fontface" : 0,
					"numinlets" : 2,
					"bgcolor2" : [ 0.568627, 0.619608, 0.662745, 1.0 ],
					"fontsize" : 18.0,
					"background" : 0,
					"numoutlets" : 1,
					"ignoreclick" : 0,
					"outlettype" : [ "" ],
					"presentation_rect" : [ 0.0, 0.0, 0.0, 0.0 ],
					"hidden" : 0,
					"id" : "obj-5"
				}

			}
, 			{
				"box" : 				{
					"maxclass" : "comment",
					"text" : "@flatten 1 >> rebuild tree structure",
					"fontname" : "Arial Bold",
					"frgb" : [ 1.0, 1.0, 1.0, 1.0 ],
					"bgcolor" : [ 1.0, 1.0, 1.0, 0.0 ],
					"patching_rect" : [ 508.0, 246.0, 160.0, 17.0 ],
					"presentation" : 0,
					"underline" : 0,
					"textcolor" : [ 1.0, 1.0, 1.0, 1.0 ],
					"fontface" : 0,
					"numinlets" : 1,
					"fontsize" : 9.0,
					"background" : 0,
					"numoutlets" : 0,
					"ignoreclick" : 1,
					"presentation_rect" : [ 0.0, 0.0, 0.0, 0.0 ],
					"hidden" : 0,
					"id" : "obj-40"
				}

			}
, 			{
				"box" : 				{
					"maxclass" : "comment",
					"text" : "@flatten 0 (default) >> keep tree structure",
					"fontname" : "Arial Bold",
					"frgb" : [ 1.0, 1.0, 1.0, 1.0 ],
					"bgcolor" : [ 1.0, 1.0, 1.0, 0.0 ],
					"patching_rect" : [ 508.0, 230.0, 188.0, 17.0 ],
					"presentation" : 0,
					"underline" : 0,
					"textcolor" : [ 1.0, 1.0, 1.0, 1.0 ],
					"fontface" : 0,
					"numinlets" : 1,
					"fontsize" : 9.0,
					"background" : 0,
					"numoutlets" : 0,
					"ignoreclick" : 1,
					"presentation_rect" : [ 0.0, 0.0, 0.0, 0.0 ],
					"hidden" : 0,
					"id" : "obj-38"
				}

			}
, 			{
				"box" : 				{
					"maxclass" : "comment",
					"text" : "with @flatten 1",
					"fontname" : "Arial",
					"frgb" : [ 1.0, 1.0, 1.0, 1.0 ],
					"bgcolor" : [ 1.0, 1.0, 1.0, 0.0 ],
					"patching_rect" : [ 397.0, 450.0, 70.0, 17.0 ],
					"presentation" : 0,
					"underline" : 1,
					"textcolor" : [ 1.0, 1.0, 1.0, 1.0 ],
					"fontface" : 0,
					"numinlets" : 1,
					"fontsize" : 9.0,
					"background" : 0,
					"numoutlets" : 0,
					"ignoreclick" : 1,
					"presentation_rect" : [ 0.0, 0.0, 0.0, 0.0 ],
					"hidden" : 0,
					"id" : "obj-37"
				}

			}
, 			{
				"box" : 				{
					"maxclass" : "message",
					"text" : "( 3 ( 4 1 2 1 4 4 8 ) )",
					"fontname" : "Arial",
					"bgcolor" : [ 0.568627, 0.619608, 0.662745, 1.0 ],
					"gradient" : 0,
					"patching_rect" : [ 363.0, 480.5, 284.0, 25.0 ],
					"presentation" : 0,
					"textcolor" : [ 1.0, 1.0, 1.0, 1.0 ],
					"fontface" : 0,
					"numinlets" : 2,
					"bgcolor2" : [ 0.568627, 0.619608, 0.662745, 1.0 ],
					"fontsize" : 18.0,
					"background" : 0,
					"numoutlets" : 1,
					"ignoreclick" : 0,
					"outlettype" : [ "" ],
					"presentation_rect" : [ 0.0, 0.0, 0.0, 0.0 ],
					"hidden" : 0,
					"id" : "obj-61"
				}

			}
, 			{
				"box" : 				{
					"maxclass" : "newobj",
					"text" : "jtol.bach.simplify @out tt @flatten 1",
					"fontname" : "Arial",
					"bgcolor" : [ 1.0, 1.0, 1.0, 1.0 ],
					"patching_rect" : [ 363.0, 432.0, 152.0, 17.0 ],
					"presentation" : 0,
					"textcolor" : [ 0.101961, 0.121569, 0.172549, 1.0 ],
					"fontface" : 0,
					"numinlets" : 1,
					"fontsize" : 9.0,
					"background" : 0,
					"color" : [ 0.494118, 0.556863, 0.607843, 1.0 ],
					"numoutlets" : 2,
					"ignoreclick" : 0,
					"outlettype" : [ "", "" ],
					"presentation_rect" : [ 0.0, 0.0, 0.0, 0.0 ],
					"hidden" : 0,
					"id" : "obj-63"
				}

			}
, 			{
				"box" : 				{
					"maxclass" : "comment",
					"text" : "with @flatten 0",
					"fontname" : "Arial",
					"frgb" : [ 1.0, 1.0, 1.0, 1.0 ],
					"bgcolor" : [ 1.0, 1.0, 1.0, 0.0 ],
					"patching_rect" : [ 96.0, 450.0, 70.0, 17.0 ],
					"presentation" : 0,
					"underline" : 1,
					"textcolor" : [ 1.0, 1.0, 1.0, 1.0 ],
					"fontface" : 0,
					"numinlets" : 1,
					"fontsize" : 9.0,
					"background" : 0,
					"numoutlets" : 0,
					"ignoreclick" : 1,
					"presentation_rect" : [ 0.0, 0.0, 0.0, 0.0 ],
					"hidden" : 0,
					"id" : "obj-39"
				}

			}
, 			{
				"box" : 				{
					"maxclass" : "comment",
					"text" : "will be simplified (x 1/3)",
					"fontname" : "Arial",
					"frgb" : [ 1.0, 1.0, 1.0, 1.0 ],
					"bgcolor" : [ 1.0, 1.0, 1.0, 0.0 ],
					"patching_rect" : [ 237.0, 383.0, 104.0, 17.0 ],
					"presentation" : 0,
					"underline" : 0,
					"textcolor" : [ 1.0, 1.0, 1.0, 1.0 ],
					"fontface" : 0,
					"numinlets" : 1,
					"fontsize" : 9.0,
					"background" : 0,
					"numoutlets" : 0,
					"ignoreclick" : 1,
					"presentation_rect" : [ 0.0, 0.0, 0.0, 0.0 ],
					"hidden" : 0,
					"id" : "obj-21"
				}

			}
, 			{
				"box" : 				{
					"maxclass" : "comment",
					"text" : "^",
					"fontname" : "Arial",
					"frgb" : [ 1.0, 1.0, 1.0, 1.0 ],
					"bgcolor" : [ 1.0, 1.0, 1.0, 0.0 ],
					"patching_rect" : [ 237.0, 379.0, 19.0, 17.0 ],
					"presentation" : 0,
					"underline" : 0,
					"textcolor" : [ 1.0, 1.0, 1.0, 1.0 ],
					"fontface" : 0,
					"numinlets" : 1,
					"fontsize" : 9.0,
					"background" : 0,
					"numoutlets" : 0,
					"ignoreclick" : 1,
					"presentation_rect" : [ 0.0, 0.0, 0.0, 0.0 ],
					"hidden" : 0,
					"id" : "obj-23"
				}

			}
, 			{
				"box" : 				{
					"maxclass" : "message",
					"text" : "( 1/2 1/2 ( 3 6 3 ) 1/2 1/2 1 )",
					"fontname" : "Arial",
					"bgcolor" : [ 0.568627, 0.619608, 0.662745, 1.0 ],
					"gradient" : 0,
					"patching_rect" : [ 138.0, 356.0, 230.0, 25.0 ],
					"presentation" : 0,
					"textcolor" : [ 1.0, 1.0, 1.0, 1.0 ],
					"fontface" : 0,
					"numinlets" : 2,
					"bgcolor2" : [ 0.568627, 0.619608, 0.662745, 1.0 ],
					"fontsize" : 18.0,
					"background" : 0,
					"numoutlets" : 1,
					"ignoreclick" : 0,
					"outlettype" : [ "" ],
					"presentation_rect" : [ 0.0, 0.0, 0.0, 0.0 ],
					"hidden" : 0,
					"id" : "obj-25"
				}

			}
, 			{
				"box" : 				{
					"maxclass" : "message",
					"text" : "3 1 1/2 1/4 1",
					"fontname" : "Arial",
					"bgcolor" : [ 0.568627, 0.619608, 0.662745, 1.0 ],
					"gradient" : 0,
					"patching_rect" : [ 94.0, 284.0, 111.0, 25.0 ],
					"presentation" : 0,
					"textcolor" : [ 1.0, 1.0, 1.0, 1.0 ],
					"fontface" : 0,
					"numinlets" : 2,
					"bgcolor2" : [ 0.568627, 0.619608, 0.662745, 1.0 ],
					"fontsize" : 18.0,
					"background" : 0,
					"numoutlets" : 1,
					"ignoreclick" : 0,
					"outlettype" : [ "" ],
					"presentation_rect" : [ 0.0, 0.0, 0.0, 0.0 ],
					"hidden" : 0,
					"id" : "obj-26"
				}

			}
, 			{
				"box" : 				{
					"maxclass" : "message",
					"text" : "1/2 1/2 1/2 1/2",
					"fontname" : "Arial",
					"bgcolor" : [ 0.568627, 0.619608, 0.662745, 1.0 ],
					"gradient" : 0,
					"patching_rect" : [ 28.0, 176.0, 126.0, 25.0 ],
					"presentation" : 0,
					"textcolor" : [ 1.0, 1.0, 1.0, 1.0 ],
					"fontface" : 0,
					"numinlets" : 2,
					"bgcolor2" : [ 0.568627, 0.619608, 0.662745, 1.0 ],
					"fontsize" : 18.0,
					"background" : 0,
					"numoutlets" : 1,
					"ignoreclick" : 0,
					"outlettype" : [ "" ],
					"presentation_rect" : [ 0.0, 0.0, 0.0, 0.0 ],
					"hidden" : 0,
					"id" : "obj-27"
				}

			}
, 			{
				"box" : 				{
					"maxclass" : "message",
					"text" : "3 1 1/2 1",
					"fontname" : "Arial",
					"bgcolor" : [ 0.568627, 0.619608, 0.662745, 1.0 ],
					"gradient" : 0,
					"patching_rect" : [ 72.0, 248.0, 81.0, 25.0 ],
					"presentation" : 0,
					"textcolor" : [ 1.0, 1.0, 1.0, 1.0 ],
					"fontface" : 0,
					"numinlets" : 2,
					"bgcolor2" : [ 0.568627, 0.619608, 0.662745, 1.0 ],
					"fontsize" : 18.0,
					"background" : 0,
					"numoutlets" : 1,
					"ignoreclick" : 0,
					"outlettype" : [ "" ],
					"presentation_rect" : [ 0.0, 0.0, 0.0, 0.0 ],
					"hidden" : 0,
					"id" : "obj-28"
				}

			}
, 			{
				"box" : 				{
					"maxclass" : "message",
					"text" : "3 1/2 1",
					"fontname" : "Arial",
					"bgcolor" : [ 0.568627, 0.619608, 0.662745, 1.0 ],
					"gradient" : 0,
					"patching_rect" : [ 50.0, 212.0, 66.0, 25.0 ],
					"presentation" : 0,
					"textcolor" : [ 1.0, 1.0, 1.0, 1.0 ],
					"fontface" : 0,
					"numinlets" : 2,
					"bgcolor2" : [ 0.568627, 0.619608, 0.662745, 1.0 ],
					"fontsize" : 18.0,
					"background" : 0,
					"numoutlets" : 1,
					"ignoreclick" : 0,
					"outlettype" : [ "" ],
					"presentation_rect" : [ 0.0, 0.0, 0.0, 0.0 ],
					"hidden" : 0,
					"id" : "obj-30"
				}

			}
, 			{
				"box" : 				{
					"maxclass" : "message",
					"text" : "1/2 1/2 1 1/2 1/3 1 1 1/3",
					"fontname" : "Arial",
					"bgcolor" : [ 0.568627, 0.619608, 0.662745, 1.0 ],
					"gradient" : 0,
					"patching_rect" : [ 116.0, 320.0, 201.0, 25.0 ],
					"presentation" : 0,
					"textcolor" : [ 1.0, 1.0, 1.0, 1.0 ],
					"fontface" : 0,
					"numinlets" : 2,
					"bgcolor2" : [ 0.568627, 0.619608, 0.662745, 1.0 ],
					"fontsize" : 18.0,
					"background" : 0,
					"numoutlets" : 1,
					"ignoreclick" : 0,
					"outlettype" : [ "" ],
					"presentation_rect" : [ 0.0, 0.0, 0.0, 0.0 ],
					"hidden" : 0,
					"id" : "obj-31"
				}

			}
, 			{
				"box" : 				{
					"maxclass" : "message",
					"text" : "( 3 ( 2 ( 1 1 ( 1 2 1 ) 1 1 ) 1 ) )",
					"fontname" : "Arial",
					"bgcolor" : [ 0.568627, 0.619608, 0.662745, 1.0 ],
					"gradient" : 0,
					"patching_rect" : [ 28.0, 480.5, 284.0, 25.0 ],
					"presentation" : 0,
					"textcolor" : [ 1.0, 1.0, 1.0, 1.0 ],
					"fontface" : 0,
					"numinlets" : 2,
					"bgcolor2" : [ 0.568627, 0.619608, 0.662745, 1.0 ],
					"fontsize" : 18.0,
					"background" : 0,
					"numoutlets" : 1,
					"ignoreclick" : 0,
					"outlettype" : [ "" ],
					"presentation_rect" : [ 0.0, 0.0, 0.0, 0.0 ],
					"hidden" : 0,
					"id" : "obj-32"
				}

			}
, 			{
				"box" : 				{
					"maxclass" : "newobj",
					"text" : "jtol.bach.simplify @out tt @flatten 0",
					"fontname" : "Arial",
					"bgcolor" : [ 1.0, 1.0, 1.0, 1.0 ],
					"patching_rect" : [ 28.0, 432.0, 152.0, 17.0 ],
					"presentation" : 0,
					"textcolor" : [ 0.101961, 0.121569, 0.172549, 1.0 ],
					"fontface" : 0,
					"numinlets" : 1,
					"fontsize" : 9.0,
					"background" : 0,
					"color" : [ 0.494118, 0.556863, 0.607843, 1.0 ],
					"numoutlets" : 2,
					"ignoreclick" : 0,
					"outlettype" : [ "", "" ],
					"presentation_rect" : [ 0.0, 0.0, 0.0, 0.0 ],
					"hidden" : 0,
					"id" : "obj-34"
				}

			}
, 			{
				"box" : 				{
					"maxclass" : "message",
					"text" : ";\rmax launchbrowser http://www.acsu.buffalo.edu/~jtrinker/",
					"linecount" : 2,
					"fontname" : "Arial",
					"bgcolor" : [ 0.568627, 0.619608, 0.662745, 1.0 ],
					"gradient" : 0,
					"patching_rect" : [ 639.0, 662.0, 238.0, 25.0 ],
					"presentation" : 0,
					"textcolor" : [ 0.101961, 0.121569, 0.172549, 1.0 ],
					"fontface" : 0,
					"numinlets" : 2,
					"bgcolor2" : [ 0.568627, 0.619608, 0.662745, 1.0 ],
					"fontsize" : 9.0,
					"background" : 0,
					"numoutlets" : 1,
					"ignoreclick" : 0,
					"outlettype" : [ "" ],
					"presentation_rect" : [ 0.0, 0.0, 0.0, 0.0 ],
					"hidden" : 1,
					"id" : "obj-22"
				}

			}
, 			{
				"box" : 				{
					"maxclass" : "comment",
					"text" : "JT Rinker",
					"fontname" : "Arial Bold",
					"frgb" : [ 1.0, 1.0, 1.0, 1.0 ],
					"bgcolor" : [ 1.0, 1.0, 1.0, 0.0 ],
					"patching_rect" : [ 625.0, 631.0, 61.0, 19.0 ],
					"presentation" : 0,
					"underline" : 0,
					"textcolor" : [ 1.0, 1.0, 1.0, 1.0 ],
					"fontface" : 0,
					"numinlets" : 1,
					"fontsize" : 11.0,
					"background" : 0,
					"numoutlets" : 0,
					"ignoreclick" : 1,
					"presentation_rect" : [ 0.0, 0.0, 0.0, 0.0 ],
					"hidden" : 0,
					"id" : "obj-24"
				}

			}
, 			{
				"box" : 				{
					"maxclass" : "comment",
					"varname" : "zsa_description[2]",
					"text" : "Bach library",
					"fontname" : "Arial",
					"frgb" : [ 0.93, 0.93, 0.97, 1.0 ],
					"bgcolor" : [ 1.0, 1.0, 1.0, 0.0 ],
					"patching_rect" : [ 162.0, 95.0, 69.0, 19.0 ],
					"presentation" : 0,
					"underline" : 0,
					"textcolor" : [ 0.93, 0.93, 0.97, 1.0 ],
					"fontface" : 0,
					"numinlets" : 1,
					"fontsize" : 11.0,
					"background" : 0,
					"numoutlets" : 0,
					"ignoreclick" : 1,
					"presentation_rect" : [ 0.0, 0.0, 0.0, 0.0 ],
					"hidden" : 0,
					"id" : "obj-42"
				}

			}
, 			{
				"box" : 				{
					"maxclass" : "comment",
					"text" : "@out n  (default) >> bach native",
					"fontname" : "Arial Bold",
					"frgb" : [ 1.0, 1.0, 1.0, 1.0 ],
					"bgcolor" : [ 1.0, 1.0, 1.0, 0.0 ],
					"patching_rect" : [ 509.0, 206.0, 147.0, 17.0 ],
					"presentation" : 0,
					"underline" : 0,
					"textcolor" : [ 1.0, 1.0, 1.0, 1.0 ],
					"fontface" : 0,
					"numinlets" : 1,
					"fontsize" : 9.0,
					"background" : 0,
					"numoutlets" : 0,
					"ignoreclick" : 1,
					"presentation_rect" : [ 0.0, 0.0, 0.0, 0.0 ],
					"hidden" : 0,
					"id" : "obj-13"
				}

			}
, 			{
				"box" : 				{
					"maxclass" : "comment",
					"text" : "@out t >> text",
					"fontname" : "Arial Bold",
					"frgb" : [ 1.0, 1.0, 1.0, 1.0 ],
					"bgcolor" : [ 1.0, 1.0, 1.0, 0.0 ],
					"patching_rect" : [ 509.0, 190.0, 70.0, 17.0 ],
					"presentation" : 0,
					"underline" : 0,
					"textcolor" : [ 1.0, 1.0, 1.0, 1.0 ],
					"fontface" : 0,
					"numinlets" : 1,
					"fontsize" : 9.0,
					"background" : 0,
					"numoutlets" : 0,
					"ignoreclick" : 1,
					"presentation_rect" : [ 0.0, 0.0, 0.0, 0.0 ],
					"hidden" : 0,
					"id" : "obj-12"
				}

			}
, 			{
				"box" : 				{
					"maxclass" : "comment",
					"text" : "__________",
					"fontname" : "Arial Bold",
					"frgb" : [ 1.0, 1.0, 1.0, 1.0 ],
					"bgcolor" : [ 1.0, 1.0, 1.0, 0.0 ],
					"patching_rect" : [ 509.0, 171.0, 62.0, 17.0 ],
					"presentation" : 0,
					"underline" : 0,
					"textcolor" : [ 1.0, 1.0, 1.0, 1.0 ],
					"fontface" : 0,
					"numinlets" : 1,
					"fontsize" : 9.0,
					"background" : 0,
					"numoutlets" : 0,
					"ignoreclick" : 1,
					"presentation_rect" : [ 0.0, 0.0, 0.0, 0.0 ],
					"hidden" : 0,
					"id" : "obj-11"
				}

			}
, 			{
				"box" : 				{
					"maxclass" : "ubutton",
					"dragtrack" : 0,
					"patching_rect" : [ 161.0, 94.0, 71.0, 21.0 ],
					"presentation" : 0,
					"stay" : 0,
					"hltcolor" : [ 1.0, 1.0, 1.0, 0.501961 ],
					"toggle" : 0,
					"numinlets" : 1,
					"background" : 0,
					"handoffdelay" : 250,
					"numoutlets" : 4,
					"handoff" : "",
					"ignoreclick" : 0,
					"outlettype" : [ "bang", "bang", "", "int" ],
					"presentation_rect" : [ 0.0, 0.0, 0.0, 0.0 ],
					"hilite" : 0,
					"hidden" : 0,
					"id" : "obj-3"
				}

			}
, 			{
				"box" : 				{
					"maxclass" : "message",
					"text" : ";\rmax launchbrowser http://www.bachproject.net",
					"linecount" : 2,
					"fontname" : "Arial",
					"bgcolor" : [ 0.568627, 0.619608, 0.662745, 1.0 ],
					"gradient" : 0,
					"patching_rect" : [ 178.0, 122.0, 197.0, 25.0 ],
					"presentation" : 0,
					"textcolor" : [ 0.101961, 0.121569, 0.172549, 1.0 ],
					"fontface" : 0,
					"numinlets" : 2,
					"bgcolor2" : [ 0.568627, 0.619608, 0.662745, 1.0 ],
					"fontsize" : 9.0,
					"background" : 0,
					"numoutlets" : 1,
					"ignoreclick" : 0,
					"outlettype" : [ "" ],
					"presentation_rect" : [ 0.0, 0.0, 0.0, 0.0 ],
					"hidden" : 1,
					"id" : "obj-41"
				}

			}
, 			{
				"box" : 				{
					"maxclass" : "newobj",
					"text" : "onecopy",
					"fontname" : "Arial",
					"bgcolor" : [ 1.0, 1.0, 1.0, 1.0 ],
					"patching_rect" : [ 481.0, 662.0, 45.0, 17.0 ],
					"presentation" : 0,
					"textcolor" : [ 0.101961, 0.121569, 0.172549, 1.0 ],
					"fontface" : 0,
					"numinlets" : 1,
					"fontsize" : 9.0,
					"background" : 0,
					"color" : [ 0.494118, 0.556863, 0.607843, 1.0 ],
					"numoutlets" : 0,
					"ignoreclick" : 0,
					"presentation_rect" : [ 0.0, 0.0, 0.0, 0.0 ],
					"hidden" : 1,
					"id" : "obj-35"
				}

			}
, 			{
				"box" : 				{
					"maxclass" : "message",
					"text" : ";\rmax launchbrowser http://www.opasquet.fr",
					"linecount" : 2,
					"fontname" : "Arial",
					"bgcolor" : [ 0.568627, 0.619608, 0.662745, 1.0 ],
					"gradient" : 0,
					"patching_rect" : [ 543.0, 662.0, 180.0, 25.0 ],
					"presentation" : 0,
					"textcolor" : [ 0.101961, 0.121569, 0.172549, 1.0 ],
					"fontface" : 0,
					"numinlets" : 2,
					"bgcolor2" : [ 0.568627, 0.619608, 0.662745, 1.0 ],
					"fontsize" : 9.0,
					"background" : 0,
					"numoutlets" : 1,
					"ignoreclick" : 0,
					"outlettype" : [ "" ],
					"presentation_rect" : [ 0.0, 0.0, 0.0, 0.0 ],
					"hidden" : 1,
					"id" : "obj-46"
				}

			}
, 			{
				"box" : 				{
					"maxclass" : "comment",
					"text" : "2013, Olivier Pasquet,",
					"fontname" : "Arial Bold",
					"frgb" : [ 1.0, 1.0, 1.0, 1.0 ],
					"bgcolor" : [ 1.0, 1.0, 1.0, 0.0 ],
					"patching_rect" : [ 508.0, 631.0, 124.0, 19.0 ],
					"presentation" : 0,
					"underline" : 0,
					"textcolor" : [ 1.0, 1.0, 1.0, 1.0 ],
					"fontface" : 0,
					"numinlets" : 1,
					"fontsize" : 11.0,
					"background" : 0,
					"numoutlets" : 0,
					"ignoreclick" : 1,
					"presentation_rect" : [ 0.0, 0.0, 0.0, 0.0 ],
					"hidden" : 0,
					"id" : "obj-36"
				}

			}
, 			{
				"box" : 				{
					"maxclass" : "comment",
					"varname" : "zsa_description[1]",
					"text" : "jtol.bach.simplify simplifies or corrects a rhythm tree.\nThis abstraction requires the Bach library.\n",
					"linecount" : 2,
					"fontname" : "Arial",
					"frgb" : [ 0.93, 0.93, 0.97, 1.0 ],
					"bgcolor" : [ 1.0, 1.0, 1.0, 0.0 ],
					"patching_rect" : [ 20.0, 83.0, 268.0, 32.0 ],
					"presentation" : 0,
					"underline" : 0,
					"textcolor" : [ 0.93, 0.93, 0.97, 1.0 ],
					"fontface" : 0,
					"numinlets" : 1,
					"fontsize" : 11.0,
					"background" : 0,
					"numoutlets" : 0,
					"ignoreclick" : 1,
					"presentation_rect" : [ 0.0, 0.0, 0.0, 0.0 ],
					"hidden" : 0,
					"id" : "obj-143"
				}

			}
, 			{
				"box" : 				{
					"maxclass" : "comment",
					"varname" : "zsa_description",
					"text" : "simplify or correct a rhythm tree",
					"fontname" : "Arial",
					"frgb" : [ 0.93, 0.93, 0.97, 1.0 ],
					"bgcolor" : [ 1.0, 1.0, 1.0, 0.0 ],
					"patching_rect" : [ 20.0, 43.0, 196.0, 21.0 ],
					"presentation" : 0,
					"underline" : 0,
					"textcolor" : [ 0.93, 0.93, 0.97, 1.0 ],
					"fontface" : 0,
					"numinlets" : 1,
					"fontsize" : 13.0,
					"background" : 0,
					"numoutlets" : 0,
					"ignoreclick" : 1,
					"presentation_rect" : [ 0.0, 0.0, 0.0, 0.0 ],
					"hidden" : 0,
					"id" : "obj-133"
				}

			}
, 			{
				"box" : 				{
					"maxclass" : "comment",
					"varname" : "zsa_title",
					"text" : "jtol.bach.simplify",
					"fontname" : "Arial",
					"frgb" : [ 1.0, 1.0, 1.0, 1.0 ],
					"bgcolor" : [ 1.0, 1.0, 1.0, 0.0 ],
					"patching_rect" : [ 20.0, 13.0, 188.0, 31.0 ],
					"presentation" : 0,
					"underline" : 0,
					"textcolor" : [ 1.0, 1.0, 1.0, 1.0 ],
					"fontface" : 3,
					"numinlets" : 1,
					"fontsize" : 21.0,
					"background" : 0,
					"numoutlets" : 0,
					"ignoreclick" : 1,
					"presentation_rect" : [ 0.0, 0.0, 0.0, 0.0 ],
					"hidden" : 0,
					"id" : "obj-134"
				}

			}
, 			{
				"box" : 				{
					"maxclass" : "comment",
					"text" : "arguments :",
					"fontname" : "Arial Bold",
					"frgb" : [ 1.0, 1.0, 1.0, 1.0 ],
					"bgcolor" : [ 1.0, 1.0, 1.0, 0.0 ],
					"patching_rect" : [ 509.0, 170.0, 62.0, 17.0 ],
					"presentation" : 0,
					"underline" : 0,
					"textcolor" : [ 1.0, 1.0, 1.0, 1.0 ],
					"fontface" : 0,
					"numinlets" : 1,
					"fontsize" : 9.0,
					"background" : 0,
					"numoutlets" : 0,
					"ignoreclick" : 1,
					"presentation_rect" : [ 0.0, 0.0, 0.0, 0.0 ],
					"hidden" : 0,
					"id" : "obj-15"
				}

			}
, 			{
				"box" : 				{
					"maxclass" : "panel",
					"mode" : 0,
					"shadow" : 0,
					"border" : 0,
					"bordercolor" : [ 0.415686, 0.454902, 0.52549, 1.0 ],
					"bgcolor" : [ 0.47451, 0.47451, 0.47451, 1.0 ],
					"patching_rect" : [ 504.0, 167.0, 192.0, 99.0 ],
					"presentation" : 0,
					"angle" : 0.0,
					"rounded" : 8,
					"numinlets" : 1,
					"background" : 0,
					"numoutlets" : 0,
					"grad1" : [ 0.666667, 0.698039, 0.717647, 1.0 ],
					"ignoreclick" : 1,
					"grad2" : [ 0.301961, 0.337255, 0.403922, 1.0 ],
					"presentation_rect" : [ 0.0, 0.0, 0.0, 0.0 ],
					"hidden" : 0,
					"id" : "obj-29"
				}

			}
, 			{
				"box" : 				{
					"maxclass" : "ubutton",
					"dragtrack" : 0,
					"patching_rect" : [ 625.0, 631.0, 60.0, 18.0 ],
					"presentation" : 0,
					"stay" : 0,
					"hltcolor" : [ 1.0, 1.0, 1.0, 0.501961 ],
					"toggle" : 0,
					"numinlets" : 1,
					"background" : 0,
					"handoffdelay" : 250,
					"numoutlets" : 4,
					"handoff" : "",
					"ignoreclick" : 0,
					"outlettype" : [ "bang", "bang", "", "int" ],
					"presentation_rect" : [ 0.0, 0.0, 0.0, 0.0 ],
					"hilite" : 0,
					"hidden" : 0,
					"id" : "obj-4"
				}

			}
, 			{
				"box" : 				{
					"maxclass" : "ubutton",
					"dragtrack" : 0,
					"patching_rect" : [ 508.0, 631.0, 125.0, 18.0 ],
					"presentation" : 0,
					"stay" : 0,
					"hltcolor" : [ 1.0, 1.0, 1.0, 0.501961 ],
					"toggle" : 0,
					"numinlets" : 1,
					"background" : 0,
					"handoffdelay" : 250,
					"numoutlets" : 4,
					"handoff" : "",
					"ignoreclick" : 0,
					"outlettype" : [ "bang", "bang", "", "int" ],
					"presentation_rect" : [ 0.0, 0.0, 0.0, 0.0 ],
					"hilite" : 0,
					"hidden" : 0,
					"id" : "obj-137"
				}

			}
, 			{
				"box" : 				{
					"maxclass" : "panel",
					"varname" : "autohelp_top_panel",
					"mode" : 1,
					"shadow" : 0,
					"border" : 0,
					"bordercolor" : [ 0.415686, 0.454902, 0.52549, 1.0 ],
					"bgcolor" : [ 0.184314, 0.254902, 0.34902, 1.0 ],
					"patching_rect" : [ 20.0, 12.0, 473.0, 52.0 ],
					"presentation" : 0,
					"angle" : -88.349983,
					"rounded" : 8,
					"numinlets" : 1,
					"background" : 1,
					"numoutlets" : 0,
					"grad1" : [ 0.694118, 0.694118, 0.694118, 1.0 ],
					"ignoreclick" : 1,
					"grad2" : [ 0.6, 0.6, 0.6, 1.0 ],
					"presentation_rect" : [ 0.0, 0.0, 0.0, 0.0 ],
					"hidden" : 0,
					"id" : "obj-135"
				}

			}
 ],
		"lines" : [ 			{
				"patchline" : 				{
					"source" : [ "obj-16", 0 ],
					"destination" : [ "obj-63", 0 ],
					"hidden" : 0,
					"color" : [ 0.101961, 0.121569, 0.172549, 1.0 ],
					"midpoints" : [  ]
				}

			}
, 			{
				"patchline" : 				{
					"source" : [ "obj-63", 1 ],
					"destination" : [ "obj-2", 1 ],
					"hidden" : 0,
					"color" : [ 1.0, 1.0, 1.0, 1.0 ],
					"midpoints" : [ 505.5, 543.25, 639.5, 543.25 ]
				}

			}
, 			{
				"patchline" : 				{
					"source" : [ "obj-63", 0 ],
					"destination" : [ "obj-61", 1 ],
					"hidden" : 0,
					"color" : [ 1.0, 1.0, 1.0, 1.0 ],
					"midpoints" : [ 372.5, 471.0, 637.5, 471.0 ]
				}

			}
, 			{
				"patchline" : 				{
					"source" : [ "obj-26", 0 ],
					"destination" : [ "obj-63", 0 ],
					"hidden" : 0,
					"color" : [ 0.537255, 0.537255, 0.537255, 1.0 ],
					"midpoints" : [  ]
				}

			}
, 			{
				"patchline" : 				{
					"source" : [ "obj-25", 0 ],
					"destination" : [ "obj-63", 0 ],
					"hidden" : 0,
					"color" : [ 0.537255, 0.537255, 0.537255, 1.0 ],
					"midpoints" : [  ]
				}

			}
, 			{
				"patchline" : 				{
					"source" : [ "obj-31", 0 ],
					"destination" : [ "obj-63", 0 ],
					"hidden" : 0,
					"color" : [ 0.537255, 0.537255, 0.537255, 1.0 ],
					"midpoints" : [  ]
				}

			}
, 			{
				"patchline" : 				{
					"source" : [ "obj-28", 0 ],
					"destination" : [ "obj-63", 0 ],
					"hidden" : 0,
					"color" : [ 0.537255, 0.537255, 0.537255, 1.0 ],
					"midpoints" : [  ]
				}

			}
, 			{
				"patchline" : 				{
					"source" : [ "obj-30", 0 ],
					"destination" : [ "obj-63", 0 ],
					"hidden" : 0,
					"color" : [ 0.537255, 0.537255, 0.537255, 1.0 ],
					"midpoints" : [  ]
				}

			}
, 			{
				"patchline" : 				{
					"source" : [ "obj-27", 0 ],
					"destination" : [ "obj-63", 0 ],
					"hidden" : 0,
					"color" : [ 0.537255, 0.537255, 0.537255, 1.0 ],
					"midpoints" : [  ]
				}

			}
, 			{
				"patchline" : 				{
					"source" : [ "obj-10", 0 ],
					"destination" : [ "obj-63", 0 ],
					"hidden" : 0,
					"color" : [ 0.101961, 0.121569, 0.172549, 1.0 ],
					"midpoints" : [  ]
				}

			}
, 			{
				"patchline" : 				{
					"source" : [ "obj-16", 0 ],
					"destination" : [ "obj-34", 0 ],
					"hidden" : 0,
					"color" : [ 0.101961, 0.121569, 0.172549, 1.0 ],
					"midpoints" : [  ]
				}

			}
, 			{
				"patchline" : 				{
					"source" : [ "obj-26", 0 ],
					"destination" : [ "obj-34", 0 ],
					"hidden" : 0,
					"color" : [ 1.0, 1.0, 1.0, 1.0 ],
					"midpoints" : [  ]
				}

			}
, 			{
				"patchline" : 				{
					"source" : [ "obj-27", 0 ],
					"destination" : [ "obj-34", 0 ],
					"hidden" : 0,
					"color" : [ 1.0, 1.0, 1.0, 1.0 ],
					"midpoints" : [  ]
				}

			}
, 			{
				"patchline" : 				{
					"source" : [ "obj-28", 0 ],
					"destination" : [ "obj-34", 0 ],
					"hidden" : 0,
					"color" : [ 1.0, 1.0, 1.0, 1.0 ],
					"midpoints" : [  ]
				}

			}
, 			{
				"patchline" : 				{
					"source" : [ "obj-31", 0 ],
					"destination" : [ "obj-34", 0 ],
					"hidden" : 0,
					"color" : [ 1.0, 1.0, 1.0, 1.0 ],
					"midpoints" : [  ]
				}

			}
, 			{
				"patchline" : 				{
					"source" : [ "obj-30", 0 ],
					"destination" : [ "obj-34", 0 ],
					"hidden" : 0,
					"color" : [ 1.0, 1.0, 1.0, 1.0 ],
					"midpoints" : [  ]
				}

			}
, 			{
				"patchline" : 				{
					"source" : [ "obj-34", 0 ],
					"destination" : [ "obj-32", 1 ],
					"hidden" : 0,
					"color" : [ 1.0, 1.0, 1.0, 1.0 ],
					"midpoints" : [ 37.5, 471.0, 302.5, 471.0 ]
				}

			}
, 			{
				"patchline" : 				{
					"source" : [ "obj-25", 0 ],
					"destination" : [ "obj-34", 0 ],
					"hidden" : 0,
					"color" : [ 1.0, 1.0, 1.0, 1.0 ],
					"midpoints" : [  ]
				}

			}
, 			{
				"patchline" : 				{
					"source" : [ "obj-34", 1 ],
					"destination" : [ "obj-5", 1 ],
					"hidden" : 0,
					"color" : [ 1.0, 1.0, 1.0, 1.0 ],
					"midpoints" : [ 170.5, 543.25, 304.5, 543.25 ]
				}

			}
, 			{
				"patchline" : 				{
					"source" : [ "obj-10", 0 ],
					"destination" : [ "obj-34", 0 ],
					"hidden" : 0,
					"color" : [ 0.101961, 0.121569, 0.172549, 1.0 ],
					"midpoints" : [  ]
				}

			}
, 			{
				"patchline" : 				{
					"source" : [ "obj-137", 1 ],
					"destination" : [ "obj-46", 0 ],
					"hidden" : 1,
					"color" : [ 0.101961, 0.121569, 0.172549, 1.0 ],
					"midpoints" : [  ]
				}

			}
, 			{
				"patchline" : 				{
					"source" : [ "obj-3", 1 ],
					"destination" : [ "obj-41", 0 ],
					"hidden" : 1,
					"color" : [ 0.101961, 0.121569, 0.172549, 1.0 ],
					"midpoints" : [  ]
				}

			}
, 			{
				"patchline" : 				{
					"source" : [ "obj-4", 1 ],
					"destination" : [ "obj-22", 0 ],
					"hidden" : 1,
					"color" : [ 0.101961, 0.121569, 0.172549, 1.0 ],
					"midpoints" : [  ]
				}

			}
 ]
	}

}
