{
	"patcher" : 	{
		"fileversion" : 1,
		"appversion" : 		{
			"major" : 5,
			"minor" : 1,
			"revision" : 9
		}
,
		"rect" : [ 333.0, 201.0, 760.0, 520.0 ],
		"bgcolor" : [ 0.278431, 0.278431, 0.278431, 1.0 ],
		"bglocked" : 0,
		"defrect" : [ 333.0, 201.0, 760.0, 520.0 ],
		"openrect" : [ 0.0, 0.0, 0.0, 0.0 ],
		"openinpresentation" : 0,
		"default_fontsize" : 9.0,
		"default_fontface" : 0,
		"default_fontname" : "Arial",
		"gridonopen" : 0,
		"gridsize" : [ 15.0, 15.0 ],
		"gridsnaponopen" : 0,
		"statusbarvisible" : 0,
		"toolbarvisible" : 0,
		"boxanimatetime" : 0,
		"imprint" : 1,
		"enablehscroll" : 1,
		"enablevscroll" : 1,
		"devicewidth" : 0.0,
		"boxes" : [ 			{
				"box" : 				{
					"maxclass" : "flonum",
					"patching_rect" : [ 394.0, 323.0, 50.0, 17.0 ],
					"bgcolor" : [ 0.278431, 0.278431, 0.278431, 1.0 ],
					"presentation" : 0,
					"id" : "obj-27",
					"fontname" : "Arial",
					"textcolor" : [ 1.0, 1.0, 1.0, 1.0 ],
					"cantchange" : 0,
					"triscale" : 1.0,
					"triangle" : 1,
					"minimum" : "<none>",
					"fontface" : 1,
					"background" : 0,
					"mouseup" : 0,
					"fontsize" : 9.0,
					"numinlets" : 1,
					"outputonclick" : 0,
					"htricolor" : [ 0.921569, 0.94902, 0.05098, 1.0 ],
					"numdecimalplaces" : 0,
					"presentation_rect" : [ 0.0, 0.0, 0.0, 0.0 ],
					"tricolor" : [ 0.666667, 0.698039, 0.717647, 1.0 ],
					"maximum" : "<none>",
					"ignoreclick" : 0,
					"numoutlets" : 2,
					"hbgcolor" : [ 0.094118, 0.113725, 0.137255, 1.0 ],
					"bordercolor" : [ 0.501961, 0.501961, 0.501961, 1.0 ],
					"hidden" : 0,
					"outlettype" : [ "float", "bang" ],
					"htextcolor" : [ 1.0, 1.0, 1.0, 1.0 ]
				}

			}
, 			{
				"box" : 				{
					"maxclass" : "number",
					"patching_rect" : [ 380.0, 300.0, 50.0, 17.0 ],
					"bgcolor" : [ 0.278431, 0.278431, 0.278431, 1.0 ],
					"presentation" : 0,
					"id" : "obj-23",
					"fontname" : "Arial Bold",
					"textcolor" : [ 1.0, 1.0, 1.0, 1.0 ],
					"cantchange" : 0,
					"triscale" : 1.0,
					"triangle" : 1,
					"minimum" : "<none>",
					"fontface" : 0,
					"background" : 0,
					"mouseup" : 0,
					"fontsize" : 9.0,
					"numinlets" : 1,
					"outputonclick" : 0,
					"htricolor" : [ 0.921569, 0.94902, 0.05098, 1.0 ],
					"format" : 0,
					"presentation_rect" : [ 0.0, 0.0, 0.0, 0.0 ],
					"tricolor" : [ 0.666667, 0.698039, 0.717647, 1.0 ],
					"maximum" : "<none>",
					"ignoreclick" : 0,
					"numoutlets" : 2,
					"hbgcolor" : [ 0.094118, 0.113725, 0.137255, 1.0 ],
					"bordercolor" : [ 0.501961, 0.501961, 0.501961, 1.0 ],
					"hidden" : 0,
					"outlettype" : [ "int", "bang" ],
					"htextcolor" : [ 1.0, 1.0, 1.0, 1.0 ]
				}

			}
, 			{
				"box" : 				{
					"maxclass" : "comment",
					"text" : "@duration (default 1) >> duration (decimal, rational)",
					"patching_rect" : [ 502.0, 248.333328, 232.0, 17.0 ],
					"frgb" : [ 1.0, 1.0, 1.0, 1.0 ],
					"bgcolor" : [ 1.0, 1.0, 1.0, 0.0 ],
					"presentation" : 0,
					"id" : "obj-21",
					"fontname" : "Arial Bold",
					"underline" : 0,
					"textcolor" : [ 1.0, 1.0, 1.0, 1.0 ],
					"fontface" : 0,
					"background" : 0,
					"fontsize" : 9.0,
					"numinlets" : 1,
					"presentation_rect" : [ 0.0, 0.0, 0.0, 0.0 ],
					"ignoreclick" : 1,
					"numoutlets" : 0,
					"hidden" : 0
				}

			}
, 			{
				"box" : 				{
					"maxclass" : "comment",
					"text" : "only  interesting for depth = 1",
					"linecount" : 2,
					"patching_rect" : [ 121.0, 445.0, 81.0, 27.0 ],
					"frgb" : [ 1.0, 1.0, 1.0, 1.0 ],
					"bgcolor" : [ 1.0, 1.0, 1.0, 0.0 ],
					"presentation" : 0,
					"id" : "obj-24",
					"fontname" : "Arial",
					"underline" : 0,
					"textcolor" : [ 1.0, 1.0, 1.0, 1.0 ],
					"fontface" : 0,
					"background" : 0,
					"fontsize" : 9.0,
					"numinlets" : 1,
					"presentation_rect" : [ 0.0, 0.0, 0.0, 0.0 ],
					"ignoreclick" : 1,
					"numoutlets" : 0,
					"hidden" : 0
				}

			}
, 			{
				"box" : 				{
					"maxclass" : "message",
					"text" : "( 1 1 1 1 1 )",
					"patching_rect" : [ 42.166668, 154.0, 57.0, 15.0 ],
					"bgcolor" : [ 0.568627, 0.619608, 0.662745, 1.0 ],
					"presentation" : 0,
					"bgcolor2" : [ 0.568627, 0.619608, 0.662745, 1.0 ],
					"id" : "obj-20",
					"fontname" : "Arial",
					"textcolor" : [ 1.0, 1.0, 1.0, 1.0 ],
					"fontface" : 0,
					"background" : 0,
					"fontsize" : 9.0,
					"numinlets" : 2,
					"presentation_rect" : [ 0.0, 0.0, 0.0, 0.0 ],
					"ignoreclick" : 0,
					"numoutlets" : 1,
					"hidden" : 0,
					"outlettype" : [ "" ],
					"gradient" : 0
				}

			}
, 			{
				"box" : 				{
					"maxclass" : "message",
					"text" : "( 3 ( 1 1 1 2 ( 1 1 1 ) 1 ) )",
					"patching_rect" : [ 98.166664, 230.0, 109.0, 15.0 ],
					"bgcolor" : [ 0.568627, 0.619608, 0.662745, 1.0 ],
					"presentation" : 0,
					"bgcolor2" : [ 0.568627, 0.619608, 0.662745, 1.0 ],
					"id" : "obj-19",
					"fontname" : "Arial",
					"textcolor" : [ 1.0, 1.0, 1.0, 1.0 ],
					"fontface" : 0,
					"background" : 0,
					"fontsize" : 9.0,
					"numinlets" : 2,
					"presentation_rect" : [ 0.0, 0.0, 0.0, 0.0 ],
					"ignoreclick" : 0,
					"numoutlets" : 1,
					"hidden" : 0,
					"outlettype" : [ "" ],
					"gradient" : 0
				}

			}
, 			{
				"box" : 				{
					"maxclass" : "message",
					"text" : "( 1 1 1 )",
					"patching_rect" : [ 28.0, 135.5, 42.0, 15.0 ],
					"bgcolor" : [ 0.568627, 0.619608, 0.662745, 1.0 ],
					"presentation" : 0,
					"bgcolor2" : [ 0.568627, 0.619608, 0.662745, 1.0 ],
					"id" : "obj-18",
					"fontname" : "Arial",
					"textcolor" : [ 1.0, 1.0, 1.0, 1.0 ],
					"fontface" : 0,
					"background" : 0,
					"fontsize" : 9.0,
					"numinlets" : 2,
					"presentation_rect" : [ 0.0, 0.0, 0.0, 0.0 ],
					"ignoreclick" : 0,
					"numoutlets" : 1,
					"hidden" : 0,
					"outlettype" : [ "" ],
					"gradient" : 0
				}

			}
, 			{
				"box" : 				{
					"maxclass" : "message",
					"text" : "( 3 ( 1 1 2 ( 1 1 1 ) 1 ) )",
					"patching_rect" : [ 84.166664, 211.0, 101.0, 15.0 ],
					"bgcolor" : [ 0.568627, 0.619608, 0.662745, 1.0 ],
					"presentation" : 0,
					"bgcolor2" : [ 0.568627, 0.619608, 0.662745, 1.0 ],
					"id" : "obj-17",
					"fontname" : "Arial",
					"textcolor" : [ 1.0, 1.0, 1.0, 1.0 ],
					"fontface" : 0,
					"background" : 0,
					"fontsize" : 9.0,
					"numinlets" : 2,
					"presentation_rect" : [ 0.0, 0.0, 0.0, 0.0 ],
					"ignoreclick" : 0,
					"numoutlets" : 1,
					"hidden" : 0,
					"outlettype" : [ "" ],
					"gradient" : 0
				}

			}
, 			{
				"box" : 				{
					"maxclass" : "message",
					"text" : "( 3 ( 1 1 1 1 1 ) )",
					"patching_rect" : [ 56.166668, 173.0, 75.0, 15.0 ],
					"bgcolor" : [ 0.568627, 0.619608, 0.662745, 1.0 ],
					"presentation" : 0,
					"bgcolor2" : [ 0.568627, 0.619608, 0.662745, 1.0 ],
					"id" : "obj-16",
					"fontname" : "Arial",
					"textcolor" : [ 1.0, 1.0, 1.0, 1.0 ],
					"fontface" : 0,
					"background" : 0,
					"fontsize" : 9.0,
					"numinlets" : 2,
					"presentation_rect" : [ 0.0, 0.0, 0.0, 0.0 ],
					"ignoreclick" : 0,
					"numoutlets" : 1,
					"hidden" : 0,
					"outlettype" : [ "" ],
					"gradient" : 0
				}

			}
, 			{
				"box" : 				{
					"maxclass" : "bach.ratnum",
					"text" : "5/1",
					"patching_rect" : [ 52.0, 445.0, 69.0, 27.0 ],
					"bgcolor" : [ 0.278431, 0.278431, 0.278431, 1.0 ],
					"presentation" : 0,
					"id" : "obj-9",
					"fontname" : "Arial Bold",
					"textcolor" : [ 1.0, 1.0, 1.0, 1.0 ],
					"triscale" : 1.0,
					"triangle" : 1,
					"minimum" : "none",
					"fontface" : 0,
					"background" : 0,
					"fontsize" : 18.0,
					"numinlets" : 1,
					"htricolor" : [ 0.87, 0.82, 0.24, 1.0 ],
					"presentation_rect" : [ 0.0, 0.0, 0.0, 0.0 ],
					"tricolor" : [ 0.75, 0.75, 0.75, 1.0 ],
					"autoreduce" : 1,
					"out" : "n",
					"outputmode" : 0,
					"maximum" : "none",
					"ignoreclick" : 0,
					"numoutlets" : 2,
					"bordercolor" : [ 0.5, 0.5, 0.5, 1.0 ],
					"hidden" : 0,
					"outlettype" : [ "", "bang" ]
				}

			}
, 			{
				"box" : 				{
					"maxclass" : "newobj",
					"text" : "jtol.bach.totdur",
					"patching_rect" : [ 52.0, 423.0, 70.0, 17.0 ],
					"bgcolor" : [ 1.0, 1.0, 1.0, 1.0 ],
					"presentation" : 0,
					"id" : "obj-6",
					"fontname" : "Arial",
					"textcolor" : [ 0.101961, 0.121569, 0.172549, 1.0 ],
					"fontface" : 0,
					"background" : 0,
					"fontsize" : 9.0,
					"color" : [ 0.494118, 0.556863, 0.607843, 1.0 ],
					"numinlets" : 1,
					"presentation_rect" : [ 0.0, 0.0, 0.0, 0.0 ],
					"ignoreclick" : 0,
					"numoutlets" : 1,
					"hidden" : 0,
					"outlettype" : [ "" ]
				}

			}
, 			{
				"box" : 				{
					"maxclass" : "newobj",
					"text" : "loadmess set 1",
					"patching_rect" : [ 195.0, 279.0, 71.0, 17.0 ],
					"bgcolor" : [ 1.0, 1.0, 1.0, 1.0 ],
					"presentation" : 0,
					"id" : "obj-14",
					"fontname" : "Arial",
					"textcolor" : [ 0.101961, 0.121569, 0.172549, 1.0 ],
					"fontface" : 0,
					"background" : 0,
					"fontsize" : 9.0,
					"color" : [ 0.494118, 0.556863, 0.607843, 1.0 ],
					"numinlets" : 1,
					"presentation_rect" : [ 0.0, 0.0, 0.0, 0.0 ],
					"ignoreclick" : 0,
					"numoutlets" : 1,
					"hidden" : 1,
					"outlettype" : [ "" ]
				}

			}
, 			{
				"box" : 				{
					"maxclass" : "newobj",
					"text" : "loadmess set 5",
					"patching_rect" : [ 362.0, 238.0, 71.0, 17.0 ],
					"bgcolor" : [ 1.0, 1.0, 1.0, 1.0 ],
					"presentation" : 0,
					"id" : "obj-10",
					"fontname" : "Arial",
					"textcolor" : [ 0.101961, 0.121569, 0.172549, 1.0 ],
					"fontface" : 0,
					"background" : 0,
					"fontsize" : 9.0,
					"color" : [ 0.494118, 0.556863, 0.607843, 1.0 ],
					"numinlets" : 1,
					"presentation_rect" : [ 0.0, 0.0, 0.0, 0.0 ],
					"ignoreclick" : 0,
					"numoutlets" : 1,
					"hidden" : 1,
					"outlettype" : [ "" ]
				}

			}
, 			{
				"box" : 				{
					"maxclass" : "bach.ratnum",
					"text" : "5/1",
					"patching_rect" : [ 362.0, 277.0, 50.0, 17.0 ],
					"bgcolor" : [ 0.278431, 0.278431, 0.278431, 1.0 ],
					"presentation" : 0,
					"id" : "obj-8",
					"fontname" : "Arial Bold",
					"textcolor" : [ 1.0, 1.0, 1.0, 1.0 ],
					"triscale" : 1.0,
					"triangle" : 1,
					"minimum" : "none",
					"fontface" : 0,
					"background" : 0,
					"fontsize" : 9.0,
					"numinlets" : 1,
					"htricolor" : [ 0.87, 0.82, 0.24, 1.0 ],
					"presentation_rect" : [ 0.0, 0.0, 0.0, 0.0 ],
					"tricolor" : [ 0.75, 0.75, 0.75, 1.0 ],
					"autoreduce" : 1,
					"out" : "n",
					"outputmode" : 0,
					"maximum" : "none",
					"ignoreclick" : 0,
					"numoutlets" : 2,
					"bordercolor" : [ 0.5, 0.5, 0.5, 1.0 ],
					"hidden" : 0,
					"outlettype" : [ "", "bang" ]
				}

			}
, 			{
				"box" : 				{
					"maxclass" : "comment",
					"text" : "duration",
					"patching_rect" : [ 362.0, 261.0, 46.0, 17.0 ],
					"frgb" : [ 1.0, 1.0, 1.0, 1.0 ],
					"bgcolor" : [ 1.0, 1.0, 1.0, 0.0 ],
					"presentation" : 0,
					"id" : "obj-4",
					"fontname" : "Arial Bold",
					"underline" : 0,
					"textcolor" : [ 1.0, 1.0, 1.0, 1.0 ],
					"fontface" : 0,
					"background" : 0,
					"fontsize" : 9.0,
					"numinlets" : 1,
					"presentation_rect" : [ 0.0, 0.0, 0.0, 0.0 ],
					"ignoreclick" : 1,
					"numoutlets" : 0,
					"hidden" : 0
				}

			}
, 			{
				"box" : 				{
					"maxclass" : "message",
					"text" : "( 1 2 ( 1 1 1 1 ) )",
					"patching_rect" : [ 70.166664, 192.0, 75.0, 15.0 ],
					"bgcolor" : [ 0.568627, 0.619608, 0.662745, 1.0 ],
					"presentation" : 0,
					"bgcolor2" : [ 0.568627, 0.619608, 0.662745, 1.0 ],
					"id" : "obj-1",
					"fontname" : "Arial",
					"textcolor" : [ 1.0, 1.0, 1.0, 1.0 ],
					"fontface" : 0,
					"background" : 0,
					"fontsize" : 9.0,
					"numinlets" : 2,
					"presentation_rect" : [ 0.0, 0.0, 0.0, 0.0 ],
					"ignoreclick" : 0,
					"numoutlets" : 1,
					"hidden" : 0,
					"outlettype" : [ "" ],
					"gradient" : 0
				}

			}
, 			{
				"box" : 				{
					"maxclass" : "message",
					"text" : "( 5 ( 1 1 1 ) )",
					"patching_rect" : [ 28.0, 386.5, 353.0, 25.0 ],
					"bgcolor" : [ 0.568627, 0.619608, 0.662745, 1.0 ],
					"presentation" : 0,
					"bgcolor2" : [ 0.568627, 0.619608, 0.662745, 1.0 ],
					"id" : "obj-45",
					"fontname" : "Arial",
					"textcolor" : [ 1.0, 1.0, 1.0, 1.0 ],
					"fontface" : 0,
					"background" : 0,
					"fontsize" : 18.0,
					"numinlets" : 2,
					"presentation_rect" : [ 0.0, 0.0, 0.0, 0.0 ],
					"ignoreclick" : 0,
					"numoutlets" : 1,
					"hidden" : 0,
					"outlettype" : [ "" ],
					"gradient" : 0
				}

			}
, 			{
				"box" : 				{
					"maxclass" : "message",
					"text" : "( 3 2 ( 1 1 ( 1 2 2 ) ) 1 ( 1 1 2 ) )",
					"patching_rect" : [ 112.166664, 249.0, 135.0, 15.0 ],
					"bgcolor" : [ 0.568627, 0.619608, 0.662745, 1.0 ],
					"presentation" : 0,
					"bgcolor2" : [ 0.568627, 0.619608, 0.662745, 1.0 ],
					"id" : "obj-33",
					"fontname" : "Arial",
					"textcolor" : [ 1.0, 1.0, 1.0, 1.0 ],
					"fontface" : 0,
					"background" : 0,
					"fontsize" : 9.0,
					"numinlets" : 2,
					"presentation_rect" : [ 0.0, 0.0, 0.0, 0.0 ],
					"ignoreclick" : 0,
					"numoutlets" : 1,
					"hidden" : 0,
					"outlettype" : [ "" ],
					"gradient" : 0
				}

			}
, 			{
				"box" : 				{
					"maxclass" : "comment",
					"text" : "depth",
					"patching_rect" : [ 195.0, 302.0, 35.0, 17.0 ],
					"frgb" : [ 1.0, 1.0, 1.0, 1.0 ],
					"bgcolor" : [ 1.0, 1.0, 1.0, 0.0 ],
					"presentation" : 0,
					"id" : "obj-26",
					"fontname" : "Arial Bold",
					"underline" : 0,
					"textcolor" : [ 1.0, 1.0, 1.0, 1.0 ],
					"fontface" : 0,
					"background" : 0,
					"fontsize" : 9.0,
					"numinlets" : 1,
					"presentation_rect" : [ 0.0, 0.0, 0.0, 0.0 ],
					"ignoreclick" : 1,
					"numoutlets" : 0,
					"hidden" : 0
				}

			}
, 			{
				"box" : 				{
					"maxclass" : "number",
					"patching_rect" : [ 195.0, 323.0, 50.0, 17.0 ],
					"bgcolor" : [ 0.278431, 0.278431, 0.278431, 1.0 ],
					"presentation" : 0,
					"id" : "obj-31",
					"fontname" : "Arial Bold",
					"textcolor" : [ 1.0, 1.0, 1.0, 1.0 ],
					"cantchange" : 0,
					"triscale" : 1.0,
					"triangle" : 1,
					"minimum" : "<none>",
					"fontface" : 0,
					"background" : 0,
					"mouseup" : 0,
					"fontsize" : 9.0,
					"numinlets" : 1,
					"outputonclick" : 0,
					"htricolor" : [ 0.921569, 0.94902, 0.05098, 1.0 ],
					"format" : 0,
					"presentation_rect" : [ 0.0, 0.0, 0.0, 0.0 ],
					"tricolor" : [ 0.666667, 0.698039, 0.717647, 1.0 ],
					"maximum" : "<none>",
					"ignoreclick" : 0,
					"numoutlets" : 2,
					"hbgcolor" : [ 0.094118, 0.113725, 0.137255, 1.0 ],
					"bordercolor" : [ 0.501961, 0.501961, 0.501961, 1.0 ],
					"hidden" : 0,
					"outlettype" : [ "int", "bang" ],
					"htextcolor" : [ 1.0, 1.0, 1.0, 1.0 ]
				}

			}
, 			{
				"box" : 				{
					"maxclass" : "newobj",
					"text" : "jtol.bach.setdur @depth 1 @out t @duration 5",
					"patching_rect" : [ 28.0, 354.0, 353.0, 17.0 ],
					"bgcolor" : [ 1.0, 1.0, 1.0, 1.0 ],
					"presentation" : 0,
					"id" : "obj-56",
					"fontname" : "Arial",
					"textcolor" : [ 0.101961, 0.121569, 0.172549, 1.0 ],
					"fontface" : 0,
					"background" : 0,
					"fontsize" : 9.0,
					"color" : [ 0.494118, 0.556863, 0.607843, 1.0 ],
					"numinlets" : 3,
					"presentation_rect" : [ 0.0, 0.0, 0.0, 0.0 ],
					"ignoreclick" : 0,
					"numoutlets" : 1,
					"hidden" : 0,
					"outlettype" : [ "" ]
				}

			}
, 			{
				"box" : 				{
					"maxclass" : "comment",
					"text" : "@depth (default 1) >> depth (int >= 1)",
					"patching_rect" : [ 502.0, 227.333328, 167.0, 17.0 ],
					"frgb" : [ 1.0, 1.0, 1.0, 1.0 ],
					"bgcolor" : [ 1.0, 1.0, 1.0, 0.0 ],
					"presentation" : 0,
					"id" : "obj-7",
					"fontname" : "Arial Bold",
					"underline" : 0,
					"textcolor" : [ 1.0, 1.0, 1.0, 1.0 ],
					"fontface" : 0,
					"background" : 0,
					"fontsize" : 9.0,
					"numinlets" : 1,
					"presentation_rect" : [ 0.0, 0.0, 0.0, 0.0 ],
					"ignoreclick" : 1,
					"numoutlets" : 0,
					"hidden" : 0
				}

			}
, 			{
				"box" : 				{
					"maxclass" : "message",
					"text" : ";\rmax launchbrowser http://www.acsu.buffalo.edu/~jtrinker/",
					"linecount" : 2,
					"patching_rect" : [ 625.0, 492.0, 238.0, 25.0 ],
					"bgcolor" : [ 0.568627, 0.619608, 0.662745, 1.0 ],
					"presentation" : 0,
					"bgcolor2" : [ 0.568627, 0.619608, 0.662745, 1.0 ],
					"id" : "obj-22",
					"fontname" : "Arial",
					"textcolor" : [ 0.101961, 0.121569, 0.172549, 1.0 ],
					"fontface" : 0,
					"background" : 0,
					"fontsize" : 9.0,
					"numinlets" : 2,
					"presentation_rect" : [ 0.0, 0.0, 0.0, 0.0 ],
					"ignoreclick" : 0,
					"numoutlets" : 1,
					"hidden" : 1,
					"outlettype" : [ "" ],
					"gradient" : 0
				}

			}
, 			{
				"box" : 				{
					"maxclass" : "comment",
					"text" : "JT Rinker",
					"patching_rect" : [ 611.0, 461.0, 61.0, 19.0 ],
					"frgb" : [ 1.0, 1.0, 1.0, 1.0 ],
					"bgcolor" : [ 1.0, 1.0, 1.0, 0.0 ],
					"presentation" : 0,
					"id" : "obj-2",
					"fontname" : "Arial Bold",
					"underline" : 0,
					"textcolor" : [ 1.0, 1.0, 1.0, 1.0 ],
					"fontface" : 0,
					"background" : 0,
					"fontsize" : 11.0,
					"numinlets" : 1,
					"presentation_rect" : [ 0.0, 0.0, 0.0, 0.0 ],
					"ignoreclick" : 1,
					"numoutlets" : 0,
					"hidden" : 0
				}

			}
, 			{
				"box" : 				{
					"maxclass" : "newobj",
					"text" : "onecopy",
					"patching_rect" : [ 468.0, 492.0, 45.0, 17.0 ],
					"bgcolor" : [ 1.0, 1.0, 1.0, 1.0 ],
					"presentation" : 0,
					"id" : "obj-35",
					"fontname" : "Arial",
					"textcolor" : [ 0.101961, 0.121569, 0.172549, 1.0 ],
					"fontface" : 0,
					"background" : 0,
					"fontsize" : 9.0,
					"color" : [ 0.494118, 0.556863, 0.607843, 1.0 ],
					"numinlets" : 1,
					"presentation_rect" : [ 0.0, 0.0, 0.0, 0.0 ],
					"ignoreclick" : 0,
					"numoutlets" : 0,
					"hidden" : 1
				}

			}
, 			{
				"box" : 				{
					"maxclass" : "message",
					"text" : ";\rmax launchbrowser http://www.opasquet.fr",
					"linecount" : 2,
					"patching_rect" : [ 530.0, 492.0, 180.0, 25.0 ],
					"bgcolor" : [ 0.568627, 0.619608, 0.662745, 1.0 ],
					"presentation" : 0,
					"bgcolor2" : [ 0.568627, 0.619608, 0.662745, 1.0 ],
					"id" : "obj-46",
					"fontname" : "Arial",
					"textcolor" : [ 0.101961, 0.121569, 0.172549, 1.0 ],
					"fontface" : 0,
					"background" : 0,
					"fontsize" : 9.0,
					"numinlets" : 2,
					"presentation_rect" : [ 0.0, 0.0, 0.0, 0.0 ],
					"ignoreclick" : 0,
					"numoutlets" : 1,
					"hidden" : 1,
					"outlettype" : [ "" ],
					"gradient" : 0
				}

			}
, 			{
				"box" : 				{
					"maxclass" : "comment",
					"text" : "2013, Olivier Pasquet,",
					"patching_rect" : [ 495.0, 461.0, 124.0, 19.0 ],
					"frgb" : [ 1.0, 1.0, 1.0, 1.0 ],
					"bgcolor" : [ 1.0, 1.0, 1.0, 0.0 ],
					"presentation" : 0,
					"id" : "obj-36",
					"fontname" : "Arial Bold",
					"underline" : 0,
					"textcolor" : [ 1.0, 1.0, 1.0, 1.0 ],
					"fontface" : 0,
					"background" : 0,
					"fontsize" : 11.0,
					"numinlets" : 1,
					"presentation_rect" : [ 0.0, 0.0, 0.0, 0.0 ],
					"ignoreclick" : 1,
					"numoutlets" : 0,
					"hidden" : 0
				}

			}
, 			{
				"box" : 				{
					"maxclass" : "ubutton",
					"patching_rect" : [ 611.0, 461.0, 60.0, 18.0 ],
					"presentation" : 0,
					"id" : "obj-5",
					"stay" : 0,
					"toggle" : 0,
					"handoffdelay" : 250,
					"hltcolor" : [ 1.0, 1.0, 1.0, 0.501961 ],
					"background" : 0,
					"numinlets" : 1,
					"handoff" : "",
					"presentation_rect" : [ 0.0, 0.0, 0.0, 0.0 ],
					"ignoreclick" : 0,
					"numoutlets" : 4,
					"hilite" : 0,
					"hidden" : 0,
					"outlettype" : [ "bang", "bang", "", "int" ],
					"dragtrack" : 0
				}

			}
, 			{
				"box" : 				{
					"maxclass" : "ubutton",
					"patching_rect" : [ 495.0, 461.0, 125.0, 18.0 ],
					"presentation" : 0,
					"id" : "obj-137",
					"stay" : 0,
					"toggle" : 0,
					"handoffdelay" : 250,
					"hltcolor" : [ 1.0, 1.0, 1.0, 0.501961 ],
					"background" : 0,
					"numinlets" : 1,
					"handoff" : "",
					"presentation_rect" : [ 0.0, 0.0, 0.0, 0.0 ],
					"ignoreclick" : 0,
					"numoutlets" : 4,
					"hilite" : 0,
					"hidden" : 0,
					"outlettype" : [ "bang", "bang", "", "int" ],
					"dragtrack" : 0
				}

			}
, 			{
				"box" : 				{
					"maxclass" : "comment",
					"varname" : "zsa_description[2]",
					"text" : "Bach library",
					"patching_rect" : [ 170.0, 90.0, 69.0, 19.0 ],
					"frgb" : [ 0.93, 0.93, 0.97, 1.0 ],
					"bgcolor" : [ 1.0, 1.0, 1.0, 0.0 ],
					"presentation" : 0,
					"id" : "obj-42",
					"fontname" : "Arial",
					"underline" : 0,
					"textcolor" : [ 0.93, 0.93, 0.97, 1.0 ],
					"fontface" : 0,
					"background" : 0,
					"fontsize" : 11.0,
					"numinlets" : 1,
					"presentation_rect" : [ 0.0, 0.0, 0.0, 0.0 ],
					"ignoreclick" : 1,
					"numoutlets" : 0,
					"hidden" : 0
				}

			}
, 			{
				"box" : 				{
					"maxclass" : "comment",
					"text" : "@out n  (default) >> bach native",
					"patching_rect" : [ 502.0, 204.333328, 147.0, 17.0 ],
					"frgb" : [ 1.0, 1.0, 1.0, 1.0 ],
					"bgcolor" : [ 1.0, 1.0, 1.0, 0.0 ],
					"presentation" : 0,
					"id" : "obj-13",
					"fontname" : "Arial Bold",
					"underline" : 0,
					"textcolor" : [ 1.0, 1.0, 1.0, 1.0 ],
					"fontface" : 0,
					"background" : 0,
					"fontsize" : 9.0,
					"numinlets" : 1,
					"presentation_rect" : [ 0.0, 0.0, 0.0, 0.0 ],
					"ignoreclick" : 1,
					"numoutlets" : 0,
					"hidden" : 0
				}

			}
, 			{
				"box" : 				{
					"maxclass" : "comment",
					"text" : "@out t >> text",
					"patching_rect" : [ 502.0, 188.333328, 70.0, 17.0 ],
					"frgb" : [ 1.0, 1.0, 1.0, 1.0 ],
					"bgcolor" : [ 1.0, 1.0, 1.0, 0.0 ],
					"presentation" : 0,
					"id" : "obj-12",
					"fontname" : "Arial Bold",
					"underline" : 0,
					"textcolor" : [ 1.0, 1.0, 1.0, 1.0 ],
					"fontface" : 0,
					"background" : 0,
					"fontsize" : 9.0,
					"numinlets" : 1,
					"presentation_rect" : [ 0.0, 0.0, 0.0, 0.0 ],
					"ignoreclick" : 1,
					"numoutlets" : 0,
					"hidden" : 0
				}

			}
, 			{
				"box" : 				{
					"maxclass" : "comment",
					"text" : "__________",
					"patching_rect" : [ 502.0, 172.0, 62.0, 17.0 ],
					"frgb" : [ 1.0, 1.0, 1.0, 1.0 ],
					"bgcolor" : [ 1.0, 1.0, 1.0, 0.0 ],
					"presentation" : 0,
					"id" : "obj-11",
					"fontname" : "Arial Bold",
					"underline" : 0,
					"textcolor" : [ 1.0, 1.0, 1.0, 1.0 ],
					"fontface" : 0,
					"background" : 0,
					"fontsize" : 9.0,
					"numinlets" : 1,
					"presentation_rect" : [ 0.0, 0.0, 0.0, 0.0 ],
					"ignoreclick" : 1,
					"numoutlets" : 0,
					"hidden" : 0
				}

			}
, 			{
				"box" : 				{
					"maxclass" : "ubutton",
					"patching_rect" : [ 169.0, 90.0, 71.0, 21.0 ],
					"presentation" : 0,
					"id" : "obj-3",
					"stay" : 0,
					"toggle" : 0,
					"handoffdelay" : 250,
					"hltcolor" : [ 1.0, 1.0, 1.0, 0.501961 ],
					"background" : 0,
					"numinlets" : 1,
					"handoff" : "",
					"presentation_rect" : [ 0.0, 0.0, 0.0, 0.0 ],
					"ignoreclick" : 0,
					"numoutlets" : 4,
					"hilite" : 0,
					"hidden" : 0,
					"outlettype" : [ "bang", "bang", "", "int" ],
					"dragtrack" : 0
				}

			}
, 			{
				"box" : 				{
					"maxclass" : "message",
					"text" : ";\rmax launchbrowser http://www.bachproject.net",
					"linecount" : 2,
					"patching_rect" : [ 246.0, 89.0, 197.0, 25.0 ],
					"bgcolor" : [ 0.568627, 0.619608, 0.662745, 1.0 ],
					"presentation" : 0,
					"bgcolor2" : [ 0.568627, 0.619608, 0.662745, 1.0 ],
					"id" : "obj-41",
					"fontname" : "Arial",
					"textcolor" : [ 0.101961, 0.121569, 0.172549, 1.0 ],
					"fontface" : 0,
					"background" : 0,
					"fontsize" : 9.0,
					"numinlets" : 2,
					"presentation_rect" : [ 0.0, 0.0, 0.0, 0.0 ],
					"ignoreclick" : 0,
					"numoutlets" : 1,
					"hidden" : 1,
					"outlettype" : [ "" ],
					"gradient" : 0
				}

			}
, 			{
				"box" : 				{
					"maxclass" : "comment",
					"varname" : "zsa_description[1]",
					"text" : "jtol.bach.setdur sets a duration to a tree or its tree branches.\nThis abstraction requires the Bach library.",
					"linecount" : 2,
					"patching_rect" : [ 28.0, 78.0, 307.0, 32.0 ],
					"frgb" : [ 0.93, 0.93, 0.97, 1.0 ],
					"bgcolor" : [ 1.0, 1.0, 1.0, 0.0 ],
					"presentation" : 0,
					"id" : "obj-143",
					"fontname" : "Arial",
					"underline" : 0,
					"textcolor" : [ 0.93, 0.93, 0.97, 1.0 ],
					"fontface" : 0,
					"background" : 0,
					"fontsize" : 11.0,
					"numinlets" : 1,
					"presentation_rect" : [ 0.0, 0.0, 0.0, 0.0 ],
					"ignoreclick" : 1,
					"numoutlets" : 0,
					"hidden" : 0
				}

			}
, 			{
				"box" : 				{
					"maxclass" : "comment",
					"varname" : "zsa_description",
					"text" : "set a duration to tree branches",
					"patching_rect" : [ 28.0, 49.0, 187.0, 21.0 ],
					"frgb" : [ 0.93, 0.93, 0.97, 1.0 ],
					"bgcolor" : [ 1.0, 1.0, 1.0, 0.0 ],
					"presentation" : 0,
					"id" : "obj-133",
					"fontname" : "Arial",
					"underline" : 0,
					"textcolor" : [ 0.93, 0.93, 0.97, 1.0 ],
					"fontface" : 0,
					"background" : 0,
					"fontsize" : 13.0,
					"numinlets" : 1,
					"presentation_rect" : [ 0.0, 0.0, 0.0, 0.0 ],
					"ignoreclick" : 1,
					"numoutlets" : 0,
					"hidden" : 0
				}

			}
, 			{
				"box" : 				{
					"maxclass" : "comment",
					"varname" : "zsa_title",
					"text" : "jtol.bach.setdur",
					"patching_rect" : [ 28.0, 19.0, 167.0, 31.0 ],
					"frgb" : [ 1.0, 1.0, 1.0, 1.0 ],
					"bgcolor" : [ 1.0, 1.0, 1.0, 0.0 ],
					"presentation" : 0,
					"id" : "obj-134",
					"fontname" : "Arial",
					"underline" : 0,
					"textcolor" : [ 1.0, 1.0, 1.0, 1.0 ],
					"fontface" : 3,
					"background" : 0,
					"fontsize" : 21.0,
					"numinlets" : 1,
					"presentation_rect" : [ 0.0, 0.0, 0.0, 0.0 ],
					"ignoreclick" : 1,
					"numoutlets" : 0,
					"hidden" : 0
				}

			}
, 			{
				"box" : 				{
					"maxclass" : "comment",
					"text" : "arguments :",
					"patching_rect" : [ 502.0, 171.0, 62.0, 17.0 ],
					"frgb" : [ 1.0, 1.0, 1.0, 1.0 ],
					"bgcolor" : [ 1.0, 1.0, 1.0, 0.0 ],
					"presentation" : 0,
					"id" : "obj-15",
					"fontname" : "Arial Bold",
					"underline" : 0,
					"textcolor" : [ 1.0, 1.0, 1.0, 1.0 ],
					"fontface" : 0,
					"background" : 0,
					"fontsize" : 9.0,
					"numinlets" : 1,
					"presentation_rect" : [ 0.0, 0.0, 0.0, 0.0 ],
					"ignoreclick" : 1,
					"numoutlets" : 0,
					"hidden" : 0
				}

			}
, 			{
				"box" : 				{
					"maxclass" : "panel",
					"patching_rect" : [ 497.0, 167.0, 241.0, 102.0 ],
					"bgcolor" : [ 0.47451, 0.47451, 0.47451, 1.0 ],
					"presentation" : 0,
					"mode" : 0,
					"id" : "obj-29",
					"border" : 0,
					"rounded" : 8,
					"angle" : 0.0,
					"grad2" : [ 0.301961, 0.337255, 0.403922, 1.0 ],
					"shadow" : 0,
					"background" : 0,
					"numinlets" : 1,
					"presentation_rect" : [ 0.0, 0.0, 0.0, 0.0 ],
					"ignoreclick" : 1,
					"numoutlets" : 0,
					"bordercolor" : [ 0.415686, 0.454902, 0.52549, 1.0 ],
					"hidden" : 0,
					"grad1" : [ 0.666667, 0.698039, 0.717647, 1.0 ]
				}

			}
, 			{
				"box" : 				{
					"maxclass" : "panel",
					"varname" : "autohelp_top_panel",
					"patching_rect" : [ 28.0, 18.0, 473.0, 52.0 ],
					"bgcolor" : [ 0.184314, 0.254902, 0.34902, 1.0 ],
					"presentation" : 0,
					"mode" : 1,
					"id" : "obj-135",
					"border" : 0,
					"rounded" : 8,
					"angle" : -88.349983,
					"grad2" : [ 0.6, 0.6, 0.6, 1.0 ],
					"shadow" : 0,
					"background" : 1,
					"numinlets" : 1,
					"presentation_rect" : [ 0.0, 0.0, 0.0, 0.0 ],
					"ignoreclick" : 1,
					"numoutlets" : 0,
					"bordercolor" : [ 0.415686, 0.454902, 0.52549, 1.0 ],
					"hidden" : 0,
					"grad1" : [ 0.694118, 0.694118, 0.694118, 1.0 ]
				}

			}
 ],
		"lines" : [ 			{
				"patchline" : 				{
					"source" : [ "obj-10", 0 ],
					"destination" : [ "obj-27", 0 ],
					"hidden" : 1,
					"color" : [ 0.101961, 0.121569, 0.172549, 1.0 ],
					"midpoints" : [  ]
				}

			}
, 			{
				"patchline" : 				{
					"source" : [ "obj-10", 0 ],
					"destination" : [ "obj-23", 0 ],
					"hidden" : 1,
					"color" : [ 0.101961, 0.121569, 0.172549, 1.0 ],
					"midpoints" : [  ]
				}

			}
, 			{
				"patchline" : 				{
					"source" : [ "obj-10", 0 ],
					"destination" : [ "obj-8", 0 ],
					"hidden" : 1,
					"color" : [ 0.101961, 0.121569, 0.172549, 1.0 ],
					"midpoints" : [  ]
				}

			}
, 			{
				"patchline" : 				{
					"source" : [ "obj-27", 0 ],
					"destination" : [ "obj-56", 2 ],
					"hidden" : 0,
					"color" : [ 1.0, 1.0, 1.0, 1.0 ],
					"midpoints" : [  ]
				}

			}
, 			{
				"patchline" : 				{
					"source" : [ "obj-23", 0 ],
					"destination" : [ "obj-56", 2 ],
					"hidden" : 0,
					"color" : [ 1.0, 1.0, 1.0, 1.0 ],
					"midpoints" : [  ]
				}

			}
, 			{
				"patchline" : 				{
					"source" : [ "obj-19", 0 ],
					"destination" : [ "obj-56", 0 ],
					"hidden" : 0,
					"color" : [ 1.0, 1.0, 1.0, 1.0 ],
					"midpoints" : [  ]
				}

			}
, 			{
				"patchline" : 				{
					"source" : [ "obj-31", 0 ],
					"destination" : [ "obj-56", 1 ],
					"hidden" : 0,
					"color" : [ 1.0, 1.0, 1.0, 1.0 ],
					"midpoints" : [  ]
				}

			}
, 			{
				"patchline" : 				{
					"source" : [ "obj-56", 0 ],
					"destination" : [ "obj-45", 1 ],
					"hidden" : 0,
					"color" : [ 1.0, 1.0, 1.0, 1.0 ],
					"midpoints" : [ 37.5, 378.75, 371.5, 378.75 ]
				}

			}
, 			{
				"patchline" : 				{
					"source" : [ "obj-33", 0 ],
					"destination" : [ "obj-56", 0 ],
					"hidden" : 0,
					"color" : [ 1.0, 1.0, 1.0, 1.0 ],
					"midpoints" : [  ]
				}

			}
, 			{
				"patchline" : 				{
					"source" : [ "obj-1", 0 ],
					"destination" : [ "obj-56", 0 ],
					"hidden" : 0,
					"color" : [ 1.0, 1.0, 1.0, 1.0 ],
					"midpoints" : [  ]
				}

			}
, 			{
				"patchline" : 				{
					"source" : [ "obj-8", 0 ],
					"destination" : [ "obj-56", 2 ],
					"hidden" : 0,
					"color" : [ 1.0, 1.0, 1.0, 1.0 ],
					"midpoints" : [  ]
				}

			}
, 			{
				"patchline" : 				{
					"source" : [ "obj-16", 0 ],
					"destination" : [ "obj-56", 0 ],
					"hidden" : 0,
					"color" : [ 1.0, 1.0, 1.0, 1.0 ],
					"midpoints" : [  ]
				}

			}
, 			{
				"patchline" : 				{
					"source" : [ "obj-17", 0 ],
					"destination" : [ "obj-56", 0 ],
					"hidden" : 0,
					"color" : [ 1.0, 1.0, 1.0, 1.0 ],
					"midpoints" : [  ]
				}

			}
, 			{
				"patchline" : 				{
					"source" : [ "obj-18", 0 ],
					"destination" : [ "obj-56", 0 ],
					"hidden" : 0,
					"color" : [ 1.0, 1.0, 1.0, 1.0 ],
					"midpoints" : [  ]
				}

			}
, 			{
				"patchline" : 				{
					"source" : [ "obj-56", 0 ],
					"destination" : [ "obj-6", 0 ],
					"hidden" : 0,
					"color" : [ 1.0, 1.0, 1.0, 1.0 ],
					"midpoints" : [  ]
				}

			}
, 			{
				"patchline" : 				{
					"source" : [ "obj-20", 0 ],
					"destination" : [ "obj-56", 0 ],
					"hidden" : 0,
					"color" : [ 1.0, 1.0, 1.0, 1.0 ],
					"midpoints" : [  ]
				}

			}
, 			{
				"patchline" : 				{
					"source" : [ "obj-6", 0 ],
					"destination" : [ "obj-9", 0 ],
					"hidden" : 0,
					"color" : [ 1.0, 1.0, 1.0, 1.0 ],
					"midpoints" : [  ]
				}

			}
, 			{
				"patchline" : 				{
					"source" : [ "obj-3", 1 ],
					"destination" : [ "obj-41", 0 ],
					"hidden" : 1,
					"color" : [ 0.101961, 0.121569, 0.172549, 1.0 ],
					"midpoints" : [  ]
				}

			}
, 			{
				"patchline" : 				{
					"source" : [ "obj-5", 1 ],
					"destination" : [ "obj-22", 0 ],
					"hidden" : 1,
					"color" : [ 0.101961, 0.121569, 0.172549, 1.0 ],
					"midpoints" : [  ]
				}

			}
, 			{
				"patchline" : 				{
					"source" : [ "obj-137", 1 ],
					"destination" : [ "obj-46", 0 ],
					"hidden" : 1,
					"color" : [ 0.101961, 0.121569, 0.172549, 1.0 ],
					"midpoints" : [  ]
				}

			}
, 			{
				"patchline" : 				{
					"source" : [ "obj-14", 0 ],
					"destination" : [ "obj-31", 0 ],
					"hidden" : 1,
					"color" : [ 0.101961, 0.121569, 0.172549, 1.0 ],
					"midpoints" : [  ]
				}

			}
 ]
	}

}
