{
	"patcher" : 	{
		"fileversion" : 1,
		"appversion" : 		{
			"major" : 5,
			"minor" : 1,
			"revision" : 9
		}
,
		"rect" : [ 414.0, 262.0, 484.0, 342.0 ],
		"bgcolor" : [ 0.666667, 0.698039, 0.717647, 1.0 ],
		"bglocked" : 0,
		"defrect" : [ 414.0, 262.0, 484.0, 342.0 ],
		"openrect" : [ 0.0, 0.0, 0.0, 0.0 ],
		"openinpresentation" : 0,
		"default_fontsize" : 9.0,
		"default_fontface" : 0,
		"default_fontname" : "Arial",
		"gridonopen" : 0,
		"gridsize" : [ 15.0, 15.0 ],
		"gridsnaponopen" : 0,
		"toolbarvisible" : 0,
		"boxanimatetime" : 200,
		"imprint" : 1,
		"enablehscroll" : 1,
		"enablevscroll" : 1,
		"devicewidth" : 0.0,
		"boxes" : [ 			{
				"box" : 				{
					"maxclass" : "newobj",
					"text" : "patcherargs",
					"patching_rect" : [ 34.0, 18.0, 58.0, 17.0 ],
					"numinlets" : 1,
					"presentation" : 0,
					"id" : "obj-6",
					"fontname" : "Arial",
					"textcolor" : [ 0.101961, 0.121569, 0.172549, 1.0 ],
					"bgcolor" : [ 1.0, 1.0, 1.0, 1.0 ],
					"numoutlets" : 2,
					"background" : 0,
					"color" : [ 0.494118, 0.556863, 0.607843, 1.0 ],
					"outlettype" : [ "", "" ],
					"fontface" : 0,
					"fontsize" : 9.0,
					"ignoreclick" : 0,
					"presentation_rect" : [ 0.0, 0.0, 0.0, 0.0 ],
					"hidden" : 0
				}

			}
, 			{
				"box" : 				{
					"maxclass" : "outlet",
					"patching_rect" : [ 79.0, 292.5, 17.0, 17.0 ],
					"numinlets" : 1,
					"presentation" : 0,
					"id" : "obj-29",
					"numoutlets" : 0,
					"background" : 0,
					"ignoreclick" : 0,
					"presentation_rect" : [ 0.0, 0.0, 0.0, 0.0 ],
					"hidden" : 0,
					"comment" : ""
				}

			}
, 			{
				"box" : 				{
					"maxclass" : "newobj",
					"text" : "bach.flat @maxlevel 1",
					"patching_rect" : [ 43.0, 152.0, 99.0, 17.0 ],
					"numinlets" : 1,
					"presentation" : 0,
					"id" : "obj-84",
					"fontname" : "Arial",
					"textcolor" : [ 0.101961, 0.121569, 0.172549, 1.0 ],
					"bgcolor" : [ 1.0, 1.0, 1.0, 1.0 ],
					"numoutlets" : 1,
					"background" : 0,
					"color" : [ 0.494118, 0.556863, 0.607843, 1.0 ],
					"outlettype" : [ "" ],
					"fontface" : 0,
					"fontsize" : 9.0,
					"ignoreclick" : 0,
					"presentation_rect" : [ 0.0, 0.0, 0.0, 0.0 ],
					"hidden" : 0
				}

			}
, 			{
				"box" : 				{
					"maxclass" : "newobj",
					"text" : "bach.wrap",
					"patching_rect" : [ 113.75, 243.5, 52.0, 17.0 ],
					"numinlets" : 1,
					"presentation" : 0,
					"id" : "obj-7",
					"fontname" : "Arial",
					"textcolor" : [ 0.101961, 0.121569, 0.172549, 1.0 ],
					"bgcolor" : [ 1.0, 1.0, 1.0, 1.0 ],
					"numoutlets" : 1,
					"background" : 0,
					"color" : [ 0.494118, 0.556863, 0.607843, 1.0 ],
					"outlettype" : [ "" ],
					"fontface" : 0,
					"fontsize" : 9.0,
					"ignoreclick" : 0,
					"presentation_rect" : [ 0.0, 0.0, 0.0, 0.0 ],
					"hidden" : 0
				}

			}
, 			{
				"box" : 				{
					"maxclass" : "newobj",
					"text" : "bach.wrap",
					"patching_rect" : [ 43.0, 243.5, 52.0, 17.0 ],
					"numinlets" : 1,
					"presentation" : 0,
					"id" : "obj-1",
					"fontname" : "Arial",
					"textcolor" : [ 0.101961, 0.121569, 0.172549, 1.0 ],
					"bgcolor" : [ 1.0, 1.0, 1.0, 1.0 ],
					"numoutlets" : 1,
					"background" : 0,
					"color" : [ 0.494118, 0.556863, 0.607843, 1.0 ],
					"outlettype" : [ "" ],
					"fontface" : 0,
					"fontsize" : 9.0,
					"ignoreclick" : 0,
					"presentation_rect" : [ 0.0, 0.0, 0.0, 0.0 ],
					"hidden" : 0
				}

			}
, 			{
				"box" : 				{
					"maxclass" : "newobj",
					"text" : "bach.expr $i1+$i2 @out t",
					"patching_rect" : [ 159.75, 152.0, 111.0, 17.0 ],
					"numinlets" : 2,
					"presentation" : 0,
					"id" : "obj-73",
					"fontname" : "Arial",
					"textcolor" : [ 0.101961, 0.121569, 0.172549, 1.0 ],
					"bgcolor" : [ 1.0, 1.0, 1.0, 1.0 ],
					"numoutlets" : 1,
					"background" : 0,
					"color" : [ 0.494118, 0.556863, 0.607843, 1.0 ],
					"outlettype" : [ "" ],
					"fontface" : 0,
					"fontsize" : 9.0,
					"ignoreclick" : 0,
					"presentation_rect" : [ 0.0, 0.0, 0.0, 0.0 ],
					"hidden" : 0
				}

			}
, 			{
				"box" : 				{
					"maxclass" : "newobj",
					"text" : "bach.slice",
					"patching_rect" : [ 43.0, 219.833313, 90.0, 17.0 ],
					"numinlets" : 1,
					"presentation" : 0,
					"id" : "obj-17",
					"fontname" : "Arial",
					"textcolor" : [ 0.101961, 0.121569, 0.172549, 1.0 ],
					"bgcolor" : [ 1.0, 1.0, 1.0, 1.0 ],
					"numoutlets" : 2,
					"background" : 0,
					"color" : [ 0.494118, 0.556863, 0.607843, 1.0 ],
					"outlettype" : [ "", "" ],
					"fontface" : 0,
					"fontsize" : 9.0,
					"ignoreclick" : 0,
					"presentation_rect" : [ 0.0, 0.0, 0.0, 0.0 ],
					"hidden" : 0
				}

			}
, 			{
				"box" : 				{
					"maxclass" : "newobj",
					"text" : "bach.portal 2",
					"patching_rect" : [ 43.0, 267.5, 90.0, 17.0 ],
					"numinlets" : 2,
					"presentation" : 0,
					"id" : "obj-5",
					"fontname" : "Arial",
					"textcolor" : [ 0.101961, 0.121569, 0.172549, 1.0 ],
					"bgcolor" : [ 1.0, 1.0, 1.0, 1.0 ],
					"numoutlets" : 3,
					"background" : 0,
					"color" : [ 0.494118, 0.556863, 0.607843, 1.0 ],
					"outlettype" : [ "", "", "bang" ],
					"fontface" : 0,
					"fontsize" : 9.0,
					"ignoreclick" : 0,
					"presentation_rect" : [ 0.0, 0.0, 0.0, 0.0 ],
					"hidden" : 0
				}

			}
, 			{
				"box" : 				{
					"maxclass" : "newobj",
					"text" : "p load",
					"patching_rect" : [ 73.0, 41.0, 377.0, 17.0 ],
					"numinlets" : 1,
					"presentation" : 0,
					"id" : "obj-2",
					"fontname" : "Arial",
					"textcolor" : [ 0.101961, 0.121569, 0.172549, 1.0 ],
					"bgcolor" : [ 1.0, 1.0, 1.0, 1.0 ],
					"numoutlets" : 3,
					"background" : 0,
					"color" : [ 0.494118, 0.556863, 0.607843, 1.0 ],
					"outlettype" : [ "", "", "" ],
					"fontface" : 0,
					"fontsize" : 9.0,
					"ignoreclick" : 0,
					"presentation_rect" : [ 0.0, 0.0, 0.0, 0.0 ],
					"hidden" : 0,
					"patcher" : 					{
						"fileversion" : 1,
						"appversion" : 						{
							"major" : 5,
							"minor" : 1,
							"revision" : 9
						}
,
						"rect" : [ 190.0, 166.0, 315.0, 301.0 ],
						"bgcolor" : [ 0.666667, 0.698039, 0.717647, 1.0 ],
						"bglocked" : 0,
						"defrect" : [ 190.0, 166.0, 315.0, 301.0 ],
						"openrect" : [ 0.0, 0.0, 0.0, 0.0 ],
						"openinpresentation" : 0,
						"default_fontsize" : 9.0,
						"default_fontface" : 0,
						"default_fontname" : "Arial",
						"gridonopen" : 0,
						"gridsize" : [ 15.0, 15.0 ],
						"gridsnaponopen" : 0,
						"toolbarvisible" : 0,
						"boxanimatetime" : 200,
						"imprint" : 1,
						"enablehscroll" : 1,
						"enablevscroll" : 1,
						"devicewidth" : 0.0,
						"boxes" : [ 							{
								"box" : 								{
									"maxclass" : "message",
									"text" : "1",
									"gradient" : 0,
									"patching_rect" : [ 231.0, 181.0, 16.0, 15.0 ],
									"numinlets" : 2,
									"presentation" : 0,
									"id" : "obj-10",
									"fontname" : "Arial",
									"textcolor" : [ 0.101961, 0.121569, 0.172549, 1.0 ],
									"bgcolor" : [ 0.568627, 0.619608, 0.662745, 1.0 ],
									"numoutlets" : 1,
									"background" : 0,
									"bgcolor2" : [ 0.568627, 0.619608, 0.662745, 1.0 ],
									"outlettype" : [ "" ],
									"fontface" : 0,
									"fontsize" : 9.0,
									"ignoreclick" : 0,
									"presentation_rect" : [ 0.0, 0.0, 0.0, 0.0 ],
									"hidden" : 0
								}

							}
, 							{
								"box" : 								{
									"maxclass" : "outlet",
									"patching_rect" : [ 231.0, 257.0, 18.0, 18.0 ],
									"numinlets" : 1,
									"presentation" : 0,
									"id" : "obj-9",
									"numoutlets" : 0,
									"background" : 0,
									"ignoreclick" : 0,
									"presentation_rect" : [ 0.0, 0.0, 0.0, 0.0 ],
									"hidden" : 0,
									"comment" : ""
								}

							}
, 							{
								"box" : 								{
									"maxclass" : "newobj",
									"text" : "onebang 1",
									"patching_rect" : [ 228.0, 86.666664, 53.0, 17.0 ],
									"numinlets" : 2,
									"presentation" : 0,
									"id" : "obj-8",
									"fontname" : "Arial",
									"textcolor" : [ 0.101961, 0.121569, 0.172549, 1.0 ],
									"bgcolor" : [ 1.0, 1.0, 1.0, 1.0 ],
									"numoutlets" : 2,
									"background" : 0,
									"color" : [ 0.494118, 0.556863, 0.607843, 1.0 ],
									"outlettype" : [ "bang", "bang" ],
									"fontface" : 0,
									"fontsize" : 9.0,
									"ignoreclick" : 0,
									"presentation_rect" : [ 0.0, 0.0, 0.0, 0.0 ],
									"hidden" : 0
								}

							}
, 							{
								"box" : 								{
									"maxclass" : "newobj",
									"text" : "t l b",
									"patching_rect" : [ 83.0, 60.666664, 164.0, 17.0 ],
									"numinlets" : 1,
									"presentation" : 0,
									"id" : "obj-3",
									"fontname" : "Arial",
									"textcolor" : [ 0.101961, 0.121569, 0.172549, 1.0 ],
									"bgcolor" : [ 1.0, 1.0, 1.0, 1.0 ],
									"numoutlets" : 2,
									"background" : 0,
									"color" : [ 0.494118, 0.556863, 0.607843, 1.0 ],
									"outlettype" : [ "", "bang" ],
									"fontface" : 0,
									"fontsize" : 9.0,
									"ignoreclick" : 0,
									"presentation_rect" : [ 0.0, 0.0, 0.0, 0.0 ],
									"hidden" : 0
								}

							}
, 							{
								"box" : 								{
									"maxclass" : "newobj",
									"text" : "zl rev",
									"patching_rect" : [ 83.0, 86.666664, 32.5, 17.0 ],
									"numinlets" : 2,
									"presentation" : 0,
									"id" : "obj-18",
									"fontname" : "Arial",
									"textcolor" : [ 0.101961, 0.121569, 0.172549, 1.0 ],
									"bgcolor" : [ 1.0, 1.0, 1.0, 1.0 ],
									"numoutlets" : 2,
									"background" : 0,
									"color" : [ 0.494118, 0.556863, 0.607843, 1.0 ],
									"outlettype" : [ "", "" ],
									"fontface" : 0,
									"fontsize" : 9.0,
									"ignoreclick" : 0,
									"presentation_rect" : [ 0.0, 0.0, 0.0, 0.0 ],
									"hidden" : 0
								}

							}
, 							{
								"box" : 								{
									"maxclass" : "newobj",
									"text" : "route done",
									"patching_rect" : [ 48.0, 33.333344, 54.0, 17.0 ],
									"numinlets" : 1,
									"presentation" : 0,
									"id" : "obj-20",
									"fontname" : "Arial",
									"textcolor" : [ 0.101961, 0.121569, 0.172549, 1.0 ],
									"bgcolor" : [ 1.0, 1.0, 1.0, 1.0 ],
									"numoutlets" : 2,
									"background" : 0,
									"color" : [ 0.494118, 0.556863, 0.607843, 1.0 ],
									"outlettype" : [ "", "" ],
									"fontface" : 0,
									"fontsize" : 9.0,
									"ignoreclick" : 0,
									"presentation_rect" : [ 0.0, 0.0, 0.0, 0.0 ],
									"hidden" : 0
								}

							}
, 							{
								"box" : 								{
									"maxclass" : "inlet",
									"patching_rect" : [ 48.0, 6.0, 20.0, 20.0 ],
									"numinlets" : 0,
									"presentation" : 0,
									"id" : "obj-30",
									"numoutlets" : 1,
									"background" : 0,
									"outlettype" : [ "" ],
									"ignoreclick" : 0,
									"presentation_rect" : [ 0.0, 0.0, 0.0, 0.0 ],
									"hidden" : 0,
									"comment" : ""
								}

							}
, 							{
								"box" : 								{
									"maxclass" : "message",
									"text" : "out $1",
									"gradient" : 0,
									"patching_rect" : [ 32.0, 234.0, 36.0, 15.0 ],
									"numinlets" : 2,
									"presentation" : 0,
									"id" : "obj-6",
									"fontname" : "Arial",
									"textcolor" : [ 0.101961, 0.121569, 0.172549, 1.0 ],
									"bgcolor" : [ 0.568627, 0.619608, 0.662745, 1.0 ],
									"numoutlets" : 1,
									"background" : 0,
									"bgcolor2" : [ 0.568627, 0.619608, 0.662745, 1.0 ],
									"outlettype" : [ "" ],
									"fontface" : 0,
									"fontsize" : 9.0,
									"ignoreclick" : 0,
									"presentation_rect" : [ 0.0, 0.0, 0.0, 0.0 ],
									"hidden" : 0
								}

							}
, 							{
								"box" : 								{
									"maxclass" : "outlet",
									"patching_rect" : [ 83.0, 257.0, 18.0, 18.0 ],
									"numinlets" : 1,
									"presentation" : 0,
									"id" : "obj-5",
									"numoutlets" : 0,
									"background" : 0,
									"ignoreclick" : 0,
									"presentation_rect" : [ 0.0, 0.0, 0.0, 0.0 ],
									"hidden" : 0,
									"comment" : ""
								}

							}
, 							{
								"box" : 								{
									"maxclass" : "message",
									"text" : "2",
									"gradient" : 0,
									"patching_rect" : [ 165.0, 181.0, 16.0, 15.0 ],
									"numinlets" : 2,
									"presentation" : 0,
									"id" : "obj-4",
									"fontname" : "Arial",
									"textcolor" : [ 0.101961, 0.121569, 0.172549, 1.0 ],
									"bgcolor" : [ 0.568627, 0.619608, 0.662745, 1.0 ],
									"numoutlets" : 1,
									"background" : 0,
									"bgcolor2" : [ 0.568627, 0.619608, 0.662745, 1.0 ],
									"outlettype" : [ "" ],
									"fontface" : 0,
									"fontsize" : 9.0,
									"ignoreclick" : 0,
									"presentation_rect" : [ 0.0, 0.0, 0.0, 0.0 ],
									"hidden" : 0
								}

							}
, 							{
								"box" : 								{
									"maxclass" : "message",
									"text" : "0",
									"gradient" : 0,
									"patching_rect" : [ 195.0, 181.0, 16.0, 15.0 ],
									"numinlets" : 2,
									"presentation" : 0,
									"id" : "obj-2",
									"fontname" : "Arial",
									"textcolor" : [ 0.101961, 0.121569, 0.172549, 1.0 ],
									"bgcolor" : [ 0.568627, 0.619608, 0.662745, 1.0 ],
									"numoutlets" : 1,
									"background" : 0,
									"bgcolor2" : [ 0.568627, 0.619608, 0.662745, 1.0 ],
									"outlettype" : [ "" ],
									"fontface" : 0,
									"fontsize" : 9.0,
									"ignoreclick" : 0,
									"presentation_rect" : [ 0.0, 0.0, 0.0, 0.0 ],
									"hidden" : 0
								}

							}
, 							{
								"box" : 								{
									"maxclass" : "newobj",
									"text" : "zl iter 2",
									"patching_rect" : [ 83.0, 110.333336, 40.0, 17.0 ],
									"numinlets" : 2,
									"presentation" : 0,
									"id" : "obj-7",
									"fontname" : "Arial",
									"textcolor" : [ 0.101961, 0.121569, 0.172549, 1.0 ],
									"bgcolor" : [ 1.0, 1.0, 1.0, 1.0 ],
									"numoutlets" : 2,
									"background" : 0,
									"color" : [ 0.494118, 0.556863, 0.607843, 1.0 ],
									"outlettype" : [ "", "" ],
									"fontface" : 0,
									"fontsize" : 9.0,
									"ignoreclick" : 0,
									"presentation_rect" : [ 0.0, 0.0, 0.0, 0.0 ],
									"hidden" : 0
								}

							}
, 							{
								"box" : 								{
									"maxclass" : "message",
									"text" : "1",
									"gradient" : 0,
									"patching_rect" : [ 135.0, 181.0, 16.0, 15.0 ],
									"numinlets" : 2,
									"presentation" : 0,
									"id" : "obj-16",
									"fontname" : "Arial",
									"textcolor" : [ 0.101961, 0.121569, 0.172549, 1.0 ],
									"bgcolor" : [ 0.568627, 0.619608, 0.662745, 1.0 ],
									"numoutlets" : 1,
									"background" : 0,
									"bgcolor2" : [ 0.568627, 0.619608, 0.662745, 1.0 ],
									"outlettype" : [ "" ],
									"fontface" : 0,
									"fontsize" : 9.0,
									"ignoreclick" : 0,
									"presentation_rect" : [ 0.0, 0.0, 0.0, 0.0 ],
									"hidden" : 0
								}

							}
, 							{
								"box" : 								{
									"maxclass" : "newobj",
									"text" : "gate 2",
									"patching_rect" : [ 32.0, 209.0, 70.0, 17.0 ],
									"numinlets" : 2,
									"presentation" : 0,
									"id" : "obj-15",
									"fontname" : "Arial",
									"textcolor" : [ 0.101961, 0.121569, 0.172549, 1.0 ],
									"bgcolor" : [ 1.0, 1.0, 1.0, 1.0 ],
									"numoutlets" : 2,
									"background" : 0,
									"color" : [ 0.494118, 0.556863, 0.607843, 1.0 ],
									"outlettype" : [ "", "" ],
									"fontface" : 0,
									"fontsize" : 9.0,
									"ignoreclick" : 0,
									"presentation_rect" : [ 0.0, 0.0, 0.0, 0.0 ],
									"hidden" : 0
								}

							}
, 							{
								"box" : 								{
									"maxclass" : "newobj",
									"text" : "sel out index",
									"patching_rect" : [ 132.0, 155.0, 79.0, 17.0 ],
									"numinlets" : 1,
									"presentation" : 0,
									"id" : "obj-14",
									"fontname" : "Arial",
									"textcolor" : [ 0.101961, 0.121569, 0.172549, 1.0 ],
									"bgcolor" : [ 1.0, 1.0, 1.0, 1.0 ],
									"numoutlets" : 3,
									"background" : 0,
									"color" : [ 0.494118, 0.556863, 0.607843, 1.0 ],
									"outlettype" : [ "bang", "bang", "" ],
									"fontface" : 0,
									"fontsize" : 9.0,
									"ignoreclick" : 0,
									"presentation_rect" : [ 0.0, 0.0, 0.0, 0.0 ],
									"hidden" : 0
								}

							}
, 							{
								"box" : 								{
									"maxclass" : "newobj",
									"text" : "zl slice 1",
									"patching_rect" : [ 83.0, 132.0, 68.0, 17.0 ],
									"numinlets" : 2,
									"presentation" : 0,
									"id" : "obj-11",
									"fontname" : "Arial",
									"textcolor" : [ 0.101961, 0.121569, 0.172549, 1.0 ],
									"bgcolor" : [ 1.0, 1.0, 1.0, 1.0 ],
									"numoutlets" : 2,
									"background" : 0,
									"color" : [ 0.494118, 0.556863, 0.607843, 1.0 ],
									"outlettype" : [ "", "" ],
									"fontface" : 0,
									"fontsize" : 9.0,
									"ignoreclick" : 0,
									"presentation_rect" : [ 0.0, 0.0, 0.0, 0.0 ],
									"hidden" : 0
								}

							}
, 							{
								"box" : 								{
									"maxclass" : "outlet",
									"patching_rect" : [ 32.0, 257.0, 18.0, 18.0 ],
									"numinlets" : 1,
									"presentation" : 0,
									"id" : "obj-1",
									"numoutlets" : 0,
									"background" : 0,
									"ignoreclick" : 0,
									"presentation_rect" : [ 0.0, 0.0, 0.0, 0.0 ],
									"hidden" : 0,
									"comment" : ""
								}

							}
 ],
						"lines" : [ 							{
								"patchline" : 								{
									"source" : [ "obj-3", 1 ],
									"destination" : [ "obj-8", 0 ],
									"hidden" : 0,
									"color" : [ 0.101961, 0.121569, 0.172549, 1.0 ],
									"midpoints" : [  ]
								}

							}
, 							{
								"patchline" : 								{
									"source" : [ "obj-10", 0 ],
									"destination" : [ "obj-9", 0 ],
									"hidden" : 0,
									"color" : [ 0.101961, 0.121569, 0.172549, 1.0 ],
									"midpoints" : [  ]
								}

							}
, 							{
								"patchline" : 								{
									"source" : [ "obj-8", 0 ],
									"destination" : [ "obj-10", 0 ],
									"hidden" : 0,
									"color" : [ 0.101961, 0.121569, 0.172549, 1.0 ],
									"midpoints" : [  ]
								}

							}
, 							{
								"patchline" : 								{
									"source" : [ "obj-3", 0 ],
									"destination" : [ "obj-18", 0 ],
									"hidden" : 0,
									"color" : [ 0.101961, 0.121569, 0.172549, 1.0 ],
									"midpoints" : [  ]
								}

							}
, 							{
								"patchline" : 								{
									"source" : [ "obj-20", 1 ],
									"destination" : [ "obj-3", 0 ],
									"hidden" : 0,
									"color" : [ 0.101961, 0.121569, 0.172549, 1.0 ],
									"midpoints" : [  ]
								}

							}
, 							{
								"patchline" : 								{
									"source" : [ "obj-14", 1 ],
									"destination" : [ "obj-4", 0 ],
									"hidden" : 0,
									"color" : [ 0.101961, 0.121569, 0.172549, 1.0 ],
									"midpoints" : [  ]
								}

							}
, 							{
								"patchline" : 								{
									"source" : [ "obj-14", 2 ],
									"destination" : [ "obj-2", 0 ],
									"hidden" : 0,
									"color" : [ 0.101961, 0.121569, 0.172549, 1.0 ],
									"midpoints" : [  ]
								}

							}
, 							{
								"patchline" : 								{
									"source" : [ "obj-14", 0 ],
									"destination" : [ "obj-16", 0 ],
									"hidden" : 0,
									"color" : [ 0.101961, 0.121569, 0.172549, 1.0 ],
									"midpoints" : [  ]
								}

							}
, 							{
								"patchline" : 								{
									"source" : [ "obj-11", 1 ],
									"destination" : [ "obj-14", 0 ],
									"hidden" : 0,
									"color" : [ 0.101961, 0.121569, 0.172549, 1.0 ],
									"midpoints" : [  ]
								}

							}
, 							{
								"patchline" : 								{
									"source" : [ "obj-18", 0 ],
									"destination" : [ "obj-7", 0 ],
									"hidden" : 0,
									"color" : [ 0.101961, 0.121569, 0.172549, 1.0 ],
									"midpoints" : [  ]
								}

							}
, 							{
								"patchline" : 								{
									"source" : [ "obj-30", 0 ],
									"destination" : [ "obj-20", 0 ],
									"hidden" : 0,
									"color" : [ 0.101961, 0.121569, 0.172549, 1.0 ],
									"midpoints" : [  ]
								}

							}
, 							{
								"patchline" : 								{
									"source" : [ "obj-15", 0 ],
									"destination" : [ "obj-6", 0 ],
									"hidden" : 0,
									"color" : [ 0.101961, 0.121569, 0.172549, 1.0 ],
									"midpoints" : [  ]
								}

							}
, 							{
								"patchline" : 								{
									"source" : [ "obj-15", 1 ],
									"destination" : [ "obj-5", 0 ],
									"hidden" : 0,
									"color" : [ 0.101961, 0.121569, 0.172549, 1.0 ],
									"midpoints" : [  ]
								}

							}
, 							{
								"patchline" : 								{
									"source" : [ "obj-16", 0 ],
									"destination" : [ "obj-15", 0 ],
									"hidden" : 0,
									"color" : [ 0.756863, 0.329412, 0.843137, 1.0 ],
									"midpoints" : [  ]
								}

							}
, 							{
								"patchline" : 								{
									"source" : [ "obj-11", 0 ],
									"destination" : [ "obj-15", 1 ],
									"hidden" : 0,
									"color" : [ 0.101961, 0.121569, 0.172549, 1.0 ],
									"midpoints" : [  ]
								}

							}
, 							{
								"patchline" : 								{
									"source" : [ "obj-2", 0 ],
									"destination" : [ "obj-15", 0 ],
									"hidden" : 0,
									"color" : [ 0.756863, 0.329412, 0.843137, 1.0 ],
									"midpoints" : [  ]
								}

							}
, 							{
								"patchline" : 								{
									"source" : [ "obj-4", 0 ],
									"destination" : [ "obj-15", 0 ],
									"hidden" : 0,
									"color" : [ 0.756863, 0.329412, 0.843137, 1.0 ],
									"midpoints" : [  ]
								}

							}
, 							{
								"patchline" : 								{
									"source" : [ "obj-7", 0 ],
									"destination" : [ "obj-11", 0 ],
									"hidden" : 0,
									"color" : [ 0.101961, 0.121569, 0.172549, 1.0 ],
									"midpoints" : [  ]
								}

							}
, 							{
								"patchline" : 								{
									"source" : [ "obj-6", 0 ],
									"destination" : [ "obj-1", 0 ],
									"hidden" : 0,
									"color" : [ 0.101961, 0.121569, 0.172549, 1.0 ],
									"midpoints" : [  ]
								}

							}
 ]
					}
,
					"saved_object_attributes" : 					{
						"default_fontface" : 0,
						"fontname" : "Arial",
						"default_fontname" : "Arial",
						"globalpatchername" : "",
						"default_fontsize" : 9.0,
						"fontface" : 0,
						"fontsize" : 9.0
					}

				}

			}
, 			{
				"box" : 				{
					"maxclass" : "newobj",
					"text" : "t l l",
					"patching_rect" : [ 43.0, 97.25, 135.5, 17.0 ],
					"numinlets" : 1,
					"presentation" : 0,
					"id" : "obj-77",
					"fontname" : "Arial",
					"textcolor" : [ 0.101961, 0.121569, 0.172549, 1.0 ],
					"bgcolor" : [ 1.0, 1.0, 1.0, 1.0 ],
					"numoutlets" : 2,
					"background" : 0,
					"color" : [ 0.494118, 0.556863, 0.607843, 1.0 ],
					"outlettype" : [ "", "" ],
					"fontface" : 0,
					"fontsize" : 9.0,
					"ignoreclick" : 0,
					"presentation_rect" : [ 0.0, 0.0, 0.0, 0.0 ],
					"hidden" : 0
				}

			}
, 			{
				"box" : 				{
					"maxclass" : "newobj",
					"text" : "p all_fake",
					"patching_rect" : [ 159.75, 124.0, 49.0, 17.0 ],
					"numinlets" : 2,
					"presentation" : 0,
					"id" : "obj-56",
					"fontname" : "Arial",
					"textcolor" : [ 0.101961, 0.121569, 0.172549, 1.0 ],
					"bgcolor" : [ 1.0, 1.0, 1.0, 1.0 ],
					"numoutlets" : 1,
					"background" : 0,
					"color" : [ 0.494118, 0.556863, 0.607843, 1.0 ],
					"outlettype" : [ "" ],
					"fontface" : 0,
					"fontsize" : 9.0,
					"ignoreclick" : 0,
					"presentation_rect" : [ 0.0, 0.0, 0.0, 0.0 ],
					"hidden" : 0,
					"patcher" : 					{
						"fileversion" : 1,
						"appversion" : 						{
							"major" : 5,
							"minor" : 1,
							"revision" : 9
						}
,
						"rect" : [ 59.0, 65.0, 444.0, 456.0 ],
						"bgcolor" : [ 0.666667, 0.698039, 0.717647, 1.0 ],
						"bglocked" : 0,
						"defrect" : [ 59.0, 65.0, 444.0, 456.0 ],
						"openrect" : [ 0.0, 0.0, 0.0, 0.0 ],
						"openinpresentation" : 0,
						"default_fontsize" : 9.0,
						"default_fontface" : 0,
						"default_fontname" : "Arial",
						"gridonopen" : 0,
						"gridsize" : [ 15.0, 15.0 ],
						"gridsnaponopen" : 0,
						"toolbarvisible" : 0,
						"boxanimatetime" : 200,
						"imprint" : 1,
						"enablehscroll" : 1,
						"enablevscroll" : 1,
						"devicewidth" : 0.0,
						"boxes" : [ 							{
								"box" : 								{
									"maxclass" : "newobj",
									"text" : "bach.reg",
									"patching_rect" : [ 26.0, 385.666626, 191.0, 17.0 ],
									"numinlets" : 2,
									"presentation" : 0,
									"id" : "obj-56",
									"fontname" : "Arial",
									"textcolor" : [ 0.101961, 0.121569, 0.172549, 1.0 ],
									"bgcolor" : [ 1.0, 1.0, 1.0, 1.0 ],
									"numoutlets" : 1,
									"background" : 0,
									"color" : [ 0.494118, 0.556863, 0.607843, 1.0 ],
									"outlettype" : [ "" ],
									"fontface" : 0,
									"fontsize" : 9.0,
									"ignoreclick" : 0,
									"presentation_rect" : [ 0.0, 0.0, 0.0, 0.0 ],
									"hidden" : 0,
									"saved_object_attributes" : 									{
										"embed" : 0
									}

								}

							}
, 							{
								"box" : 								{
									"maxclass" : "newobj",
									"text" : "t b l 0",
									"patching_rect" : [ 26.0, 40.666687, 318.0, 17.0 ],
									"numinlets" : 1,
									"presentation" : 0,
									"id" : "obj-55",
									"fontname" : "Arial",
									"textcolor" : [ 0.101961, 0.121569, 0.172549, 1.0 ],
									"bgcolor" : [ 1.0, 1.0, 1.0, 1.0 ],
									"numoutlets" : 3,
									"background" : 0,
									"color" : [ 0.494118, 0.556863, 0.607843, 1.0 ],
									"outlettype" : [ "bang", "", "int" ],
									"fontface" : 0,
									"fontsize" : 9.0,
									"ignoreclick" : 0,
									"presentation_rect" : [ 0.0, 0.0, 0.0, 0.0 ],
									"hidden" : 0
								}

							}
, 							{
								"box" : 								{
									"maxclass" : "comment",
									"text" : "summation & test",
									"linecount" : 2,
									"frgb" : [ 0.101961, 0.121569, 0.172549, 1.0 ],
									"patching_rect" : [ 221.0, 270.0, 55.0, 27.0 ],
									"numinlets" : 1,
									"presentation" : 0,
									"id" : "obj-54",
									"fontname" : "Arial",
									"underline" : 0,
									"textcolor" : [ 0.101961, 0.121569, 0.172549, 1.0 ],
									"bgcolor" : [ 1.0, 1.0, 1.0, 0.0 ],
									"numoutlets" : 0,
									"background" : 0,
									"fontface" : 0,
									"fontsize" : 9.0,
									"ignoreclick" : 1,
									"presentation_rect" : [ 0.0, 0.0, 0.0, 0.0 ],
									"hidden" : 0
								}

							}
, 							{
								"box" : 								{
									"maxclass" : "newobj",
									"text" : "bach.reg",
									"patching_rect" : [ 318.0, 309.5, 53.0, 17.0 ],
									"numinlets" : 2,
									"presentation" : 0,
									"id" : "obj-47",
									"fontname" : "Arial",
									"textcolor" : [ 0.101961, 0.121569, 0.172549, 1.0 ],
									"bgcolor" : [ 1.0, 1.0, 1.0, 1.0 ],
									"numoutlets" : 1,
									"background" : 0,
									"color" : [ 0.494118, 0.556863, 0.607843, 1.0 ],
									"outlettype" : [ "" ],
									"fontface" : 0,
									"fontsize" : 9.0,
									"ignoreclick" : 0,
									"presentation_rect" : [ 0.0, 0.0, 0.0, 0.0 ],
									"hidden" : 0,
									"saved_object_attributes" : 									{
										"embed" : 0
									}

								}

							}
, 							{
								"box" : 								{
									"maxclass" : "inlet",
									"patching_rect" : [ 378.0, 12.0, 19.0, 19.0 ],
									"numinlets" : 0,
									"presentation" : 0,
									"id" : "obj-37",
									"numoutlets" : 1,
									"background" : 0,
									"outlettype" : [ "" ],
									"ignoreclick" : 0,
									"presentation_rect" : [ 0.0, 0.0, 0.0, 0.0 ],
									"hidden" : 0,
									"comment" : ""
								}

							}
, 							{
								"box" : 								{
									"maxclass" : "newobj",
									"text" : "t l b b",
									"patching_rect" : [ 198.0, 242.666626, 138.5, 17.0 ],
									"numinlets" : 1,
									"presentation" : 0,
									"id" : "obj-31",
									"fontname" : "Arial",
									"textcolor" : [ 0.101961, 0.121569, 0.172549, 1.0 ],
									"bgcolor" : [ 1.0, 1.0, 1.0, 1.0 ],
									"numoutlets" : 3,
									"background" : 0,
									"color" : [ 0.494118, 0.556863, 0.607843, 1.0 ],
									"outlettype" : [ "", "bang", "bang" ],
									"fontface" : 0,
									"fontsize" : 9.0,
									"ignoreclick" : 0,
									"presentation_rect" : [ 0.0, 0.0, 0.0, 0.0 ],
									"hidden" : 0
								}

							}
, 							{
								"box" : 								{
									"maxclass" : "newobj",
									"text" : "bach.expr ($i4>=($i1-$i2-1))+$i3",
									"patching_rect" : [ 198.0, 343.666626, 199.0, 17.0 ],
									"numinlets" : 4,
									"presentation" : 0,
									"id" : "obj-30",
									"fontname" : "Arial",
									"textcolor" : [ 0.101961, 0.121569, 0.172549, 1.0 ],
									"bgcolor" : [ 1.0, 1.0, 1.0, 1.0 ],
									"numoutlets" : 1,
									"background" : 0,
									"color" : [ 0.494118, 0.556863, 0.607843, 1.0 ],
									"outlettype" : [ "" ],
									"fontface" : 0,
									"fontsize" : 9.0,
									"ignoreclick" : 0,
									"presentation_rect" : [ 0.0, 0.0, 0.0, 0.0 ],
									"hidden" : 0
								}

							}
, 							{
								"box" : 								{
									"maxclass" : "newobj",
									"text" : "int",
									"patching_rect" : [ 257.75, 309.5, 43.5, 17.0 ],
									"numinlets" : 2,
									"presentation" : 0,
									"id" : "obj-26",
									"fontname" : "Arial",
									"textcolor" : [ 0.101961, 0.121569, 0.172549, 1.0 ],
									"bgcolor" : [ 1.0, 1.0, 1.0, 1.0 ],
									"numoutlets" : 1,
									"background" : 0,
									"color" : [ 0.494118, 0.556863, 0.607843, 1.0 ],
									"outlettype" : [ "int" ],
									"fontface" : 0,
									"fontsize" : 9.0,
									"ignoreclick" : 0,
									"presentation_rect" : [ 0.0, 0.0, 0.0, 0.0 ],
									"hidden" : 0
								}

							}
, 							{
								"box" : 								{
									"maxclass" : "newobj",
									"text" : "+ 1",
									"patching_rect" : [ 281.75, 279.666626, 32.5, 17.0 ],
									"numinlets" : 2,
									"presentation" : 0,
									"id" : "obj-24",
									"fontname" : "Arial",
									"textcolor" : [ 0.101961, 0.121569, 0.172549, 1.0 ],
									"bgcolor" : [ 1.0, 1.0, 1.0, 1.0 ],
									"numoutlets" : 1,
									"background" : 0,
									"color" : [ 0.494118, 0.556863, 0.607843, 1.0 ],
									"outlettype" : [ "int" ],
									"fontface" : 0,
									"fontsize" : 9.0,
									"ignoreclick" : 0,
									"presentation_rect" : [ 0.0, 0.0, 0.0, 0.0 ],
									"hidden" : 0
								}

							}
, 							{
								"box" : 								{
									"maxclass" : "outlet",
									"patching_rect" : [ 26.0, 417.333313, 19.0, 19.0 ],
									"numinlets" : 1,
									"presentation" : 0,
									"id" : "obj-13",
									"numoutlets" : 0,
									"background" : 0,
									"ignoreclick" : 0,
									"presentation_rect" : [ 0.0, 0.0, 0.0, 0.0 ],
									"hidden" : 0,
									"comment" : ""
								}

							}
, 							{
								"box" : 								{
									"maxclass" : "newobj",
									"text" : "bach.slice 1",
									"patching_rect" : [ 159.0, 216.666656, 58.0, 17.0 ],
									"numinlets" : 1,
									"presentation" : 0,
									"id" : "obj-1",
									"fontname" : "Arial",
									"textcolor" : [ 0.101961, 0.121569, 0.172549, 1.0 ],
									"bgcolor" : [ 1.0, 1.0, 1.0, 1.0 ],
									"numoutlets" : 2,
									"background" : 0,
									"color" : [ 0.494118, 0.556863, 0.607843, 1.0 ],
									"outlettype" : [ "", "" ],
									"fontface" : 0,
									"fontsize" : 9.0,
									"ignoreclick" : 0,
									"presentation_rect" : [ 0.0, 0.0, 0.0, 0.0 ],
									"hidden" : 0
								}

							}
, 							{
								"box" : 								{
									"maxclass" : "newobj",
									"text" : "bach.reg",
									"patching_rect" : [ 159.0, 192.0, 130.0, 17.0 ],
									"numinlets" : 2,
									"presentation" : 0,
									"id" : "obj-5",
									"fontname" : "Arial",
									"textcolor" : [ 0.101961, 0.121569, 0.172549, 1.0 ],
									"bgcolor" : [ 1.0, 1.0, 1.0, 1.0 ],
									"numoutlets" : 1,
									"background" : 0,
									"color" : [ 0.494118, 0.556863, 0.607843, 1.0 ],
									"outlettype" : [ "" ],
									"fontface" : 0,
									"fontsize" : 9.0,
									"ignoreclick" : 0,
									"presentation_rect" : [ 0.0, 0.0, 0.0, 0.0 ],
									"hidden" : 0,
									"saved_object_attributes" : 									{
										"embed" : 0
									}

								}

							}
, 							{
								"box" : 								{
									"maxclass" : "newobj",
									"text" : "gate",
									"patching_rect" : [ 159.0, 166.666656, 36.0, 17.0 ],
									"numinlets" : 2,
									"presentation" : 0,
									"id" : "obj-88",
									"fontname" : "Arial",
									"textcolor" : [ 0.101961, 0.121569, 0.172549, 1.0 ],
									"bgcolor" : [ 1.0, 1.0, 1.0, 1.0 ],
									"numoutlets" : 1,
									"background" : 0,
									"color" : [ 0.494118, 0.556863, 0.607843, 1.0 ],
									"outlettype" : [ "" ],
									"fontface" : 0,
									"fontsize" : 9.0,
									"ignoreclick" : 0,
									"presentation_rect" : [ 0.0, 0.0, 0.0, 0.0 ],
									"hidden" : 0
								}

							}
, 							{
								"box" : 								{
									"maxclass" : "newobj",
									"text" : "> 1",
									"patching_rect" : [ 214.0, 141.666656, 32.5, 17.0 ],
									"numinlets" : 2,
									"presentation" : 0,
									"id" : "obj-48",
									"fontname" : "Arial",
									"textcolor" : [ 0.101961, 0.121569, 0.172549, 1.0 ],
									"bgcolor" : [ 1.0, 1.0, 1.0, 1.0 ],
									"numoutlets" : 1,
									"background" : 0,
									"color" : [ 0.494118, 0.556863, 0.607843, 1.0 ],
									"outlettype" : [ "int" ],
									"fontface" : 0,
									"fontsize" : 9.0,
									"ignoreclick" : 0,
									"presentation_rect" : [ 0.0, 0.0, 0.0, 0.0 ],
									"hidden" : 0
								}

							}
, 							{
								"box" : 								{
									"maxclass" : "newobj",
									"text" : "t b l",
									"patching_rect" : [ 176.0, 93.666656, 57.0, 17.0 ],
									"numinlets" : 1,
									"presentation" : 0,
									"id" : "obj-46",
									"fontname" : "Arial",
									"textcolor" : [ 0.101961, 0.121569, 0.172549, 1.0 ],
									"bgcolor" : [ 1.0, 1.0, 1.0, 1.0 ],
									"numoutlets" : 2,
									"background" : 0,
									"color" : [ 0.494118, 0.556863, 0.607843, 1.0 ],
									"outlettype" : [ "bang", "" ],
									"fontface" : 0,
									"fontsize" : 9.0,
									"ignoreclick" : 0,
									"presentation_rect" : [ 0.0, 0.0, 0.0, 0.0 ],
									"hidden" : 0
								}

							}
, 							{
								"box" : 								{
									"maxclass" : "newobj",
									"text" : "bach.depth",
									"patching_rect" : [ 214.0, 117.666656, 55.0, 17.0 ],
									"numinlets" : 1,
									"presentation" : 0,
									"id" : "obj-44",
									"fontname" : "Arial",
									"textcolor" : [ 0.101961, 0.121569, 0.172549, 1.0 ],
									"bgcolor" : [ 1.0, 1.0, 1.0, 1.0 ],
									"numoutlets" : 1,
									"background" : 0,
									"color" : [ 0.494118, 0.556863, 0.607843, 1.0 ],
									"outlettype" : [ "int" ],
									"fontface" : 0,
									"fontsize" : 9.0,
									"ignoreclick" : 0,
									"presentation_rect" : [ 0.0, 0.0, 0.0, 0.0 ],
									"hidden" : 0
								}

							}
, 							{
								"box" : 								{
									"maxclass" : "newobj",
									"text" : "bach.iter @maxdepth 2",
									"patching_rect" : [ 176.0, 69.666656, 207.0, 17.0 ],
									"numinlets" : 2,
									"presentation" : 0,
									"id" : "obj-25",
									"fontname" : "Arial",
									"textcolor" : [ 0.101961, 0.121569, 0.172549, 1.0 ],
									"bgcolor" : [ 1.0, 1.0, 1.0, 1.0 ],
									"numoutlets" : 3,
									"background" : 0,
									"color" : [ 0.494118, 0.556863, 0.607843, 1.0 ],
									"outlettype" : [ "", "", "int" ],
									"fontface" : 0,
									"fontsize" : 9.0,
									"ignoreclick" : 0,
									"presentation_rect" : [ 0.0, 0.0, 0.0, 0.0 ],
									"hidden" : 0
								}

							}
, 							{
								"box" : 								{
									"maxclass" : "inlet",
									"patching_rect" : [ 26.0, 15.0, 19.0, 19.0 ],
									"numinlets" : 0,
									"presentation" : 0,
									"id" : "obj-50",
									"numoutlets" : 1,
									"background" : 0,
									"outlettype" : [ "" ],
									"ignoreclick" : 0,
									"presentation_rect" : [ 0.0, 0.0, 0.0, 0.0 ],
									"hidden" : 0,
									"comment" : ""
								}

							}
 ],
						"lines" : [ 							{
								"patchline" : 								{
									"source" : [ "obj-25", 1 ],
									"destination" : [ "obj-5", 1 ],
									"hidden" : 0,
									"color" : [ 0.101961, 0.121569, 0.172549, 1.0 ],
									"midpoints" : [  ]
								}

							}
, 							{
								"patchline" : 								{
									"source" : [ "obj-48", 0 ],
									"destination" : [ "obj-88", 0 ],
									"hidden" : 0,
									"color" : [ 0.101961, 0.121569, 0.172549, 1.0 ],
									"midpoints" : [  ]
								}

							}
, 							{
								"patchline" : 								{
									"source" : [ "obj-44", 0 ],
									"destination" : [ "obj-48", 0 ],
									"hidden" : 0,
									"color" : [ 0.101961, 0.121569, 0.172549, 1.0 ],
									"midpoints" : [  ]
								}

							}
, 							{
								"patchline" : 								{
									"source" : [ "obj-25", 0 ],
									"destination" : [ "obj-46", 0 ],
									"hidden" : 0,
									"color" : [ 0.101961, 0.121569, 0.172549, 1.0 ],
									"midpoints" : [  ]
								}

							}
, 							{
								"patchline" : 								{
									"source" : [ "obj-46", 1 ],
									"destination" : [ "obj-44", 0 ],
									"hidden" : 0,
									"color" : [ 0.101961, 0.121569, 0.172549, 1.0 ],
									"midpoints" : [  ]
								}

							}
, 							{
								"patchline" : 								{
									"source" : [ "obj-46", 0 ],
									"destination" : [ "obj-88", 1 ],
									"hidden" : 0,
									"color" : [ 0.101961, 0.121569, 0.172549, 1.0 ],
									"midpoints" : [  ]
								}

							}
, 							{
								"patchline" : 								{
									"source" : [ "obj-88", 0 ],
									"destination" : [ "obj-5", 0 ],
									"hidden" : 0,
									"color" : [ 0.101961, 0.121569, 0.172549, 1.0 ],
									"midpoints" : [  ]
								}

							}
, 							{
								"patchline" : 								{
									"source" : [ "obj-5", 0 ],
									"destination" : [ "obj-1", 0 ],
									"hidden" : 0,
									"color" : [ 0.101961, 0.121569, 0.172549, 1.0 ],
									"midpoints" : [  ]
								}

							}
, 							{
								"patchline" : 								{
									"source" : [ "obj-24", 0 ],
									"destination" : [ "obj-26", 1 ],
									"hidden" : 0,
									"color" : [ 0.101961, 0.121569, 0.172549, 1.0 ],
									"midpoints" : [  ]
								}

							}
, 							{
								"patchline" : 								{
									"source" : [ "obj-26", 0 ],
									"destination" : [ "obj-24", 0 ],
									"hidden" : 0,
									"color" : [ 0.101961, 0.121569, 0.172549, 1.0 ],
									"midpoints" : [ 267.25, 335.5, 316.75, 335.5, 316.75, 273.5, 291.25, 273.5 ]
								}

							}
, 							{
								"patchline" : 								{
									"source" : [ "obj-50", 0 ],
									"destination" : [ "obj-55", 0 ],
									"hidden" : 0,
									"color" : [ 0.101961, 0.121569, 0.172549, 1.0 ],
									"midpoints" : [  ]
								}

							}
, 							{
								"patchline" : 								{
									"source" : [ "obj-55", 2 ],
									"destination" : [ "obj-47", 1 ],
									"hidden" : 0,
									"color" : [ 0.047059, 0.913725, 0.913725, 1.0 ],
									"midpoints" : [  ]
								}

							}
, 							{
								"patchline" : 								{
									"source" : [ "obj-55", 2 ],
									"destination" : [ "obj-26", 1 ],
									"hidden" : 0,
									"color" : [ 0.047059, 0.913725, 0.913725, 1.0 ],
									"midpoints" : [  ]
								}

							}
, 							{
								"patchline" : 								{
									"source" : [ "obj-55", 1 ],
									"destination" : [ "obj-25", 0 ],
									"hidden" : 0,
									"color" : [ 0.101961, 0.121569, 0.172549, 1.0 ],
									"midpoints" : [  ]
								}

							}
, 							{
								"patchline" : 								{
									"source" : [ "obj-55", 0 ],
									"destination" : [ "obj-56", 0 ],
									"hidden" : 0,
									"color" : [ 0.101961, 0.121569, 0.172549, 1.0 ],
									"midpoints" : [  ]
								}

							}
, 							{
								"patchline" : 								{
									"source" : [ "obj-56", 0 ],
									"destination" : [ "obj-13", 0 ],
									"hidden" : 0,
									"color" : [ 0.101961, 0.121569, 0.172549, 1.0 ],
									"midpoints" : [  ]
								}

							}
, 							{
								"patchline" : 								{
									"source" : [ "obj-26", 0 ],
									"destination" : [ "obj-30", 1 ],
									"hidden" : 0,
									"color" : [ 0.101961, 0.121569, 0.172549, 1.0 ],
									"midpoints" : [  ]
								}

							}
, 							{
								"patchline" : 								{
									"source" : [ "obj-37", 0 ],
									"destination" : [ "obj-30", 3 ],
									"hidden" : 0,
									"color" : [ 0.317647, 0.709804, 0.321569, 1.0 ],
									"midpoints" : [  ]
								}

							}
, 							{
								"patchline" : 								{
									"source" : [ "obj-47", 0 ],
									"destination" : [ "obj-30", 2 ],
									"hidden" : 0,
									"color" : [ 0.101961, 0.121569, 0.172549, 1.0 ],
									"midpoints" : [  ]
								}

							}
, 							{
								"patchline" : 								{
									"source" : [ "obj-30", 0 ],
									"destination" : [ "obj-47", 1 ],
									"hidden" : 0,
									"color" : [ 0.827451, 0.364706, 0.541176, 1.0 ],
									"midpoints" : [ 207.5, 370.0, 375.0, 370.0, 375.0, 303.0, 361.5, 303.0 ]
								}

							}
, 							{
								"patchline" : 								{
									"source" : [ "obj-30", 0 ],
									"destination" : [ "obj-56", 1 ],
									"hidden" : 0,
									"color" : [ 0.827451, 0.364706, 0.541176, 1.0 ],
									"midpoints" : [  ]
								}

							}
, 							{
								"patchline" : 								{
									"source" : [ "obj-31", 0 ],
									"destination" : [ "obj-30", 0 ],
									"hidden" : 0,
									"color" : [ 0.101961, 0.121569, 0.172549, 1.0 ],
									"midpoints" : [  ]
								}

							}
, 							{
								"patchline" : 								{
									"source" : [ "obj-31", 1 ],
									"destination" : [ "obj-26", 0 ],
									"hidden" : 0,
									"color" : [ 0.101961, 0.121569, 0.172549, 1.0 ],
									"midpoints" : [  ]
								}

							}
, 							{
								"patchline" : 								{
									"source" : [ "obj-1", 1 ],
									"destination" : [ "obj-31", 0 ],
									"hidden" : 0,
									"color" : [ 0.101961, 0.121569, 0.172549, 1.0 ],
									"midpoints" : [  ]
								}

							}
, 							{
								"patchline" : 								{
									"source" : [ "obj-31", 2 ],
									"destination" : [ "obj-47", 0 ],
									"hidden" : 0,
									"color" : [ 0.101961, 0.121569, 0.172549, 1.0 ],
									"midpoints" : [  ]
								}

							}
 ]
					}
,
					"saved_object_attributes" : 					{
						"default_fontface" : 0,
						"fontname" : "Arial",
						"default_fontname" : "Arial",
						"globalpatchername" : "",
						"default_fontsize" : 9.0,
						"fontface" : 0,
						"fontsize" : 9.0
					}

				}

			}
, 			{
				"box" : 				{
					"maxclass" : "outlet",
					"patching_rect" : [ 43.0, 292.5, 17.0, 17.0 ],
					"numinlets" : 1,
					"presentation" : 0,
					"id" : "obj-18",
					"numoutlets" : 0,
					"background" : 0,
					"ignoreclick" : 0,
					"presentation_rect" : [ 0.0, 0.0, 0.0, 0.0 ],
					"hidden" : 0,
					"comment" : ""
				}

			}
, 			{
				"box" : 				{
					"maxclass" : "inlet",
					"patching_rect" : [ 190.0, 69.5, 17.0, 17.0 ],
					"numinlets" : 0,
					"presentation" : 0,
					"id" : "obj-3",
					"numoutlets" : 1,
					"background" : 0,
					"outlettype" : [ "" ],
					"ignoreclick" : 0,
					"presentation_rect" : [ 0.0, 0.0, 0.0, 0.0 ],
					"hidden" : 0,
					"comment" : ""
				}

			}
, 			{
				"box" : 				{
					"maxclass" : "inlet",
					"patching_rect" : [ 43.0, 69.5, 17.0, 17.0 ],
					"numinlets" : 0,
					"presentation" : 0,
					"id" : "obj-51",
					"numoutlets" : 1,
					"background" : 0,
					"outlettype" : [ "" ],
					"ignoreclick" : 0,
					"presentation_rect" : [ 0.0, 0.0, 0.0, 0.0 ],
					"hidden" : 0,
					"comment" : ""
				}

			}
, 			{
				"box" : 				{
					"maxclass" : "message",
					"text" : "index $1",
					"gradient" : 0,
					"patching_rect" : [ 160.0, 181.833313, 45.0, 15.0 ],
					"numinlets" : 2,
					"presentation" : 0,
					"id" : "obj-19",
					"fontname" : "Arial",
					"textcolor" : [ 0.101961, 0.121569, 0.172549, 1.0 ],
					"bgcolor" : [ 0.568627, 0.619608, 0.662745, 1.0 ],
					"numoutlets" : 1,
					"background" : 0,
					"bgcolor2" : [ 0.568627, 0.619608, 0.662745, 1.0 ],
					"outlettype" : [ "" ],
					"fontface" : 0,
					"fontsize" : 9.0,
					"ignoreclick" : 0,
					"presentation_rect" : [ 0.0, 0.0, 0.0, 0.0 ],
					"hidden" : 0
				}

			}
 ],
		"lines" : [ 			{
				"patchline" : 				{
					"source" : [ "obj-2", 2 ],
					"destination" : [ "obj-19", 0 ],
					"hidden" : 0,
					"color" : [ 0.047059, 0.913725, 0.913725, 1.0 ],
					"midpoints" : [  ]
				}

			}
, 			{
				"patchline" : 				{
					"source" : [ "obj-6", 1 ],
					"destination" : [ "obj-2", 0 ],
					"hidden" : 0,
					"color" : [ 0.101961, 0.121569, 0.172549, 1.0 ],
					"midpoints" : [  ]
				}

			}
, 			{
				"patchline" : 				{
					"source" : [ "obj-84", 0 ],
					"destination" : [ "obj-17", 0 ],
					"hidden" : 0,
					"color" : [ 0.101961, 0.121569, 0.172549, 1.0 ],
					"midpoints" : [  ]
				}

			}
, 			{
				"patchline" : 				{
					"source" : [ "obj-77", 0 ],
					"destination" : [ "obj-84", 0 ],
					"hidden" : 0,
					"color" : [ 0.101961, 0.121569, 0.172549, 1.0 ],
					"midpoints" : [  ]
				}

			}
, 			{
				"patchline" : 				{
					"source" : [ "obj-19", 0 ],
					"destination" : [ "obj-17", 0 ],
					"hidden" : 0,
					"color" : [ 0.101961, 0.121569, 0.172549, 1.0 ],
					"midpoints" : [ 169.5, 211.333313, 52.5, 211.333313 ]
				}

			}
, 			{
				"patchline" : 				{
					"source" : [ "obj-77", 1 ],
					"destination" : [ "obj-56", 0 ],
					"hidden" : 0,
					"color" : [ 0.101961, 0.121569, 0.172549, 1.0 ],
					"midpoints" : [  ]
				}

			}
, 			{
				"patchline" : 				{
					"source" : [ "obj-5", 0 ],
					"destination" : [ "obj-18", 0 ],
					"hidden" : 0,
					"color" : [ 0.101961, 0.121569, 0.172549, 1.0 ],
					"midpoints" : [  ]
				}

			}
, 			{
				"patchline" : 				{
					"source" : [ "obj-51", 0 ],
					"destination" : [ "obj-77", 0 ],
					"hidden" : 0,
					"color" : [ 0.101961, 0.121569, 0.172549, 1.0 ],
					"midpoints" : [  ]
				}

			}
, 			{
				"patchline" : 				{
					"source" : [ "obj-73", 0 ],
					"destination" : [ "obj-19", 0 ],
					"hidden" : 0,
					"color" : [ 0.101961, 0.121569, 0.172549, 1.0 ],
					"midpoints" : [  ]
				}

			}
, 			{
				"patchline" : 				{
					"source" : [ "obj-56", 0 ],
					"destination" : [ "obj-73", 0 ],
					"hidden" : 0,
					"color" : [ 0.101961, 0.121569, 0.172549, 1.0 ],
					"midpoints" : [  ]
				}

			}
, 			{
				"patchline" : 				{
					"source" : [ "obj-17", 0 ],
					"destination" : [ "obj-1", 0 ],
					"hidden" : 0,
					"color" : [ 0.101961, 0.121569, 0.172549, 1.0 ],
					"midpoints" : [  ]
				}

			}
, 			{
				"patchline" : 				{
					"source" : [ "obj-1", 0 ],
					"destination" : [ "obj-5", 0 ],
					"hidden" : 0,
					"color" : [ 0.101961, 0.121569, 0.172549, 1.0 ],
					"midpoints" : [  ]
				}

			}
, 			{
				"patchline" : 				{
					"source" : [ "obj-5", 1 ],
					"destination" : [ "obj-29", 0 ],
					"hidden" : 0,
					"color" : [ 0.101961, 0.121569, 0.172549, 1.0 ],
					"midpoints" : [  ]
				}

			}
, 			{
				"patchline" : 				{
					"source" : [ "obj-7", 0 ],
					"destination" : [ "obj-5", 1 ],
					"hidden" : 0,
					"color" : [ 0.101961, 0.121569, 0.172549, 1.0 ],
					"midpoints" : [  ]
				}

			}
, 			{
				"patchline" : 				{
					"source" : [ "obj-17", 1 ],
					"destination" : [ "obj-7", 0 ],
					"hidden" : 0,
					"color" : [ 0.101961, 0.121569, 0.172549, 1.0 ],
					"midpoints" : [  ]
				}

			}
, 			{
				"patchline" : 				{
					"source" : [ "obj-3", 0 ],
					"destination" : [ "obj-56", 1 ],
					"hidden" : 0,
					"color" : [ 0.101961, 0.121569, 0.172549, 1.0 ],
					"midpoints" : [  ]
				}

			}
, 			{
				"patchline" : 				{
					"source" : [ "obj-3", 0 ],
					"destination" : [ "obj-73", 1 ],
					"hidden" : 0,
					"color" : [ 0.101961, 0.121569, 0.172549, 1.0 ],
					"midpoints" : [  ]
				}

			}
, 			{
				"patchline" : 				{
					"source" : [ "obj-2", 0 ],
					"destination" : [ "obj-5", 0 ],
					"hidden" : 0,
					"color" : [ 0.047059, 0.913725, 0.913725, 1.0 ],
					"midpoints" : [  ]
				}

			}
, 			{
				"patchline" : 				{
					"source" : [ "obj-2", 1 ],
					"destination" : [ "obj-56", 1 ],
					"hidden" : 0,
					"color" : [ 0.047059, 0.913725, 0.913725, 1.0 ],
					"midpoints" : [  ]
				}

			}
, 			{
				"patchline" : 				{
					"source" : [ "obj-2", 1 ],
					"destination" : [ "obj-73", 1 ],
					"hidden" : 0,
					"color" : [ 0.047059, 0.913725, 0.913725, 1.0 ],
					"midpoints" : [  ]
				}

			}
 ]
	}

}
