{
	"patcher" : 	{
		"fileversion" : 1,
		"appversion" : 		{
			"major" : 5,
			"minor" : 1,
			"revision" : 9
		}
,
		"rect" : [ 590.0, 302.0, 523.0, 402.0 ],
		"bgcolor" : [ 0.666667, 0.698039, 0.717647, 1.0 ],
		"bglocked" : 0,
		"defrect" : [ 590.0, 302.0, 523.0, 402.0 ],
		"openrect" : [ 0.0, 0.0, 0.0, 0.0 ],
		"openinpresentation" : 0,
		"default_fontsize" : 9.0,
		"default_fontface" : 0,
		"default_fontname" : "Arial",
		"gridonopen" : 0,
		"gridsize" : [ 15.0, 15.0 ],
		"gridsnaponopen" : 0,
		"statusbarvisible" : 0,
		"toolbarvisible" : 0,
		"boxanimatetime" : 0,
		"imprint" : 1,
		"enablehscroll" : 1,
		"enablevscroll" : 1,
		"devicewidth" : 0.0,
		"boxes" : [ 			{
				"box" : 				{
					"maxclass" : "newobj",
					"text" : "loadmess 1 6 2 3 1",
					"patching_rect" : [ 169.0, 14.0, 87.0, 17.0 ],
					"numinlets" : 1,
					"presentation" : 0,
					"id" : "obj-1",
					"fontname" : "Arial",
					"textcolor" : [ 0.101961, 0.121569, 0.172549, 1.0 ],
					"bgcolor" : [ 1.0, 1.0, 1.0, 1.0 ],
					"numoutlets" : 1,
					"background" : 0,
					"color" : [ 0.494118, 0.556863, 0.607843, 1.0 ],
					"outlettype" : [ "" ],
					"fontface" : 0,
					"fontsize" : 9.0,
					"ignoreclick" : 0,
					"presentation_rect" : [ 0.0, 0.0, 0.0, 0.0 ],
					"hidden" : 0
				}

			}
, 			{
				"box" : 				{
					"maxclass" : "newobj",
					"text" : "t b f",
					"patching_rect" : [ 258.0, 106.333328, 32.5, 17.0 ],
					"numinlets" : 1,
					"presentation" : 0,
					"id" : "obj-15",
					"fontname" : "Arial",
					"textcolor" : [ 0.101961, 0.121569, 0.172549, 1.0 ],
					"bgcolor" : [ 1.0, 1.0, 1.0, 1.0 ],
					"numoutlets" : 2,
					"background" : 0,
					"color" : [ 0.494118, 0.556863, 0.607843, 1.0 ],
					"outlettype" : [ "bang", "float" ],
					"fontface" : 0,
					"fontsize" : 9.0,
					"ignoreclick" : 0,
					"presentation_rect" : [ 0.0, 0.0, 0.0, 0.0 ],
					"hidden" : 0
				}

			}
, 			{
				"box" : 				{
					"maxclass" : "newobj",
					"text" : "t b f",
					"patching_rect" : [ 391.0, 213.333328, 32.5, 17.0 ],
					"numinlets" : 1,
					"presentation" : 0,
					"id" : "obj-13",
					"fontname" : "Arial",
					"textcolor" : [ 0.101961, 0.121569, 0.172549, 1.0 ],
					"bgcolor" : [ 1.0, 1.0, 1.0, 1.0 ],
					"numoutlets" : 2,
					"background" : 0,
					"color" : [ 0.494118, 0.556863, 0.607843, 1.0 ],
					"outlettype" : [ "bang", "float" ],
					"fontface" : 0,
					"fontsize" : 9.0,
					"ignoreclick" : 0,
					"presentation_rect" : [ 0.0, 0.0, 0.0, 0.0 ],
					"hidden" : 0
				}

			}
, 			{
				"box" : 				{
					"maxclass" : "newobj",
					"text" : "+ 1",
					"patching_rect" : [ 65.0, 261.333313, 32.0, 17.0 ],
					"numinlets" : 2,
					"presentation" : 0,
					"id" : "obj-9",
					"fontname" : "Arial",
					"textcolor" : [ 0.101961, 0.121569, 0.172549, 1.0 ],
					"bgcolor" : [ 1.0, 1.0, 1.0, 1.0 ],
					"numoutlets" : 1,
					"background" : 0,
					"color" : [ 0.494118, 0.556863, 0.607843, 1.0 ],
					"outlettype" : [ "int" ],
					"fontface" : 0,
					"fontsize" : 9.0,
					"ignoreclick" : 0,
					"presentation_rect" : [ 0.0, 0.0, 0.0, 0.0 ],
					"hidden" : 0
				}

			}
, 			{
				"box" : 				{
					"maxclass" : "newobj",
					"text" : "* 1",
					"patching_rect" : [ 65.0, 237.333313, 359.0, 17.0 ],
					"numinlets" : 2,
					"presentation" : 0,
					"id" : "obj-14",
					"fontname" : "Arial",
					"textcolor" : [ 0.101961, 0.121569, 0.172549, 1.0 ],
					"bgcolor" : [ 1.0, 1.0, 1.0, 1.0 ],
					"numoutlets" : 1,
					"background" : 0,
					"color" : [ 0.494118, 0.556863, 0.607843, 1.0 ],
					"outlettype" : [ "int" ],
					"fontface" : 0,
					"fontsize" : 9.0,
					"ignoreclick" : 0,
					"presentation_rect" : [ 0.0, 0.0, 0.0, 0.0 ],
					"hidden" : 0
				}

			}
, 			{
				"box" : 				{
					"maxclass" : "inlet",
					"patching_rect" : [ 479.666656, 47.0, 18.0, 18.0 ],
					"numinlets" : 0,
					"presentation" : 0,
					"id" : "obj-6",
					"numoutlets" : 1,
					"background" : 0,
					"outlettype" : [ "" ],
					"ignoreclick" : 0,
					"presentation_rect" : [ 0.0, 0.0, 0.0, 0.0 ],
					"hidden" : 0,
					"comment" : ""
				}

			}
, 			{
				"box" : 				{
					"maxclass" : "newobj",
					"text" : "pak 0 0",
					"patching_rect" : [ 258.0, 158.0, 87.5, 17.0 ],
					"numinlets" : 2,
					"presentation" : 0,
					"id" : "obj-5",
					"fontname" : "Arial",
					"textcolor" : [ 0.101961, 0.121569, 0.172549, 1.0 ],
					"bgcolor" : [ 1.0, 1.0, 1.0, 1.0 ],
					"numoutlets" : 1,
					"background" : 0,
					"color" : [ 0.494118, 0.556863, 0.607843, 1.0 ],
					"outlettype" : [ "" ],
					"fontface" : 0,
					"fontsize" : 9.0,
					"ignoreclick" : 0,
					"presentation_rect" : [ 0.0, 0.0, 0.0, 0.0 ],
					"hidden" : 0
				}

			}
, 			{
				"box" : 				{
					"maxclass" : "inlet",
					"patching_rect" : [ 326.666656, 47.0, 18.0, 18.0 ],
					"numinlets" : 0,
					"presentation" : 0,
					"id" : "obj-4",
					"numoutlets" : 1,
					"background" : 0,
					"outlettype" : [ "" ],
					"ignoreclick" : 0,
					"presentation_rect" : [ 0.0, 0.0, 0.0, 0.0 ],
					"hidden" : 0,
					"comment" : ""
				}

			}
, 			{
				"box" : 				{
					"maxclass" : "inlet",
					"patching_rect" : [ 272.666656, 47.0, 18.0, 18.0 ],
					"numinlets" : 0,
					"presentation" : 0,
					"id" : "obj-3",
					"numoutlets" : 1,
					"background" : 0,
					"outlettype" : [ "" ],
					"ignoreclick" : 0,
					"presentation_rect" : [ 0.0, 0.0, 0.0, 0.0 ],
					"hidden" : 0,
					"comment" : ""
				}

			}
, 			{
				"box" : 				{
					"maxclass" : "inlet",
					"patching_rect" : [ 209.666672, 47.0, 18.0, 18.0 ],
					"numinlets" : 0,
					"presentation" : 0,
					"id" : "obj-2",
					"numoutlets" : 1,
					"background" : 0,
					"outlettype" : [ "" ],
					"ignoreclick" : 0,
					"presentation_rect" : [ 0.0, 0.0, 0.0, 0.0 ],
					"hidden" : 0,
					"comment" : ""
				}

			}
, 			{
				"box" : 				{
					"maxclass" : "newobj",
					"text" : "bach.portal @out p",
					"patching_rect" : [ 35.0, 333.333344, 87.0, 17.0 ],
					"numinlets" : 1,
					"presentation" : 0,
					"id" : "obj-11",
					"fontname" : "Arial",
					"textcolor" : [ 0.101961, 0.121569, 0.172549, 1.0 ],
					"bgcolor" : [ 1.0, 1.0, 1.0, 1.0 ],
					"numoutlets" : 2,
					"background" : 0,
					"color" : [ 0.494118, 0.556863, 0.607843, 1.0 ],
					"outlettype" : [ "", "" ],
					"fontface" : 0,
					"fontsize" : 9.0,
					"ignoreclick" : 0,
					"presentation_rect" : [ 0.0, 0.0, 0.0, 0.0 ],
					"hidden" : 0
				}

			}
, 			{
				"box" : 				{
					"maxclass" : "newobj",
					"text" : "unpack #1 #2 #3 #4 #5",
					"patching_rect" : [ 146.0, 75.0, 242.0, 17.0 ],
					"numinlets" : 1,
					"presentation" : 0,
					"id" : "obj-45",
					"fontname" : "Arial",
					"textcolor" : [ 0.101961, 0.121569, 0.172549, 1.0 ],
					"bgcolor" : [ 1.0, 1.0, 1.0, 1.0 ],
					"numoutlets" : 5,
					"background" : 0,
					"color" : [ 0.494118, 0.556863, 0.607843, 1.0 ],
					"outlettype" : [ "", "", "", "", "" ],
					"fontface" : 0,
					"fontsize" : 9.0,
					"ignoreclick" : 0,
					"presentation_rect" : [ 0.0, 0.0, 0.0, 0.0 ],
					"hidden" : 0
				}

			}
, 			{
				"box" : 				{
					"maxclass" : "inlet",
					"patching_rect" : [ 146.0, 47.0, 18.0, 18.0 ],
					"numinlets" : 0,
					"presentation" : 0,
					"id" : "obj-69",
					"numoutlets" : 1,
					"background" : 0,
					"outlettype" : [ "" ],
					"ignoreclick" : 0,
					"presentation_rect" : [ 0.0, 0.0, 0.0, 0.0 ],
					"hidden" : 0,
					"comment" : ""
				}

			}
, 			{
				"box" : 				{
					"maxclass" : "newobj",
					"text" : "*",
					"patching_rect" : [ 202.0, 130.0, 88.5, 17.0 ],
					"numinlets" : 2,
					"presentation" : 0,
					"id" : "obj-85",
					"fontname" : "Arial",
					"textcolor" : [ 0.101961, 0.121569, 0.172549, 1.0 ],
					"bgcolor" : [ 1.0, 1.0, 1.0, 1.0 ],
					"numoutlets" : 1,
					"background" : 0,
					"color" : [ 0.494118, 0.556863, 0.607843, 1.0 ],
					"outlettype" : [ "int" ],
					"fontface" : 0,
					"fontsize" : 9.0,
					"ignoreclick" : 0,
					"presentation_rect" : [ 0.0, 0.0, 0.0, 0.0 ],
					"hidden" : 0
				}

			}
, 			{
				"box" : 				{
					"maxclass" : "newobj",
					"text" : "*",
					"patching_rect" : [ 146.0, 130.0, 32.5, 17.0 ],
					"numinlets" : 2,
					"presentation" : 0,
					"id" : "obj-84",
					"fontname" : "Arial",
					"textcolor" : [ 0.101961, 0.121569, 0.172549, 1.0 ],
					"bgcolor" : [ 1.0, 1.0, 1.0, 1.0 ],
					"numoutlets" : 1,
					"background" : 0,
					"color" : [ 0.494118, 0.556863, 0.607843, 1.0 ],
					"outlettype" : [ "int" ],
					"fontface" : 0,
					"fontsize" : 9.0,
					"ignoreclick" : 0,
					"presentation_rect" : [ 0.0, 0.0, 0.0, 0.0 ],
					"hidden" : 0
				}

			}
, 			{
				"box" : 				{
					"maxclass" : "newobj",
					"text" : "minimum",
					"patching_rect" : [ 146.0, 189.0, 47.0, 17.0 ],
					"numinlets" : 2,
					"presentation" : 0,
					"id" : "obj-79",
					"fontname" : "Arial",
					"textcolor" : [ 0.101961, 0.121569, 0.172549, 1.0 ],
					"bgcolor" : [ 1.0, 1.0, 1.0, 1.0 ],
					"numoutlets" : 2,
					"background" : 0,
					"color" : [ 0.494118, 0.556863, 0.607843, 1.0 ],
					"outlettype" : [ "int", "int" ],
					"fontface" : 0,
					"fontsize" : 9.0,
					"ignoreclick" : 0,
					"presentation_rect" : [ 0.0, 0.0, 0.0, 0.0 ],
					"hidden" : 0
				}

			}
, 			{
				"box" : 				{
					"maxclass" : "newobj",
					"text" : "abs",
					"patching_rect" : [ 65.0, 213.333328, 25.0, 17.0 ],
					"numinlets" : 1,
					"presentation" : 0,
					"id" : "obj-30",
					"fontname" : "Arial",
					"textcolor" : [ 0.101961, 0.121569, 0.172549, 1.0 ],
					"bgcolor" : [ 1.0, 1.0, 1.0, 1.0 ],
					"numoutlets" : 1,
					"background" : 0,
					"color" : [ 0.494118, 0.556863, 0.607843, 1.0 ],
					"outlettype" : [ "int" ],
					"fontface" : 0,
					"fontsize" : 9.0,
					"ignoreclick" : 0,
					"presentation_rect" : [ 0.0, 0.0, 0.0, 0.0 ],
					"hidden" : 0
				}

			}
, 			{
				"box" : 				{
					"maxclass" : "outlet",
					"patching_rect" : [ 35.0, 359.399994, 18.0, 18.0 ],
					"numinlets" : 1,
					"presentation" : 0,
					"id" : "obj-68",
					"numoutlets" : 0,
					"background" : 0,
					"ignoreclick" : 0,
					"presentation_rect" : [ 0.0, 0.0, 0.0, 0.0 ],
					"hidden" : 0,
					"comment" : ""
				}

			}
, 			{
				"box" : 				{
					"maxclass" : "newobj",
					"text" : "bach.expr ($i1+$i2)/$i3/$i4",
					"patching_rect" : [ 35.0, 309.333344, 353.0, 17.0 ],
					"numinlets" : 4,
					"presentation" : 0,
					"id" : "obj-65",
					"fontname" : "Arial",
					"textcolor" : [ 0.101961, 0.121569, 0.172549, 1.0 ],
					"bgcolor" : [ 1.0, 1.0, 1.0, 1.0 ],
					"numoutlets" : 1,
					"background" : 0,
					"color" : [ 0.494118, 0.556863, 0.607843, 1.0 ],
					"outlettype" : [ "" ],
					"fontface" : 0,
					"fontsize" : 9.0,
					"ignoreclick" : 0,
					"presentation_rect" : [ 0.0, 0.0, 0.0, 0.0 ],
					"hidden" : 0
				}

			}
, 			{
				"box" : 				{
					"maxclass" : "newobj",
					"text" : "-",
					"patching_rect" : [ 65.0, 189.0, 32.5, 17.0 ],
					"numinlets" : 2,
					"presentation" : 0,
					"id" : "obj-32",
					"fontname" : "Arial",
					"textcolor" : [ 0.101961, 0.121569, 0.172549, 1.0 ],
					"bgcolor" : [ 1.0, 1.0, 1.0, 1.0 ],
					"numoutlets" : 1,
					"background" : 0,
					"color" : [ 0.494118, 0.556863, 0.607843, 1.0 ],
					"outlettype" : [ "int" ],
					"fontface" : 0,
					"fontsize" : 9.0,
					"ignoreclick" : 0,
					"presentation_rect" : [ 0.0, 0.0, 0.0, 0.0 ],
					"hidden" : 0
				}

			}
, 			{
				"box" : 				{
					"maxclass" : "newobj",
					"text" : "pak 0 0",
					"patching_rect" : [ 146.0, 158.0, 75.0, 17.0 ],
					"numinlets" : 2,
					"presentation" : 0,
					"id" : "obj-51",
					"fontname" : "Arial",
					"textcolor" : [ 0.101961, 0.121569, 0.172549, 1.0 ],
					"bgcolor" : [ 1.0, 1.0, 1.0, 1.0 ],
					"numoutlets" : 1,
					"background" : 0,
					"color" : [ 0.494118, 0.556863, 0.607843, 1.0 ],
					"outlettype" : [ "" ],
					"fontface" : 0,
					"fontsize" : 9.0,
					"ignoreclick" : 0,
					"presentation_rect" : [ 0.0, 0.0, 0.0, 0.0 ],
					"hidden" : 0
				}

			}
, 			{
				"box" : 				{
					"maxclass" : "newobj",
					"text" : "*",
					"patching_rect" : [ 258.0, 189.0, 32.5, 17.0 ],
					"numinlets" : 2,
					"presentation" : 0,
					"id" : "obj-33",
					"fontname" : "Arial",
					"textcolor" : [ 0.101961, 0.121569, 0.172549, 1.0 ],
					"bgcolor" : [ 1.0, 1.0, 1.0, 1.0 ],
					"numoutlets" : 1,
					"background" : 0,
					"color" : [ 0.494118, 0.556863, 0.607843, 1.0 ],
					"outlettype" : [ "int" ],
					"fontface" : 0,
					"fontsize" : 9.0,
					"ignoreclick" : 0,
					"presentation_rect" : [ 0.0, 0.0, 0.0, 0.0 ],
					"hidden" : 0
				}

			}
, 			{
				"box" : 				{
					"maxclass" : "inlet",
					"patching_rect" : [ 35.0, 47.0, 18.0, 18.0 ],
					"numinlets" : 0,
					"presentation" : 0,
					"id" : "obj-37",
					"numoutlets" : 1,
					"background" : 0,
					"outlettype" : [ "" ],
					"ignoreclick" : 0,
					"presentation_rect" : [ 0.0, 0.0, 0.0, 0.0 ],
					"hidden" : 0,
					"comment" : ""
				}

			}
, 			{
				"box" : 				{
					"maxclass" : "newobj",
					"text" : "random",
					"patching_rect" : [ 35.0, 285.333344, 49.0, 17.0 ],
					"numinlets" : 2,
					"presentation" : 0,
					"id" : "obj-29",
					"fontname" : "Arial",
					"textcolor" : [ 0.101961, 0.121569, 0.172549, 1.0 ],
					"bgcolor" : [ 1.0, 1.0, 1.0, 1.0 ],
					"numoutlets" : 1,
					"background" : 0,
					"color" : [ 0.494118, 0.556863, 0.607843, 1.0 ],
					"outlettype" : [ "int" ],
					"fontface" : 0,
					"fontsize" : 9.0,
					"ignoreclick" : 0,
					"presentation_rect" : [ 0.0, 0.0, 0.0, 0.0 ],
					"hidden" : 0
				}

			}
 ],
		"lines" : [ 			{
				"patchline" : 				{
					"source" : [ "obj-85", 0 ],
					"destination" : [ "obj-51", 1 ],
					"hidden" : 0,
					"color" : [ 0.101961, 0.121569, 0.172549, 1.0 ],
					"midpoints" : [  ]
				}

			}
, 			{
				"patchline" : 				{
					"source" : [ "obj-84", 0 ],
					"destination" : [ "obj-51", 0 ],
					"hidden" : 0,
					"color" : [ 0.101961, 0.121569, 0.172549, 1.0 ],
					"midpoints" : [  ]
				}

			}
, 			{
				"patchline" : 				{
					"source" : [ "obj-51", 0 ],
					"destination" : [ "obj-79", 0 ],
					"hidden" : 0,
					"color" : [ 0.101961, 0.121569, 0.172549, 1.0 ],
					"midpoints" : [  ]
				}

			}
, 			{
				"patchline" : 				{
					"source" : [ "obj-51", 0 ],
					"destination" : [ "obj-32", 0 ],
					"hidden" : 0,
					"color" : [ 0.101961, 0.121569, 0.172549, 1.0 ],
					"midpoints" : [  ]
				}

			}
, 			{
				"patchline" : 				{
					"source" : [ "obj-45", 2 ],
					"destination" : [ "obj-15", 0 ],
					"hidden" : 0,
					"color" : [ 0.101961, 0.121569, 0.172549, 1.0 ],
					"midpoints" : [  ]
				}

			}
, 			{
				"patchline" : 				{
					"source" : [ "obj-3", 0 ],
					"destination" : [ "obj-15", 0 ],
					"hidden" : 0,
					"color" : [ 0.101961, 0.121569, 0.172549, 1.0 ],
					"midpoints" : [  ]
				}

			}
, 			{
				"patchline" : 				{
					"source" : [ "obj-15", 1 ],
					"destination" : [ "obj-85", 1 ],
					"hidden" : 0,
					"color" : [ 0.101961, 0.121569, 0.172549, 1.0 ],
					"midpoints" : [  ]
				}

			}
, 			{
				"patchline" : 				{
					"source" : [ "obj-15", 0 ],
					"destination" : [ "obj-85", 0 ],
					"hidden" : 0,
					"color" : [ 0.101961, 0.121569, 0.172549, 1.0 ],
					"midpoints" : [  ]
				}

			}
, 			{
				"patchline" : 				{
					"source" : [ "obj-45", 4 ],
					"destination" : [ "obj-13", 0 ],
					"hidden" : 0,
					"color" : [ 0.101961, 0.121569, 0.172549, 1.0 ],
					"midpoints" : [  ]
				}

			}
, 			{
				"patchline" : 				{
					"source" : [ "obj-6", 0 ],
					"destination" : [ "obj-13", 0 ],
					"hidden" : 0,
					"color" : [ 0.0, 0.278431, 1.0, 1.0 ],
					"midpoints" : [  ]
				}

			}
, 			{
				"patchline" : 				{
					"source" : [ "obj-13", 1 ],
					"destination" : [ "obj-14", 1 ],
					"hidden" : 0,
					"color" : [ 0.101961, 0.121569, 0.172549, 1.0 ],
					"midpoints" : [  ]
				}

			}
, 			{
				"patchline" : 				{
					"source" : [ "obj-13", 0 ],
					"destination" : [ "obj-14", 0 ],
					"hidden" : 0,
					"color" : [ 0.101961, 0.121569, 0.172549, 1.0 ],
					"midpoints" : [  ]
				}

			}
, 			{
				"patchline" : 				{
					"source" : [ "obj-45", 1 ],
					"destination" : [ "obj-5", 0 ],
					"hidden" : 0,
					"color" : [ 0.278431, 0.921569, 0.639216, 1.0 ],
					"midpoints" : [  ]
				}

			}
, 			{
				"patchline" : 				{
					"source" : [ "obj-45", 3 ],
					"destination" : [ "obj-5", 1 ],
					"hidden" : 0,
					"color" : [ 0.929412, 0.360784, 0.866667, 1.0 ],
					"midpoints" : [  ]
				}

			}
, 			{
				"patchline" : 				{
					"source" : [ "obj-5", 0 ],
					"destination" : [ "obj-33", 0 ],
					"hidden" : 0,
					"color" : [ 0.101961, 0.121569, 0.172549, 1.0 ],
					"midpoints" : [  ]
				}

			}
, 			{
				"patchline" : 				{
					"source" : [ "obj-4", 0 ],
					"destination" : [ "obj-5", 1 ],
					"hidden" : 0,
					"color" : [ 0.929412, 0.360784, 0.866667, 1.0 ],
					"midpoints" : [  ]
				}

			}
, 			{
				"patchline" : 				{
					"source" : [ "obj-2", 0 ],
					"destination" : [ "obj-5", 0 ],
					"hidden" : 0,
					"color" : [ 0.278431, 0.921569, 0.639216, 1.0 ],
					"midpoints" : [  ]
				}

			}
, 			{
				"patchline" : 				{
					"source" : [ "obj-6", 0 ],
					"destination" : [ "obj-65", 3 ],
					"hidden" : 0,
					"color" : [ 0.0, 0.278431, 1.0, 1.0 ],
					"midpoints" : [  ]
				}

			}
, 			{
				"patchline" : 				{
					"source" : [ "obj-9", 0 ],
					"destination" : [ "obj-29", 1 ],
					"hidden" : 0,
					"color" : [ 0.101961, 0.121569, 0.172549, 1.0 ],
					"midpoints" : [  ]
				}

			}
, 			{
				"patchline" : 				{
					"source" : [ "obj-14", 0 ],
					"destination" : [ "obj-9", 0 ],
					"hidden" : 0,
					"color" : [ 0.101961, 0.121569, 0.172549, 1.0 ],
					"midpoints" : [  ]
				}

			}
, 			{
				"patchline" : 				{
					"source" : [ "obj-30", 0 ],
					"destination" : [ "obj-14", 0 ],
					"hidden" : 0,
					"color" : [ 0.101961, 0.121569, 0.172549, 1.0 ],
					"midpoints" : [  ]
				}

			}
, 			{
				"patchline" : 				{
					"source" : [ "obj-29", 0 ],
					"destination" : [ "obj-65", 0 ],
					"hidden" : 0,
					"color" : [ 0.101961, 0.121569, 0.172549, 1.0 ],
					"midpoints" : [  ]
				}

			}
, 			{
				"patchline" : 				{
					"source" : [ "obj-79", 0 ],
					"destination" : [ "obj-65", 1 ],
					"hidden" : 0,
					"color" : [ 0.101961, 0.121569, 0.172549, 1.0 ],
					"midpoints" : [  ]
				}

			}
, 			{
				"patchline" : 				{
					"source" : [ "obj-33", 0 ],
					"destination" : [ "obj-65", 2 ],
					"hidden" : 0,
					"color" : [ 0.101961, 0.121569, 0.172549, 1.0 ],
					"midpoints" : [  ]
				}

			}
, 			{
				"patchline" : 				{
					"source" : [ "obj-65", 0 ],
					"destination" : [ "obj-11", 0 ],
					"hidden" : 0,
					"color" : [ 0.101961, 0.121569, 0.172549, 1.0 ],
					"midpoints" : [  ]
				}

			}
, 			{
				"patchline" : 				{
					"source" : [ "obj-4", 0 ],
					"destination" : [ "obj-84", 1 ],
					"hidden" : 0,
					"color" : [ 0.929412, 0.360784, 0.866667, 1.0 ],
					"midpoints" : [  ]
				}

			}
, 			{
				"patchline" : 				{
					"source" : [ "obj-2", 0 ],
					"destination" : [ "obj-85", 0 ],
					"hidden" : 0,
					"color" : [ 0.278431, 0.921569, 0.639216, 1.0 ],
					"midpoints" : [  ]
				}

			}
, 			{
				"patchline" : 				{
					"source" : [ "obj-11", 0 ],
					"destination" : [ "obj-68", 0 ],
					"hidden" : 0,
					"color" : [ 0.101961, 0.121569, 0.172549, 1.0 ],
					"midpoints" : [  ]
				}

			}
, 			{
				"patchline" : 				{
					"source" : [ "obj-37", 0 ],
					"destination" : [ "obj-29", 0 ],
					"hidden" : 0,
					"color" : [ 0.101961, 0.121569, 0.172549, 1.0 ],
					"midpoints" : [  ]
				}

			}
, 			{
				"patchline" : 				{
					"source" : [ "obj-32", 0 ],
					"destination" : [ "obj-30", 0 ],
					"hidden" : 0,
					"color" : [ 0.101961, 0.121569, 0.172549, 1.0 ],
					"midpoints" : [  ]
				}

			}
, 			{
				"patchline" : 				{
					"source" : [ "obj-45", 3 ],
					"destination" : [ "obj-84", 1 ],
					"hidden" : 0,
					"color" : [ 0.929412, 0.360784, 0.866667, 1.0 ],
					"midpoints" : [  ]
				}

			}
, 			{
				"patchline" : 				{
					"source" : [ "obj-69", 0 ],
					"destination" : [ "obj-45", 0 ],
					"hidden" : 0,
					"color" : [ 0.101961, 0.121569, 0.172549, 1.0 ],
					"midpoints" : [  ]
				}

			}
, 			{
				"patchline" : 				{
					"source" : [ "obj-45", 0 ],
					"destination" : [ "obj-84", 0 ],
					"hidden" : 0,
					"color" : [ 0.101961, 0.121569, 0.172549, 1.0 ],
					"midpoints" : [  ]
				}

			}
, 			{
				"patchline" : 				{
					"source" : [ "obj-45", 1 ],
					"destination" : [ "obj-85", 0 ],
					"hidden" : 0,
					"color" : [ 0.278431, 0.921569, 0.639216, 1.0 ],
					"midpoints" : [  ]
				}

			}
, 			{
				"patchline" : 				{
					"source" : [ "obj-45", 4 ],
					"destination" : [ "obj-65", 3 ],
					"hidden" : 0,
					"color" : [ 0.101961, 0.121569, 0.172549, 1.0 ],
					"midpoints" : [  ]
				}

			}
, 			{
				"patchline" : 				{
					"source" : [ "obj-1", 0 ],
					"destination" : [ "obj-45", 0 ],
					"hidden" : 0,
					"color" : [ 0.101961, 0.121569, 0.172549, 1.0 ],
					"midpoints" : [  ]
				}

			}
 ]
	}

}
