{
	"patcher" : 	{
		"fileversion" : 1,
		"appversion" : 		{
			"major" : 5,
			"minor" : 1,
			"revision" : 9
		}
,
		"rect" : [ 226.0, 44.0, 836.0, 761.0 ],
		"bgcolor" : [ 0.666667, 0.698039, 0.717647, 1.0 ],
		"bglocked" : 0,
		"defrect" : [ 226.0, 44.0, 836.0, 761.0 ],
		"openrect" : [ 0.0, 0.0, 0.0, 0.0 ],
		"openinpresentation" : 0,
		"default_fontsize" : 9.0,
		"default_fontface" : 0,
		"default_fontname" : "Arial",
		"gridonopen" : 0,
		"gridsize" : [ 15.0, 15.0 ],
		"gridsnaponopen" : 0,
		"toolbarvisible" : 0,
		"boxanimatetime" : 200,
		"imprint" : 1,
		"enablehscroll" : 1,
		"enablevscroll" : 1,
		"devicewidth" : 0.0,
		"boxes" : [ 			{
				"box" : 				{
					"maxclass" : "newobj",
					"text" : "patcherargs",
					"patching_rect" : [ 21.0, 17.0, 58.0, 17.0 ],
					"numinlets" : 1,
					"presentation" : 0,
					"id" : "obj-23",
					"fontname" : "Arial",
					"textcolor" : [ 0.101961, 0.121569, 0.172549, 1.0 ],
					"bgcolor" : [ 1.0, 1.0, 1.0, 1.0 ],
					"numoutlets" : 2,
					"background" : 0,
					"color" : [ 0.494118, 0.556863, 0.607843, 1.0 ],
					"outlettype" : [ "", "" ],
					"fontface" : 0,
					"fontsize" : 9.0,
					"ignoreclick" : 0,
					"presentation_rect" : [ 0.0, 0.0, 0.0, 0.0 ],
					"hidden" : 0
				}

			}
, 			{
				"box" : 				{
					"maxclass" : "newobj",
					"text" : "bach.reg",
					"patching_rect" : [ 565.0, 577.0, 46.0, 17.0 ],
					"numinlets" : 2,
					"presentation" : 0,
					"id" : "obj-16",
					"fontname" : "Arial",
					"textcolor" : [ 0.101961, 0.121569, 0.172549, 1.0 ],
					"bgcolor" : [ 1.0, 1.0, 1.0, 1.0 ],
					"numoutlets" : 1,
					"background" : 0,
					"color" : [ 0.494118, 0.556863, 0.607843, 1.0 ],
					"outlettype" : [ "" ],
					"fontface" : 0,
					"fontsize" : 9.0,
					"ignoreclick" : 0,
					"presentation_rect" : [ 0.0, 0.0, 0.0, 0.0 ],
					"hidden" : 0,
					"saved_object_attributes" : 					{
						"embed" : 0
					}

				}

			}
, 			{
				"box" : 				{
					"maxclass" : "newobj",
					"text" : "bach.flat",
					"patching_rect" : [ 565.0, 629.5, 45.0, 17.0 ],
					"numinlets" : 1,
					"presentation" : 0,
					"id" : "obj-12",
					"fontname" : "Arial",
					"textcolor" : [ 0.101961, 0.121569, 0.172549, 1.0 ],
					"bgcolor" : [ 1.0, 1.0, 1.0, 1.0 ],
					"numoutlets" : 1,
					"background" : 0,
					"color" : [ 0.494118, 0.556863, 0.607843, 1.0 ],
					"outlettype" : [ "" ],
					"fontface" : 0,
					"fontsize" : 9.0,
					"ignoreclick" : 0,
					"presentation_rect" : [ 0.0, 0.0, 0.0, 0.0 ],
					"hidden" : 0
				}

			}
, 			{
				"box" : 				{
					"maxclass" : "outlet",
					"patching_rect" : [ 286.0, 712.5, 21.0, 21.0 ],
					"numinlets" : 1,
					"presentation" : 0,
					"id" : "obj-11",
					"numoutlets" : 0,
					"background" : 0,
					"ignoreclick" : 0,
					"presentation_rect" : [ 0.0, 0.0, 0.0, 0.0 ],
					"hidden" : 0,
					"comment" : ""
				}

			}
, 			{
				"box" : 				{
					"maxclass" : "newobj",
					"text" : "bach.lookup",
					"patching_rect" : [ 565.0, 604.5, 66.0, 17.0 ],
					"numinlets" : 2,
					"presentation" : 0,
					"id" : "obj-6",
					"fontname" : "Arial",
					"textcolor" : [ 0.101961, 0.121569, 0.172549, 1.0 ],
					"bgcolor" : [ 1.0, 1.0, 1.0, 1.0 ],
					"numoutlets" : 1,
					"background" : 0,
					"color" : [ 0.494118, 0.556863, 0.607843, 1.0 ],
					"outlettype" : [ "" ],
					"fontface" : 0,
					"fontsize" : 9.0,
					"ignoreclick" : 0,
					"presentation_rect" : [ 0.0, 0.0, 0.0, 0.0 ],
					"hidden" : 0
				}

			}
, 			{
				"box" : 				{
					"maxclass" : "newobj",
					"text" : "bach.portal 3",
					"patching_rect" : [ 154.25, 686.5, 217.0, 17.0 ],
					"numinlets" : 3,
					"presentation" : 0,
					"id" : "obj-5",
					"fontname" : "Arial",
					"textcolor" : [ 0.101961, 0.121569, 0.172549, 1.0 ],
					"bgcolor" : [ 1.0, 1.0, 1.0, 1.0 ],
					"numoutlets" : 4,
					"background" : 0,
					"color" : [ 0.494118, 0.556863, 0.607843, 1.0 ],
					"outlettype" : [ "", "", "", "bang" ],
					"fontface" : 0,
					"fontsize" : 9.0,
					"ignoreclick" : 0,
					"presentation_rect" : [ 0.0, 0.0, 0.0, 0.0 ],
					"hidden" : 0
				}

			}
, 			{
				"box" : 				{
					"maxclass" : "newobj",
					"text" : "p load",
					"patching_rect" : [ 60.0, 41.0, 684.0, 17.0 ],
					"numinlets" : 1,
					"presentation" : 0,
					"id" : "obj-1",
					"fontname" : "Arial",
					"textcolor" : [ 0.101961, 0.121569, 0.172549, 1.0 ],
					"bgcolor" : [ 1.0, 1.0, 1.0, 1.0 ],
					"numoutlets" : 2,
					"background" : 0,
					"color" : [ 0.494118, 0.556863, 0.607843, 1.0 ],
					"outlettype" : [ "", "" ],
					"fontface" : 0,
					"fontsize" : 9.0,
					"ignoreclick" : 0,
					"presentation_rect" : [ 0.0, 0.0, 0.0, 0.0 ],
					"hidden" : 0,
					"patcher" : 					{
						"fileversion" : 1,
						"appversion" : 						{
							"major" : 5,
							"minor" : 1,
							"revision" : 9
						}
,
						"rect" : [ 18.0, 296.0, 227.0, 277.0 ],
						"bgcolor" : [ 0.666667, 0.698039, 0.717647, 1.0 ],
						"bglocked" : 0,
						"defrect" : [ 18.0, 296.0, 227.0, 277.0 ],
						"openrect" : [ 0.0, 0.0, 0.0, 0.0 ],
						"openinpresentation" : 0,
						"default_fontsize" : 9.0,
						"default_fontface" : 0,
						"default_fontname" : "Arial",
						"gridonopen" : 0,
						"gridsize" : [ 15.0, 15.0 ],
						"gridsnaponopen" : 0,
						"toolbarvisible" : 0,
						"boxanimatetime" : 200,
						"imprint" : 1,
						"enablehscroll" : 1,
						"enablevscroll" : 1,
						"devicewidth" : 0.0,
						"boxes" : [ 							{
								"box" : 								{
									"maxclass" : "newobj",
									"text" : "zl rev",
									"patching_rect" : [ 76.0, 65.666664, 32.0, 17.0 ],
									"numinlets" : 2,
									"presentation" : 0,
									"id" : "obj-18",
									"fontname" : "Arial",
									"textcolor" : [ 0.101961, 0.121569, 0.172549, 1.0 ],
									"bgcolor" : [ 1.0, 1.0, 1.0, 1.0 ],
									"numoutlets" : 2,
									"background" : 0,
									"color" : [ 0.494118, 0.556863, 0.607843, 1.0 ],
									"outlettype" : [ "", "" ],
									"fontface" : 0,
									"fontsize" : 9.0,
									"ignoreclick" : 0,
									"presentation_rect" : [ 0.0, 0.0, 0.0, 0.0 ],
									"hidden" : 0
								}

							}
, 							{
								"box" : 								{
									"maxclass" : "newobj",
									"text" : "route done",
									"patching_rect" : [ 41.0, 40.333344, 54.0, 17.0 ],
									"numinlets" : 1,
									"presentation" : 0,
									"id" : "obj-20",
									"fontname" : "Arial",
									"textcolor" : [ 0.101961, 0.121569, 0.172549, 1.0 ],
									"bgcolor" : [ 1.0, 1.0, 1.0, 1.0 ],
									"numoutlets" : 2,
									"background" : 0,
									"color" : [ 0.494118, 0.556863, 0.607843, 1.0 ],
									"outlettype" : [ "", "" ],
									"fontface" : 0,
									"fontsize" : 9.0,
									"ignoreclick" : 0,
									"presentation_rect" : [ 0.0, 0.0, 0.0, 0.0 ],
									"hidden" : 0
								}

							}
, 							{
								"box" : 								{
									"maxclass" : "inlet",
									"patching_rect" : [ 41.0, 13.0, 20.0, 20.0 ],
									"numinlets" : 0,
									"presentation" : 0,
									"id" : "obj-30",
									"numoutlets" : 1,
									"background" : 0,
									"outlettype" : [ "" ],
									"ignoreclick" : 0,
									"presentation_rect" : [ 0.0, 0.0, 0.0, 0.0 ],
									"hidden" : 0,
									"comment" : ""
								}

							}
, 							{
								"box" : 								{
									"maxclass" : "newobj",
									"text" : "zl iter 2",
									"patching_rect" : [ 76.0, 89.666672, 40.0, 17.0 ],
									"numinlets" : 2,
									"presentation" : 0,
									"id" : "obj-9",
									"fontname" : "Arial",
									"textcolor" : [ 0.101961, 0.121569, 0.172549, 1.0 ],
									"bgcolor" : [ 1.0, 1.0, 1.0, 1.0 ],
									"numoutlets" : 2,
									"background" : 0,
									"color" : [ 0.494118, 0.556863, 0.607843, 1.0 ],
									"outlettype" : [ "", "" ],
									"fontface" : 0,
									"fontsize" : 9.0,
									"ignoreclick" : 0,
									"presentation_rect" : [ 0.0, 0.0, 0.0, 0.0 ],
									"hidden" : 0
								}

							}
, 							{
								"box" : 								{
									"maxclass" : "newobj",
									"text" : "zl slice 1",
									"patching_rect" : [ 76.0, 113.666672, 45.0, 17.0 ],
									"numinlets" : 2,
									"presentation" : 0,
									"id" : "obj-10",
									"fontname" : "Arial",
									"textcolor" : [ 0.101961, 0.121569, 0.172549, 1.0 ],
									"bgcolor" : [ 1.0, 1.0, 1.0, 1.0 ],
									"numoutlets" : 2,
									"background" : 0,
									"color" : [ 0.494118, 0.556863, 0.607843, 1.0 ],
									"outlettype" : [ "", "" ],
									"fontface" : 0,
									"fontsize" : 9.0,
									"ignoreclick" : 0,
									"presentation_rect" : [ 0.0, 0.0, 0.0, 0.0 ],
									"hidden" : 0
								}

							}
, 							{
								"box" : 								{
									"maxclass" : "message",
									"text" : "out $1",
									"gradient" : 0,
									"patching_rect" : [ 25.0, 217.0, 36.0, 15.0 ],
									"numinlets" : 2,
									"presentation" : 0,
									"id" : "obj-6",
									"fontname" : "Arial",
									"textcolor" : [ 0.101961, 0.121569, 0.172549, 1.0 ],
									"bgcolor" : [ 0.568627, 0.619608, 0.662745, 1.0 ],
									"numoutlets" : 1,
									"background" : 0,
									"bgcolor2" : [ 0.568627, 0.619608, 0.662745, 1.0 ],
									"outlettype" : [ "" ],
									"fontface" : 0,
									"fontsize" : 9.0,
									"ignoreclick" : 0,
									"presentation_rect" : [ 0.0, 0.0, 0.0, 0.0 ],
									"hidden" : 0
								}

							}
, 							{
								"box" : 								{
									"maxclass" : "outlet",
									"patching_rect" : [ 76.0, 240.0, 18.0, 18.0 ],
									"numinlets" : 1,
									"presentation" : 0,
									"id" : "obj-5",
									"numoutlets" : 0,
									"background" : 0,
									"ignoreclick" : 0,
									"presentation_rect" : [ 0.0, 0.0, 0.0, 0.0 ],
									"hidden" : 0,
									"comment" : ""
								}

							}
, 							{
								"box" : 								{
									"maxclass" : "message",
									"text" : "2",
									"gradient" : 0,
									"patching_rect" : [ 136.0, 164.0, 16.0, 15.0 ],
									"numinlets" : 2,
									"presentation" : 0,
									"id" : "obj-4",
									"fontname" : "Arial",
									"textcolor" : [ 0.101961, 0.121569, 0.172549, 1.0 ],
									"bgcolor" : [ 0.568627, 0.619608, 0.662745, 1.0 ],
									"numoutlets" : 1,
									"background" : 0,
									"bgcolor2" : [ 0.568627, 0.619608, 0.662745, 1.0 ],
									"outlettype" : [ "" ],
									"fontface" : 0,
									"fontsize" : 9.0,
									"ignoreclick" : 0,
									"presentation_rect" : [ 0.0, 0.0, 0.0, 0.0 ],
									"hidden" : 0
								}

							}
, 							{
								"box" : 								{
									"maxclass" : "message",
									"text" : "0",
									"gradient" : 0,
									"patching_rect" : [ 166.0, 164.0, 16.0, 15.0 ],
									"numinlets" : 2,
									"presentation" : 0,
									"id" : "obj-2",
									"fontname" : "Arial",
									"textcolor" : [ 0.101961, 0.121569, 0.172549, 1.0 ],
									"bgcolor" : [ 0.568627, 0.619608, 0.662745, 1.0 ],
									"numoutlets" : 1,
									"background" : 0,
									"bgcolor2" : [ 0.568627, 0.619608, 0.662745, 1.0 ],
									"outlettype" : [ "" ],
									"fontface" : 0,
									"fontsize" : 9.0,
									"ignoreclick" : 0,
									"presentation_rect" : [ 0.0, 0.0, 0.0, 0.0 ],
									"hidden" : 0
								}

							}
, 							{
								"box" : 								{
									"maxclass" : "message",
									"text" : "1",
									"gradient" : 0,
									"patching_rect" : [ 105.0, 164.0, 16.0, 15.0 ],
									"numinlets" : 2,
									"presentation" : 0,
									"id" : "obj-16",
									"fontname" : "Arial",
									"textcolor" : [ 0.101961, 0.121569, 0.172549, 1.0 ],
									"bgcolor" : [ 0.568627, 0.619608, 0.662745, 1.0 ],
									"numoutlets" : 1,
									"background" : 0,
									"bgcolor2" : [ 0.568627, 0.619608, 0.662745, 1.0 ],
									"outlettype" : [ "" ],
									"fontface" : 0,
									"fontsize" : 9.0,
									"ignoreclick" : 0,
									"presentation_rect" : [ 0.0, 0.0, 0.0, 0.0 ],
									"hidden" : 0
								}

							}
, 							{
								"box" : 								{
									"maxclass" : "newobj",
									"text" : "gate 2",
									"patching_rect" : [ 25.0, 192.0, 70.0, 17.0 ],
									"numinlets" : 2,
									"presentation" : 0,
									"id" : "obj-15",
									"fontname" : "Arial",
									"textcolor" : [ 0.101961, 0.121569, 0.172549, 1.0 ],
									"bgcolor" : [ 1.0, 1.0, 1.0, 1.0 ],
									"numoutlets" : 2,
									"background" : 0,
									"color" : [ 0.494118, 0.556863, 0.607843, 1.0 ],
									"outlettype" : [ "", "" ],
									"fontface" : 0,
									"fontsize" : 9.0,
									"ignoreclick" : 0,
									"presentation_rect" : [ 0.0, 0.0, 0.0, 0.0 ],
									"hidden" : 0
								}

							}
, 							{
								"box" : 								{
									"maxclass" : "newobj",
									"text" : "sel out depth",
									"patching_rect" : [ 102.0, 138.0, 80.0, 17.0 ],
									"numinlets" : 1,
									"presentation" : 0,
									"id" : "obj-14",
									"fontname" : "Arial",
									"textcolor" : [ 0.101961, 0.121569, 0.172549, 1.0 ],
									"bgcolor" : [ 1.0, 1.0, 1.0, 1.0 ],
									"numoutlets" : 3,
									"background" : 0,
									"color" : [ 0.494118, 0.556863, 0.607843, 1.0 ],
									"outlettype" : [ "bang", "bang", "" ],
									"fontface" : 0,
									"fontsize" : 9.0,
									"ignoreclick" : 0,
									"presentation_rect" : [ 0.0, 0.0, 0.0, 0.0 ],
									"hidden" : 0
								}

							}
, 							{
								"box" : 								{
									"maxclass" : "outlet",
									"patching_rect" : [ 25.0, 240.0, 18.0, 18.0 ],
									"numinlets" : 1,
									"presentation" : 0,
									"id" : "obj-1",
									"numoutlets" : 0,
									"background" : 0,
									"ignoreclick" : 0,
									"presentation_rect" : [ 0.0, 0.0, 0.0, 0.0 ],
									"hidden" : 0,
									"comment" : ""
								}

							}
 ],
						"lines" : [ 							{
								"patchline" : 								{
									"source" : [ "obj-6", 0 ],
									"destination" : [ "obj-1", 0 ],
									"hidden" : 0,
									"color" : [ 0.101961, 0.121569, 0.172549, 1.0 ],
									"midpoints" : [  ]
								}

							}
, 							{
								"patchline" : 								{
									"source" : [ "obj-4", 0 ],
									"destination" : [ "obj-15", 0 ],
									"hidden" : 0,
									"color" : [ 0.756863, 0.329412, 0.843137, 1.0 ],
									"midpoints" : [  ]
								}

							}
, 							{
								"patchline" : 								{
									"source" : [ "obj-2", 0 ],
									"destination" : [ "obj-15", 0 ],
									"hidden" : 0,
									"color" : [ 0.756863, 0.329412, 0.843137, 1.0 ],
									"midpoints" : [  ]
								}

							}
, 							{
								"patchline" : 								{
									"source" : [ "obj-16", 0 ],
									"destination" : [ "obj-15", 0 ],
									"hidden" : 0,
									"color" : [ 0.756863, 0.329412, 0.843137, 1.0 ],
									"midpoints" : [  ]
								}

							}
, 							{
								"patchline" : 								{
									"source" : [ "obj-15", 1 ],
									"destination" : [ "obj-5", 0 ],
									"hidden" : 0,
									"color" : [ 0.101961, 0.121569, 0.172549, 1.0 ],
									"midpoints" : [  ]
								}

							}
, 							{
								"patchline" : 								{
									"source" : [ "obj-15", 0 ],
									"destination" : [ "obj-6", 0 ],
									"hidden" : 0,
									"color" : [ 0.101961, 0.121569, 0.172549, 1.0 ],
									"midpoints" : [  ]
								}

							}
, 							{
								"patchline" : 								{
									"source" : [ "obj-9", 0 ],
									"destination" : [ "obj-10", 0 ],
									"hidden" : 0,
									"color" : [ 0.101961, 0.121569, 0.172549, 1.0 ],
									"midpoints" : [  ]
								}

							}
, 							{
								"patchline" : 								{
									"source" : [ "obj-20", 1 ],
									"destination" : [ "obj-18", 0 ],
									"hidden" : 0,
									"color" : [ 0.101961, 0.121569, 0.172549, 1.0 ],
									"midpoints" : [  ]
								}

							}
, 							{
								"patchline" : 								{
									"source" : [ "obj-18", 0 ],
									"destination" : [ "obj-9", 0 ],
									"hidden" : 0,
									"color" : [ 0.101961, 0.121569, 0.172549, 1.0 ],
									"midpoints" : [  ]
								}

							}
, 							{
								"patchline" : 								{
									"source" : [ "obj-30", 0 ],
									"destination" : [ "obj-20", 0 ],
									"hidden" : 0,
									"color" : [ 0.101961, 0.121569, 0.172549, 1.0 ],
									"midpoints" : [  ]
								}

							}
, 							{
								"patchline" : 								{
									"source" : [ "obj-14", 1 ],
									"destination" : [ "obj-4", 0 ],
									"hidden" : 0,
									"color" : [ 0.101961, 0.121569, 0.172549, 1.0 ],
									"midpoints" : [  ]
								}

							}
, 							{
								"patchline" : 								{
									"source" : [ "obj-14", 2 ],
									"destination" : [ "obj-2", 0 ],
									"hidden" : 0,
									"color" : [ 0.101961, 0.121569, 0.172549, 1.0 ],
									"midpoints" : [  ]
								}

							}
, 							{
								"patchline" : 								{
									"source" : [ "obj-14", 0 ],
									"destination" : [ "obj-16", 0 ],
									"hidden" : 0,
									"color" : [ 0.101961, 0.121569, 0.172549, 1.0 ],
									"midpoints" : [  ]
								}

							}
, 							{
								"patchline" : 								{
									"source" : [ "obj-10", 1 ],
									"destination" : [ "obj-14", 0 ],
									"hidden" : 0,
									"color" : [ 0.101961, 0.121569, 0.172549, 1.0 ],
									"midpoints" : [  ]
								}

							}
, 							{
								"patchline" : 								{
									"source" : [ "obj-10", 0 ],
									"destination" : [ "obj-15", 1 ],
									"hidden" : 0,
									"color" : [ 0.101961, 0.121569, 0.172549, 1.0 ],
									"midpoints" : [  ]
								}

							}
 ]
					}
,
					"saved_object_attributes" : 					{
						"default_fontface" : 0,
						"fontname" : "Arial",
						"default_fontname" : "Arial",
						"globalpatchername" : "",
						"default_fontsize" : 9.0,
						"fontface" : 0,
						"fontsize" : 9.0
					}

				}

			}
, 			{
				"box" : 				{
					"maxclass" : "newobj",
					"text" : "bach.iter",
					"patching_rect" : [ 759.75, 125.25, 46.0, 17.0 ],
					"numinlets" : 2,
					"presentation" : 0,
					"id" : "obj-7",
					"fontname" : "Arial",
					"textcolor" : [ 0.101961, 0.121569, 0.172549, 1.0 ],
					"bgcolor" : [ 1.0, 1.0, 1.0, 1.0 ],
					"numoutlets" : 3,
					"background" : 0,
					"color" : [ 0.494118, 0.556863, 0.607843, 1.0 ],
					"outlettype" : [ "", "", "int" ],
					"fontface" : 0,
					"fontsize" : 9.0,
					"ignoreclick" : 0,
					"presentation_rect" : [ 0.0, 0.0, 0.0, 0.0 ],
					"hidden" : 0
				}

			}
, 			{
				"box" : 				{
					"maxclass" : "inlet",
					"patching_rect" : [ 760.0, 66.0, 21.0, 21.0 ],
					"numinlets" : 0,
					"presentation" : 0,
					"id" : "obj-3",
					"numoutlets" : 1,
					"background" : 0,
					"outlettype" : [ "" ],
					"ignoreclick" : 0,
					"presentation_rect" : [ 0.0, 0.0, 0.0, 0.0 ],
					"hidden" : 0,
					"comment" : ""
				}

			}
, 			{
				"box" : 				{
					"maxclass" : "outlet",
					"patching_rect" : [ 220.0, 712.5, 21.0, 21.0 ],
					"numinlets" : 1,
					"presentation" : 0,
					"id" : "obj-2",
					"numoutlets" : 0,
					"background" : 0,
					"ignoreclick" : 0,
					"presentation_rect" : [ 0.0, 0.0, 0.0, 0.0 ],
					"hidden" : 0,
					"comment" : ""
				}

			}
, 			{
				"box" : 				{
					"maxclass" : "newobj",
					"text" : "t l l",
					"patching_rect" : [ 168.0, 125.25, 103.5, 17.0 ],
					"numinlets" : 1,
					"presentation" : 0,
					"id" : "obj-54",
					"fontname" : "Arial",
					"textcolor" : [ 0.101961, 0.121569, 0.172549, 1.0 ],
					"bgcolor" : [ 1.0, 1.0, 1.0, 1.0 ],
					"numoutlets" : 2,
					"background" : 0,
					"color" : [ 0.494118, 0.556863, 0.607843, 1.0 ],
					"outlettype" : [ "", "" ],
					"fontface" : 0,
					"fontsize" : 9.0,
					"ignoreclick" : 0,
					"presentation_rect" : [ 0.0, 0.0, 0.0, 0.0 ],
					"hidden" : 0
				}

			}
, 			{
				"box" : 				{
					"maxclass" : "newobj",
					"text" : "p iterate",
					"patching_rect" : [ 168.0, 96.0, 610.5, 17.0 ],
					"numinlets" : 2,
					"presentation" : 0,
					"id" : "obj-58",
					"fontname" : "Arial",
					"textcolor" : [ 0.101961, 0.121569, 0.172549, 1.0 ],
					"bgcolor" : [ 1.0, 1.0, 1.0, 1.0 ],
					"numoutlets" : 5,
					"background" : 0,
					"color" : [ 0.494118, 0.556863, 0.607843, 1.0 ],
					"outlettype" : [ "", "int", "int", "", "" ],
					"fontface" : 0,
					"fontsize" : 9.0,
					"ignoreclick" : 0,
					"presentation_rect" : [ 0.0, 0.0, 0.0, 0.0 ],
					"hidden" : 0,
					"patcher" : 					{
						"fileversion" : 1,
						"appversion" : 						{
							"major" : 5,
							"minor" : 1,
							"revision" : 9
						}
,
						"rect" : [ 273.0, 217.0, 506.0, 438.0 ],
						"bgcolor" : [ 0.666667, 0.698039, 0.717647, 1.0 ],
						"bglocked" : 0,
						"defrect" : [ 273.0, 217.0, 506.0, 438.0 ],
						"openrect" : [ 0.0, 0.0, 0.0, 0.0 ],
						"openinpresentation" : 0,
						"default_fontsize" : 9.0,
						"default_fontface" : 0,
						"default_fontname" : "Arial",
						"gridonopen" : 0,
						"gridsize" : [ 15.0, 15.0 ],
						"gridsnaponopen" : 0,
						"toolbarvisible" : 0,
						"boxanimatetime" : 200,
						"imprint" : 1,
						"enablehscroll" : 1,
						"enablevscroll" : 1,
						"devicewidth" : 0.0,
						"boxes" : [ 							{
								"box" : 								{
									"maxclass" : "comment",
									"text" : "optimize here - bach.iter can be avoided when gate is set on 2",
									"linecount" : 2,
									"frgb" : [ 1.0, 0.0, 0.0, 1.0 ],
									"patching_rect" : [ 165.0, 128.0, 150.0, 27.0 ],
									"numinlets" : 1,
									"presentation" : 0,
									"id" : "obj-17",
									"fontname" : "Arial",
									"underline" : 0,
									"textcolor" : [ 1.0, 0.0, 0.0, 1.0 ],
									"bgcolor" : [ 1.0, 1.0, 1.0, 0.0 ],
									"numoutlets" : 0,
									"background" : 0,
									"fontface" : 0,
									"fontsize" : 9.0,
									"ignoreclick" : 1,
									"presentation_rect" : [ 0.0, 0.0, 0.0, 0.0 ],
									"hidden" : 0
								}

							}
, 							{
								"box" : 								{
									"maxclass" : "message",
									"text" : "maxdepth $1",
									"gradient" : 0,
									"patching_rect" : [ 353.0, 67.0, 63.0, 15.0 ],
									"numinlets" : 2,
									"presentation" : 0,
									"id" : "obj-20",
									"fontname" : "Arial",
									"textcolor" : [ 0.101961, 0.121569, 0.172549, 1.0 ],
									"bgcolor" : [ 0.568627, 0.619608, 0.662745, 1.0 ],
									"numoutlets" : 1,
									"background" : 0,
									"bgcolor2" : [ 0.568627, 0.619608, 0.662745, 1.0 ],
									"outlettype" : [ "" ],
									"fontface" : 0,
									"fontsize" : 9.0,
									"ignoreclick" : 0,
									"presentation_rect" : [ 0.0, 0.0, 0.0, 0.0 ],
									"hidden" : 0
								}

							}
, 							{
								"box" : 								{
									"maxclass" : "newobj",
									"text" : "+ 1",
									"patching_rect" : [ 353.0, 43.0, 32.5, 17.0 ],
									"numinlets" : 2,
									"presentation" : 0,
									"id" : "obj-18",
									"fontname" : "Arial",
									"textcolor" : [ 0.101961, 0.121569, 0.172549, 1.0 ],
									"bgcolor" : [ 1.0, 1.0, 1.0, 1.0 ],
									"numoutlets" : 1,
									"background" : 0,
									"color" : [ 0.494118, 0.556863, 0.607843, 1.0 ],
									"outlettype" : [ "int" ],
									"fontface" : 0,
									"fontsize" : 9.0,
									"ignoreclick" : 0,
									"presentation_rect" : [ 0.0, 0.0, 0.0, 0.0 ],
									"hidden" : 0
								}

							}
, 							{
								"box" : 								{
									"maxclass" : "newobj",
									"text" : "bach.wrap",
									"patching_rect" : [ 367.0, 142.666687, 52.0, 17.0 ],
									"numinlets" : 1,
									"presentation" : 0,
									"id" : "obj-16",
									"fontname" : "Arial",
									"textcolor" : [ 0.101961, 0.121569, 0.172549, 1.0 ],
									"bgcolor" : [ 1.0, 1.0, 1.0, 1.0 ],
									"numoutlets" : 1,
									"background" : 0,
									"color" : [ 0.494118, 0.556863, 0.607843, 1.0 ],
									"outlettype" : [ "" ],
									"fontface" : 0,
									"fontsize" : 9.0,
									"ignoreclick" : 0,
									"presentation_rect" : [ 0.0, 0.0, 0.0, 0.0 ],
									"hidden" : 0
								}

							}
, 							{
								"box" : 								{
									"maxclass" : "newobj",
									"text" : "bach.iter @maxdepth 2",
									"patching_rect" : [ 319.0, 118.0, 115.0, 17.0 ],
									"numinlets" : 2,
									"presentation" : 0,
									"id" : "obj-9",
									"fontname" : "Arial",
									"textcolor" : [ 0.101961, 0.121569, 0.172549, 1.0 ],
									"bgcolor" : [ 1.0, 1.0, 1.0, 1.0 ],
									"numoutlets" : 3,
									"background" : 0,
									"color" : [ 0.494118, 0.556863, 0.607843, 1.0 ],
									"outlettype" : [ "", "", "int" ],
									"fontface" : 0,
									"fontsize" : 9.0,
									"ignoreclick" : 0,
									"presentation_rect" : [ 0.0, 0.0, 0.0, 0.0 ],
									"hidden" : 0
								}

							}
, 							{
								"box" : 								{
									"maxclass" : "newobj",
									"text" : "bach.collect",
									"patching_rect" : [ 279.0, 168.0, 194.0, 17.0 ],
									"numinlets" : 3,
									"presentation" : 0,
									"id" : "obj-4",
									"fontname" : "Arial",
									"textcolor" : [ 0.101961, 0.121569, 0.172549, 1.0 ],
									"bgcolor" : [ 1.0, 1.0, 1.0, 1.0 ],
									"numoutlets" : 1,
									"background" : 0,
									"color" : [ 0.494118, 0.556863, 0.607843, 1.0 ],
									"outlettype" : [ "" ],
									"fontface" : 0,
									"fontsize" : 9.0,
									"ignoreclick" : 0,
									"presentation_rect" : [ 0.0, 0.0, 0.0, 0.0 ],
									"hidden" : 0
								}

							}
, 							{
								"box" : 								{
									"maxclass" : "outlet",
									"patching_rect" : [ 279.0, 402.25, 19.0, 19.0 ],
									"numinlets" : 1,
									"presentation" : 0,
									"id" : "obj-2",
									"numoutlets" : 0,
									"background" : 0,
									"ignoreclick" : 0,
									"presentation_rect" : [ 0.0, 0.0, 0.0, 0.0 ],
									"hidden" : 0,
									"comment" : ""
								}

							}
, 							{
								"box" : 								{
									"maxclass" : "newobj",
									"text" : "t l b l clear",
									"patching_rect" : [ 50.0, 91.0, 422.5, 17.0 ],
									"numinlets" : 1,
									"presentation" : 0,
									"id" : "obj-1",
									"fontname" : "Arial",
									"textcolor" : [ 0.101961, 0.121569, 0.172549, 1.0 ],
									"bgcolor" : [ 1.0, 1.0, 1.0, 1.0 ],
									"numoutlets" : 4,
									"background" : 0,
									"color" : [ 0.494118, 0.556863, 0.607843, 1.0 ],
									"outlettype" : [ "", "bang", "", "clear" ],
									"fontface" : 0,
									"fontsize" : 9.0,
									"ignoreclick" : 0,
									"presentation_rect" : [ 0.0, 0.0, 0.0, 0.0 ],
									"hidden" : 0
								}

							}
, 							{
								"box" : 								{
									"maxclass" : "outlet",
									"patching_rect" : [ 326.0, 402.25, 19.0, 19.0 ],
									"numinlets" : 1,
									"presentation" : 0,
									"id" : "obj-14",
									"numoutlets" : 0,
									"background" : 0,
									"ignoreclick" : 0,
									"presentation_rect" : [ 0.0, 0.0, 0.0, 0.0 ],
									"hidden" : 0,
									"comment" : ""
								}

							}
, 							{
								"box" : 								{
									"maxclass" : "newobj",
									"text" : "+ 1",
									"patching_rect" : [ 73.0, 216.0, 32.0, 17.0 ],
									"numinlets" : 2,
									"presentation" : 0,
									"id" : "obj-11",
									"fontname" : "Arial",
									"textcolor" : [ 0.101961, 0.121569, 0.172549, 1.0 ],
									"bgcolor" : [ 1.0, 1.0, 1.0, 1.0 ],
									"numoutlets" : 1,
									"background" : 0,
									"color" : [ 0.494118, 0.556863, 0.607843, 1.0 ],
									"outlettype" : [ "int" ],
									"fontface" : 0,
									"fontsize" : 9.0,
									"ignoreclick" : 0,
									"presentation_rect" : [ 0.0, 0.0, 0.0, 0.0 ],
									"hidden" : 0
								}

							}
, 							{
								"box" : 								{
									"maxclass" : "newobj",
									"text" : "gate 2",
									"patching_rect" : [ 73.0, 241.0, 272.0, 17.0 ],
									"numinlets" : 2,
									"presentation" : 0,
									"id" : "obj-10",
									"fontname" : "Arial",
									"textcolor" : [ 0.101961, 0.121569, 0.172549, 1.0 ],
									"bgcolor" : [ 1.0, 1.0, 1.0, 1.0 ],
									"numoutlets" : 2,
									"background" : 0,
									"color" : [ 0.494118, 0.556863, 0.607843, 1.0 ],
									"outlettype" : [ "", "" ],
									"fontface" : 0,
									"fontsize" : 9.0,
									"ignoreclick" : 0,
									"presentation_rect" : [ 0.0, 0.0, 0.0, 0.0 ],
									"hidden" : 0
								}

							}
, 							{
								"box" : 								{
									"maxclass" : "newobj",
									"text" : "< 2",
									"patching_rect" : [ 73.0, 193.0, 32.0, 17.0 ],
									"numinlets" : 2,
									"presentation" : 0,
									"id" : "obj-12",
									"fontname" : "Arial",
									"textcolor" : [ 0.101961, 0.121569, 0.172549, 1.0 ],
									"bgcolor" : [ 1.0, 1.0, 1.0, 1.0 ],
									"numoutlets" : 1,
									"background" : 0,
									"color" : [ 0.494118, 0.556863, 0.607843, 1.0 ],
									"outlettype" : [ "int" ],
									"fontface" : 0,
									"fontsize" : 9.0,
									"ignoreclick" : 0,
									"presentation_rect" : [ 0.0, 0.0, 0.0, 0.0 ],
									"hidden" : 0
								}

							}
, 							{
								"box" : 								{
									"maxclass" : "newobj",
									"text" : "bach.depth",
									"patching_rect" : [ 73.0, 168.0, 55.0, 17.0 ],
									"numinlets" : 1,
									"presentation" : 0,
									"id" : "obj-8",
									"fontname" : "Arial",
									"textcolor" : [ 0.101961, 0.121569, 0.172549, 1.0 ],
									"bgcolor" : [ 1.0, 1.0, 1.0, 1.0 ],
									"numoutlets" : 1,
									"background" : 0,
									"color" : [ 0.494118, 0.556863, 0.607843, 1.0 ],
									"outlettype" : [ "int" ],
									"fontface" : 0,
									"fontsize" : 9.0,
									"ignoreclick" : 0,
									"presentation_rect" : [ 0.0, 0.0, 0.0, 0.0 ],
									"hidden" : 0
								}

							}
, 							{
								"box" : 								{
									"maxclass" : "newobj",
									"text" : "t l l",
									"patching_rect" : [ 50.0, 142.666687, 41.5, 17.0 ],
									"numinlets" : 1,
									"presentation" : 0,
									"id" : "obj-13",
									"fontname" : "Arial",
									"textcolor" : [ 0.101961, 0.121569, 0.172549, 1.0 ],
									"bgcolor" : [ 1.0, 1.0, 1.0, 1.0 ],
									"numoutlets" : 2,
									"background" : 0,
									"color" : [ 0.494118, 0.556863, 0.607843, 1.0 ],
									"outlettype" : [ "", "" ],
									"fontface" : 0,
									"fontsize" : 9.0,
									"ignoreclick" : 0,
									"presentation_rect" : [ 0.0, 0.0, 0.0, 0.0 ],
									"hidden" : 0
								}

							}
, 							{
								"box" : 								{
									"maxclass" : "inlet",
									"patching_rect" : [ 98.0, 9.0, 19.0, 19.0 ],
									"numinlets" : 0,
									"presentation" : 0,
									"id" : "obj-6",
									"numoutlets" : 1,
									"background" : 0,
									"outlettype" : [ "" ],
									"ignoreclick" : 0,
									"presentation_rect" : [ 0.0, 0.0, 0.0, 0.0 ],
									"hidden" : 0,
									"comment" : ""
								}

							}
, 							{
								"box" : 								{
									"maxclass" : "newobj",
									"text" : "bach.flat @maxlevel 1",
									"patching_rect" : [ 50.0, 118.0, 99.0, 17.0 ],
									"numinlets" : 1,
									"presentation" : 0,
									"id" : "obj-19",
									"fontname" : "Arial",
									"textcolor" : [ 0.101961, 0.121569, 0.172549, 1.0 ],
									"bgcolor" : [ 1.0, 1.0, 1.0, 1.0 ],
									"numoutlets" : 1,
									"background" : 0,
									"color" : [ 0.494118, 0.556863, 0.607843, 1.0 ],
									"outlettype" : [ "" ],
									"fontface" : 0,
									"fontsize" : 9.0,
									"ignoreclick" : 0,
									"presentation_rect" : [ 0.0, 0.0, 0.0, 0.0 ],
									"hidden" : 0
								}

							}
, 							{
								"box" : 								{
									"maxclass" : "message",
									"text" : "maxlevel $1",
									"gradient" : 0,
									"patching_rect" : [ 98.0, 67.0, 59.0, 15.0 ],
									"numinlets" : 2,
									"presentation" : 0,
									"id" : "obj-3",
									"fontname" : "Arial",
									"textcolor" : [ 0.101961, 0.121569, 0.172549, 1.0 ],
									"bgcolor" : [ 0.568627, 0.619608, 0.662745, 1.0 ],
									"numoutlets" : 1,
									"background" : 0,
									"bgcolor2" : [ 0.568627, 0.619608, 0.662745, 1.0 ],
									"outlettype" : [ "" ],
									"fontface" : 0,
									"fontsize" : 9.0,
									"ignoreclick" : 0,
									"presentation_rect" : [ 0.0, 0.0, 0.0, 0.0 ],
									"hidden" : 0
								}

							}
, 							{
								"box" : 								{
									"maxclass" : "newobj",
									"text" : "bach.wrap",
									"patching_rect" : [ 143.0, 293.0, 52.0, 17.0 ],
									"numinlets" : 1,
									"presentation" : 0,
									"id" : "obj-5",
									"fontname" : "Arial",
									"textcolor" : [ 0.101961, 0.121569, 0.172549, 1.0 ],
									"bgcolor" : [ 1.0, 1.0, 1.0, 1.0 ],
									"numoutlets" : 1,
									"background" : 0,
									"color" : [ 0.494118, 0.556863, 0.607843, 1.0 ],
									"outlettype" : [ "" ],
									"fontface" : 0,
									"fontsize" : 9.0,
									"ignoreclick" : 0,
									"presentation_rect" : [ 0.0, 0.0, 0.0, 0.0 ],
									"hidden" : 0
								}

							}
, 							{
								"box" : 								{
									"maxclass" : "newobj",
									"text" : "t i i",
									"patching_rect" : [ 73.0, 318.0, 152.5, 17.0 ],
									"numinlets" : 1,
									"presentation" : 0,
									"id" : "obj-40",
									"fontname" : "Arial",
									"textcolor" : [ 0.101961, 0.121569, 0.172549, 1.0 ],
									"bgcolor" : [ 1.0, 1.0, 1.0, 1.0 ],
									"numoutlets" : 2,
									"background" : 0,
									"color" : [ 0.494118, 0.556863, 0.607843, 1.0 ],
									"outlettype" : [ "int", "int" ],
									"fontface" : 0,
									"fontsize" : 9.0,
									"ignoreclick" : 0,
									"presentation_rect" : [ 0.0, 0.0, 0.0, 0.0 ],
									"hidden" : 0
								}

							}
, 							{
								"box" : 								{
									"maxclass" : "newobj",
									"text" : "bach.reg",
									"patching_rect" : [ 73.0, 371.0, 89.0, 17.0 ],
									"numinlets" : 2,
									"presentation" : 0,
									"id" : "obj-26",
									"fontname" : "Arial",
									"textcolor" : [ 0.101961, 0.121569, 0.172549, 1.0 ],
									"bgcolor" : [ 1.0, 1.0, 1.0, 1.0 ],
									"numoutlets" : 1,
									"background" : 0,
									"color" : [ 0.494118, 0.556863, 0.607843, 1.0 ],
									"outlettype" : [ "" ],
									"fontface" : 0,
									"fontsize" : 9.0,
									"ignoreclick" : 0,
									"presentation_rect" : [ 0.0, 0.0, 0.0, 0.0 ],
									"hidden" : 0,
									"saved_object_attributes" : 									{
										"embed" : 0
									}

								}

							}
, 							{
								"box" : 								{
									"maxclass" : "newobj",
									"text" : "uzi",
									"patching_rect" : [ 73.0, 343.0, 116.0, 17.0 ],
									"numinlets" : 2,
									"presentation" : 0,
									"id" : "obj-24",
									"fontname" : "Arial",
									"textcolor" : [ 0.101961, 0.121569, 0.172549, 1.0 ],
									"bgcolor" : [ 1.0, 1.0, 1.0, 1.0 ],
									"numoutlets" : 3,
									"background" : 0,
									"color" : [ 0.494118, 0.556863, 0.607843, 1.0 ],
									"outlettype" : [ "bang", "bang", "int" ],
									"fontface" : 0,
									"fontsize" : 9.0,
									"ignoreclick" : 0,
									"presentation_rect" : [ 0.0, 0.0, 0.0, 0.0 ],
									"hidden" : 0
								}

							}
, 							{
								"box" : 								{
									"maxclass" : "newobj",
									"text" : "bach.length",
									"patching_rect" : [ 73.0, 293.0, 57.0, 17.0 ],
									"numinlets" : 1,
									"presentation" : 0,
									"id" : "obj-7",
									"fontname" : "Arial",
									"textcolor" : [ 0.101961, 0.121569, 0.172549, 1.0 ],
									"bgcolor" : [ 1.0, 1.0, 1.0, 1.0 ],
									"numoutlets" : 1,
									"background" : 0,
									"color" : [ 0.494118, 0.556863, 0.607843, 1.0 ],
									"outlettype" : [ "int" ],
									"fontface" : 0,
									"fontsize" : 9.0,
									"ignoreclick" : 0,
									"presentation_rect" : [ 0.0, 0.0, 0.0, 0.0 ],
									"hidden" : 0
								}

							}
, 							{
								"box" : 								{
									"maxclass" : "newobj",
									"text" : "t l l",
									"patching_rect" : [ 73.0, 266.0, 89.0, 17.0 ],
									"numinlets" : 1,
									"presentation" : 0,
									"id" : "obj-22",
									"fontname" : "Arial",
									"textcolor" : [ 0.101961, 0.121569, 0.172549, 1.0 ],
									"bgcolor" : [ 1.0, 1.0, 1.0, 1.0 ],
									"numoutlets" : 2,
									"background" : 0,
									"color" : [ 0.494118, 0.556863, 0.607843, 1.0 ],
									"outlettype" : [ "", "" ],
									"fontface" : 0,
									"fontsize" : 9.0,
									"ignoreclick" : 0,
									"presentation_rect" : [ 0.0, 0.0, 0.0, 0.0 ],
									"hidden" : 0
								}

							}
, 							{
								"box" : 								{
									"maxclass" : "inlet",
									"patching_rect" : [ 50.0, 9.0, 19.0, 19.0 ],
									"numinlets" : 0,
									"presentation" : 0,
									"id" : "obj-46",
									"numoutlets" : 1,
									"background" : 0,
									"outlettype" : [ "" ],
									"ignoreclick" : 0,
									"presentation_rect" : [ 0.0, 0.0, 0.0, 0.0 ],
									"hidden" : 0,
									"comment" : ""
								}

							}
, 							{
								"box" : 								{
									"maxclass" : "outlet",
									"patching_rect" : [ 73.0, 402.25, 19.0, 19.0 ],
									"numinlets" : 1,
									"presentation" : 0,
									"id" : "obj-47",
									"numoutlets" : 0,
									"background" : 0,
									"ignoreclick" : 0,
									"presentation_rect" : [ 0.0, 0.0, 0.0, 0.0 ],
									"hidden" : 0,
									"comment" : ""
								}

							}
, 							{
								"box" : 								{
									"maxclass" : "outlet",
									"patching_rect" : [ 170.0, 402.25, 19.0, 19.0 ],
									"numinlets" : 1,
									"presentation" : 0,
									"id" : "obj-56",
									"numoutlets" : 0,
									"background" : 0,
									"ignoreclick" : 0,
									"presentation_rect" : [ 0.0, 0.0, 0.0, 0.0 ],
									"hidden" : 0,
									"comment" : ""
								}

							}
, 							{
								"box" : 								{
									"maxclass" : "outlet",
									"patching_rect" : [ 207.0, 402.25, 19.0, 19.0 ],
									"numinlets" : 1,
									"presentation" : 0,
									"id" : "obj-57",
									"numoutlets" : 0,
									"background" : 0,
									"ignoreclick" : 0,
									"presentation_rect" : [ 0.0, 0.0, 0.0, 0.0 ],
									"hidden" : 0,
									"comment" : ""
								}

							}
 ],
						"lines" : [ 							{
								"patchline" : 								{
									"source" : [ "obj-18", 0 ],
									"destination" : [ "obj-20", 0 ],
									"hidden" : 0,
									"color" : [ 0.101961, 0.121569, 0.172549, 1.0 ],
									"midpoints" : [  ]
								}

							}
, 							{
								"patchline" : 								{
									"source" : [ "obj-20", 0 ],
									"destination" : [ "obj-9", 0 ],
									"hidden" : 0,
									"color" : [ 0.101961, 0.121569, 0.172549, 1.0 ],
									"midpoints" : [  ]
								}

							}
, 							{
								"patchline" : 								{
									"source" : [ "obj-1", 2 ],
									"destination" : [ "obj-9", 0 ],
									"hidden" : 0,
									"color" : [ 0.101961, 0.121569, 0.172549, 1.0 ],
									"midpoints" : [  ]
								}

							}
, 							{
								"patchline" : 								{
									"source" : [ "obj-9", 1 ],
									"destination" : [ "obj-16", 0 ],
									"hidden" : 0,
									"color" : [ 0.101961, 0.121569, 0.172549, 1.0 ],
									"midpoints" : [  ]
								}

							}
, 							{
								"patchline" : 								{
									"source" : [ "obj-6", 0 ],
									"destination" : [ "obj-18", 0 ],
									"hidden" : 0,
									"color" : [ 0.239216, 0.643137, 0.709804, 1.0 ],
									"midpoints" : [ 107.5, 37.0, 362.5, 37.0 ]
								}

							}
, 							{
								"patchline" : 								{
									"source" : [ "obj-16", 0 ],
									"destination" : [ "obj-4", 1 ],
									"hidden" : 0,
									"color" : [ 0.101961, 0.121569, 0.172549, 1.0 ],
									"midpoints" : [  ]
								}

							}
, 							{
								"patchline" : 								{
									"source" : [ "obj-4", 0 ],
									"destination" : [ "obj-2", 0 ],
									"hidden" : 0,
									"color" : [ 0.101961, 0.121569, 0.172549, 1.0 ],
									"midpoints" : [  ]
								}

							}
, 							{
								"patchline" : 								{
									"source" : [ "obj-1", 1 ],
									"destination" : [ "obj-4", 0 ],
									"hidden" : 0,
									"color" : [ 0.047059, 0.913725, 0.913725, 1.0 ],
									"midpoints" : [  ]
								}

							}
, 							{
								"patchline" : 								{
									"source" : [ "obj-1", 3 ],
									"destination" : [ "obj-4", 2 ],
									"hidden" : 0,
									"color" : [ 0.101961, 0.121569, 0.172549, 1.0 ],
									"midpoints" : [  ]
								}

							}
, 							{
								"patchline" : 								{
									"source" : [ "obj-46", 0 ],
									"destination" : [ "obj-1", 0 ],
									"hidden" : 0,
									"color" : [ 0.101961, 0.121569, 0.172549, 1.0 ],
									"midpoints" : [  ]
								}

							}
, 							{
								"patchline" : 								{
									"source" : [ "obj-1", 0 ],
									"destination" : [ "obj-19", 0 ],
									"hidden" : 0,
									"color" : [ 0.101961, 0.121569, 0.172549, 1.0 ],
									"midpoints" : [  ]
								}

							}
, 							{
								"patchline" : 								{
									"source" : [ "obj-8", 0 ],
									"destination" : [ "obj-12", 0 ],
									"hidden" : 0,
									"color" : [ 0.101961, 0.121569, 0.172549, 1.0 ],
									"midpoints" : [  ]
								}

							}
, 							{
								"patchline" : 								{
									"source" : [ "obj-12", 0 ],
									"destination" : [ "obj-11", 0 ],
									"hidden" : 0,
									"color" : [ 0.101961, 0.121569, 0.172549, 1.0 ],
									"midpoints" : [  ]
								}

							}
, 							{
								"patchline" : 								{
									"source" : [ "obj-10", 1 ],
									"destination" : [ "obj-14", 0 ],
									"hidden" : 0,
									"color" : [ 0.101961, 0.121569, 0.172549, 1.0 ],
									"midpoints" : [  ]
								}

							}
, 							{
								"patchline" : 								{
									"source" : [ "obj-10", 0 ],
									"destination" : [ "obj-22", 0 ],
									"hidden" : 0,
									"color" : [ 0.101961, 0.121569, 0.172549, 1.0 ],
									"midpoints" : [  ]
								}

							}
, 							{
								"patchline" : 								{
									"source" : [ "obj-19", 0 ],
									"destination" : [ "obj-13", 0 ],
									"hidden" : 0,
									"color" : [ 0.101961, 0.121569, 0.172549, 1.0 ],
									"midpoints" : [  ]
								}

							}
, 							{
								"patchline" : 								{
									"source" : [ "obj-13", 1 ],
									"destination" : [ "obj-8", 0 ],
									"hidden" : 0,
									"color" : [ 0.101961, 0.121569, 0.172549, 1.0 ],
									"midpoints" : [  ]
								}

							}
, 							{
								"patchline" : 								{
									"source" : [ "obj-11", 0 ],
									"destination" : [ "obj-10", 0 ],
									"hidden" : 0,
									"color" : [ 0.101961, 0.121569, 0.172549, 1.0 ],
									"midpoints" : [  ]
								}

							}
, 							{
								"patchline" : 								{
									"source" : [ "obj-13", 0 ],
									"destination" : [ "obj-10", 1 ],
									"hidden" : 0,
									"color" : [ 0.756863, 0.329412, 0.843137, 1.0 ],
									"midpoints" : [  ]
								}

							}
, 							{
								"patchline" : 								{
									"source" : [ "obj-6", 0 ],
									"destination" : [ "obj-3", 0 ],
									"hidden" : 0,
									"color" : [ 0.239216, 0.643137, 0.709804, 1.0 ],
									"midpoints" : [  ]
								}

							}
, 							{
								"patchline" : 								{
									"source" : [ "obj-3", 0 ],
									"destination" : [ "obj-19", 0 ],
									"hidden" : 0,
									"color" : [ 0.101961, 0.121569, 0.172549, 1.0 ],
									"midpoints" : [  ]
								}

							}
, 							{
								"patchline" : 								{
									"source" : [ "obj-5", 0 ],
									"destination" : [ "obj-26", 1 ],
									"hidden" : 0,
									"color" : [ 0.101961, 0.121569, 0.172549, 1.0 ],
									"midpoints" : [  ]
								}

							}
, 							{
								"patchline" : 								{
									"source" : [ "obj-22", 1 ],
									"destination" : [ "obj-5", 0 ],
									"hidden" : 0,
									"color" : [ 0.101961, 0.121569, 0.172549, 1.0 ],
									"midpoints" : [  ]
								}

							}
, 							{
								"patchline" : 								{
									"source" : [ "obj-22", 0 ],
									"destination" : [ "obj-7", 0 ],
									"hidden" : 0,
									"color" : [ 0.101961, 0.121569, 0.172549, 1.0 ],
									"midpoints" : [  ]
								}

							}
, 							{
								"patchline" : 								{
									"source" : [ "obj-26", 0 ],
									"destination" : [ "obj-47", 0 ],
									"hidden" : 0,
									"color" : [ 0.101961, 0.121569, 0.172549, 1.0 ],
									"midpoints" : [  ]
								}

							}
, 							{
								"patchline" : 								{
									"source" : [ "obj-24", 0 ],
									"destination" : [ "obj-26", 0 ],
									"hidden" : 0,
									"color" : [ 0.101961, 0.121569, 0.172549, 1.0 ],
									"midpoints" : [  ]
								}

							}
, 							{
								"patchline" : 								{
									"source" : [ "obj-7", 0 ],
									"destination" : [ "obj-40", 0 ],
									"hidden" : 0,
									"color" : [ 0.101961, 0.121569, 0.172549, 1.0 ],
									"midpoints" : [  ]
								}

							}
, 							{
								"patchline" : 								{
									"source" : [ "obj-40", 0 ],
									"destination" : [ "obj-24", 0 ],
									"hidden" : 0,
									"color" : [ 0.101961, 0.121569, 0.172549, 1.0 ],
									"midpoints" : [  ]
								}

							}
, 							{
								"patchline" : 								{
									"source" : [ "obj-24", 2 ],
									"destination" : [ "obj-56", 0 ],
									"hidden" : 0,
									"color" : [ 0.101961, 0.121569, 0.172549, 1.0 ],
									"midpoints" : [  ]
								}

							}
, 							{
								"patchline" : 								{
									"source" : [ "obj-40", 1 ],
									"destination" : [ "obj-57", 0 ],
									"hidden" : 0,
									"color" : [ 0.101961, 0.121569, 0.172549, 1.0 ],
									"midpoints" : [  ]
								}

							}
 ]
					}
,
					"saved_object_attributes" : 					{
						"default_fontface" : 0,
						"fontname" : "Arial",
						"default_fontname" : "Arial",
						"globalpatchername" : "",
						"default_fontsize" : 9.0,
						"fontface" : 0,
						"fontsize" : 9.0
					}

				}

			}
, 			{
				"box" : 				{
					"maxclass" : "newobj",
					"text" : "t l l",
					"patching_rect" : [ 252.75, 204.0, 94.5, 17.0 ],
					"numinlets" : 1,
					"presentation" : 0,
					"id" : "obj-53",
					"fontname" : "Arial",
					"textcolor" : [ 0.101961, 0.121569, 0.172549, 1.0 ],
					"bgcolor" : [ 1.0, 1.0, 1.0, 1.0 ],
					"numoutlets" : 2,
					"background" : 0,
					"color" : [ 0.494118, 0.556863, 0.607843, 1.0 ],
					"outlettype" : [ "", "" ],
					"fontface" : 0,
					"fontsize" : 9.0,
					"ignoreclick" : 0,
					"presentation_rect" : [ 0.0, 0.0, 0.0, 0.0 ],
					"hidden" : 0
				}

			}
, 			{
				"box" : 				{
					"maxclass" : "newobj",
					"text" : "bach.expr $i1-1",
					"patching_rect" : [ 253.0, 429.0, 73.0, 17.0 ],
					"numinlets" : 1,
					"presentation" : 0,
					"id" : "obj-48",
					"fontname" : "Arial",
					"textcolor" : [ 0.101961, 0.121569, 0.172549, 1.0 ],
					"bgcolor" : [ 1.0, 1.0, 1.0, 1.0 ],
					"numoutlets" : 1,
					"background" : 0,
					"color" : [ 0.494118, 0.556863, 0.607843, 1.0 ],
					"outlettype" : [ "" ],
					"fontface" : 0,
					"fontsize" : 9.0,
					"ignoreclick" : 0,
					"presentation_rect" : [ 0.0, 0.0, 0.0, 0.0 ],
					"hidden" : 0
				}

			}
, 			{
				"box" : 				{
					"maxclass" : "newobj",
					"text" : "t l l",
					"patching_rect" : [ 253.0, 405.0, 137.5, 17.0 ],
					"numinlets" : 1,
					"presentation" : 0,
					"id" : "obj-45",
					"fontname" : "Arial",
					"textcolor" : [ 0.101961, 0.121569, 0.172549, 1.0 ],
					"bgcolor" : [ 1.0, 1.0, 1.0, 1.0 ],
					"numoutlets" : 2,
					"background" : 0,
					"color" : [ 0.494118, 0.556863, 0.607843, 1.0 ],
					"outlettype" : [ "", "" ],
					"fontface" : 0,
					"fontsize" : 9.0,
					"ignoreclick" : 0,
					"presentation_rect" : [ 0.0, 0.0, 0.0, 0.0 ],
					"hidden" : 0
				}

			}
, 			{
				"box" : 				{
					"maxclass" : "newobj",
					"text" : "t l null l",
					"patching_rect" : [ 205.0, 381.0, 181.0, 17.0 ],
					"numinlets" : 1,
					"presentation" : 0,
					"id" : "obj-43",
					"fontname" : "Arial",
					"textcolor" : [ 0.101961, 0.121569, 0.172549, 1.0 ],
					"bgcolor" : [ 1.0, 1.0, 1.0, 1.0 ],
					"numoutlets" : 3,
					"background" : 0,
					"color" : [ 0.494118, 0.556863, 0.607843, 1.0 ],
					"outlettype" : [ "", "null", "" ],
					"fontface" : 0,
					"fontsize" : 9.0,
					"ignoreclick" : 0,
					"presentation_rect" : [ 0.0, 0.0, 0.0, 0.0 ],
					"hidden" : 0
				}

			}
, 			{
				"box" : 				{
					"maxclass" : "newobj",
					"text" : "+ 1",
					"patching_rect" : [ 204.75, 333.5, 32.5, 17.0 ],
					"numinlets" : 2,
					"presentation" : 0,
					"id" : "obj-30",
					"fontname" : "Arial",
					"textcolor" : [ 0.101961, 0.121569, 0.172549, 1.0 ],
					"bgcolor" : [ 1.0, 1.0, 1.0, 1.0 ],
					"numoutlets" : 1,
					"background" : 0,
					"color" : [ 0.494118, 0.556863, 0.607843, 1.0 ],
					"outlettype" : [ "int" ],
					"fontface" : 0,
					"fontsize" : 9.0,
					"ignoreclick" : 0,
					"presentation_rect" : [ 0.0, 0.0, 0.0, 0.0 ],
					"hidden" : 0
				}

			}
, 			{
				"box" : 				{
					"maxclass" : "newobj",
					"text" : "gate 2",
					"patching_rect" : [ 205.0, 357.0, 67.0, 17.0 ],
					"numinlets" : 2,
					"presentation" : 0,
					"id" : "obj-31",
					"fontname" : "Arial",
					"textcolor" : [ 0.101961, 0.121569, 0.172549, 1.0 ],
					"bgcolor" : [ 1.0, 1.0, 1.0, 1.0 ],
					"numoutlets" : 2,
					"background" : 0,
					"color" : [ 0.494118, 0.556863, 0.607843, 1.0 ],
					"outlettype" : [ "", "" ],
					"fontface" : 0,
					"fontsize" : 9.0,
					"ignoreclick" : 0,
					"presentation_rect" : [ 0.0, 0.0, 0.0, 0.0 ],
					"hidden" : 0
				}

			}
, 			{
				"box" : 				{
					"maxclass" : "newobj",
					"text" : "!= 1",
					"patching_rect" : [ 345.75, 306.5, 32.5, 17.0 ],
					"numinlets" : 2,
					"presentation" : 0,
					"id" : "obj-32",
					"fontname" : "Arial",
					"textcolor" : [ 0.101961, 0.121569, 0.172549, 1.0 ],
					"bgcolor" : [ 1.0, 1.0, 1.0, 1.0 ],
					"numoutlets" : 1,
					"background" : 0,
					"color" : [ 0.494118, 0.556863, 0.607843, 1.0 ],
					"outlettype" : [ "int" ],
					"fontface" : 0,
					"fontsize" : 9.0,
					"ignoreclick" : 0,
					"presentation_rect" : [ 0.0, 0.0, 0.0, 0.0 ],
					"hidden" : 0
				}

			}
, 			{
				"box" : 				{
					"maxclass" : "newobj",
					"text" : "bach.is",
					"patching_rect" : [ 345.75, 283.5, 39.0, 17.0 ],
					"numinlets" : 1,
					"presentation" : 0,
					"id" : "obj-33",
					"fontname" : "Arial",
					"textcolor" : [ 0.101961, 0.121569, 0.172549, 1.0 ],
					"bgcolor" : [ 1.0, 1.0, 1.0, 1.0 ],
					"numoutlets" : 2,
					"background" : 0,
					"color" : [ 0.494118, 0.556863, 0.607843, 1.0 ],
					"outlettype" : [ "int", "" ],
					"fontface" : 0,
					"fontsize" : 9.0,
					"ignoreclick" : 0,
					"presentation_rect" : [ 0.0, 0.0, 0.0, 0.0 ],
					"hidden" : 0
				}

			}
, 			{
				"box" : 				{
					"maxclass" : "newobj",
					"text" : "bach.find 1",
					"patching_rect" : [ 327.75, 260.0, 55.0, 17.0 ],
					"numinlets" : 3,
					"presentation" : 0,
					"id" : "obj-21",
					"fontname" : "Arial",
					"textcolor" : [ 0.101961, 0.121569, 0.172549, 1.0 ],
					"bgcolor" : [ 1.0, 1.0, 1.0, 1.0 ],
					"numoutlets" : 3,
					"background" : 0,
					"color" : [ 0.494118, 0.556863, 0.607843, 1.0 ],
					"outlettype" : [ "", "", "" ],
					"fontface" : 0,
					"fontsize" : 9.0,
					"ignoreclick" : 0,
					"presentation_rect" : [ 0.0, 0.0, 0.0, 0.0 ],
					"hidden" : 0
				}

			}
, 			{
				"box" : 				{
					"maxclass" : "newobj",
					"text" : "bach.expr $i1==$i2 @scalarmode 1",
					"linecount" : 2,
					"patching_rect" : [ 327.75, 227.0, 95.0, 27.0 ],
					"numinlets" : 2,
					"presentation" : 0,
					"id" : "obj-20",
					"fontname" : "Arial",
					"textcolor" : [ 0.101961, 0.121569, 0.172549, 1.0 ],
					"bgcolor" : [ 1.0, 1.0, 1.0, 1.0 ],
					"numoutlets" : 1,
					"background" : 0,
					"color" : [ 0.494118, 0.556863, 0.607843, 1.0 ],
					"outlettype" : [ "" ],
					"fontface" : 0,
					"fontsize" : 9.0,
					"ignoreclick" : 0,
					"presentation_rect" : [ 0.0, 0.0, 0.0, 0.0 ],
					"hidden" : 0
				}

			}
, 			{
				"box" : 				{
					"maxclass" : "newobj",
					"text" : "bach.expr $i1+$i2",
					"patching_rect" : [ 252.75, 180.0, 82.0, 17.0 ],
					"numinlets" : 2,
					"presentation" : 0,
					"id" : "obj-9",
					"fontname" : "Arial",
					"textcolor" : [ 0.101961, 0.121569, 0.172549, 1.0 ],
					"bgcolor" : [ 1.0, 1.0, 1.0, 1.0 ],
					"numoutlets" : 1,
					"background" : 0,
					"color" : [ 0.494118, 0.556863, 0.607843, 1.0 ],
					"outlettype" : [ "" ],
					"fontface" : 0,
					"fontsize" : 9.0,
					"ignoreclick" : 0,
					"presentation_rect" : [ 0.0, 0.0, 0.0, 0.0 ],
					"hidden" : 0
				}

			}
, 			{
				"box" : 				{
					"maxclass" : "newobj",
					"text" : "p all_fake",
					"patching_rect" : [ 252.75, 154.0, 170.0, 17.0 ],
					"numinlets" : 2,
					"presentation" : 0,
					"id" : "obj-10",
					"fontname" : "Arial",
					"textcolor" : [ 0.101961, 0.121569, 0.172549, 1.0 ],
					"bgcolor" : [ 1.0, 1.0, 1.0, 1.0 ],
					"numoutlets" : 2,
					"background" : 0,
					"color" : [ 0.494118, 0.556863, 0.607843, 1.0 ],
					"outlettype" : [ "", "" ],
					"fontface" : 0,
					"fontsize" : 9.0,
					"ignoreclick" : 0,
					"presentation_rect" : [ 0.0, 0.0, 0.0, 0.0 ],
					"hidden" : 0,
					"patcher" : 					{
						"fileversion" : 1,
						"appversion" : 						{
							"major" : 5,
							"minor" : 1,
							"revision" : 9
						}
,
						"rect" : [ 667.0, 283.0, 710.0, 484.0 ],
						"bgcolor" : [ 0.666667, 0.698039, 0.717647, 1.0 ],
						"bglocked" : 0,
						"defrect" : [ 667.0, 283.0, 710.0, 484.0 ],
						"openrect" : [ 0.0, 0.0, 0.0, 0.0 ],
						"openinpresentation" : 0,
						"default_fontsize" : 9.0,
						"default_fontface" : 0,
						"default_fontname" : "Arial",
						"gridonopen" : 0,
						"gridsize" : [ 15.0, 15.0 ],
						"gridsnaponopen" : 0,
						"toolbarvisible" : 0,
						"boxanimatetime" : 200,
						"imprint" : 1,
						"enablehscroll" : 1,
						"enablevscroll" : 1,
						"devicewidth" : 0.0,
						"boxes" : [ 							{
								"box" : 								{
									"maxclass" : "newobj",
									"text" : "t b b l 0 clear",
									"patching_rect" : [ 57.0, 46.666687, 318.0, 17.0 ],
									"numinlets" : 1,
									"presentation" : 0,
									"id" : "obj-4",
									"fontname" : "Arial",
									"textcolor" : [ 0.101961, 0.121569, 0.172549, 1.0 ],
									"bgcolor" : [ 1.0, 1.0, 1.0, 1.0 ],
									"numoutlets" : 5,
									"background" : 0,
									"color" : [ 0.494118, 0.556863, 0.607843, 1.0 ],
									"outlettype" : [ "bang", "bang", "", "int", "clear" ],
									"fontface" : 0,
									"fontsize" : 9.0,
									"ignoreclick" : 0,
									"presentation_rect" : [ 0.0, 0.0, 0.0, 0.0 ],
									"hidden" : 0
								}

							}
, 							{
								"box" : 								{
									"maxclass" : "newobj",
									"text" : "bach.collect",
									"patching_rect" : [ 132.0, 414.666626, 494.0, 17.0 ],
									"numinlets" : 3,
									"presentation" : 0,
									"id" : "obj-3",
									"fontname" : "Arial",
									"textcolor" : [ 0.101961, 0.121569, 0.172549, 1.0 ],
									"bgcolor" : [ 1.0, 1.0, 1.0, 1.0 ],
									"numoutlets" : 1,
									"background" : 0,
									"color" : [ 0.494118, 0.556863, 0.607843, 1.0 ],
									"outlettype" : [ "" ],
									"fontface" : 0,
									"fontsize" : 9.0,
									"ignoreclick" : 0,
									"presentation_rect" : [ 0.0, 0.0, 0.0, 0.0 ],
									"hidden" : 0
								}

							}
, 							{
								"box" : 								{
									"maxclass" : "outlet",
									"patching_rect" : [ 132.0, 441.333313, 19.0, 19.0 ],
									"numinlets" : 1,
									"presentation" : 0,
									"id" : "obj-2",
									"numoutlets" : 0,
									"background" : 0,
									"ignoreclick" : 0,
									"presentation_rect" : [ 0.0, 0.0, 0.0, 0.0 ],
									"hidden" : 0,
									"comment" : ""
								}

							}
, 							{
								"box" : 								{
									"maxclass" : "newobj",
									"text" : "bach.reg",
									"patching_rect" : [ 57.0, 389.666626, 191.0, 17.0 ],
									"numinlets" : 2,
									"presentation" : 0,
									"id" : "obj-56",
									"fontname" : "Arial",
									"textcolor" : [ 0.101961, 0.121569, 0.172549, 1.0 ],
									"bgcolor" : [ 1.0, 1.0, 1.0, 1.0 ],
									"numoutlets" : 1,
									"background" : 0,
									"color" : [ 0.494118, 0.556863, 0.607843, 1.0 ],
									"outlettype" : [ "" ],
									"fontface" : 0,
									"fontsize" : 9.0,
									"ignoreclick" : 0,
									"presentation_rect" : [ 0.0, 0.0, 0.0, 0.0 ],
									"hidden" : 0,
									"saved_object_attributes" : 									{
										"embed" : 0
									}

								}

							}
, 							{
								"box" : 								{
									"maxclass" : "comment",
									"text" : "summation & test",
									"linecount" : 2,
									"frgb" : [ 0.101961, 0.121569, 0.172549, 1.0 ],
									"patching_rect" : [ 252.0, 274.0, 55.0, 27.0 ],
									"numinlets" : 1,
									"presentation" : 0,
									"id" : "obj-54",
									"fontname" : "Arial",
									"underline" : 0,
									"textcolor" : [ 0.101961, 0.121569, 0.172549, 1.0 ],
									"bgcolor" : [ 1.0, 1.0, 1.0, 0.0 ],
									"numoutlets" : 0,
									"background" : 0,
									"fontface" : 0,
									"fontsize" : 9.0,
									"ignoreclick" : 1,
									"presentation_rect" : [ 0.0, 0.0, 0.0, 0.0 ],
									"hidden" : 0
								}

							}
, 							{
								"box" : 								{
									"maxclass" : "newobj",
									"text" : "bach.reg",
									"patching_rect" : [ 349.0, 313.5, 46.0, 17.0 ],
									"numinlets" : 2,
									"presentation" : 0,
									"id" : "obj-47",
									"fontname" : "Arial",
									"textcolor" : [ 0.101961, 0.121569, 0.172549, 1.0 ],
									"bgcolor" : [ 1.0, 1.0, 1.0, 1.0 ],
									"numoutlets" : 1,
									"background" : 0,
									"color" : [ 0.494118, 0.556863, 0.607843, 1.0 ],
									"outlettype" : [ "" ],
									"fontface" : 0,
									"fontsize" : 9.0,
									"ignoreclick" : 0,
									"presentation_rect" : [ 0.0, 0.0, 0.0, 0.0 ],
									"hidden" : 0,
									"saved_object_attributes" : 									{
										"embed" : 0
									}

								}

							}
, 							{
								"box" : 								{
									"maxclass" : "inlet",
									"patching_rect" : [ 460.0, 17.0, 19.0, 19.0 ],
									"numinlets" : 0,
									"presentation" : 0,
									"id" : "obj-37",
									"numoutlets" : 1,
									"background" : 0,
									"outlettype" : [ "int" ],
									"ignoreclick" : 0,
									"presentation_rect" : [ 0.0, 0.0, 0.0, 0.0 ],
									"hidden" : 0,
									"comment" : ""
								}

							}
, 							{
								"box" : 								{
									"maxclass" : "newobj",
									"text" : "t l b b l",
									"patching_rect" : [ 229.0, 246.666626, 199.5, 17.0 ],
									"numinlets" : 1,
									"presentation" : 0,
									"id" : "obj-31",
									"fontname" : "Arial",
									"textcolor" : [ 0.101961, 0.121569, 0.172549, 1.0 ],
									"bgcolor" : [ 1.0, 1.0, 1.0, 1.0 ],
									"numoutlets" : 4,
									"background" : 0,
									"color" : [ 0.494118, 0.556863, 0.607843, 1.0 ],
									"outlettype" : [ "", "bang", "bang", "" ],
									"fontface" : 0,
									"fontsize" : 9.0,
									"ignoreclick" : 0,
									"presentation_rect" : [ 0.0, 0.0, 0.0, 0.0 ],
									"hidden" : 0
								}

							}
, 							{
								"box" : 								{
									"maxclass" : "newobj",
									"text" : "bach.expr ($i4>=($i1-$i2-1))+$i3",
									"patching_rect" : [ 229.0, 347.666626, 199.0, 17.0 ],
									"numinlets" : 4,
									"presentation" : 0,
									"id" : "obj-30",
									"fontname" : "Arial",
									"textcolor" : [ 0.101961, 0.121569, 0.172549, 1.0 ],
									"bgcolor" : [ 1.0, 1.0, 1.0, 1.0 ],
									"numoutlets" : 1,
									"background" : 0,
									"color" : [ 0.494118, 0.556863, 0.607843, 1.0 ],
									"outlettype" : [ "" ],
									"fontface" : 0,
									"fontsize" : 9.0,
									"ignoreclick" : 0,
									"presentation_rect" : [ 0.0, 0.0, 0.0, 0.0 ],
									"hidden" : 0
								}

							}
, 							{
								"box" : 								{
									"maxclass" : "newobj",
									"text" : "bach.reg",
									"patching_rect" : [ 288.75, 313.5, 46.0, 17.0 ],
									"numinlets" : 2,
									"presentation" : 0,
									"id" : "obj-26",
									"fontname" : "Arial",
									"textcolor" : [ 0.101961, 0.121569, 0.172549, 1.0 ],
									"bgcolor" : [ 1.0, 1.0, 1.0, 1.0 ],
									"numoutlets" : 1,
									"background" : 0,
									"color" : [ 0.494118, 0.556863, 0.607843, 1.0 ],
									"outlettype" : [ "" ],
									"fontface" : 0,
									"fontsize" : 9.0,
									"ignoreclick" : 0,
									"presentation_rect" : [ 0.0, 0.0, 0.0, 0.0 ],
									"hidden" : 0,
									"saved_object_attributes" : 									{
										"embed" : 0
									}

								}

							}
, 							{
								"box" : 								{
									"maxclass" : "newobj",
									"text" : "bach.expr $i1+1",
									"patching_rect" : [ 315.75, 283.666626, 75.0, 17.0 ],
									"numinlets" : 1,
									"presentation" : 0,
									"id" : "obj-24",
									"fontname" : "Arial",
									"textcolor" : [ 0.101961, 0.121569, 0.172549, 1.0 ],
									"bgcolor" : [ 1.0, 1.0, 1.0, 1.0 ],
									"numoutlets" : 1,
									"background" : 0,
									"color" : [ 0.494118, 0.556863, 0.607843, 1.0 ],
									"outlettype" : [ "" ],
									"fontface" : 0,
									"fontsize" : 9.0,
									"ignoreclick" : 0,
									"presentation_rect" : [ 0.0, 0.0, 0.0, 0.0 ],
									"hidden" : 0
								}

							}
, 							{
								"box" : 								{
									"maxclass" : "outlet",
									"patching_rect" : [ 57.0, 441.333313, 19.0, 19.0 ],
									"numinlets" : 1,
									"presentation" : 0,
									"id" : "obj-13",
									"numoutlets" : 0,
									"background" : 0,
									"ignoreclick" : 0,
									"presentation_rect" : [ 0.0, 0.0, 0.0, 0.0 ],
									"hidden" : 0,
									"comment" : ""
								}

							}
, 							{
								"box" : 								{
									"maxclass" : "newobj",
									"text" : "bach.slice 1",
									"patching_rect" : [ 190.0, 220.666656, 58.0, 17.0 ],
									"numinlets" : 1,
									"presentation" : 0,
									"id" : "obj-1",
									"fontname" : "Arial",
									"textcolor" : [ 0.101961, 0.121569, 0.172549, 1.0 ],
									"bgcolor" : [ 1.0, 1.0, 1.0, 1.0 ],
									"numoutlets" : 2,
									"background" : 0,
									"color" : [ 0.494118, 0.556863, 0.607843, 1.0 ],
									"outlettype" : [ "", "" ],
									"fontface" : 0,
									"fontsize" : 9.0,
									"ignoreclick" : 0,
									"presentation_rect" : [ 0.0, 0.0, 0.0, 0.0 ],
									"hidden" : 0
								}

							}
, 							{
								"box" : 								{
									"maxclass" : "newobj",
									"text" : "bach.reg",
									"patching_rect" : [ 190.0, 196.0, 130.0, 17.0 ],
									"numinlets" : 2,
									"presentation" : 0,
									"id" : "obj-5",
									"fontname" : "Arial",
									"textcolor" : [ 0.101961, 0.121569, 0.172549, 1.0 ],
									"bgcolor" : [ 1.0, 1.0, 1.0, 1.0 ],
									"numoutlets" : 1,
									"background" : 0,
									"color" : [ 0.494118, 0.556863, 0.607843, 1.0 ],
									"outlettype" : [ "" ],
									"fontface" : 0,
									"fontsize" : 9.0,
									"ignoreclick" : 0,
									"presentation_rect" : [ 0.0, 0.0, 0.0, 0.0 ],
									"hidden" : 0,
									"saved_object_attributes" : 									{
										"embed" : 0
									}

								}

							}
, 							{
								"box" : 								{
									"maxclass" : "newobj",
									"text" : "gate",
									"patching_rect" : [ 190.0, 170.666656, 36.0, 17.0 ],
									"numinlets" : 2,
									"presentation" : 0,
									"id" : "obj-88",
									"fontname" : "Arial",
									"textcolor" : [ 0.101961, 0.121569, 0.172549, 1.0 ],
									"bgcolor" : [ 1.0, 1.0, 1.0, 1.0 ],
									"numoutlets" : 1,
									"background" : 0,
									"color" : [ 0.494118, 0.556863, 0.607843, 1.0 ],
									"outlettype" : [ "" ],
									"fontface" : 0,
									"fontsize" : 9.0,
									"ignoreclick" : 0,
									"presentation_rect" : [ 0.0, 0.0, 0.0, 0.0 ],
									"hidden" : 0
								}

							}
, 							{
								"box" : 								{
									"maxclass" : "newobj",
									"text" : "> 1",
									"patching_rect" : [ 245.0, 145.666656, 32.5, 17.0 ],
									"numinlets" : 2,
									"presentation" : 0,
									"id" : "obj-48",
									"fontname" : "Arial",
									"textcolor" : [ 0.101961, 0.121569, 0.172549, 1.0 ],
									"bgcolor" : [ 1.0, 1.0, 1.0, 1.0 ],
									"numoutlets" : 1,
									"background" : 0,
									"color" : [ 0.494118, 0.556863, 0.607843, 1.0 ],
									"outlettype" : [ "int" ],
									"fontface" : 0,
									"fontsize" : 9.0,
									"ignoreclick" : 0,
									"presentation_rect" : [ 0.0, 0.0, 0.0, 0.0 ],
									"hidden" : 0
								}

							}
, 							{
								"box" : 								{
									"maxclass" : "newobj",
									"text" : "t b l",
									"patching_rect" : [ 207.0, 97.666656, 57.0, 17.0 ],
									"numinlets" : 1,
									"presentation" : 0,
									"id" : "obj-46",
									"fontname" : "Arial",
									"textcolor" : [ 0.101961, 0.121569, 0.172549, 1.0 ],
									"bgcolor" : [ 1.0, 1.0, 1.0, 1.0 ],
									"numoutlets" : 2,
									"background" : 0,
									"color" : [ 0.494118, 0.556863, 0.607843, 1.0 ],
									"outlettype" : [ "bang", "" ],
									"fontface" : 0,
									"fontsize" : 9.0,
									"ignoreclick" : 0,
									"presentation_rect" : [ 0.0, 0.0, 0.0, 0.0 ],
									"hidden" : 0
								}

							}
, 							{
								"box" : 								{
									"maxclass" : "newobj",
									"text" : "bach.depth",
									"patching_rect" : [ 245.0, 121.666656, 55.0, 17.0 ],
									"numinlets" : 1,
									"presentation" : 0,
									"id" : "obj-44",
									"fontname" : "Arial",
									"textcolor" : [ 0.101961, 0.121569, 0.172549, 1.0 ],
									"bgcolor" : [ 1.0, 1.0, 1.0, 1.0 ],
									"numoutlets" : 1,
									"background" : 0,
									"color" : [ 0.494118, 0.556863, 0.607843, 1.0 ],
									"outlettype" : [ "int" ],
									"fontface" : 0,
									"fontsize" : 9.0,
									"ignoreclick" : 0,
									"presentation_rect" : [ 0.0, 0.0, 0.0, 0.0 ],
									"hidden" : 0
								}

							}
, 							{
								"box" : 								{
									"maxclass" : "newobj",
									"text" : "bach.iter @maxdepth 2",
									"patching_rect" : [ 207.0, 73.666656, 207.0, 17.0 ],
									"numinlets" : 2,
									"presentation" : 0,
									"id" : "obj-25",
									"fontname" : "Arial",
									"textcolor" : [ 0.101961, 0.121569, 0.172549, 1.0 ],
									"bgcolor" : [ 1.0, 1.0, 1.0, 1.0 ],
									"numoutlets" : 3,
									"background" : 0,
									"color" : [ 0.494118, 0.556863, 0.607843, 1.0 ],
									"outlettype" : [ "", "", "int" ],
									"fontface" : 0,
									"fontsize" : 9.0,
									"ignoreclick" : 0,
									"presentation_rect" : [ 0.0, 0.0, 0.0, 0.0 ],
									"hidden" : 0
								}

							}
, 							{
								"box" : 								{
									"maxclass" : "inlet",
									"patching_rect" : [ 57.0, 17.0, 19.0, 19.0 ],
									"numinlets" : 0,
									"presentation" : 0,
									"id" : "obj-50",
									"numoutlets" : 1,
									"background" : 0,
									"outlettype" : [ "" ],
									"ignoreclick" : 0,
									"presentation_rect" : [ 0.0, 0.0, 0.0, 0.0 ],
									"hidden" : 0,
									"comment" : ""
								}

							}
 ],
						"lines" : [ 							{
								"patchline" : 								{
									"source" : [ "obj-31", 3 ],
									"destination" : [ "obj-3", 1 ],
									"hidden" : 0,
									"color" : [ 0.945098, 0.913725, 0.407843, 1.0 ],
									"midpoints" : [  ]
								}

							}
, 							{
								"patchline" : 								{
									"source" : [ "obj-26", 0 ],
									"destination" : [ "obj-24", 0 ],
									"hidden" : 0,
									"color" : [ 0.101961, 0.121569, 0.172549, 1.0 ],
									"midpoints" : [ 298.25, 339.5, 344.75, 339.5, 344.75, 277.5, 325.25, 277.5 ]
								}

							}
, 							{
								"patchline" : 								{
									"source" : [ "obj-24", 0 ],
									"destination" : [ "obj-26", 1 ],
									"hidden" : 0,
									"color" : [ 0.101961, 0.121569, 0.172549, 1.0 ],
									"midpoints" : [  ]
								}

							}
, 							{
								"patchline" : 								{
									"source" : [ "obj-31", 1 ],
									"destination" : [ "obj-26", 0 ],
									"hidden" : 0,
									"color" : [ 0.101961, 0.121569, 0.172549, 1.0 ],
									"midpoints" : [  ]
								}

							}
, 							{
								"patchline" : 								{
									"source" : [ "obj-26", 0 ],
									"destination" : [ "obj-30", 1 ],
									"hidden" : 0,
									"color" : [ 0.101961, 0.121569, 0.172549, 1.0 ],
									"midpoints" : [  ]
								}

							}
, 							{
								"patchline" : 								{
									"source" : [ "obj-4", 3 ],
									"destination" : [ "obj-26", 1 ],
									"hidden" : 0,
									"color" : [ 0.047059, 0.913725, 0.913725, 1.0 ],
									"midpoints" : [  ]
								}

							}
, 							{
								"patchline" : 								{
									"source" : [ "obj-50", 0 ],
									"destination" : [ "obj-4", 0 ],
									"hidden" : 0,
									"color" : [ 0.101961, 0.121569, 0.172549, 1.0 ],
									"midpoints" : [  ]
								}

							}
, 							{
								"patchline" : 								{
									"source" : [ "obj-25", 1 ],
									"destination" : [ "obj-5", 1 ],
									"hidden" : 0,
									"color" : [ 0.101961, 0.121569, 0.172549, 1.0 ],
									"midpoints" : [  ]
								}

							}
, 							{
								"patchline" : 								{
									"source" : [ "obj-25", 0 ],
									"destination" : [ "obj-46", 0 ],
									"hidden" : 0,
									"color" : [ 0.101961, 0.121569, 0.172549, 1.0 ],
									"midpoints" : [  ]
								}

							}
, 							{
								"patchline" : 								{
									"source" : [ "obj-4", 2 ],
									"destination" : [ "obj-25", 0 ],
									"hidden" : 0,
									"color" : [ 0.101961, 0.121569, 0.172549, 1.0 ],
									"midpoints" : [  ]
								}

							}
, 							{
								"patchline" : 								{
									"source" : [ "obj-4", 4 ],
									"destination" : [ "obj-3", 2 ],
									"hidden" : 0,
									"color" : [ 0.87451, 0.25098, 0.717647, 1.0 ],
									"midpoints" : [ 365.5, 69.666656, 616.5, 69.666656 ]
								}

							}
, 							{
								"patchline" : 								{
									"source" : [ "obj-4", 3 ],
									"destination" : [ "obj-47", 1 ],
									"hidden" : 0,
									"color" : [ 0.047059, 0.913725, 0.913725, 1.0 ],
									"midpoints" : [  ]
								}

							}
, 							{
								"patchline" : 								{
									"source" : [ "obj-4", 1 ],
									"destination" : [ "obj-3", 0 ],
									"hidden" : 0,
									"color" : [ 0.101961, 0.121569, 0.172549, 1.0 ],
									"midpoints" : [  ]
								}

							}
, 							{
								"patchline" : 								{
									"source" : [ "obj-4", 0 ],
									"destination" : [ "obj-56", 0 ],
									"hidden" : 0,
									"color" : [ 0.101961, 0.121569, 0.172549, 1.0 ],
									"midpoints" : [  ]
								}

							}
, 							{
								"patchline" : 								{
									"source" : [ "obj-30", 0 ],
									"destination" : [ "obj-56", 1 ],
									"hidden" : 0,
									"color" : [ 0.827451, 0.364706, 0.541176, 1.0 ],
									"midpoints" : [  ]
								}

							}
, 							{
								"patchline" : 								{
									"source" : [ "obj-30", 0 ],
									"destination" : [ "obj-47", 1 ],
									"hidden" : 0,
									"color" : [ 0.827451, 0.364706, 0.541176, 1.0 ],
									"midpoints" : [ 238.5, 379.0, 401.0, 379.0, 401.0, 307.0, 385.5, 307.0 ]
								}

							}
, 							{
								"patchline" : 								{
									"source" : [ "obj-47", 0 ],
									"destination" : [ "obj-30", 2 ],
									"hidden" : 0,
									"color" : [ 0.101961, 0.121569, 0.172549, 1.0 ],
									"midpoints" : [  ]
								}

							}
, 							{
								"patchline" : 								{
									"source" : [ "obj-37", 0 ],
									"destination" : [ "obj-30", 3 ],
									"hidden" : 0,
									"color" : [ 0.317647, 0.709804, 0.321569, 1.0 ],
									"midpoints" : [  ]
								}

							}
, 							{
								"patchline" : 								{
									"source" : [ "obj-56", 0 ],
									"destination" : [ "obj-13", 0 ],
									"hidden" : 0,
									"color" : [ 0.101961, 0.121569, 0.172549, 1.0 ],
									"midpoints" : [  ]
								}

							}
, 							{
								"patchline" : 								{
									"source" : [ "obj-5", 0 ],
									"destination" : [ "obj-1", 0 ],
									"hidden" : 0,
									"color" : [ 0.101961, 0.121569, 0.172549, 1.0 ],
									"midpoints" : [  ]
								}

							}
, 							{
								"patchline" : 								{
									"source" : [ "obj-88", 0 ],
									"destination" : [ "obj-5", 0 ],
									"hidden" : 0,
									"color" : [ 0.101961, 0.121569, 0.172549, 1.0 ],
									"midpoints" : [  ]
								}

							}
, 							{
								"patchline" : 								{
									"source" : [ "obj-46", 0 ],
									"destination" : [ "obj-88", 1 ],
									"hidden" : 0,
									"color" : [ 0.101961, 0.121569, 0.172549, 1.0 ],
									"midpoints" : [  ]
								}

							}
, 							{
								"patchline" : 								{
									"source" : [ "obj-46", 1 ],
									"destination" : [ "obj-44", 0 ],
									"hidden" : 0,
									"color" : [ 0.101961, 0.121569, 0.172549, 1.0 ],
									"midpoints" : [  ]
								}

							}
, 							{
								"patchline" : 								{
									"source" : [ "obj-44", 0 ],
									"destination" : [ "obj-48", 0 ],
									"hidden" : 0,
									"color" : [ 0.101961, 0.121569, 0.172549, 1.0 ],
									"midpoints" : [  ]
								}

							}
, 							{
								"patchline" : 								{
									"source" : [ "obj-48", 0 ],
									"destination" : [ "obj-88", 0 ],
									"hidden" : 0,
									"color" : [ 0.101961, 0.121569, 0.172549, 1.0 ],
									"midpoints" : [  ]
								}

							}
, 							{
								"patchline" : 								{
									"source" : [ "obj-3", 0 ],
									"destination" : [ "obj-2", 0 ],
									"hidden" : 0,
									"color" : [ 0.101961, 0.121569, 0.172549, 1.0 ],
									"midpoints" : [  ]
								}

							}
, 							{
								"patchline" : 								{
									"source" : [ "obj-31", 2 ],
									"destination" : [ "obj-47", 0 ],
									"hidden" : 0,
									"color" : [ 0.101961, 0.121569, 0.172549, 1.0 ],
									"midpoints" : [  ]
								}

							}
, 							{
								"patchline" : 								{
									"source" : [ "obj-1", 1 ],
									"destination" : [ "obj-31", 0 ],
									"hidden" : 0,
									"color" : [ 0.101961, 0.121569, 0.172549, 1.0 ],
									"midpoints" : [  ]
								}

							}
, 							{
								"patchline" : 								{
									"source" : [ "obj-31", 0 ],
									"destination" : [ "obj-30", 0 ],
									"hidden" : 0,
									"color" : [ 0.101961, 0.121569, 0.172549, 1.0 ],
									"midpoints" : [  ]
								}

							}
 ]
					}
,
					"saved_object_attributes" : 					{
						"default_fontface" : 0,
						"fontname" : "Arial",
						"default_fontname" : "Arial",
						"globalpatchername" : "",
						"default_fontsize" : 9.0,
						"fontface" : 0,
						"fontsize" : 9.0
					}

				}

			}
, 			{
				"box" : 				{
					"maxclass" : "inlet",
					"patching_rect" : [ 168.0, 66.0, 21.0, 21.0 ],
					"numinlets" : 0,
					"presentation" : 0,
					"id" : "obj-68",
					"numoutlets" : 1,
					"background" : 0,
					"outlettype" : [ "" ],
					"ignoreclick" : 0,
					"presentation_rect" : [ 0.0, 0.0, 0.0, 0.0 ],
					"hidden" : 0,
					"comment" : ""
				}

			}
, 			{
				"box" : 				{
					"maxclass" : "outlet",
					"patching_rect" : [ 154.0, 712.5, 21.0, 21.0 ],
					"numinlets" : 1,
					"presentation" : 0,
					"id" : "obj-69",
					"numoutlets" : 0,
					"background" : 0,
					"ignoreclick" : 0,
					"presentation_rect" : [ 0.0, 0.0, 0.0, 0.0 ],
					"hidden" : 0,
					"comment" : ""
				}

			}
, 			{
				"box" : 				{
					"maxclass" : "newobj",
					"text" : "bach.<= @out t",
					"patching_rect" : [ 154.0, 462.5, 329.0, 17.0 ],
					"numinlets" : 2,
					"presentation" : 0,
					"id" : "obj-42",
					"fontname" : "Arial",
					"textcolor" : [ 0.101961, 0.121569, 0.172549, 1.0 ],
					"bgcolor" : [ 1.0, 1.0, 1.0, 1.0 ],
					"numoutlets" : 1,
					"background" : 0,
					"color" : [ 0.494118, 0.556863, 0.607843, 1.0 ],
					"outlettype" : [ "int" ],
					"fontface" : 0,
					"fontsize" : 9.0,
					"ignoreclick" : 0,
					"presentation_rect" : [ 0.0, 0.0, 0.0, 0.0 ],
					"hidden" : 0
				}

			}
, 			{
				"box" : 				{
					"maxclass" : "newobj",
					"text" : "gate",
					"patching_rect" : [ 154.25, 487.666626, 32.5, 17.0 ],
					"numinlets" : 2,
					"presentation" : 0,
					"id" : "obj-41",
					"fontname" : "Arial",
					"textcolor" : [ 0.101961, 0.121569, 0.172549, 1.0 ],
					"bgcolor" : [ 1.0, 1.0, 1.0, 1.0 ],
					"numoutlets" : 1,
					"background" : 0,
					"color" : [ 0.494118, 0.556863, 0.607843, 1.0 ],
					"outlettype" : [ "" ],
					"fontface" : 0,
					"fontsize" : 9.0,
					"ignoreclick" : 0,
					"presentation_rect" : [ 0.0, 0.0, 0.0, 0.0 ],
					"hidden" : 0
				}

			}
, 			{
				"box" : 				{
					"maxclass" : "newobj",
					"text" : "gate",
					"patching_rect" : [ 346.0, 581.5, 32.5, 17.0 ],
					"numinlets" : 2,
					"presentation" : 0,
					"id" : "obj-52",
					"fontname" : "Arial",
					"textcolor" : [ 0.101961, 0.121569, 0.172549, 1.0 ],
					"bgcolor" : [ 1.0, 1.0, 1.0, 1.0 ],
					"numoutlets" : 1,
					"background" : 0,
					"color" : [ 0.494118, 0.556863, 0.607843, 1.0 ],
					"outlettype" : [ "" ],
					"fontface" : 0,
					"fontsize" : 9.0,
					"ignoreclick" : 0,
					"presentation_rect" : [ 0.0, 0.0, 0.0, 0.0 ],
					"hidden" : 0
				}

			}
, 			{
				"box" : 				{
					"maxclass" : "newobj",
					"text" : "t l l b",
					"patching_rect" : [ 154.25, 536.5, 429.5, 17.0 ],
					"numinlets" : 1,
					"presentation" : 0,
					"id" : "obj-50",
					"fontname" : "Arial",
					"textcolor" : [ 0.101961, 0.121569, 0.172549, 1.0 ],
					"bgcolor" : [ 1.0, 1.0, 1.0, 1.0 ],
					"numoutlets" : 3,
					"background" : 0,
					"color" : [ 0.494118, 0.556863, 0.607843, 1.0 ],
					"outlettype" : [ "", "", "bang" ],
					"fontface" : 0,
					"fontsize" : 9.0,
					"ignoreclick" : 0,
					"presentation_rect" : [ 0.0, 0.0, 0.0, 0.0 ],
					"hidden" : 0
				}

			}
, 			{
				"box" : 				{
					"maxclass" : "newobj",
					"text" : "bach.nth",
					"patching_rect" : [ 346.0, 606.5, 45.0, 17.0 ],
					"numinlets" : 2,
					"presentation" : 0,
					"id" : "obj-49",
					"fontname" : "Arial",
					"textcolor" : [ 0.101961, 0.121569, 0.172549, 1.0 ],
					"bgcolor" : [ 1.0, 1.0, 1.0, 1.0 ],
					"numoutlets" : 1,
					"background" : 0,
					"color" : [ 0.494118, 0.556863, 0.607843, 1.0 ],
					"outlettype" : [ "" ],
					"fontface" : 0,
					"fontsize" : 9.0,
					"ignoreclick" : 0,
					"presentation_rect" : [ 0.0, 0.0, 0.0, 0.0 ],
					"hidden" : 0
				}

			}
, 			{
				"box" : 				{
					"maxclass" : "newobj",
					"text" : "bach.append",
					"patching_rect" : [ 154.25, 634.5, 151.0, 17.0 ],
					"numinlets" : 2,
					"presentation" : 0,
					"id" : "obj-44",
					"fontname" : "Arial",
					"textcolor" : [ 0.101961, 0.121569, 0.172549, 1.0 ],
					"bgcolor" : [ 1.0, 1.0, 1.0, 1.0 ],
					"numoutlets" : 1,
					"background" : 0,
					"color" : [ 0.494118, 0.556863, 0.607843, 1.0 ],
					"outlettype" : [ "" ],
					"fontface" : 0,
					"fontsize" : 9.0,
					"ignoreclick" : 0,
					"presentation_rect" : [ 0.0, 0.0, 0.0, 0.0 ],
					"hidden" : 0
				}

			}
, 			{
				"box" : 				{
					"maxclass" : "newobj",
					"text" : "bach.flat @maxlevel 1",
					"patching_rect" : [ 154.25, 511.5, 99.0, 17.0 ],
					"numinlets" : 1,
					"presentation" : 0,
					"id" : "obj-76",
					"fontname" : "Arial",
					"textcolor" : [ 0.101961, 0.121569, 0.172549, 1.0 ],
					"bgcolor" : [ 1.0, 1.0, 1.0, 1.0 ],
					"numoutlets" : 1,
					"background" : 0,
					"color" : [ 0.494118, 0.556863, 0.607843, 1.0 ],
					"outlettype" : [ "" ],
					"fontface" : 0,
					"fontsize" : 9.0,
					"ignoreclick" : 0,
					"presentation_rect" : [ 0.0, 0.0, 0.0, 0.0 ],
					"hidden" : 0
				}

			}
, 			{
				"box" : 				{
					"maxclass" : "newobj",
					"text" : "bach.nth",
					"patching_rect" : [ 154.25, 606.5, 45.0, 17.0 ],
					"numinlets" : 2,
					"presentation" : 0,
					"id" : "obj-86",
					"fontname" : "Arial",
					"textcolor" : [ 0.101961, 0.121569, 0.172549, 1.0 ],
					"bgcolor" : [ 1.0, 1.0, 1.0, 1.0 ],
					"numoutlets" : 1,
					"background" : 0,
					"color" : [ 0.494118, 0.556863, 0.607843, 1.0 ],
					"outlettype" : [ "" ],
					"fontface" : 0,
					"fontsize" : 9.0,
					"ignoreclick" : 0,
					"presentation_rect" : [ 0.0, 0.0, 0.0, 0.0 ],
					"hidden" : 0
				}

			}
 ],
		"lines" : [ 			{
				"patchline" : 				{
					"source" : [ "obj-7", 1 ],
					"destination" : [ "obj-6", 0 ],
					"hidden" : 0,
					"color" : [ 0.960784, 0.439216, 0.478431, 1.0 ],
					"midpoints" : [ 782.75, 600.25, 574.5, 600.25 ]
				}

			}
, 			{
				"patchline" : 				{
					"source" : [ "obj-53", 0 ],
					"destination" : [ "obj-31", 1 ],
					"hidden" : 0,
					"color" : [ 0.101961, 0.121569, 0.172549, 1.0 ],
					"midpoints" : [  ]
				}

			}
, 			{
				"patchline" : 				{
					"source" : [ "obj-53", 1 ],
					"destination" : [ "obj-20", 0 ],
					"hidden" : 0,
					"color" : [ 0.101961, 0.121569, 0.172549, 1.0 ],
					"midpoints" : [  ]
				}

			}
, 			{
				"patchline" : 				{
					"source" : [ "obj-9", 0 ],
					"destination" : [ "obj-53", 0 ],
					"hidden" : 0,
					"color" : [ 0.101961, 0.121569, 0.172549, 1.0 ],
					"midpoints" : [  ]
				}

			}
, 			{
				"patchline" : 				{
					"source" : [ "obj-43", 2 ],
					"destination" : [ "obj-16", 1 ],
					"hidden" : 0,
					"color" : [ 0.101961, 0.121569, 0.172549, 1.0 ],
					"midpoints" : [  ]
				}

			}
, 			{
				"patchline" : 				{
					"source" : [ "obj-31", 0 ],
					"destination" : [ "obj-43", 0 ],
					"hidden" : 0,
					"color" : [ 0.101961, 0.121569, 0.172549, 1.0 ],
					"midpoints" : [  ]
				}

			}
, 			{
				"patchline" : 				{
					"source" : [ "obj-43", 0 ],
					"destination" : [ "obj-86", 1 ],
					"hidden" : 0,
					"color" : [ 0.545098, 0.85098, 0.592157, 1.0 ],
					"midpoints" : [  ]
				}

			}
, 			{
				"patchline" : 				{
					"source" : [ "obj-43", 0 ],
					"destination" : [ "obj-42", 0 ],
					"hidden" : 0,
					"color" : [ 0.545098, 0.85098, 0.592157, 1.0 ],
					"midpoints" : [  ]
				}

			}
, 			{
				"patchline" : 				{
					"source" : [ "obj-43", 1 ],
					"destination" : [ "obj-44", 1 ],
					"hidden" : 0,
					"color" : [ 0.047059, 0.913725, 0.913725, 1.0 ],
					"midpoints" : [  ]
				}

			}
, 			{
				"patchline" : 				{
					"source" : [ "obj-43", 0 ],
					"destination" : [ "obj-5", 1 ],
					"hidden" : 0,
					"color" : [ 0.545098, 0.85098, 0.592157, 1.0 ],
					"midpoints" : [  ]
				}

			}
, 			{
				"patchline" : 				{
					"source" : [ "obj-50", 2 ],
					"destination" : [ "obj-16", 0 ],
					"hidden" : 0,
					"color" : [ 0.101961, 0.121569, 0.172549, 1.0 ],
					"midpoints" : [  ]
				}

			}
, 			{
				"patchline" : 				{
					"source" : [ "obj-50", 1 ],
					"destination" : [ "obj-52", 1 ],
					"hidden" : 0,
					"color" : [ 0.101961, 0.121569, 0.172549, 1.0 ],
					"midpoints" : [  ]
				}

			}
, 			{
				"patchline" : 				{
					"source" : [ "obj-50", 0 ],
					"destination" : [ "obj-86", 0 ],
					"hidden" : 0,
					"color" : [ 0.101961, 0.121569, 0.172549, 1.0 ],
					"midpoints" : [  ]
				}

			}
, 			{
				"patchline" : 				{
					"source" : [ "obj-76", 0 ],
					"destination" : [ "obj-50", 0 ],
					"hidden" : 0,
					"color" : [ 0.101961, 0.121569, 0.172549, 1.0 ],
					"midpoints" : [  ]
				}

			}
, 			{
				"patchline" : 				{
					"source" : [ "obj-41", 0 ],
					"destination" : [ "obj-76", 0 ],
					"hidden" : 0,
					"color" : [ 0.101961, 0.121569, 0.172549, 1.0 ],
					"midpoints" : [  ]
				}

			}
, 			{
				"patchline" : 				{
					"source" : [ "obj-48", 0 ],
					"destination" : [ "obj-16", 1 ],
					"hidden" : 0,
					"color" : [ 0.960784, 0.439216, 0.478431, 1.0 ],
					"midpoints" : [  ]
				}

			}
, 			{
				"patchline" : 				{
					"source" : [ "obj-16", 0 ],
					"destination" : [ "obj-6", 0 ],
					"hidden" : 0,
					"color" : [ 0.101961, 0.121569, 0.172549, 1.0 ],
					"midpoints" : [  ]
				}

			}
, 			{
				"patchline" : 				{
					"source" : [ "obj-12", 0 ],
					"destination" : [ "obj-5", 2 ],
					"hidden" : 0,
					"color" : [ 0.101961, 0.121569, 0.172549, 1.0 ],
					"midpoints" : [  ]
				}

			}
, 			{
				"patchline" : 				{
					"source" : [ "obj-6", 0 ],
					"destination" : [ "obj-12", 0 ],
					"hidden" : 0,
					"color" : [ 0.101961, 0.121569, 0.172549, 1.0 ],
					"midpoints" : [  ]
				}

			}
, 			{
				"patchline" : 				{
					"source" : [ "obj-5", 2 ],
					"destination" : [ "obj-11", 0 ],
					"hidden" : 0,
					"color" : [ 0.101961, 0.121569, 0.172549, 1.0 ],
					"midpoints" : [  ]
				}

			}
, 			{
				"patchline" : 				{
					"source" : [ "obj-48", 0 ],
					"destination" : [ "obj-5", 1 ],
					"hidden" : 0,
					"color" : [ 0.960784, 0.439216, 0.478431, 1.0 ],
					"midpoints" : [  ]
				}

			}
, 			{
				"patchline" : 				{
					"source" : [ "obj-5", 1 ],
					"destination" : [ "obj-2", 0 ],
					"hidden" : 0,
					"color" : [ 0.101961, 0.121569, 0.172549, 1.0 ],
					"midpoints" : [  ]
				}

			}
, 			{
				"patchline" : 				{
					"source" : [ "obj-5", 0 ],
					"destination" : [ "obj-69", 0 ],
					"hidden" : 0,
					"color" : [ 0.101961, 0.121569, 0.172549, 1.0 ],
					"midpoints" : [  ]
				}

			}
, 			{
				"patchline" : 				{
					"source" : [ "obj-7", 0 ],
					"destination" : [ "obj-5", 0 ],
					"hidden" : 0,
					"color" : [ 0.945098, 0.913725, 0.407843, 1.0 ],
					"midpoints" : [ 769.25, 671.0, 163.75, 671.0 ]
				}

			}
, 			{
				"patchline" : 				{
					"source" : [ "obj-44", 0 ],
					"destination" : [ "obj-5", 0 ],
					"hidden" : 0,
					"color" : [ 0.945098, 0.913725, 0.407843, 1.0 ],
					"midpoints" : [  ]
				}

			}
, 			{
				"patchline" : 				{
					"source" : [ "obj-1", 0 ],
					"destination" : [ "obj-5", 0 ],
					"hidden" : 0,
					"color" : [ 0.047059, 0.913725, 0.913725, 1.0 ],
					"midpoints" : [  ]
				}

			}
, 			{
				"patchline" : 				{
					"source" : [ "obj-58", 3 ],
					"destination" : [ "obj-6", 1 ],
					"hidden" : 0,
					"color" : [ 0.101961, 0.121569, 0.172549, 1.0 ],
					"midpoints" : [  ]
				}

			}
, 			{
				"patchline" : 				{
					"source" : [ "obj-3", 0 ],
					"destination" : [ "obj-58", 1 ],
					"hidden" : 0,
					"color" : [ 0.101961, 0.121569, 0.172549, 1.0 ],
					"midpoints" : [  ]
				}

			}
, 			{
				"patchline" : 				{
					"source" : [ "obj-45", 1 ],
					"destination" : [ "obj-49", 1 ],
					"hidden" : 0,
					"color" : [ 0.101961, 0.121569, 0.172549, 1.0 ],
					"midpoints" : [  ]
				}

			}
, 			{
				"patchline" : 				{
					"source" : [ "obj-32", 0 ],
					"destination" : [ "obj-52", 0 ],
					"hidden" : 0,
					"color" : [ 0.278431, 0.921569, 0.639216, 1.0 ],
					"midpoints" : [  ]
				}

			}
, 			{
				"patchline" : 				{
					"source" : [ "obj-58", 2 ],
					"destination" : [ "obj-42", 1 ],
					"hidden" : 0,
					"color" : [ 0.101961, 0.121569, 0.172549, 1.0 ],
					"midpoints" : [  ]
				}

			}
, 			{
				"patchline" : 				{
					"source" : [ "obj-54", 0 ],
					"destination" : [ "obj-41", 1 ],
					"hidden" : 0,
					"color" : [ 0.101961, 0.121569, 0.172549, 1.0 ],
					"midpoints" : [  ]
				}

			}
, 			{
				"patchline" : 				{
					"source" : [ "obj-48", 0 ],
					"destination" : [ "obj-42", 0 ],
					"hidden" : 0,
					"color" : [ 0.960784, 0.439216, 0.478431, 1.0 ],
					"midpoints" : [  ]
				}

			}
, 			{
				"patchline" : 				{
					"source" : [ "obj-48", 0 ],
					"destination" : [ "obj-86", 1 ],
					"hidden" : 0,
					"color" : [ 0.960784, 0.439216, 0.478431, 1.0 ],
					"midpoints" : [  ]
				}

			}
, 			{
				"patchline" : 				{
					"source" : [ "obj-42", 0 ],
					"destination" : [ "obj-41", 0 ],
					"hidden" : 0,
					"color" : [ 0.101961, 0.121569, 0.172549, 1.0 ],
					"midpoints" : [  ]
				}

			}
, 			{
				"patchline" : 				{
					"source" : [ "obj-86", 0 ],
					"destination" : [ "obj-44", 0 ],
					"hidden" : 0,
					"color" : [ 0.101961, 0.121569, 0.172549, 1.0 ],
					"midpoints" : [  ]
				}

			}
, 			{
				"patchline" : 				{
					"source" : [ "obj-49", 0 ],
					"destination" : [ "obj-44", 1 ],
					"hidden" : 0,
					"color" : [ 0.047059, 0.913725, 0.913725, 1.0 ],
					"midpoints" : [  ]
				}

			}
, 			{
				"patchline" : 				{
					"source" : [ "obj-52", 0 ],
					"destination" : [ "obj-49", 0 ],
					"hidden" : 0,
					"color" : [ 0.101961, 0.121569, 0.172549, 1.0 ],
					"midpoints" : [  ]
				}

			}
, 			{
				"patchline" : 				{
					"source" : [ "obj-68", 0 ],
					"destination" : [ "obj-58", 0 ],
					"hidden" : 0,
					"color" : [ 0.101961, 0.121569, 0.172549, 1.0 ],
					"midpoints" : [  ]
				}

			}
, 			{
				"patchline" : 				{
					"source" : [ "obj-54", 1 ],
					"destination" : [ "obj-10", 0 ],
					"hidden" : 0,
					"color" : [ 0.101961, 0.121569, 0.172549, 1.0 ],
					"midpoints" : [  ]
				}

			}
, 			{
				"patchline" : 				{
					"source" : [ "obj-58", 0 ],
					"destination" : [ "obj-54", 0 ],
					"hidden" : 0,
					"color" : [ 0.101961, 0.121569, 0.172549, 1.0 ],
					"midpoints" : [  ]
				}

			}
, 			{
				"patchline" : 				{
					"source" : [ "obj-58", 1 ],
					"destination" : [ "obj-9", 1 ],
					"hidden" : 0,
					"color" : [ 0.87451, 0.25098, 0.717647, 1.0 ],
					"midpoints" : [  ]
				}

			}
, 			{
				"patchline" : 				{
					"source" : [ "obj-58", 1 ],
					"destination" : [ "obj-10", 1 ],
					"hidden" : 0,
					"color" : [ 0.87451, 0.25098, 0.717647, 1.0 ],
					"midpoints" : [  ]
				}

			}
, 			{
				"patchline" : 				{
					"source" : [ "obj-20", 0 ],
					"destination" : [ "obj-21", 0 ],
					"hidden" : 0,
					"color" : [ 0.101961, 0.121569, 0.172549, 1.0 ],
					"midpoints" : [  ]
				}

			}
, 			{
				"patchline" : 				{
					"source" : [ "obj-30", 0 ],
					"destination" : [ "obj-31", 0 ],
					"hidden" : 0,
					"color" : [ 0.101961, 0.121569, 0.172549, 1.0 ],
					"midpoints" : [  ]
				}

			}
, 			{
				"patchline" : 				{
					"source" : [ "obj-21", 1 ],
					"destination" : [ "obj-33", 0 ],
					"hidden" : 0,
					"color" : [ 0.101961, 0.121569, 0.172549, 1.0 ],
					"midpoints" : [  ]
				}

			}
, 			{
				"patchline" : 				{
					"source" : [ "obj-32", 0 ],
					"destination" : [ "obj-30", 0 ],
					"hidden" : 0,
					"color" : [ 0.278431, 0.921569, 0.639216, 1.0 ],
					"midpoints" : [  ]
				}

			}
, 			{
				"patchline" : 				{
					"source" : [ "obj-33", 0 ],
					"destination" : [ "obj-32", 0 ],
					"hidden" : 0,
					"color" : [ 0.101961, 0.121569, 0.172549, 1.0 ],
					"midpoints" : [  ]
				}

			}
, 			{
				"patchline" : 				{
					"source" : [ "obj-31", 1 ],
					"destination" : [ "obj-45", 0 ],
					"hidden" : 0,
					"color" : [ 0.101961, 0.121569, 0.172549, 1.0 ],
					"midpoints" : [  ]
				}

			}
, 			{
				"patchline" : 				{
					"source" : [ "obj-45", 0 ],
					"destination" : [ "obj-48", 0 ],
					"hidden" : 0,
					"color" : [ 0.101961, 0.121569, 0.172549, 1.0 ],
					"midpoints" : [  ]
				}

			}
, 			{
				"patchline" : 				{
					"source" : [ "obj-10", 1 ],
					"destination" : [ "obj-20", 1 ],
					"hidden" : 0,
					"color" : [ 0.101961, 0.121569, 0.172549, 1.0 ],
					"midpoints" : [  ]
				}

			}
, 			{
				"patchline" : 				{
					"source" : [ "obj-10", 0 ],
					"destination" : [ "obj-9", 0 ],
					"hidden" : 0,
					"color" : [ 0.101961, 0.121569, 0.172549, 1.0 ],
					"midpoints" : [  ]
				}

			}
, 			{
				"patchline" : 				{
					"source" : [ "obj-1", 1 ],
					"destination" : [ "obj-58", 1 ],
					"hidden" : 0,
					"color" : [ 0.047059, 0.913725, 0.913725, 1.0 ],
					"midpoints" : [  ]
				}

			}
, 			{
				"patchline" : 				{
					"source" : [ "obj-58", 4 ],
					"destination" : [ "obj-7", 0 ],
					"hidden" : 0,
					"color" : [ 0.101961, 0.121569, 0.172549, 1.0 ],
					"midpoints" : [  ]
				}

			}
, 			{
				"patchline" : 				{
					"source" : [ "obj-23", 1 ],
					"destination" : [ "obj-1", 0 ],
					"hidden" : 0,
					"color" : [ 0.101961, 0.121569, 0.172549, 1.0 ],
					"midpoints" : [  ]
				}

			}
 ]
	}

}
